<svg width="391" height="828" viewBox="0 0 391 828" fill="none" xmlns="http://www.w3.org/2000/svg">
<g clip-path="url(#clip0_1023_1412)">
<rect x="8" y="8" width="375" height="812" rx="32" fill="#F2F2F2"/>
<rect width="375" height="2428" transform="translate(8 108)" fill="#F2F2F2"/>
<rect x="24" y="124" width="343" height="441" rx="12" fill="white"/>
<rect x="40" y="140" width="311" height="182" rx="10" fill="#E1F2FF"/>
<mask id="mask0_1023_1412" style="mask-type:alpha" maskUnits="userSpaceOnUse" x="167" y="168" width="57" height="56">
<circle cx="195.5" cy="196" r="28" fill="#D9D9D9"/>
</mask>
<g mask="url(#mask0_1023_1412)">
<path fill-rule="evenodd" clip-rule="evenodd" d="M153.102 266.981C130.499 242.976 121.108 207.942 133.798 177.13C155.686 123.977 198.225 144.275 225.54 177.13C238.637 192.881 253.519 196.439 266.655 199.579C280.919 202.988 293.122 205.906 298.744 223.407C303.479 238.149 301.173 253.919 291.694 266.982L153.102 266.981Z" fill="white"/>
<path fill-rule="evenodd" clip-rule="evenodd" d="M237.762 187.945L223.923 187.945L228.44 182.565C223.12 176.271 223.743 166.894 229.85 161.361C232.751 158.736 236.596 157.406 240.499 157.677C244.402 157.949 248.026 159.798 250.536 162.799C255.859 169.102 255.222 178.491 249.098 184.018C245.962 186.731 241.904 188.136 237.762 187.945Z" fill="#DAE9FD" stroke="#DAE9FD" stroke-width="1.59068" stroke-linejoin="round"/>
<path d="M154.864 226.969L149.384 227.493L155.037 215.069L151.174 215.445L157.743 202.28L164.311 215.445L160.448 215.069L166.101 227.493L160.625 226.969L168.506 241.671L157.743 239.584L146.982 241.671L154.864 226.969Z" fill="#D5E9DA" stroke="#D5E9DA" stroke-width="1.59068" stroke-miterlimit="10" stroke-linecap="round" stroke-linejoin="round"/>
<path d="M175.104 215.525V250.822" stroke="#D5E9DA" stroke-width="1.59068" stroke-miterlimit="10" stroke-linecap="round" stroke-linejoin="round"/>
<path d="M172.807 231.099L168.445 231.342L172.344 222.046L169.87 221.739L175.103 211.246L180.341 221.739L177.01 222.046L181.766 231.342L177.4 231.099L183.679 242.641L175.103 241.154L166.528 242.641L172.807 231.099Z" fill="#D5E9DA" stroke="#D5E9DA" stroke-width="1.59068" stroke-miterlimit="10" stroke-linecap="round" stroke-linejoin="round"/>
<path d="M199.361 160.157C197.26 160.157 195.427 161.3 194.445 162.997C193.979 162.738 193.443 162.591 192.873 162.591C191.081 162.591 189.629 164.043 189.629 165.835H189.222C187.207 165.835 185.573 167.469 185.573 169.484C185.573 171.5 187.207 173.135 189.222 173.135H204.633C206.649 173.135 208.283 171.5 208.283 169.484C208.283 167.606 206.863 166.059 205.039 165.857C205.039 165.85 205.039 165.842 205.039 165.835C205.039 162.699 202.497 160.157 199.361 160.157Z" fill="#F2F9FF"/>
<path d="M204.001 235.294C204.001 235.294 199.454 255.3 199.454 256.767V256.873C199.454 259.153 197.59 260.997 195.3 260.997H185.488C183.191 260.997 181.334 259.146 181.334 256.873V256.767C181.334 255.3 184.056 253.878 184.682 252.656L189.854 217.728" fill="#482A10"/>
<path d="M211.55 200.66L181.279 196.73L181.334 211.409C181.334 239.161 202.851 261.662 229.394 261.662H242.945C247.518 261.662 251.231 257.787 251.231 253.004V238.022C251.224 217.388 231.287 200.66 211.55 200.66Z" fill="#A06F45"/>
<path d="M208.279 192.408C211.055 192.408 213.304 190.157 213.304 187.382C213.304 184.607 211.054 182.356 208.279 182.356C205.503 182.356 203.253 184.607 203.253 187.382C203.253 190.157 205.503 192.408 208.279 192.408Z" fill="#A06F45"/>
<mask id="path-16-inside-1_1023_1412" fill="white">
<path d="M209.058 185.399C208.819 185.305 208.552 185.252 208.279 185.252C207.101 185.252 206.149 186.204 206.149 187.383C206.149 187.436 206.149 187.496 206.155 187.55"/>
</mask>
<path d="M209.058 185.399C208.819 185.305 208.552 185.252 208.279 185.252C207.101 185.252 206.149 186.204 206.149 187.383C206.149 187.436 206.149 187.496 206.155 187.55" fill="#482A10"/>
<path d="M209.058 185.399L209.421 184.467C209.069 184.33 208.68 184.252 208.279 184.252V185.252V186.252C208.424 186.252 208.568 186.281 208.695 186.33L209.058 185.399ZM208.279 185.252V184.252C206.549 184.252 205.149 185.652 205.149 187.383H206.149H207.149C207.149 186.756 207.653 186.252 208.279 186.252V185.252ZM206.149 187.383H205.149C205.149 187.423 205.148 187.544 205.162 187.666L206.155 187.55L207.149 187.433C207.15 187.44 207.15 187.445 207.15 187.445C207.15 187.445 207.15 187.443 207.15 187.438C207.149 187.433 207.149 187.426 207.149 187.416C207.149 187.407 207.149 187.396 207.149 187.383H206.149Z" fill="#482A10" mask="url(#path-16-inside-1_1023_1412)"/>
<path d="M181.279 196.73C181.279 188.381 188.135 181.611 196.59 181.611C205.045 181.611 211.901 188.381 211.901 196.73C211.901 198.429 211.617 200.055 211.097 201.581" fill="#A06F45"/>
<path d="M206.282 194.765C206.282 195.17 205.954 195.497 205.55 195.497C205.146 195.497 204.818 195.169 204.818 194.765C204.818 194.361 205.146 194.033 205.55 194.033C205.954 194.033 206.282 194.361 206.282 194.765Z" fill="#482A10" stroke="#482A10" stroke-width="0.842"/>
<path d="M191.317 194.765C191.317 195.17 190.989 195.497 190.585 195.497C190.181 195.497 189.853 195.169 189.853 194.765C189.853 194.361 190.181 194.033 190.585 194.033C190.989 194.033 191.317 194.361 191.317 194.765Z" fill="#482A10" stroke="#482A10" stroke-width="0.842"/>
<path d="M204.671 198.972C204.671 200.057 202.661 202.194 200.178 202.194C197.695 202.194 195.685 200.057 195.685 198.972C195.685 197.887 197.695 197.001 200.178 197.001C202.661 197.001 204.671 197.887 204.671 198.972Z" fill="#482A10" stroke="#482A10" stroke-width="1.684" stroke-linecap="round" stroke-linejoin="round"/>
<path d="M198.48 204.715C199.698 205.021 200.89 205.008 201.875 204.742L198.48 204.715Z" fill="#482A10"/>
<path d="M198.48 204.715C199.698 205.021 200.89 205.008 201.875 204.742" stroke="#482A10" stroke-width="1.684" stroke-linecap="round" stroke-linejoin="round"/>
<path d="M184.441 191.43C183.962 191.584 183.456 191.663 182.923 191.663C180.147 191.663 177.897 189.414 177.897 186.638C177.897 183.861 180.147 181.612 182.923 181.612C185.699 181.612 187.949 183.861 187.949 186.638" fill="#A06F45"/>
<mask id="path-25-inside-2_1023_1412" fill="white">
<path d="M182.144 184.653C182.383 184.56 182.65 184.507 182.922 184.507C184.101 184.507 185.053 185.459 185.053 186.637C185.053 186.69 185.053 186.75 185.046 186.804"/>
</mask>
<path d="M182.144 184.653C182.383 184.56 182.65 184.507 182.922 184.507C184.101 184.507 185.053 185.459 185.053 186.637C185.053 186.69 185.053 186.75 185.046 186.804" fill="#482A10"/>
<path d="M182.144 184.653L182.507 185.585C182.634 185.535 182.777 185.507 182.922 185.507V184.507V183.507C182.522 183.507 182.133 183.584 181.781 183.721L182.144 184.653ZM182.922 184.507V185.507C183.549 185.507 184.053 186.011 184.053 186.637H185.053H186.053C186.053 184.906 184.653 183.507 182.922 183.507V184.507ZM185.053 186.637H184.053C184.053 186.651 184.053 186.661 184.053 186.671C184.053 186.681 184.052 186.687 184.052 186.693C184.052 186.698 184.052 186.7 184.052 186.7C184.052 186.699 184.052 186.695 184.053 186.687L185.046 186.804L186.04 186.921C186.054 186.798 186.053 186.678 186.053 186.637H185.053Z" fill="#482A10" mask="url(#path-25-inside-2_1023_1412)"/>
<path d="M220.202 262.073L219.53 262.001L219.507 261.993C215.926 261.192 212.495 259.971 209.262 258.37C204.068 255.814 199.381 252.297 195.389 248.027C186.686 238.719 181.275 224.611 181.303 211.66L181.279 205.433C181.319 214.442 191.16 224.32 200.741 224.32C202.076 224.32 201.31 221.591 202.567 221.316L214.566 236.584L220.202 262.073Z" fill="#875830"/>
<path d="M214.596 235.768C214.596 235.768 210.049 255.918 210.049 257.396V257.503C210.049 259.799 208.185 261.657 205.895 261.657H196.083C193.787 261.657 191.929 259.793 191.929 257.503V257.396C191.929 255.919 194.652 254.487 195.278 253.256L200.45 218.075" fill="#A06F45"/>
<path d="M243.475 262.117H221.099C219.334 262.117 217.805 261.125 217.032 259.67C216.683 259.026 216.486 258.284 216.486 257.496V257.391C216.486 256.739 216.835 256.179 217.206 255.731C217.584 255.277 218.077 254.845 218.501 254.459C218.554 254.414 218.607 254.36 218.66 254.323C215.812 250.505 213.305 245.567 213.305 240.135C213.305 233.962 215.221 228.348 218.334 224.266C221.455 220.184 225.811 217.608 230.674 217.608C230.84 217.608 231.007 217.616 231.181 217.623C231.317 217.608 231.454 217.608 231.59 217.608C233.795 217.608 236.726 218.532 238.612 219.456C238.62 219.456 238.62 219.464 238.627 219.464C241.068 220.731 245.009 222.866 248.267 227.325C249.277 228.706 250.028 230.262 250.543 231.893C250.615 232.121 250.669 232.307 250.685 232.409C250.715 232.568 250.738 232.727 250.761 232.887C250.776 232.947 250.784 233.015 250.791 233.076C251.026 234.66 251.147 236.273 251.147 237.916V252.846C251.147 256.952 249.343 261.054 245.814 261.926L243.474 262.118C243.345 262.141 243.603 262.095 243.474 262.118" fill="#B6875E"/>
</g>
<path d="M135.709 258V238.976H138.768L148.036 252.305H148.115V238.976H151.49V258H148.458L139.164 244.619H139.098V258H135.709ZM158.666 258.237C155.871 258.237 153.986 256.51 153.986 254.019V253.992C153.986 251.514 155.911 250.024 159.299 249.813L162.951 249.589V248.626C162.951 247.216 162.028 246.359 160.367 246.359C158.811 246.359 157.862 247.084 157.651 248.112L157.625 248.231H154.579L154.592 248.073C154.79 245.594 156.939 243.735 160.485 243.735C163.979 243.735 166.233 245.581 166.233 248.389V258H162.951V255.851H162.872C162.067 257.314 160.512 258.237 158.666 258.237ZM157.255 253.887C157.255 255.034 158.205 255.732 159.642 255.732C161.527 255.732 162.951 254.48 162.951 252.819V251.764L159.76 251.962C158.139 252.067 157.255 252.766 157.255 253.874V253.887ZM174.438 258.277C171.511 258.277 170.127 257.09 170.127 254.216V246.557H168.149V244.025H170.127V240.479H173.462V244.025H176.059V246.557H173.462V253.939C173.462 255.311 174.069 255.746 175.268 255.746C175.585 255.746 175.835 255.706 176.059 255.693V258.158C175.677 258.211 175.097 258.277 174.438 258.277ZM193.127 258.33C187.577 258.33 184.123 254.559 184.123 248.416V248.402C184.123 242.364 187.577 238.646 193.061 238.646C197.57 238.646 200.497 241.257 201.222 244.764L201.274 244.975H197.82L197.781 244.83C197.056 242.786 195.408 241.6 193.074 241.6C189.646 241.6 187.59 244.104 187.59 248.376V248.389C187.59 252.753 189.739 255.376 193.167 255.376C196.041 255.376 198.018 253.61 198.084 250.947L198.097 250.657H193.377V248.007H201.419V250.063C201.419 255.231 198.334 258.33 193.127 258.33ZM204.232 258V244.025H207.514V246.438H207.58C208.015 244.75 209.175 243.735 210.784 243.735C211.193 243.735 211.575 243.801 211.825 243.867V246.833C211.548 246.728 211.048 246.649 210.494 246.649C208.635 246.649 207.514 247.822 207.514 249.892V258H204.232ZM219.489 258.277C215.297 258.277 212.765 255.495 212.765 251.052V251.039C212.765 246.636 215.336 243.735 219.331 243.735C223.325 243.735 225.804 246.543 225.804 250.762V251.817H216.022C216.074 254.269 217.419 255.719 219.555 255.719C221.19 255.719 222.258 254.849 222.574 253.913L222.6 253.821H225.672L225.633 253.966C225.198 256.115 223.141 258.277 219.489 258.277ZM219.37 246.306C217.63 246.306 216.325 247.479 216.061 249.628H222.614C222.376 247.414 221.111 246.306 219.37 246.306ZM234.43 258.277C230.238 258.277 227.706 255.495 227.706 251.052V251.039C227.706 246.636 230.277 243.735 234.272 243.735C238.267 243.735 240.745 246.543 240.745 250.762V251.817H230.963C231.016 254.269 232.36 255.719 234.496 255.719C236.131 255.719 237.199 254.849 237.515 253.913L237.541 253.821H240.613L240.574 253.966C240.139 256.115 238.082 258.277 234.43 258.277ZM234.311 246.306C232.571 246.306 231.266 247.479 231.002 249.628H237.555C237.317 247.414 236.052 246.306 234.311 246.306ZM243.228 258V244.025H246.51V246.214H246.576C247.301 244.711 248.725 243.735 250.848 243.735C253.919 243.735 255.673 245.713 255.673 248.956V258H252.39V249.615C252.39 247.625 251.467 246.504 249.595 246.504C247.71 246.504 246.51 247.875 246.51 249.892V258H243.228Z" fill="#2A2A2A"/>
<path d="M163.75 289V280.578H165.109V281.844H165.234C165.656 280.953 166.445 280.43 167.688 280.43C169.578 280.43 170.633 281.547 170.633 283.547V289H169.273V283.875C169.273 282.359 168.648 281.633 167.305 281.633C165.961 281.633 165.109 282.539 165.109 284.016V289H163.75ZM175.406 289.148C173.805 289.148 172.594 288.18 172.594 286.648V286.633C172.594 285.133 173.703 284.266 175.664 284.148L178.078 284V283.234C178.078 282.195 177.445 281.633 176.188 281.633C175.18 281.633 174.516 282.008 174.297 282.664L174.289 282.688H172.93L172.938 282.641C173.156 281.32 174.438 280.43 176.234 280.43C178.289 280.43 179.438 281.484 179.438 283.234V289H178.078V287.758H177.953C177.422 288.656 176.539 289.148 175.406 289.148ZM173.984 286.617C173.984 287.469 174.711 287.969 175.688 287.969C177.07 287.969 178.078 287.062 178.078 285.859V285.094L175.828 285.234C174.547 285.312 173.984 285.766 173.984 286.602V286.617ZM184.914 289.062C183.18 289.062 182.453 288.422 182.453 286.812V281.703H181.125V280.578H182.453V278.398H183.859V280.578H185.703V281.703H183.859V286.469C183.859 287.461 184.203 287.859 185.078 287.859C185.32 287.859 185.453 287.852 185.703 287.828V288.984C185.438 289.031 185.18 289.062 184.914 289.062ZM192.578 289.266C189.461 289.266 187.469 286.969 187.469 283.367V283.352C187.469 279.797 189.492 277.461 192.578 277.461C195.078 277.461 196.836 278.867 197.281 281.008L197.297 281.086H195.875L195.852 281.008C195.391 279.555 194.258 278.758 192.578 278.758C190.344 278.758 188.906 280.555 188.906 283.352V283.367C188.906 286.203 190.32 287.969 192.586 287.969C194.602 287.969 195.961 286.68 195.961 284.773V284.5H192.797V283.266H197.367V284.641C197.367 287.422 195.461 289.266 192.578 289.266ZM203.516 289.188C201.188 289.188 199.68 287.891 199.531 286.109L199.523 286.016H200.875L200.883 286.094C200.992 287.203 202.016 287.969 203.516 287.969C204.992 287.969 206 287.141 206 285.945V285.93C206 284.547 205.008 283.773 203.43 283.773H202.016V282.586H203.367C204.711 282.586 205.648 281.758 205.648 280.633V280.617C205.648 279.438 204.875 278.758 203.5 278.758C202.172 278.758 201.227 279.461 201.109 280.602L201.102 280.68H199.75L199.758 280.602C199.938 278.766 201.391 277.539 203.5 277.539C205.648 277.539 207.062 278.734 207.062 280.445V280.461C207.062 281.852 206.078 282.805 204.672 283.102V283.133C206.312 283.273 207.43 284.297 207.43 285.898V285.914C207.43 287.797 205.773 289.188 203.516 289.188ZM213.547 289.188C211.219 289.188 209.711 287.891 209.562 286.109L209.555 286.016H210.906L210.914 286.094C211.023 287.203 212.047 287.969 213.547 287.969C215.023 287.969 216.031 287.141 216.031 285.945V285.93C216.031 284.547 215.039 283.773 213.461 283.773H212.047V282.586H213.398C214.742 282.586 215.68 281.758 215.68 280.633V280.617C215.68 279.438 214.906 278.758 213.531 278.758C212.203 278.758 211.258 279.461 211.141 280.602L211.133 280.68H209.781L209.789 280.602C209.969 278.766 211.422 277.539 213.531 277.539C215.68 277.539 217.094 278.734 217.094 280.445V280.461C217.094 281.852 216.109 282.805 214.703 283.102V283.133C216.344 283.273 217.461 284.297 217.461 285.898V285.914C217.461 287.797 215.805 289.188 213.547 289.188ZM223.578 289.188C221.25 289.188 219.742 287.891 219.594 286.109L219.586 286.016H220.938L220.945 286.094C221.055 287.203 222.078 287.969 223.578 287.969C225.055 287.969 226.062 287.141 226.062 285.945V285.93C226.062 284.547 225.07 283.773 223.492 283.773H222.078V282.586H223.43C224.773 282.586 225.711 281.758 225.711 280.633V280.617C225.711 279.438 224.938 278.758 223.562 278.758C222.234 278.758 221.289 279.461 221.172 280.602L221.164 280.68H219.812L219.82 280.602C220 278.766 221.453 277.539 223.562 277.539C225.711 277.539 227.125 278.734 227.125 280.445V280.461C227.125 281.852 226.141 282.805 224.734 283.102V283.133C226.375 283.273 227.492 284.297 227.492 285.898V285.914C227.492 287.797 225.836 289.188 223.578 289.188Z" fill="#434343"/>
<g clip-path="url(#clip1_1023_1412)">
<path d="M56.6831 360.293C56.6931 357.909 54.7637 355.967 52.3737 355.957C49.9837 355.947 48.0381 357.872 48.0281 360.257C48.0181 362.642 49.9475 364.583 52.3375 364.593C54.7275 364.603 56.6731 362.678 56.6831 360.293Z" stroke="#003087" stroke-width="1.5" stroke-linecap="round" stroke-linejoin="round"/>
<path d="M59.4045 375.429V370.053C59.4045 367.846 58.0822 366.259 55.8126 366.259H49.2444C47.1816 366.259 45.3063 367.605 45.3063 369.995V375.429H59.4045Z" stroke="#003087" stroke-width="1.5" stroke-linecap="round" stroke-linejoin="round"/>
<path d="M57.2359 375.429V370.514" stroke="#003087" stroke-width="1.5" stroke-linecap="round" stroke-linejoin="round"/>
<path d="M47.4749 370.514V375.429" stroke="#003087" stroke-width="1.5" stroke-linecap="round" stroke-linejoin="round"/>
<path d="M73.4375 371.5V360.227H74.8047L80.9219 369H81.0469V360.227H82.4375V371.5H81.0703L74.9531 362.758H74.8281V371.5H73.4375ZM87.4531 371.648C85.8516 371.648 84.6406 370.68 84.6406 369.148V369.133C84.6406 367.633 85.75 366.766 87.7109 366.648L90.125 366.5V365.734C90.125 364.695 89.4922 364.133 88.2344 364.133C87.2266 364.133 86.5625 364.508 86.3438 365.164L86.3359 365.188H84.9766L84.9844 365.141C85.2031 363.82 86.4844 362.93 88.2812 362.93C90.3359 362.93 91.4844 363.984 91.4844 365.734V371.5H90.125V370.258H90C89.4688 371.156 88.5859 371.648 87.4531 371.648ZM86.0312 369.117C86.0312 369.969 86.7578 370.469 87.7344 370.469C89.1172 370.469 90.125 369.562 90.125 368.359V367.594L87.875 367.734C86.5938 367.812 86.0312 368.266 86.0312 369.102V369.117ZM93.9688 371.5V363.078H95.3281V364.359H95.4531C95.8281 363.453 96.625 362.93 97.7266 362.93C98.8672 362.93 99.6641 363.531 100.055 364.406H100.18C100.633 363.516 101.594 362.93 102.758 362.93C104.477 362.93 105.438 363.914 105.438 365.68V371.5H104.078V365.992C104.078 364.75 103.508 364.133 102.32 364.133C101.148 364.133 100.375 365.016 100.375 366.086V371.5H99.0156V365.781C99.0156 364.781 98.3281 364.133 97.2656 364.133C96.1641 364.133 95.3281 365.094 95.3281 366.281V371.5H93.9688ZM111.328 371.648C108.922 371.648 107.469 369.961 107.469 367.32V367.312C107.469 364.711 108.953 362.93 111.242 362.93C113.531 362.93 114.922 364.633 114.922 367.148V367.68H108.859C108.898 369.422 109.859 370.438 111.359 370.438C112.5 370.438 113.203 369.898 113.43 369.391L113.461 369.32H114.82L114.805 369.383C114.516 370.523 113.312 371.648 111.328 371.648ZM111.234 364.141C109.984 364.141 109.031 364.992 108.883 366.594H113.539C113.398 364.93 112.477 364.141 111.234 364.141Z" fill="#2A2A2A"/>
<path fill-rule="evenodd" clip-rule="evenodd" d="M335.59 371.34L340.17 366.75L335.59 362.16L337 360.75L343 366.75L337 372.75L335.59 371.34Z" fill="#434343"/>
<mask id="mask1_1023_1412" style="mask-type:luminance" maskUnits="userSpaceOnUse" x="335" y="360" width="8" height="13">
<path fill-rule="evenodd" clip-rule="evenodd" d="M335.59 371.34L340.17 366.75L335.59 362.16L337 360.75L343 366.75L337 372.75L335.59 371.34Z" fill="white"/>
</mask>
<g mask="url(#mask1_1023_1412)">
</g>
<rect x="40" y="394" width="327" height="1" fill="#C0C0C0"/>
</g>
<g clip-path="url(#clip2_1023_1412)">
<path d="M56.2772 428.721C56.6914 428.721 57.0272 428.386 57.0272 427.971C57.0272 427.557 56.6914 427.221 56.2772 427.221V427.971V428.721ZM47.5 427.971H46.75C46.75 428.386 47.0858 428.721 47.5 428.721V427.971ZM54.0743 423.334V424.084C54.0869 424.084 54.0995 424.084 54.112 424.083L54.0743 423.334ZM55.6686 423.883L55.1778 424.45L55.1876 424.458L55.6686 423.883ZM56.3629 425.323H57.1129C57.1129 425.317 57.1128 425.311 57.1127 425.305L56.3629 425.323ZM55.6129 427.851C55.6129 428.266 55.9487 428.601 56.3629 428.601C56.7771 428.601 57.1129 428.266 57.1129 427.851H56.3629H55.6129ZM52 421.431L52.0228 420.682C52.0059 420.681 51.9889 420.681 51.972 420.682L52 421.431ZM54.9486 418.654L55.6983 418.676C55.6988 418.657 55.6987 418.638 55.6978 418.619L54.9486 418.654ZM51.9486 415.903L51.9305 416.653C51.9465 416.653 51.9624 416.653 51.9783 416.652L51.9486 415.903ZM49 418.714L48.2502 418.697C48.2497 418.718 48.2501 418.739 48.2514 418.76L49 418.714ZM46.4286 429.536C46.0144 429.536 45.6786 429.872 45.6786 430.286C45.6786 430.7 46.0144 431.036 46.4286 431.036V430.286V429.536ZM57.5714 431.036C57.9857 431.036 58.3214 430.7 58.3214 430.286C58.3214 429.872 57.9857 429.536 57.5714 429.536V430.286V431.036ZM62.2857 412.714H63.0357C63.0357 412.3 62.6999 411.964 62.2857 411.964V412.714ZM41.7143 412.714V411.964C41.3001 411.964 40.9643 412.3 40.9643 412.714H41.7143ZM41.7143 433.286H40.9643C40.9643 433.7 41.3001 434.036 41.7143 434.036V433.286ZM62.2857 433.286V434.036C62.6999 434.036 63.0357 433.7 63.0357 433.286H62.2857ZM56.2772 427.971V427.221H47.5V427.971V428.721H56.2772V427.971ZM47.5 427.971H48.25V425.297H47.5H46.75V427.971H47.5ZM47.5 425.297H48.25C48.25 425.058 48.3909 424.767 48.7365 424.506C49.0785 424.247 49.5441 424.084 49.9943 424.084V423.334V422.584C49.2102 422.584 48.4286 422.858 47.8321 423.309C47.2391 423.757 46.75 424.448 46.75 425.297H47.5ZM49.9943 423.334V424.084H54.0743V423.334V422.584H49.9943V423.334ZM54.0743 423.334L54.112 424.083C54.5013 424.064 54.8831 424.195 55.1779 424.45L55.6686 423.883L56.1592 423.316C55.5722 422.808 54.8118 422.546 54.0365 422.585L54.0743 423.334ZM55.6686 423.883L55.1876 424.458C55.4499 424.678 55.6049 424.999 55.6131 425.341L56.3629 425.323L57.1127 425.305C57.0941 424.531 56.7432 423.804 56.1496 423.307L55.6686 423.883ZM56.3629 425.323H55.6129V427.851H56.3629H57.1129V425.323H56.3629ZM52 421.431L51.9772 422.181C52.9355 422.21 53.8661 421.857 54.564 421.2L54.0498 420.654L53.5356 420.108C53.1274 420.492 52.5832 420.699 52.0228 420.682L52 421.431ZM54.0498 420.654L54.564 421.2C55.262 420.543 55.67 419.635 55.6983 418.676L54.9486 418.654L54.1989 418.632C54.1824 419.193 53.9438 419.724 53.5356 420.108L54.0498 420.654ZM54.9486 418.654L55.6978 418.619C55.6044 416.622 53.9168 415.074 51.9188 415.153L51.9486 415.903L51.9783 416.652C53.1526 416.606 54.1445 417.515 54.1994 418.689L54.9486 418.654ZM51.9486 415.903L51.9666 415.153C51.0038 415.13 50.0713 415.49 49.3742 416.155L49.8918 416.698L50.4094 417.24C50.8183 416.85 51.3656 416.639 51.9305 416.653L51.9486 415.903ZM49.8918 416.698L49.3742 416.155C48.6772 416.819 48.2729 417.734 48.2502 418.697L49 418.714L49.7498 418.732C49.7631 418.167 50.0004 417.63 50.4094 417.24L49.8918 416.698ZM49 418.714L48.2514 418.76C48.3731 420.737 50.0494 422.255 52.0281 422.181L52 421.431L51.972 420.682C50.8071 420.726 49.8202 419.832 49.7486 418.668L49 418.714ZM46.4286 430.286V431.036H57.5714V430.286V429.536H46.4286V430.286ZM62.2857 412.714V411.964H41.7143V412.714V413.464H62.2857V412.714ZM41.7143 412.714H40.9643V433.286H41.7143H42.4643V412.714H41.7143ZM41.7143 433.286V434.036H62.2857V433.286V432.536H41.7143V433.286ZM62.2857 433.286H63.0357V412.714H62.2857H61.5357V433.286H62.2857Z" fill="#003087"/>
<path d="M77.9766 428.766C74.9141 428.766 73 426.5 73 422.875V422.859C73 419.227 74.9062 416.961 77.9688 416.961C80.3438 416.961 82.1953 418.453 82.5312 420.617L82.5234 420.633H81.1094L81.1016 420.617C80.7266 419.172 79.5234 418.258 77.9688 418.258C75.8047 418.258 74.4453 420.039 74.4453 422.859V422.875C74.4453 425.695 75.8047 427.469 77.9766 427.469C79.5469 427.469 80.7422 426.664 81.0938 425.367L81.1094 425.352H82.5312V425.367C82.1562 427.43 80.375 428.766 77.9766 428.766ZM88.1797 428.648C85.7812 428.648 84.2969 426.992 84.2969 424.297V424.281C84.2969 421.578 85.7812 419.93 88.1797 419.93C90.5781 419.93 92.0625 421.578 92.0625 424.281V424.297C92.0625 426.992 90.5781 428.648 88.1797 428.648ZM88.1797 427.445C89.7734 427.445 90.6719 426.281 90.6719 424.297V424.281C90.6719 422.289 89.7734 421.133 88.1797 421.133C86.5859 421.133 85.6875 422.289 85.6875 424.281V424.297C85.6875 426.281 86.5859 427.445 88.1797 427.445ZM94.1719 428.5V420.078H95.5312V421.344H95.6562C96.0781 420.453 96.8672 419.93 98.1094 419.93C100 419.93 101.055 421.047 101.055 423.047V428.5H99.6953V423.375C99.6953 421.859 99.0703 421.133 97.7266 421.133C96.3828 421.133 95.5312 422.039 95.5312 423.516V428.5H94.1719ZM106.508 428.562C104.773 428.562 104.047 427.922 104.047 426.312V421.203H102.719V420.078H104.047V417.898H105.453V420.078H107.297V421.203H105.453V425.969C105.453 426.961 105.797 427.359 106.672 427.359C106.914 427.359 107.047 427.352 107.297 427.328V428.484C107.031 428.531 106.773 428.562 106.508 428.562ZM111.641 428.648C110.039 428.648 108.828 427.68 108.828 426.148V426.133C108.828 424.633 109.938 423.766 111.898 423.648L114.312 423.5V422.734C114.312 421.695 113.68 421.133 112.422 421.133C111.414 421.133 110.75 421.508 110.531 422.164L110.523 422.188H109.164L109.172 422.141C109.391 420.82 110.672 419.93 112.469 419.93C114.523 419.93 115.672 420.984 115.672 422.734V428.5H114.312V427.258H114.188C113.656 428.156 112.773 428.648 111.641 428.648ZM110.219 426.117C110.219 426.969 110.945 427.469 111.922 427.469C113.305 427.469 114.312 426.562 114.312 425.359V424.594L112.062 424.734C110.781 424.812 110.219 425.266 110.219 426.102V426.117ZM121.602 428.648C119.242 428.648 117.734 426.938 117.734 424.266V424.25C117.734 421.633 119.234 419.93 121.594 419.93C123.641 419.93 124.867 421.109 125.117 422.609L125.125 422.656H123.773L123.766 422.633C123.555 421.805 122.805 421.133 121.594 421.133C120.078 421.133 119.125 422.352 119.125 424.25V424.266C119.125 426.203 120.094 427.445 121.594 427.445C122.727 427.445 123.445 426.945 123.758 426.008L123.773 425.961L125.117 425.953L125.102 426.039C124.758 427.562 123.625 428.648 121.602 428.648ZM130.258 428.562C128.523 428.562 127.797 427.922 127.797 426.312V421.203H126.469V420.078H127.797V417.898H129.203V420.078H131.047V421.203H129.203V425.969C129.203 426.961 129.547 427.359 130.422 427.359C130.664 427.359 130.797 427.352 131.047 427.328V428.484C130.781 428.531 130.523 428.562 130.258 428.562ZM138.297 418.453C137.781 418.453 137.359 418.031 137.359 417.516C137.359 417 137.781 416.578 138.297 416.578C138.812 416.578 139.234 417 139.234 417.516C139.234 418.031 138.812 418.453 138.297 418.453ZM137.609 428.5V420.078H138.969V428.5H137.609ZM141.531 428.5V420.078H142.891V421.344H143.016C143.438 420.453 144.227 419.93 145.469 419.93C147.359 419.93 148.414 421.047 148.414 423.047V428.5H147.055V423.375C147.055 421.859 146.43 421.133 145.086 421.133C143.742 421.133 142.891 422.039 142.891 423.516V428.5H141.531ZM151.438 428.5V421.203H150.039V420.078H151.438V419.141C151.438 417.461 152.281 416.656 153.883 416.656C154.211 416.656 154.508 416.68 154.789 416.734V417.82C154.625 417.789 154.398 417.781 154.156 417.781C153.188 417.781 152.797 418.258 152.797 419.18V420.078H154.711V421.203H152.797V428.5H151.438ZM159.773 428.648C157.375 428.648 155.891 426.992 155.891 424.297V424.281C155.891 421.578 157.375 419.93 159.773 419.93C162.172 419.93 163.656 421.578 163.656 424.281V424.297C163.656 426.992 162.172 428.648 159.773 428.648ZM159.773 427.445C161.367 427.445 162.266 426.281 162.266 424.297V424.281C162.266 422.289 161.367 421.133 159.773 421.133C158.18 421.133 157.281 422.289 157.281 424.281V424.297C157.281 426.281 158.18 427.445 159.773 427.445ZM165.766 428.5V420.078H167.125V421.328H167.25C167.57 420.445 168.359 419.93 169.5 419.93C169.758 419.93 170.047 419.961 170.18 419.984V421.305C169.898 421.258 169.641 421.227 169.344 421.227C168.047 421.227 167.125 422.047 167.125 423.281V428.5H165.766ZM172.016 428.5V420.078H173.375V421.359H173.5C173.875 420.453 174.672 419.93 175.773 419.93C176.914 419.93 177.711 420.531 178.102 421.406H178.227C178.68 420.516 179.641 419.93 180.805 419.93C182.523 419.93 183.484 420.914 183.484 422.68V428.5H182.125V422.992C182.125 421.75 181.555 421.133 180.367 421.133C179.195 421.133 178.422 422.016 178.422 423.086V428.5H177.062V422.781C177.062 421.781 176.375 421.133 175.312 421.133C174.211 421.133 173.375 422.094 173.375 423.281V428.5H172.016ZM188.25 428.648C186.648 428.648 185.438 427.68 185.438 426.148V426.133C185.438 424.633 186.547 423.766 188.508 423.648L190.922 423.5V422.734C190.922 421.695 190.289 421.133 189.031 421.133C188.023 421.133 187.359 421.508 187.141 422.164L187.133 422.188H185.773L185.781 422.141C186 420.82 187.281 419.93 189.078 419.93C191.133 419.93 192.281 420.984 192.281 422.734V428.5H190.922V427.258H190.797C190.266 428.156 189.383 428.648 188.25 428.648ZM186.828 426.117C186.828 426.969 187.555 427.469 188.531 427.469C189.914 427.469 190.922 426.562 190.922 425.359V424.594L188.672 424.734C187.391 424.812 186.828 425.266 186.828 426.102V426.117ZM197.758 428.562C196.023 428.562 195.297 427.922 195.297 426.312V421.203H193.969V420.078H195.297V417.898H196.703V420.078H198.547V421.203H196.703V425.969C196.703 426.961 197.047 427.359 197.922 427.359C198.164 427.359 198.297 427.352 198.547 427.328V428.484C198.281 428.531 198.023 428.562 197.758 428.562ZM201.297 418.453C200.781 418.453 200.359 418.031 200.359 417.516C200.359 417 200.781 416.578 201.297 416.578C201.812 416.578 202.234 417 202.234 417.516C202.234 418.031 201.812 418.453 201.297 418.453ZM200.609 428.5V420.078H201.969V428.5H200.609ZM207.992 428.648C205.594 428.648 204.109 426.992 204.109 424.297V424.281C204.109 421.578 205.594 419.93 207.992 419.93C210.391 419.93 211.875 421.578 211.875 424.281V424.297C211.875 426.992 210.391 428.648 207.992 428.648ZM207.992 427.445C209.586 427.445 210.484 426.281 210.484 424.297V424.281C210.484 422.289 209.586 421.133 207.992 421.133C206.398 421.133 205.5 422.289 205.5 424.281V424.297C205.5 426.281 206.398 427.445 207.992 427.445ZM213.984 428.5V420.078H215.344V421.344H215.469C215.891 420.453 216.68 419.93 217.922 419.93C219.812 419.93 220.867 421.047 220.867 423.047V428.5H219.508V423.375C219.508 421.859 218.883 421.133 217.539 421.133C216.195 421.133 215.344 422.039 215.344 423.516V428.5H213.984Z" fill="#2A2A2A"/>
<path fill-rule="evenodd" clip-rule="evenodd" d="M335.59 428.34L340.17 423.75L335.59 419.16L337 417.75L343 423.75L337 429.75L335.59 428.34Z" fill="#434343"/>
<mask id="mask2_1023_1412" style="mask-type:luminance" maskUnits="userSpaceOnUse" x="335" y="417" width="8" height="13">
<path fill-rule="evenodd" clip-rule="evenodd" d="M335.59 428.34L340.17 423.75L335.59 419.16L337 417.75L343 423.75L337 429.75L335.59 428.34Z" fill="white"/>
</mask>
<g mask="url(#mask2_1023_1412)">
</g>
<rect x="40" y="451" width="327" height="1" fill="#C0C0C0"/>
</g>
<g clip-path="url(#clip3_1023_1412)">
<path d="M57.9271 473.636C57.9271 474.05 58.2629 474.386 58.6771 474.386C59.0914 474.386 59.4271 474.05 59.4271 473.636H58.6771H57.9271ZM58.6771 471.737V470.987C58.2629 470.987 57.9271 471.323 57.9271 471.737H58.6771ZM61.6429 471.737H62.3929C62.3929 471.323 62.0571 470.987 61.6429 470.987V471.737ZM60.8929 475.534C60.8929 475.949 61.2286 476.284 61.6429 476.284C62.0571 476.284 62.3929 475.949 62.3929 475.534H61.6429H60.8929ZM43.0986 476.049C43.0986 475.634 42.7628 475.299 42.3486 475.299C41.9344 475.299 41.5986 475.634 41.5986 476.049H42.3486H43.0986ZM42.3486 489.943H41.5986C41.5986 490.357 41.9344 490.693 42.3486 490.693V489.943ZM61.6429 489.943V490.693C62.0571 490.693 62.3929 490.357 62.3929 489.943H61.6429ZM62.3929 475.56C62.3929 475.146 62.0571 474.81 61.6429 474.81C61.2286 474.81 60.8929 475.146 60.8929 475.56H61.6429H62.3929ZM51.8457 470.623L52.1818 469.952C51.9569 469.84 51.6905 469.847 51.4723 469.972L51.8457 470.623ZM42.3486 476.074L41.9752 475.424C41.7422 475.558 41.5986 475.806 41.5986 476.074H42.3486ZM42.3486 479.769H41.5986C41.5986 480.035 41.7398 480.281 41.9695 480.416C42.1993 480.55 42.4832 480.553 42.7155 480.423L42.3486 479.769ZM51.7771 474.48L52.1315 473.819C51.9057 473.698 51.6337 473.701 51.4102 473.826L51.7771 474.48ZM61.6429 479.769L61.2885 480.43C61.521 480.554 61.8018 480.548 62.028 480.412C62.2543 480.277 62.3929 480.032 62.3929 479.769H61.6429ZM61.6429 475.534H62.3929C62.3929 475.25 62.2327 474.991 61.979 474.864L61.6429 475.534ZM49.2743 489.943L48.5243 489.944C48.5247 490.358 48.8604 490.693 49.2743 490.693V489.943ZM54.2629 489.943V490.693C54.6771 490.693 55.0129 490.357 55.0129 489.943H54.2629ZM54.2629 482.023H55.0129C55.0129 481.609 54.6771 481.273 54.2629 481.273V482.023ZM49.2657 482.023V481.273C49.0667 481.273 48.8758 481.352 48.7351 481.493C48.5944 481.634 48.5155 481.825 48.5157 482.024L49.2657 482.023ZM58.6771 473.636H59.4271V471.737H58.6771H57.9271V473.636H58.6771ZM58.6771 471.737V472.487H61.6429V471.737V470.987H58.6771V471.737ZM61.6429 471.737H60.8929V475.534H61.6429H62.3929V471.737H61.6429ZM42.3486 476.049H41.5986V489.943H42.3486H43.0986V476.049H42.3486ZM42.3486 489.943V490.693H61.6429V489.943V489.193H42.3486V489.943ZM61.6429 489.943H62.3929V475.56H61.6429H60.8929V489.943H61.6429ZM51.8457 470.623L51.4723 469.972L41.9752 475.424L42.3486 476.074L42.7219 476.725L52.2191 471.273L51.8457 470.623ZM42.3486 476.074H41.5986V479.769H42.3486H43.0986V476.074H42.3486ZM42.3486 479.769L42.7155 480.423L52.144 475.134L51.7771 474.48L51.4102 473.826L41.9817 479.114L42.3486 479.769ZM51.7771 474.48L51.4228 475.141L61.2885 480.43L61.6429 479.769L61.9972 479.108L52.1315 473.819L51.7771 474.48ZM61.6429 479.769H62.3929V475.534H61.6429H60.8929V479.769H61.6429ZM61.6429 475.534L61.979 474.864L52.1818 469.952L51.8457 470.623L51.5096 471.293L61.3067 476.205L61.6429 475.534ZM49.2743 489.943V490.693H54.2629V489.943V489.193H49.2743V489.943ZM54.2629 489.943H55.0129V482.023H54.2629H53.5129V489.943H54.2629ZM54.2629 482.023V481.273H49.2657V482.023V482.773H54.2629V482.023ZM49.2657 482.023L48.5157 482.024L48.5243 489.944L49.2743 489.943L50.0243 489.942L50.0157 482.022L49.2657 482.023Z" fill="#003087"/>
<path d="M73.4375 485.5V474.227H74.8438V479.102H81.0312V474.227H82.4375V485.5H81.0312V480.367H74.8438V485.5H73.4375ZM88.6016 485.648C86.2031 485.648 84.7188 483.992 84.7188 481.297V481.281C84.7188 478.578 86.2031 476.93 88.6016 476.93C91 476.93 92.4844 478.578 92.4844 481.281V481.297C92.4844 483.992 91 485.648 88.6016 485.648ZM88.6016 484.445C90.1953 484.445 91.0938 483.281 91.0938 481.297V481.281C91.0938 479.289 90.1953 478.133 88.6016 478.133C87.0078 478.133 86.1094 479.289 86.1094 481.281V481.297C86.1094 483.281 87.0078 484.445 88.6016 484.445ZM94.5938 485.5V477.078H95.9531V478.359H96.0781C96.4531 477.453 97.25 476.93 98.3516 476.93C99.4922 476.93 100.289 477.531 100.68 478.406H100.805C101.258 477.516 102.219 476.93 103.383 476.93C105.102 476.93 106.062 477.914 106.062 479.68V485.5H104.703V479.992C104.703 478.75 104.133 478.133 102.945 478.133C101.773 478.133 101 479.016 101 480.086V485.5H99.6406V479.781C99.6406 478.781 98.9531 478.133 97.8906 478.133C96.7891 478.133 95.9531 479.094 95.9531 480.281V485.5H94.5938ZM111.953 485.648C109.547 485.648 108.094 483.961 108.094 481.32V481.312C108.094 478.711 109.578 476.93 111.867 476.93C114.156 476.93 115.547 478.633 115.547 481.148V481.68H109.484C109.523 483.422 110.484 484.438 111.984 484.438C113.125 484.438 113.828 483.898 114.055 483.391L114.086 483.32H115.445L115.43 483.383C115.141 484.523 113.938 485.648 111.953 485.648ZM111.859 478.141C110.609 478.141 109.656 478.992 109.508 480.594H114.164C114.023 478.93 113.102 478.141 111.859 478.141ZM124.469 485.648C122.867 485.648 121.656 484.68 121.656 483.148V483.133C121.656 481.633 122.766 480.766 124.727 480.648L127.141 480.5V479.734C127.141 478.695 126.508 478.133 125.25 478.133C124.242 478.133 123.578 478.508 123.359 479.164L123.352 479.188H121.992L122 479.141C122.219 477.82 123.5 476.93 125.297 476.93C127.352 476.93 128.5 477.984 128.5 479.734V485.5H127.141V484.258H127.016C126.484 485.156 125.602 485.648 124.469 485.648ZM123.047 483.117C123.047 483.969 123.773 484.469 124.75 484.469C126.133 484.469 127.141 483.562 127.141 482.359V481.594L124.891 481.734C123.609 481.812 123.047 482.266 123.047 483.102V483.117ZM134.094 485.648C131.961 485.648 130.562 483.922 130.562 481.297V481.281C130.562 478.641 131.953 476.93 134.094 476.93C135.25 476.93 136.258 477.508 136.719 478.406H136.844V473.734H138.203V485.5H136.844V484.156H136.719C136.203 485.094 135.266 485.648 134.094 485.648ZM134.406 484.445C135.938 484.445 136.875 483.242 136.875 481.297V481.281C136.875 479.336 135.938 478.133 134.406 478.133C132.867 478.133 131.953 479.32 131.953 481.281V481.297C131.953 483.258 132.867 484.445 134.406 484.445ZM143.922 485.648C141.789 485.648 140.391 483.922 140.391 481.297V481.281C140.391 478.641 141.781 476.93 143.922 476.93C145.078 476.93 146.086 477.508 146.547 478.406H146.672V473.734H148.031V485.5H146.672V484.156H146.547C146.031 485.094 145.094 485.648 143.922 485.648ZM144.234 484.445C145.766 484.445 146.703 483.242 146.703 481.297V481.281C146.703 479.336 145.766 478.133 144.234 478.133C142.695 478.133 141.781 479.32 141.781 481.281V481.297C141.781 483.258 142.695 484.445 144.234 484.445ZM150.641 485.5V477.078H152V478.328H152.125C152.445 477.445 153.234 476.93 154.375 476.93C154.633 476.93 154.922 476.961 155.055 476.984V478.305C154.773 478.258 154.516 478.227 154.219 478.227C152.922 478.227 152 479.047 152 480.281V485.5H150.641ZM159.938 485.648C157.531 485.648 156.078 483.961 156.078 481.32V481.312C156.078 478.711 157.562 476.93 159.852 476.93C162.141 476.93 163.531 478.633 163.531 481.148V481.68H157.469C157.508 483.422 158.469 484.438 159.969 484.438C161.109 484.438 161.812 483.898 162.039 483.391L162.07 483.32H163.43L163.414 483.383C163.125 484.523 161.922 485.648 159.938 485.648ZM159.844 478.141C158.594 478.141 157.641 478.992 157.492 480.594H162.148C162.008 478.93 161.086 478.141 159.844 478.141ZM168.531 485.648C166.656 485.648 165.367 484.742 165.211 483.352H166.602C166.828 484.055 167.5 484.516 168.578 484.516C169.711 484.516 170.516 483.977 170.516 483.211V483.195C170.516 482.625 170.086 482.227 169.047 481.977L167.742 481.664C166.164 481.289 165.453 480.602 165.453 479.391V479.383C165.453 477.984 166.797 476.93 168.586 476.93C170.352 476.93 171.578 477.812 171.766 479.188H170.43C170.25 478.523 169.594 478.062 168.578 478.062C167.578 478.062 166.844 478.578 166.844 479.32V479.336C166.844 479.906 167.266 480.266 168.258 480.508L169.555 480.82C171.141 481.203 171.906 481.891 171.906 483.094V483.109C171.906 484.609 170.445 485.648 168.531 485.648ZM176.75 485.648C174.875 485.648 173.586 484.742 173.43 483.352H174.82C175.047 484.055 175.719 484.516 176.797 484.516C177.93 484.516 178.734 483.977 178.734 483.211V483.195C178.734 482.625 178.305 482.227 177.266 481.977L175.961 481.664C174.383 481.289 173.672 480.602 173.672 479.391V479.383C173.672 477.984 175.016 476.93 176.805 476.93C178.57 476.93 179.797 477.812 179.984 479.188H178.648C178.469 478.523 177.812 478.062 176.797 478.062C175.797 478.062 175.062 478.578 175.062 479.32V479.336C175.062 479.906 175.484 480.266 176.477 480.508L177.773 480.82C179.359 481.203 180.125 481.891 180.125 483.094V483.109C180.125 484.609 178.664 485.648 176.75 485.648Z" fill="#2A2A2A"/>
<path fill-rule="evenodd" clip-rule="evenodd" d="M335.59 485.34L340.17 480.75L335.59 476.16L337 474.75L343 480.75L337 486.75L335.59 485.34Z" fill="#434343"/>
<mask id="mask3_1023_1412" style="mask-type:luminance" maskUnits="userSpaceOnUse" x="335" y="474" width="8" height="13">
<path fill-rule="evenodd" clip-rule="evenodd" d="M335.59 485.34L340.17 480.75L335.59 476.16L337 474.75L343 480.75L337 486.75L335.59 485.34Z" fill="white"/>
</mask>
<g mask="url(#mask3_1023_1412)">
</g>
<rect x="40" y="508" width="327" height="1" fill="#C0C0C0"/>
</g>
<g clip-path="url(#clip4_1023_1412)">
<mask id="mask4_1023_1412" style="mask-type:luminance" maskUnits="userSpaceOnUse" x="40" y="525" width="24" height="24">
<path d="M64 525H40V549H64V525Z" fill="white"/>
</mask>
<g mask="url(#mask4_1023_1412)">
<path d="M52 546.75C57.3848 546.75 61.75 542.385 61.75 537C61.75 531.615 57.3848 527.25 52 527.25C46.6152 527.25 42.25 531.615 42.25 537C42.25 542.385 46.6152 546.75 52 546.75Z" stroke="#003087" stroke-width="1.5"/>
<path d="M52 531V537.75H58" stroke="#003087" stroke-width="1.5" stroke-linecap="round" stroke-linejoin="round"/>
</g>
<path d="M78.1719 542.766C74.9375 542.766 73 540.469 73 536.867V536.852C73 533.234 74.9844 530.961 78.1719 530.961C81.375 530.961 83.3438 533.242 83.3438 536.852V536.867C83.3438 540.461 81.3906 542.766 78.1719 542.766ZM78.1719 541.469C80.4844 541.469 81.9062 539.656 81.9062 536.867V536.852C81.9062 534.039 80.4766 532.258 78.1719 532.258C75.875 532.258 74.4375 534.039 74.4375 536.852V536.867C74.4375 539.656 75.8281 541.469 78.1719 541.469ZM85.6094 542.5V534.078H86.9688V535.328H87.0938C87.4141 534.445 88.2031 533.93 89.3438 533.93C89.6016 533.93 89.8906 533.961 90.0234 533.984V535.305C89.7422 535.258 89.4844 535.227 89.1875 535.227C87.8906 535.227 86.9688 536.047 86.9688 537.281V542.5H85.6094ZM94.5781 542.648C92.4453 542.648 91.0469 540.922 91.0469 538.297V538.281C91.0469 535.641 92.4375 533.93 94.5781 533.93C95.7344 533.93 96.7422 534.508 97.2031 535.406H97.3281V530.734H98.6875V542.5H97.3281V541.156H97.2031C96.6875 542.094 95.75 542.648 94.5781 542.648ZM94.8906 541.445C96.4219 541.445 97.3594 540.242 97.3594 538.297V538.281C97.3594 536.336 96.4219 535.133 94.8906 535.133C93.3516 535.133 92.4375 536.32 92.4375 538.281V538.297C92.4375 540.258 93.3516 541.445 94.8906 541.445ZM104.734 542.648C102.328 542.648 100.875 540.961 100.875 538.32V538.312C100.875 535.711 102.359 533.93 104.648 533.93C106.938 533.93 108.328 535.633 108.328 538.148V538.68H102.266C102.305 540.422 103.266 541.438 104.766 541.438C105.906 541.438 106.609 540.898 106.836 540.391L106.867 540.32H108.227L108.211 540.383C107.922 541.523 106.719 542.648 104.734 542.648ZM104.641 535.141C103.391 535.141 102.438 535.992 102.289 537.594H106.945C106.805 535.93 105.883 535.141 104.641 535.141ZM110.438 542.5V534.078H111.797V535.328H111.922C112.242 534.445 113.031 533.93 114.172 533.93C114.43 533.93 114.719 533.961 114.852 533.984V535.305C114.57 535.258 114.312 535.227 114.016 535.227C112.719 535.227 111.797 536.047 111.797 537.281V542.5H110.438ZM119.266 542.648C117.391 542.648 116.102 541.742 115.945 540.352H117.336C117.562 541.055 118.234 541.516 119.312 541.516C120.445 541.516 121.25 540.977 121.25 540.211V540.195C121.25 539.625 120.82 539.227 119.781 538.977L118.477 538.664C116.898 538.289 116.188 537.602 116.188 536.391V536.383C116.188 534.984 117.531 533.93 119.32 533.93C121.086 533.93 122.312 534.812 122.5 536.188H121.164C120.984 535.523 120.328 535.062 119.312 535.062C118.312 535.062 117.578 535.578 117.578 536.32V536.336C117.578 536.906 118 537.266 118.992 537.508L120.289 537.82C121.875 538.203 122.641 538.891 122.641 540.094V540.109C122.641 541.609 121.18 542.648 119.266 542.648Z" fill="#2A2A2A"/>
<path fill-rule="evenodd" clip-rule="evenodd" d="M335.59 542.34L340.17 537.75L335.59 533.16L337 531.75L343 537.75L337 543.75L335.59 542.34Z" fill="#434343"/>
<mask id="mask5_1023_1412" style="mask-type:luminance" maskUnits="userSpaceOnUse" x="335" y="531" width="8" height="13">
<path fill-rule="evenodd" clip-rule="evenodd" d="M335.59 542.34L340.17 537.75L335.59 533.16L337 531.75L343 537.75L337 543.75L335.59 542.34Z" fill="white"/>
</mask>
<g mask="url(#mask5_1023_1412)">
</g>
<g filter="url(#filter0_d_1023_1412)">
<circle cx="128" cy="526" r="6" fill="#003087"/>
<circle cx="128" cy="526" r="5.375" stroke="white" stroke-width="1.25"/>
</g>
</g>
<path d="M45.3047 613.281C42.6875 613.281 41.0234 611.992 40.8828 610.047L40.875 609.938H42.8281L42.8359 610.016C42.9297 610.961 43.9375 611.586 45.3672 611.586C46.7266 611.586 47.6797 610.914 47.6797 609.945V609.938C47.6797 609.125 47.0938 608.633 45.6406 608.32L44.4297 608.07C42.125 607.586 41.125 606.508 41.125 604.828V604.82C41.125 602.805 42.8594 601.445 45.2969 601.445C47.7969 601.445 49.3516 602.812 49.4922 604.625L49.5 604.727H47.5703L47.5547 604.633C47.4141 603.758 46.5781 603.133 45.2891 603.141C44.0391 603.141 43.1484 603.727 43.1484 604.688V604.695C43.1484 605.492 43.7188 605.992 45.125 606.289L46.3359 606.547C48.7109 607.047 49.7031 608 49.7031 609.703V609.711C49.7031 611.906 48.0078 613.281 45.3047 613.281ZM55.4219 613.172C52.8828 613.172 51.3438 611.469 51.3438 608.75V608.742C51.3438 606.055 52.8984 604.297 55.3281 604.297C57.7578 604.297 59.2578 606 59.2578 608.578V609.219H53.2891C53.3125 610.75 54.1406 611.641 55.4609 611.641C56.5156 611.641 57.1172 611.109 57.3047 610.719L57.3281 610.664H59.1797L59.1562 610.734C58.8828 611.836 57.7422 613.172 55.4219 613.172ZM55.3516 605.82C54.2656 605.82 53.4531 606.555 53.3047 607.914H57.3594C57.2266 606.516 56.4375 605.82 55.3516 605.82ZM61.2031 613V604.461H63.1484V605.773H63.2812C63.5703 604.859 64.3516 604.32 65.4766 604.32C65.7734 604.32 66.0781 604.359 66.2656 604.414V606.156C65.9531 606.094 65.6328 606.047 65.2969 606.047C64 606.047 63.1484 606.82 63.1484 608.039V613H61.2031ZM70.2812 613L67.2422 604.461H69.3203L71.2969 611.102H71.4297L73.3906 604.461H75.4375L72.4141 613H70.2812ZM78.0781 603.031C77.4375 603.031 76.9141 602.523 76.9141 601.883C76.9141 601.25 77.4375 600.734 78.0781 600.734C78.7109 600.734 79.2344 601.25 79.2344 601.883C79.2344 602.523 78.7109 603.031 78.0781 603.031ZM77.1016 613V604.461H79.0469V613H77.1016ZM85.1016 613.172C82.5312 613.172 81.0156 611.508 81.0156 608.719V608.703C81.0156 605.945 82.5234 604.297 85.0938 604.297C87.2891 604.297 88.6016 605.516 88.8203 607.281V607.312H86.9844L86.9766 607.289C86.7969 606.461 86.1641 605.867 85.1016 605.867C83.7734 605.867 82.9922 606.914 82.9922 608.703V608.719C82.9922 610.531 83.7812 611.594 85.1016 611.594C86.1094 611.594 86.7266 611.133 86.9688 610.234L86.9844 610.203L88.8203 610.195L88.8047 610.258C88.5234 612.008 87.2656 613.172 85.1016 613.172ZM94.3281 613.172C91.7891 613.172 90.25 611.469 90.25 608.75V608.742C90.25 606.055 91.8047 604.297 94.2344 604.297C96.6641 604.297 98.1641 606 98.1641 608.578V609.219H92.1953C92.2188 610.75 93.0469 611.641 94.3672 611.641C95.4219 611.641 96.0234 611.109 96.2109 610.719L96.2344 610.664H98.0859L98.0625 610.734C97.7891 611.836 96.6484 613.172 94.3281 613.172ZM94.2578 605.82C93.1719 605.82 92.3594 606.555 92.2109 607.914H96.2656C96.1328 606.516 95.3438 605.82 94.2578 605.82ZM103.336 613.172C101.164 613.172 99.8516 612.172 99.6875 610.727V610.711H101.617L101.625 610.727C101.828 611.32 102.398 611.734 103.367 611.734C104.336 611.734 105.008 611.297 105.008 610.656V610.641C105.008 610.141 104.633 609.812 103.695 609.602L102.312 609.289C100.688 608.93 99.9141 608.164 99.9141 606.906V606.898C99.9141 605.359 101.32 604.297 103.336 604.297C105.414 604.297 106.656 605.328 106.781 606.711V606.727H104.953L104.945 606.703C104.805 606.164 104.242 605.727 103.328 605.727C102.461 605.727 101.836 606.148 101.836 606.789V606.797C101.836 607.297 102.195 607.602 103.117 607.812L104.5 608.117C106.172 608.492 106.961 609.203 106.961 610.445V610.461C106.961 612.086 105.438 613.172 103.336 613.172ZM115.516 613.141C113.891 613.141 112.711 612.141 112.711 610.586V610.57C112.711 609.047 113.875 608.156 115.953 608.031L118.148 607.898V607.164C118.148 606.312 117.594 605.844 116.547 605.844C115.656 605.844 115.078 606.164 114.883 606.727L114.875 606.758H113.039L113.047 606.688C113.234 605.25 114.609 604.297 116.641 604.297C118.836 604.297 120.07 605.359 120.07 607.164V613H118.148V611.828H118.016C117.547 612.656 116.641 613.141 115.516 613.141ZM114.633 610.492C114.633 611.219 115.25 611.648 116.109 611.648C117.281 611.648 118.148 610.883 118.148 609.867V609.18L116.227 609.305C115.141 609.375 114.633 609.773 114.633 610.477V610.492ZM122.406 613V604.461H124.352V605.766H124.484C124.891 604.852 125.711 604.297 126.945 604.297C128.852 604.297 129.891 605.445 129.891 607.477V613H127.945V607.93C127.945 606.602 127.406 605.93 126.227 605.93C125.07 605.93 124.352 606.742 124.352 608.023V613H122.406ZM135.266 613.141C133.125 613.141 131.766 611.445 131.766 608.742V608.727C131.766 606.008 133.102 604.32 135.266 604.32C136.438 604.32 137.414 604.898 137.859 605.82H137.992V601.156H139.945V613H137.992V611.664H137.859C137.391 612.594 136.469 613.141 135.266 613.141ZM135.875 611.5C137.203 611.5 138.023 610.453 138.023 608.742V608.727C138.023 607.016 137.195 605.961 135.875 605.961C134.555 605.961 133.742 607.008 133.742 608.727V608.742C133.742 610.461 134.547 611.5 135.875 611.5ZM147.281 613V605.969H145.883V604.461H147.281V603.617C147.281 601.914 148.141 601.078 150.047 601.078C150.461 601.078 150.812 601.102 151.125 601.156V602.516C150.977 602.492 150.734 602.477 150.461 602.477C149.547 602.477 149.195 602.914 149.195 603.727V604.461H151.047V605.969H149.227V613H147.281ZM156.266 613.172C153.727 613.172 152.188 611.469 152.188 608.75V608.742C152.188 606.055 153.742 604.297 156.172 604.297C158.602 604.297 160.102 606 160.102 608.578V609.219H154.133C154.156 610.75 154.984 611.641 156.305 611.641C157.359 611.641 157.961 611.109 158.148 610.719L158.172 610.664H160.023L160 610.734C159.727 611.836 158.586 613.172 156.266 613.172ZM156.195 605.82C155.109 605.82 154.297 606.555 154.148 607.914H158.203C158.07 606.516 157.281 605.82 156.195 605.82ZM164.375 613.141C162.75 613.141 161.57 612.141 161.57 610.586V610.57C161.57 609.047 162.734 608.156 164.812 608.031L167.008 607.898V607.164C167.008 606.312 166.453 605.844 165.406 605.844C164.516 605.844 163.938 606.164 163.742 606.727L163.734 606.758H161.898L161.906 606.688C162.094 605.25 163.469 604.297 165.5 604.297C167.695 604.297 168.93 605.359 168.93 607.164V613H167.008V611.828H166.875C166.406 612.656 165.5 613.141 164.375 613.141ZM163.492 610.492C163.492 611.219 164.109 611.648 164.969 611.648C166.141 611.648 167.008 610.883 167.008 609.867V609.18L165.086 609.305C164 609.375 163.492 609.773 163.492 610.477V610.492ZM174.625 613.039C172.664 613.039 171.859 612.383 171.859 610.734V605.969H170.531V604.461H171.859V602.367H173.836V604.461H175.641V605.969H173.836V610.273C173.836 611.125 174.172 611.484 174.984 611.484C175.258 611.484 175.406 611.477 175.641 611.453V612.953C175.359 613.008 175 613.039 174.625 613.039ZM180.406 613.172C178.484 613.172 177.5 612.016 177.5 609.984V604.461H179.445V609.539C179.445 610.859 179.938 611.531 181.109 611.531C182.367 611.531 183.039 610.719 183.039 609.438V604.461H184.984V613H183.039V611.703H182.906C182.508 612.617 181.641 613.172 180.406 613.172ZM187.359 613V604.461H189.305V605.773H189.438C189.727 604.859 190.508 604.32 191.633 604.32C191.93 604.32 192.234 604.359 192.422 604.414V606.156C192.109 606.094 191.789 606.047 191.453 606.047C190.156 606.047 189.305 606.82 189.305 608.039V613H187.359ZM197.453 613.172C194.914 613.172 193.375 611.469 193.375 608.75V608.742C193.375 606.055 194.93 604.297 197.359 604.297C199.789 604.297 201.289 606 201.289 608.578V609.219H195.32C195.344 610.75 196.172 611.641 197.492 611.641C198.547 611.641 199.148 611.109 199.336 610.719L199.359 610.664H201.211L201.188 610.734C200.914 611.836 199.773 613.172 197.453 613.172ZM197.383 605.82C196.297 605.82 195.484 606.555 195.336 607.914H199.391C199.258 606.516 198.469 605.82 197.383 605.82ZM206.461 613.172C204.289 613.172 202.977 612.172 202.812 610.727V610.711H204.742L204.75 610.727C204.953 611.32 205.523 611.734 206.492 611.734C207.461 611.734 208.133 611.297 208.133 610.656V610.641C208.133 610.141 207.758 609.812 206.82 609.602L205.438 609.289C203.812 608.93 203.039 608.164 203.039 606.906V606.898C203.039 605.359 204.445 604.297 206.461 604.297C208.539 604.297 209.781 605.328 209.906 606.711V606.727H208.078L208.07 606.703C207.93 606.164 207.367 605.727 206.453 605.727C205.586 605.727 204.961 606.148 204.961 606.789V606.797C204.961 607.297 205.32 607.602 206.242 607.812L207.625 608.117C209.297 608.492 210.086 609.203 210.086 610.445V610.461C210.086 612.086 208.562 613.172 206.461 613.172Z" fill="#2A2A2A"/>
<rect x="24" y="626" width="343" height="205" rx="12" fill="white"/>
<g clip-path="url(#clip5_1023_1412)">
<path d="M47.5606 674.571H56.4985" stroke="#003087" stroke-width="1.5" stroke-linecap="round" stroke-linejoin="round"/>
<path d="M52.0296 672.605V676.378" stroke="#003087" stroke-width="1.5" stroke-linecap="round" stroke-linejoin="round"/>
<path fill-rule="evenodd" clip-rule="evenodd" d="M56.4985 674.571L55.6473 672.552H48.465L47.5606 674.571V681.479H56.4985V674.571Z" stroke="#003087" stroke-width="1.5" stroke-linecap="round" stroke-linejoin="round"/>
<path d="M52.0296 665.857V668.567" stroke="#003087" stroke-width="1.5" stroke-linecap="round" stroke-linejoin="round"/>
<path d="M52.0296 685.464V688.173" stroke="#003087" stroke-width="1.5" stroke-linecap="round" stroke-linejoin="round"/>
<path d="M43.3044 672.552C44.9537 669.364 48.2522 667.185 52.0296 667.185C57.4562 667.185 61.8719 671.596 61.8719 677.015" stroke="#003087" stroke-width="1.5" stroke-linecap="round" stroke-linejoin="round"/>
<path d="M59.7439 675.262L61.8187 677.015L63.202 674.624" stroke="#003087" stroke-width="1.5" stroke-linecap="round" stroke-linejoin="round"/>
<path d="M60.7547 681.532C59.1054 684.667 55.8069 686.845 52.0296 686.845C46.603 686.845 42.1872 682.435 42.1872 677.015" stroke="#003087" stroke-width="1.5" stroke-linecap="round" stroke-linejoin="round"/>
<path d="M44.3153 678.769L42.1872 677.015L40.8571 679.406" stroke="#003087" stroke-width="1.5" stroke-linecap="round" stroke-linejoin="round"/>
<path d="M72.5391 660L76.6953 648.727H78.0859L82.2422 660H80.7656L79.6328 656.773H75.1484L74.0156 660H72.5391ZM77.3281 650.547L75.5625 655.578H79.2188L77.4531 650.547H77.3281ZM86.4766 660.148C84.5625 660.148 83.5781 659.023 83.5781 657.031V651.578H84.9375V656.703C84.9375 658.219 85.4844 658.945 86.8281 658.945C88.3125 658.945 89.1016 658.039 89.1016 656.562V651.578H90.4609V660H89.1016V658.742H88.9766C88.5625 659.641 87.7109 660.148 86.4766 660.148ZM95.9922 660.062C94.2578 660.062 93.5312 659.422 93.5312 657.812V652.703H92.2031V651.578H93.5312V649.398H94.9375V651.578H96.7812V652.703H94.9375V657.469C94.9375 658.461 95.2812 658.859 96.1562 658.859C96.3984 658.859 96.5312 658.852 96.7812 658.828V659.984C96.5156 660.031 96.2578 660.062 95.9922 660.062ZM102.148 660.148C99.75 660.148 98.2656 658.492 98.2656 655.797V655.781C98.2656 653.078 99.75 651.43 102.148 651.43C104.547 651.43 106.031 653.078 106.031 655.781V655.797C106.031 658.492 104.547 660.148 102.148 660.148ZM102.148 658.945C103.742 658.945 104.641 657.781 104.641 655.797V655.781C104.641 653.789 103.742 652.633 102.148 652.633C100.555 652.633 99.6562 653.789 99.6562 655.781V655.797C99.6562 657.781 100.555 658.945 102.148 658.945ZM108.141 660V651.578H109.5V652.859H109.625C110 651.953 110.797 651.43 111.898 651.43C113.039 651.43 113.836 652.031 114.227 652.906H114.352C114.805 652.016 115.766 651.43 116.93 651.43C118.648 651.43 119.609 652.414 119.609 654.18V660H118.25V654.492C118.25 653.25 117.68 652.633 116.492 652.633C115.32 652.633 114.547 653.516 114.547 654.586V660H113.188V654.281C113.188 653.281 112.5 652.633 111.438 652.633C110.336 652.633 109.5 653.594 109.5 654.781V660H108.141ZM124.375 660.148C122.773 660.148 121.562 659.18 121.562 657.648V657.633C121.562 656.133 122.672 655.266 124.633 655.148L127.047 655V654.234C127.047 653.195 126.414 652.633 125.156 652.633C124.148 652.633 123.484 653.008 123.266 653.664L123.258 653.688H121.898L121.906 653.641C122.125 652.32 123.406 651.43 125.203 651.43C127.258 651.43 128.406 652.484 128.406 654.234V660H127.047V658.758H126.922C126.391 659.656 125.508 660.148 124.375 660.148ZM122.953 657.617C122.953 658.469 123.68 658.969 124.656 658.969C126.039 658.969 127.047 658.062 127.047 656.859V656.094L124.797 656.234C123.516 656.312 122.953 656.766 122.953 657.602V657.617ZM133.883 660.062C132.148 660.062 131.422 659.422 131.422 657.812V652.703H130.094V651.578H131.422V649.398H132.828V651.578H134.672V652.703H132.828V657.469C132.828 658.461 133.172 658.859 134.047 658.859C134.289 658.859 134.422 658.852 134.672 658.828V659.984C134.406 660.031 134.148 660.062 133.883 660.062ZM137.422 649.953C136.906 649.953 136.484 649.531 136.484 649.016C136.484 648.5 136.906 648.078 137.422 648.078C137.938 648.078 138.359 648.5 138.359 649.016C138.359 649.531 137.938 649.953 137.422 649.953ZM136.734 660V651.578H138.094V660H136.734ZM144.102 660.148C141.742 660.148 140.234 658.438 140.234 655.766V655.75C140.234 653.133 141.734 651.43 144.094 651.43C146.141 651.43 147.367 652.609 147.617 654.109L147.625 654.156H146.273L146.266 654.133C146.055 653.305 145.305 652.633 144.094 652.633C142.578 652.633 141.625 653.852 141.625 655.75V655.766C141.625 657.703 142.594 658.945 144.094 658.945C145.227 658.945 145.945 658.445 146.258 657.508L146.273 657.461L147.617 657.453L147.602 657.539C147.258 659.062 146.125 660.148 144.102 660.148ZM157.102 660.062C155.367 660.062 154.641 659.422 154.641 657.812V652.703H153.312V651.578H154.641V649.398H156.047V651.578H157.891V652.703H156.047V657.469C156.047 658.461 156.391 658.859 157.266 658.859C157.508 658.859 157.641 658.852 157.891 658.828V659.984C157.625 660.031 157.367 660.062 157.102 660.062ZM159.922 660V651.578H161.281V652.828H161.406C161.727 651.945 162.516 651.43 163.656 651.43C163.914 651.43 164.203 651.461 164.336 651.484V652.805C164.055 652.758 163.797 652.727 163.5 652.727C162.203 652.727 161.281 653.547 161.281 654.781V660H159.922ZM168.328 660.148C166.727 660.148 165.516 659.18 165.516 657.648V657.633C165.516 656.133 166.625 655.266 168.586 655.148L171 655V654.234C171 653.195 170.367 652.633 169.109 652.633C168.102 652.633 167.438 653.008 167.219 653.664L167.211 653.688H165.852L165.859 653.641C166.078 652.32 167.359 651.43 169.156 651.43C171.211 651.43 172.359 652.484 172.359 654.234V660H171V658.758H170.875C170.344 659.656 169.461 660.148 168.328 660.148ZM166.906 657.617C166.906 658.469 167.633 658.969 168.609 658.969C169.992 658.969 171 658.062 171 656.859V656.094L168.75 656.234C167.469 656.312 166.906 656.766 166.906 657.602V657.617ZM178.289 660.148C175.93 660.148 174.422 658.438 174.422 655.766V655.75C174.422 653.133 175.922 651.43 178.281 651.43C180.328 651.43 181.555 652.609 181.805 654.109L181.812 654.156H180.461L180.453 654.133C180.242 653.305 179.492 652.633 178.281 652.633C176.766 652.633 175.812 653.852 175.812 655.75V655.766C175.812 657.703 176.781 658.945 178.281 658.945C179.414 658.945 180.133 658.445 180.445 657.508L180.461 657.461L181.805 657.453L181.789 657.539C181.445 659.062 180.312 660.148 178.289 660.148ZM183.875 660V648.234H185.234V655.258H185.359L189 651.578H190.648L186.977 655.117L190.891 660H189.18L186.023 656.039L185.234 656.805V660H183.875ZM193.203 649.953C192.688 649.953 192.266 649.531 192.266 649.016C192.266 648.5 192.688 648.078 193.203 648.078C193.719 648.078 194.141 648.5 194.141 649.016C194.141 649.531 193.719 649.953 193.203 649.953ZM192.516 660V651.578H193.875V660H192.516ZM196.438 660V651.578H197.797V652.844H197.922C198.344 651.953 199.133 651.43 200.375 651.43C202.266 651.43 203.32 652.547 203.32 654.547V660H201.961V654.875C201.961 653.359 201.336 652.633 199.992 652.633C198.648 652.633 197.797 653.539 197.797 655.016V660H196.438ZM209.25 662.969C207.219 662.969 205.922 662.055 205.711 660.672L205.727 660.664H207.133L207.141 660.672C207.289 661.312 208.039 661.766 209.25 661.766C210.758 661.766 211.656 661.055 211.656 659.812V658.109H211.531C211 659.039 210.047 659.562 208.891 659.562C206.711 659.562 205.359 657.875 205.359 655.516V655.5C205.359 653.141 206.719 651.43 208.922 651.43C210.109 651.43 211.031 652.016 211.547 652.969H211.641V651.578H213V659.883C213 661.766 211.547 662.969 209.25 662.969ZM209.188 658.359C210.75 658.359 211.688 657.188 211.688 655.516V655.5C211.688 653.828 210.742 652.633 209.188 652.633C207.625 652.633 206.75 653.828 206.75 655.5V655.516C206.75 657.188 207.625 658.359 209.188 658.359Z" fill="#2A2A2A"/>
<path d="M76.3672 686V675.992H72.7344V674.727H81.4062V675.992H77.7734V686H76.3672ZM82.2344 686V677.578H83.5938V678.828H83.7188C84.0391 677.945 84.8281 677.43 85.9688 677.43C86.2266 677.43 86.5156 677.461 86.6484 677.484V678.805C86.3672 678.758 86.1094 678.727 85.8125 678.727C84.5156 678.727 83.5938 679.547 83.5938 680.781V686H82.2344ZM90.6406 686.148C89.0391 686.148 87.8281 685.18 87.8281 683.648V683.633C87.8281 682.133 88.9375 681.266 90.8984 681.148L93.3125 681V680.234C93.3125 679.195 92.6797 678.633 91.4219 678.633C90.4141 678.633 89.75 679.008 89.5312 679.664L89.5234 679.688H88.1641L88.1719 679.641C88.3906 678.32 89.6719 677.43 91.4688 677.43C93.5234 677.43 94.6719 678.484 94.6719 680.234V686H93.3125V684.758H93.1875C92.6562 685.656 91.7734 686.148 90.6406 686.148ZM89.2188 683.617C89.2188 684.469 89.9453 684.969 90.9219 684.969C92.3047 684.969 93.3125 684.062 93.3125 682.859V682.094L91.0625 682.234C89.7812 682.312 89.2188 682.766 89.2188 683.602V683.617ZM100.602 686.148C98.2422 686.148 96.7344 684.438 96.7344 681.766V681.75C96.7344 679.133 98.2344 677.43 100.594 677.43C102.641 677.43 103.867 678.609 104.117 680.109L104.125 680.156H102.773L102.766 680.133C102.555 679.305 101.805 678.633 100.594 678.633C99.0781 678.633 98.125 679.852 98.125 681.75V681.766C98.125 683.703 99.0938 684.945 100.594 684.945C101.727 684.945 102.445 684.445 102.758 683.508L102.773 683.461L104.117 683.453L104.102 683.539C103.758 685.062 102.625 686.148 100.602 686.148ZM106.188 686V674.234H107.547V681.258H107.672L111.312 677.578H112.961L109.289 681.117L113.203 686H111.492L108.336 682.039L107.547 682.805V686H106.188ZM119.297 688.812V677.578H120.656V678.922H120.781C121.297 677.984 122.234 677.43 123.406 677.43C125.539 677.43 126.938 679.156 126.938 681.781V681.797C126.938 684.438 125.547 686.148 123.406 686.148C122.25 686.148 121.242 685.57 120.781 684.672H120.656V688.812H119.297ZM123.094 684.945C124.633 684.945 125.547 683.758 125.547 681.797V681.781C125.547 679.82 124.633 678.633 123.094 678.633C121.562 678.633 120.625 679.836 120.625 681.781V681.797C120.625 683.742 121.562 684.945 123.094 684.945ZM131.375 686.148C129.773 686.148 128.562 685.18 128.562 683.648V683.633C128.562 682.133 129.672 681.266 131.633 681.148L134.047 681V680.234C134.047 679.195 133.414 678.633 132.156 678.633C131.148 678.633 130.484 679.008 130.266 679.664L130.258 679.688H128.898L128.906 679.641C129.125 678.32 130.406 677.43 132.203 677.43C134.258 677.43 135.406 678.484 135.406 680.234V686H134.047V684.758H133.922C133.391 685.656 132.508 686.148 131.375 686.148ZM129.953 683.617C129.953 684.469 130.68 684.969 131.656 684.969C133.039 684.969 134.047 684.062 134.047 682.859V682.094L131.797 682.234C130.516 682.312 129.953 682.766 129.953 683.602V683.617ZM141.336 686.148C138.977 686.148 137.469 684.438 137.469 681.766V681.75C137.469 679.133 138.969 677.43 141.328 677.43C143.375 677.43 144.602 678.609 144.852 680.109L144.859 680.156H143.508L143.5 680.133C143.289 679.305 142.539 678.633 141.328 678.633C139.812 678.633 138.859 679.852 138.859 681.75V681.766C138.859 683.703 139.828 684.945 141.328 684.945C142.461 684.945 143.18 684.445 143.492 683.508L143.508 683.461L144.852 683.453L144.836 683.539C144.492 685.062 143.359 686.148 141.336 686.148ZM146.922 686V674.234H148.281V681.258H148.406L152.047 677.578H153.695L150.023 681.117L153.938 686H152.227L149.07 682.039L148.281 682.805V686H146.922ZM157.609 686.148C156.008 686.148 154.797 685.18 154.797 683.648V683.633C154.797 682.133 155.906 681.266 157.867 681.148L160.281 681V680.234C160.281 679.195 159.648 678.633 158.391 678.633C157.383 678.633 156.719 679.008 156.5 679.664L156.492 679.688H155.133L155.141 679.641C155.359 678.32 156.641 677.43 158.438 677.43C160.492 677.43 161.641 678.484 161.641 680.234V686H160.281V684.758H160.156C159.625 685.656 158.742 686.148 157.609 686.148ZM156.188 683.617C156.188 684.469 156.914 684.969 157.891 684.969C159.273 684.969 160.281 684.062 160.281 682.859V682.094L158.031 682.234C156.75 682.312 156.188 682.766 156.188 683.602V683.617ZM167.594 688.969C165.562 688.969 164.266 688.055 164.055 686.672L164.07 686.664H165.477L165.484 686.672C165.633 687.312 166.383 687.766 167.594 687.766C169.102 687.766 170 687.055 170 685.812V684.109H169.875C169.344 685.039 168.391 685.562 167.234 685.562C165.055 685.562 163.703 683.875 163.703 681.516V681.5C163.703 679.141 165.062 677.43 167.266 677.43C168.453 677.43 169.375 678.016 169.891 678.969H169.984V677.578H171.344V685.883C171.344 687.766 169.891 688.969 167.594 688.969ZM167.531 684.359C169.094 684.359 170.031 683.188 170.031 681.516V681.5C170.031 679.828 169.086 678.633 167.531 678.633C165.969 678.633 165.094 679.828 165.094 681.5V681.516C165.094 683.188 165.969 684.359 167.531 684.359ZM177.312 686.148C174.906 686.148 173.453 684.461 173.453 681.82V681.812C173.453 679.211 174.938 677.43 177.227 677.43C179.516 677.43 180.906 679.133 180.906 681.648V682.18H174.844C174.883 683.922 175.844 684.938 177.344 684.938C178.484 684.938 179.188 684.398 179.414 683.891L179.445 683.82H180.805L180.789 683.883C180.5 685.023 179.297 686.148 177.312 686.148ZM177.219 678.641C175.969 678.641 175.016 679.492 174.867 681.094H179.523C179.383 679.43 178.461 678.641 177.219 678.641ZM185.906 686.148C184.031 686.148 182.742 685.242 182.586 683.852H183.977C184.203 684.555 184.875 685.016 185.953 685.016C187.086 685.016 187.891 684.477 187.891 683.711V683.695C187.891 683.125 187.461 682.727 186.422 682.477L185.117 682.164C183.539 681.789 182.828 681.102 182.828 679.891V679.883C182.828 678.484 184.172 677.43 185.961 677.43C187.727 677.43 188.953 678.312 189.141 679.688H187.805C187.625 679.023 186.969 678.562 185.953 678.562C184.953 678.562 184.219 679.078 184.219 679.82V679.836C184.219 680.406 184.641 680.766 185.633 681.008L186.93 681.32C188.516 681.703 189.281 682.391 189.281 683.594V683.609C189.281 685.109 187.82 686.148 185.906 686.148ZM199.352 686.148C196.953 686.148 195.469 684.492 195.469 681.797V681.781C195.469 679.078 196.953 677.43 199.352 677.43C201.75 677.43 203.234 679.078 203.234 681.781V681.797C203.234 684.492 201.75 686.148 199.352 686.148ZM199.352 684.945C200.945 684.945 201.844 683.781 201.844 681.797V681.781C201.844 679.789 200.945 678.633 199.352 678.633C197.758 678.633 196.859 679.789 196.859 681.781V681.797C196.859 683.781 197.758 684.945 199.352 684.945ZM205.344 686V677.578H206.703V678.844H206.828C207.25 677.953 208.039 677.43 209.281 677.43C211.172 677.43 212.227 678.547 212.227 680.547V686H210.867V680.875C210.867 679.359 210.242 678.633 208.898 678.633C207.555 678.633 206.703 679.539 206.703 681.016V686H205.344ZM222.18 686.062C220.445 686.062 219.719 685.422 219.719 683.812V678.703H218.391V677.578H219.719V675.398H221.125V677.578H222.969V678.703H221.125V683.469C221.125 684.461 221.469 684.859 222.344 684.859C222.586 684.859 222.719 684.852 222.969 684.828V685.984C222.703 686.031 222.445 686.062 222.18 686.062ZM225.078 686V674.234H226.438V678.844H226.562C226.984 677.953 227.773 677.43 229.016 677.43C230.906 677.43 231.961 678.547 231.961 680.547V686H230.602V680.875C230.602 679.359 229.977 678.633 228.633 678.633C227.289 678.633 226.438 679.539 226.438 681.016V686H225.078ZM237.859 686.148C235.453 686.148 234 684.461 234 681.82V681.812C234 679.211 235.484 677.43 237.773 677.43C240.062 677.43 241.453 679.133 241.453 681.648V682.18H235.391C235.43 683.922 236.391 684.938 237.891 684.938C239.031 684.938 239.734 684.398 239.961 683.891L239.992 683.82H241.352L241.336 683.883C241.047 685.023 239.844 686.148 237.859 686.148ZM237.766 678.641C236.516 678.641 235.562 679.492 235.414 681.094H240.07C239.93 679.43 239.008 678.641 237.766 678.641ZM244.281 675.953C243.766 675.953 243.344 675.531 243.344 675.016C243.344 674.5 243.766 674.078 244.281 674.078C244.797 674.078 245.219 674.5 245.219 675.016C245.219 675.531 244.797 675.953 244.281 675.953ZM243.594 686V677.578H244.953V686H243.594ZM247.516 686V677.578H248.875V678.828H249C249.32 677.945 250.109 677.43 251.25 677.43C251.508 677.43 251.797 677.461 251.93 677.484V678.805C251.648 678.758 251.391 678.727 251.094 678.727C249.797 678.727 248.875 679.547 248.875 680.781V686H247.516ZM259.734 686L257.375 677.578H258.734L260.391 684.312H260.516L262.398 677.578H263.688L265.57 684.312H265.695L267.352 677.578H268.703L266.344 686H264.977L263.094 679.484H262.969L261.094 686H259.734ZM272.578 686.148C270.977 686.148 269.766 685.18 269.766 683.648V683.633C269.766 682.133 270.875 681.266 272.836 681.148L275.25 681V680.234C275.25 679.195 274.617 678.633 273.359 678.633C272.352 678.633 271.688 679.008 271.469 679.664L271.461 679.688H270.102L270.109 679.641C270.328 678.32 271.609 677.43 273.406 677.43C275.461 677.43 276.609 678.484 276.609 680.234V686H275.25V684.758H275.125C274.594 685.656 273.711 686.148 272.578 686.148ZM271.156 683.617C271.156 684.469 271.883 684.969 272.859 684.969C274.242 684.969 275.25 684.062 275.25 682.859V682.094L273 682.234C271.719 682.312 271.156 682.766 271.156 683.602V683.617ZM279.5 688.953C279.32 688.953 279.086 688.938 278.898 688.906V687.789C279.062 687.82 279.273 687.828 279.461 687.828C280.234 687.828 280.703 687.477 281.008 686.508L281.164 686.008L278.047 677.578H279.5L281.812 684.508H281.938L284.242 677.578H285.672L282.383 686.516C281.688 688.406 280.992 688.953 279.5 688.953ZM294.961 686.062C293.227 686.062 292.5 685.422 292.5 683.812V678.703H291.172V677.578H292.5V675.398H293.906V677.578H295.75V678.703H293.906V683.469C293.906 684.461 294.25 684.859 295.125 684.859C295.367 684.859 295.5 684.852 295.75 684.828V685.984C295.484 686.031 295.227 686.062 294.961 686.062ZM301.117 686.148C298.719 686.148 297.234 684.492 297.234 681.797V681.781C297.234 679.078 298.719 677.43 301.117 677.43C303.516 677.43 305 679.078 305 681.781V681.797C305 684.492 303.516 686.148 301.117 686.148ZM301.117 684.945C302.711 684.945 303.609 683.781 303.609 681.797V681.781C303.609 679.789 302.711 678.633 301.117 678.633C299.523 678.633 298.625 679.789 298.625 681.781V681.797C298.625 683.781 299.523 684.945 301.117 684.945ZM73.9844 709.953C73.8047 709.953 73.5703 709.938 73.3828 709.906V708.789C73.5469 708.82 73.7578 708.828 73.9453 708.828C74.7188 708.828 75.1875 708.477 75.4922 707.508L75.6484 707.008L72.5312 698.578H73.9844L76.2969 705.508H76.4219L78.7266 698.578H80.1562L76.8672 707.516C76.1719 709.406 75.4766 709.953 73.9844 709.953ZM85.1016 707.148C82.7031 707.148 81.2188 705.492 81.2188 702.797V702.781C81.2188 700.078 82.7031 698.43 85.1016 698.43C87.5 698.43 88.9844 700.078 88.9844 702.781V702.797C88.9844 705.492 87.5 707.148 85.1016 707.148ZM85.1016 705.945C86.6953 705.945 87.5938 704.781 87.5938 702.797V702.781C87.5938 700.789 86.6953 699.633 85.1016 699.633C83.5078 699.633 82.6094 700.789 82.6094 702.781V702.797C82.6094 704.781 83.5078 705.945 85.1016 705.945ZM93.9141 707.148C92 707.148 91.0156 706.023 91.0156 704.031V698.578H92.375V703.703C92.375 705.219 92.9219 705.945 94.2656 705.945C95.75 705.945 96.5391 705.039 96.5391 703.562V698.578H97.8984V707H96.5391V705.742H96.4141C96 706.641 95.1484 707.148 93.9141 707.148ZM101.547 707.078C100.992 707.078 100.531 706.617 100.531 706.062C100.531 705.5 100.992 705.047 101.547 705.047C102.109 705.047 102.562 705.5 102.562 706.062C102.562 706.617 102.109 707.078 101.547 707.078Z" fill="#434343"/>
<path fill-rule="evenodd" clip-rule="evenodd" d="M335.59 682.34L340.17 677.75L335.59 673.16L337 671.75L343 677.75L337 683.75L335.59 682.34Z" fill="#434343"/>
<mask id="mask6_1023_1412" style="mask-type:luminance" maskUnits="userSpaceOnUse" x="335" y="671" width="8" height="13">
<path fill-rule="evenodd" clip-rule="evenodd" d="M335.59 682.34L340.17 677.75L335.59 673.16L337 671.75L343 677.75L337 683.75L335.59 682.34Z" fill="white"/>
</mask>
<g mask="url(#mask6_1023_1412)">
</g>
<rect x="40" y="728" width="327" height="1" fill="#C0C0C0"/>
</g>
<g clip-path="url(#clip6_1023_1412)">
<g clip-path="url(#clip7_1023_1412)">
<path d="M50.3333 784.193V788.359C50.3333 788.82 50.7064 789.193 51.1667 789.193H52.8333C53.2936 789.193 53.6667 788.82 53.6667 788.359V784.193" stroke="#003087" stroke-width="1.5"/>
<path d="M47.0833 770.75H57.8333C59.7203 770.75 61.2503 772.28 61.2503 774.167V784.167C61.2501 784.213 61.2122 784.25 61.1663 784.25H42.9163C42.8706 784.25 42.8335 784.213 42.8333 784.167V775C42.8333 772.653 44.7361 770.75 47.0833 770.75Z" stroke="#003087" stroke-width="1.5"/>
<path d="M46.2503 770.75H48.3987C50.2857 770.75 51.8157 772.28 51.8157 774.167V784.167C51.8156 784.213 51.7785 784.25 51.7327 784.25H42.9163C42.8706 784.25 42.8335 784.213 42.8333 784.167V774.167C42.8333 772.28 44.3633 770.75 46.2503 770.75Z" stroke="#003087" stroke-width="1.5"/>
<path d="M45.3333 780.833L49.5 780.833" stroke="#003087" stroke-width="1.5" stroke-linecap="round"/>
<rect x="54.5" y="773.333" width="4.16667" height="2.5" rx="0.833333" fill="#003087"/>
<path d="M54.9167 774.167V779.167" stroke="#003087" stroke-width="1.5" stroke-linecap="round"/>
</g>
<path d="M73.4375 763V751.727H75.0703L78.9297 761.133H79.0547L82.9141 751.727H84.5469V763H83.2344V754.391H83.1484L79.5859 763H78.3984L74.8359 754.391H74.75V763H73.4375ZM87.9688 765.953C87.7891 765.953 87.5547 765.938 87.3672 765.906V764.789C87.5312 764.82 87.7422 764.828 87.9297 764.828C88.7031 764.828 89.1719 764.477 89.4766 763.508L89.6328 763.008L86.5156 754.578H87.9688L90.2812 761.508H90.4062L92.7109 754.578H94.1406L90.8516 763.516C90.1562 765.406 89.4609 765.953 87.9688 765.953ZM96.1094 763V751.727H97.7422L101.602 761.133H101.727L105.586 751.727H107.219V763H105.906V754.391H105.82L102.258 763H101.07L97.5078 754.391H97.4219V763H96.1094ZM112.234 763.148C110.633 763.148 109.422 762.18 109.422 760.648V760.633C109.422 759.133 110.531 758.266 112.492 758.148L114.906 758V757.234C114.906 756.195 114.273 755.633 113.016 755.633C112.008 755.633 111.344 756.008 111.125 756.664L111.117 756.688H109.758L109.766 756.641C109.984 755.32 111.266 754.43 113.062 754.43C115.117 754.43 116.266 755.484 116.266 757.234V763H114.906V761.758H114.781C114.25 762.656 113.367 763.148 112.234 763.148ZM110.812 760.617C110.812 761.469 111.539 761.969 112.516 761.969C113.898 761.969 114.906 761.062 114.906 759.859V759.094L112.656 759.234C111.375 759.312 110.812 759.766 110.812 760.602V760.617ZM119.469 752.953C118.953 752.953 118.531 752.531 118.531 752.016C118.531 751.5 118.953 751.078 119.469 751.078C119.984 751.078 120.406 751.5 120.406 752.016C120.406 752.531 119.984 752.953 119.469 752.953ZM118.781 763V754.578H120.141V763H118.781ZM122.781 763V751.234H124.141V763H122.781Z" fill="#2A2A2A"/>
<path d="M78.1094 789.266C74.9922 789.266 73 786.969 73 783.367V783.352C73 779.797 75.0234 777.461 78.1094 777.461C80.6094 777.461 82.3672 778.867 82.8125 781.008L82.8281 781.086H81.4062L81.3828 781.008C80.9219 779.555 79.7891 778.758 78.1094 778.758C75.875 778.758 74.4375 780.555 74.4375 783.352V783.367C74.4375 786.203 75.8516 787.969 78.1172 787.969C80.1328 787.969 81.4922 786.68 81.4922 784.773V784.5H78.3281V783.266H82.8984V784.641C82.8984 787.422 80.9922 789.266 78.1094 789.266ZM88.6562 789.148C86.25 789.148 84.7969 787.461 84.7969 784.82V784.812C84.7969 782.211 86.2812 780.43 88.5703 780.43C90.8594 780.43 92.25 782.133 92.25 784.648V785.18H86.1875C86.2266 786.922 87.1875 787.938 88.6875 787.938C89.8281 787.938 90.5312 787.398 90.7578 786.891L90.7891 786.82H92.1484L92.1328 786.883C91.8438 788.023 90.6406 789.148 88.6562 789.148ZM88.5625 781.641C87.3125 781.641 86.3594 782.492 86.2109 784.094H90.8672C90.7266 782.43 89.8047 781.641 88.5625 781.641ZM97.3516 789.062C95.6172 789.062 94.8906 788.422 94.8906 786.812V781.703H93.5625V780.578H94.8906V778.398H96.2969V780.578H98.1406V781.703H96.2969V786.469C96.2969 787.461 96.6406 787.859 97.5156 787.859C97.7578 787.859 97.8906 787.852 98.1406 787.828V788.984C97.875 789.031 97.6172 789.062 97.3516 789.062ZM104.672 789V780.578H106.031V781.844H106.156C106.578 780.953 107.367 780.43 108.609 780.43C110.5 780.43 111.555 781.547 111.555 783.547V789H110.195V783.875C110.195 782.359 109.57 781.633 108.227 781.633C106.883 781.633 106.031 782.539 106.031 784.016V789H104.672ZM117.477 789.148C115.078 789.148 113.594 787.492 113.594 784.797V784.781C113.594 782.078 115.078 780.43 117.477 780.43C119.875 780.43 121.359 782.078 121.359 784.781V784.797C121.359 787.492 119.875 789.148 117.477 789.148ZM117.477 787.945C119.07 787.945 119.969 786.781 119.969 784.797V784.781C119.969 782.789 119.07 781.633 117.477 781.633C115.883 781.633 114.984 782.789 114.984 784.781V784.797C114.984 786.781 115.883 787.945 117.477 787.945ZM126.461 789.062C124.727 789.062 124 788.422 124 786.812V781.703H122.672V780.578H124V778.398H125.406V780.578H127.25V781.703H125.406V786.469C125.406 787.461 125.75 787.859 126.625 787.859C126.867 787.859 127 787.852 127.25 787.828V788.984C126.984 789.031 126.727 789.062 126.461 789.062ZM130 778.953C129.484 778.953 129.062 778.531 129.062 778.016C129.062 777.5 129.484 777.078 130 777.078C130.516 777.078 130.938 777.5 130.938 778.016C130.938 778.531 130.516 778.953 130 778.953ZM129.312 789V780.578H130.672V789H129.312ZM133.797 789V781.703H132.398V780.578H133.797V779.641C133.797 777.961 134.641 777.156 136.242 777.156C136.57 777.156 136.867 777.18 137.148 777.234V778.32C136.984 778.289 136.758 778.281 136.516 778.281C135.547 778.281 135.156 778.758 135.156 779.68V780.578H137.07V781.703H135.156V789H133.797ZM139.75 778.953C139.234 778.953 138.812 778.531 138.812 778.016C138.812 777.5 139.234 777.078 139.75 777.078C140.266 777.078 140.688 777.5 140.688 778.016C140.688 778.531 140.266 778.953 139.75 778.953ZM139.062 789V780.578H140.422V789H139.062ZM146.422 789.148C144.016 789.148 142.562 787.461 142.562 784.82V784.812C142.562 782.211 144.047 780.43 146.336 780.43C148.625 780.43 150.016 782.133 150.016 784.648V785.18H143.953C143.992 786.922 144.953 787.938 146.453 787.938C147.594 787.938 148.297 787.398 148.523 786.891L148.555 786.82H149.914L149.898 786.883C149.609 788.023 148.406 789.148 146.422 789.148ZM146.328 781.641C145.078 781.641 144.125 782.492 143.977 784.094H148.633C148.492 782.43 147.57 781.641 146.328 781.641ZM155.234 789.148C153.102 789.148 151.703 787.422 151.703 784.797V784.781C151.703 782.141 153.094 780.43 155.234 780.43C156.391 780.43 157.398 781.008 157.859 781.906H157.984V777.234H159.344V789H157.984V787.656H157.859C157.344 788.594 156.406 789.148 155.234 789.148ZM155.547 787.945C157.078 787.945 158.016 786.742 158.016 784.797V784.781C158.016 782.836 157.078 781.633 155.547 781.633C154.008 781.633 153.094 782.82 153.094 784.781V784.797C153.094 786.758 154.008 787.945 155.547 787.945ZM168.766 789.148C167.164 789.148 165.953 788.18 165.953 786.648V786.633C165.953 785.133 167.062 784.266 169.023 784.148L171.438 784V783.234C171.438 782.195 170.805 781.633 169.547 781.633C168.539 781.633 167.875 782.008 167.656 782.664L167.648 782.688H166.289L166.297 782.641C166.516 781.32 167.797 780.43 169.594 780.43C171.648 780.43 172.797 781.484 172.797 783.234V789H171.438V787.758H171.312C170.781 788.656 169.898 789.148 168.766 789.148ZM167.344 786.617C167.344 787.469 168.07 787.969 169.047 787.969C170.43 787.969 171.438 787.062 171.438 785.859V785.094L169.188 785.234C167.906 785.312 167.344 785.766 167.344 786.602V786.617ZM179.469 789.148C178.297 789.148 177.359 788.594 176.844 787.656H176.719V789H175.359V777.234H176.719V781.906H176.844C177.305 781.008 178.312 780.43 179.469 780.43C181.609 780.43 183 782.141 183 784.781V784.797C183 787.422 181.602 789.148 179.469 789.148ZM179.156 787.945C180.695 787.945 181.609 786.758 181.609 784.797V784.781C181.609 782.82 180.695 781.633 179.156 781.633C177.625 781.633 176.688 782.836 176.688 784.781V784.797C176.688 786.742 177.625 787.945 179.156 787.945ZM188.57 789.148C186.172 789.148 184.688 787.492 184.688 784.797V784.781C184.688 782.078 186.172 780.43 188.57 780.43C190.969 780.43 192.453 782.078 192.453 784.781V784.797C192.453 787.492 190.969 789.148 188.57 789.148ZM188.57 787.945C190.164 787.945 191.062 786.781 191.062 784.797V784.781C191.062 782.789 190.164 781.633 188.57 781.633C186.977 781.633 186.078 782.789 186.078 784.781V784.797C186.078 786.781 186.977 787.945 188.57 787.945ZM197.383 789.148C195.469 789.148 194.484 788.023 194.484 786.031V780.578H195.844V785.703C195.844 787.219 196.391 787.945 197.734 787.945C199.219 787.945 200.008 787.039 200.008 785.562V780.578H201.367V789H200.008V787.742H199.883C199.469 788.641 198.617 789.148 197.383 789.148ZM206.898 789.062C205.164 789.062 204.438 788.422 204.438 786.812V781.703H203.109V780.578H204.438V778.398H205.844V780.578H207.688V781.703H205.844V786.469C205.844 787.461 206.188 787.859 207.062 787.859C207.305 787.859 207.438 787.852 207.688 787.828V788.984C207.422 789.031 207.164 789.062 206.898 789.062ZM214.219 789V780.578H215.578V781.859H215.703C216.078 780.953 216.875 780.43 217.977 780.43C219.117 780.43 219.914 781.031 220.305 781.906H220.43C220.883 781.016 221.844 780.43 223.008 780.43C224.727 780.43 225.688 781.414 225.688 783.18V789H224.328V783.492C224.328 782.25 223.758 781.633 222.57 781.633C221.398 781.633 220.625 782.516 220.625 783.586V789H219.266V783.281C219.266 782.281 218.578 781.633 217.516 781.633C216.414 781.633 215.578 782.594 215.578 783.781V789H214.219ZM230.453 789.148C228.852 789.148 227.641 788.18 227.641 786.648V786.633C227.641 785.133 228.75 784.266 230.711 784.148L233.125 784V783.234C233.125 782.195 232.492 781.633 231.234 781.633C230.227 781.633 229.562 782.008 229.344 782.664L229.336 782.688H227.977L227.984 782.641C228.203 781.32 229.484 780.43 231.281 780.43C233.336 780.43 234.484 781.484 234.484 783.234V789H233.125V787.758H233C232.469 788.656 231.586 789.148 230.453 789.148ZM229.031 786.617C229.031 787.469 229.758 787.969 230.734 787.969C232.117 787.969 233.125 787.062 233.125 785.859V785.094L230.875 785.234C229.594 785.312 229.031 785.766 229.031 786.602V786.617ZM237.688 778.953C237.172 778.953 236.75 778.531 236.75 778.016C236.75 777.5 237.172 777.078 237.688 777.078C238.203 777.078 238.625 777.5 238.625 778.016C238.625 778.531 238.203 778.953 237.688 778.953ZM237 789V780.578H238.359V789H237ZM241 789V777.234H242.359V789H241ZM253.656 789.148C252.484 789.148 251.547 788.594 251.031 787.656H250.906V789H249.547V777.234H250.906V781.906H251.031C251.492 781.008 252.5 780.43 253.656 780.43C255.797 780.43 257.188 782.141 257.188 784.781V784.797C257.188 787.422 255.789 789.148 253.656 789.148ZM253.344 787.945C254.883 787.945 255.797 786.758 255.797 784.797V784.781C255.797 782.82 254.883 781.633 253.344 781.633C251.812 781.633 250.875 782.836 250.875 784.781V784.797C250.875 786.742 251.812 787.945 253.344 787.945ZM262.734 789.148C260.328 789.148 258.875 787.461 258.875 784.82V784.812C258.875 782.211 260.359 780.43 262.648 780.43C264.938 780.43 266.328 782.133 266.328 784.648V785.18H260.266C260.305 786.922 261.266 787.938 262.766 787.938C263.906 787.938 264.609 787.398 264.836 786.891L264.867 786.82H266.227L266.211 786.883C265.922 788.023 264.719 789.148 262.734 789.148ZM262.641 781.641C261.391 781.641 260.438 782.492 260.289 784.094H264.945C264.805 782.43 263.883 781.641 262.641 781.641ZM269 789V781.703H267.602V780.578H269V779.641C269 777.961 269.844 777.156 271.445 777.156C271.773 777.156 272.07 777.18 272.352 777.234V778.32C272.188 778.289 271.961 778.281 271.719 778.281C270.75 778.281 270.359 778.758 270.359 779.68V780.578H272.273V781.703H270.359V789H269ZM277.336 789.148C274.938 789.148 273.453 787.492 273.453 784.797V784.781C273.453 782.078 274.938 780.43 277.336 780.43C279.734 780.43 281.219 782.078 281.219 784.781V784.797C281.219 787.492 279.734 789.148 277.336 789.148ZM277.336 787.945C278.93 787.945 279.828 786.781 279.828 784.797V784.781C279.828 782.789 278.93 781.633 277.336 781.633C275.742 781.633 274.844 782.789 274.844 784.781V784.797C274.844 786.781 275.742 787.945 277.336 787.945ZM283.328 789V780.578H284.688V781.828H284.812C285.133 780.945 285.922 780.43 287.062 780.43C287.32 780.43 287.609 780.461 287.742 780.484V781.805C287.461 781.758 287.203 781.727 286.906 781.727C285.609 781.727 284.688 782.547 284.688 783.781V789H283.328ZM292.625 789.148C290.219 789.148 288.766 787.461 288.766 784.82V784.812C288.766 782.211 290.25 780.43 292.539 780.43C294.828 780.43 296.219 782.133 296.219 784.648V785.18H290.156C290.195 786.922 291.156 787.938 292.656 787.938C293.797 787.938 294.5 787.398 294.727 786.891L294.758 786.82H296.117L296.102 786.883C295.812 788.023 294.609 789.148 292.625 789.148ZM292.531 781.641C291.281 781.641 290.328 782.492 290.18 784.094H294.836C294.695 782.43 293.773 781.641 292.531 781.641ZM303.547 778.953C303.031 778.953 302.609 778.531 302.609 778.016C302.609 777.5 303.031 777.078 303.547 777.078C304.062 777.078 304.484 777.5 304.484 778.016C304.484 778.531 304.062 778.953 303.547 778.953ZM302.859 789V780.578H304.219V789H302.859ZM309.773 789.062C308.039 789.062 307.312 788.422 307.312 786.812V781.703H305.984V780.578H307.312V778.398H308.719V780.578H310.562V781.703H308.719V786.469C308.719 787.461 309.062 787.859 309.938 787.859C310.18 787.859 310.312 787.852 310.562 787.828V788.984C310.297 789.031 310.039 789.062 309.773 789.062ZM75.5781 810.148C73.9766 810.148 72.7656 809.18 72.7656 807.648V807.633C72.7656 806.133 73.875 805.266 75.8359 805.148L78.25 805V804.234C78.25 803.195 77.6172 802.633 76.3594 802.633C75.3516 802.633 74.6875 803.008 74.4688 803.664L74.4609 803.688H73.1016L73.1094 803.641C73.3281 802.32 74.6094 801.43 76.4062 801.43C78.4609 801.43 79.6094 802.484 79.6094 804.234V810H78.25V808.758H78.125C77.5938 809.656 76.7109 810.148 75.5781 810.148ZM74.1562 807.617C74.1562 808.469 74.8828 808.969 75.8594 808.969C77.2422 808.969 78.25 808.062 78.25 806.859V806.094L76 806.234C74.7188 806.312 74.1562 806.766 74.1562 807.602V807.617ZM82.0938 810V801.578H83.4531V802.828H83.5781C83.8984 801.945 84.6875 801.43 85.8281 801.43C86.0859 801.43 86.375 801.461 86.5078 801.484V802.805C86.2266 802.758 85.9688 802.727 85.6719 802.727C84.375 802.727 83.4531 803.547 83.4531 804.781V810H82.0938ZM88.3438 810V801.578H89.7031V802.828H89.8281C90.1484 801.945 90.9375 801.43 92.0781 801.43C92.3359 801.43 92.625 801.461 92.7578 801.484V802.805C92.4766 802.758 92.2188 802.727 91.9219 802.727C90.625 802.727 89.7031 803.547 89.7031 804.781V810H88.3438ZM95.1562 799.953C94.6406 799.953 94.2188 799.531 94.2188 799.016C94.2188 798.5 94.6406 798.078 95.1562 798.078C95.6719 798.078 96.0938 798.5 96.0938 799.016C96.0938 799.531 95.6719 799.953 95.1562 799.953ZM94.4688 810V801.578H95.8281V810H94.4688ZM100.773 810L97.6562 801.578H99.0938L101.398 808.516H101.523L103.828 801.578H105.266L102.148 810H100.773ZM110.188 810.148C107.781 810.148 106.328 808.461 106.328 805.82V805.812C106.328 803.211 107.812 801.43 110.102 801.43C112.391 801.43 113.781 803.133 113.781 805.648V806.18H107.719C107.758 807.922 108.719 808.938 110.219 808.938C111.359 808.938 112.062 808.398 112.289 807.891L112.32 807.82H113.68L113.664 807.883C113.375 809.023 112.172 810.148 110.188 810.148ZM110.094 802.641C108.844 802.641 107.891 803.492 107.742 805.094H112.398C112.258 803.43 111.336 802.641 110.094 802.641ZM118.781 810.148C116.906 810.148 115.617 809.242 115.461 807.852H116.852C117.078 808.555 117.75 809.016 118.828 809.016C119.961 809.016 120.766 808.477 120.766 807.711V807.695C120.766 807.125 120.336 806.727 119.297 806.477L117.992 806.164C116.414 805.789 115.703 805.102 115.703 803.891V803.883C115.703 802.484 117.047 801.43 118.836 801.43C120.602 801.43 121.828 802.312 122.016 803.688H120.68C120.5 803.023 119.844 802.562 118.828 802.562C117.828 802.562 117.094 803.078 117.094 803.82V803.836C117.094 804.406 117.516 804.766 118.508 805.008L119.805 805.32C121.391 805.703 122.156 806.391 122.156 807.594V807.609C122.156 809.109 120.695 810.148 118.781 810.148ZM125.375 810.078C124.82 810.078 124.359 809.617 124.359 809.062C124.359 808.5 124.82 808.047 125.375 808.047C125.938 808.047 126.391 808.5 126.391 809.062C126.391 809.617 125.938 810.078 125.375 810.078Z" fill="#434343"/>
<path fill-rule="evenodd" clip-rule="evenodd" d="M335.59 785.34L340.17 780.75L335.59 776.16L337 774.75L343 780.75L337 786.75L335.59 785.34Z" fill="#434343"/>
</g>
<rect x="127" y="806.596" width="135" height="5" rx="2.5" fill="black"/>
<rect width="375" height="100" transform="translate(8 8)" fill="#E4002B"/>
<path fill-rule="evenodd" clip-rule="evenodd" d="M58 78.2664C57.9999 78.6214 57.7122 78.9092 57.3571 78.9093H36.3116L44.6005 86.411C44.7712 86.5649 44.8468 86.7983 44.7986 87.023C44.7504 87.2478 44.5858 87.4296 44.3669 87.4999C44.1481 87.5702 43.9084 87.5182 43.7383 87.3636L34.2118 78.7427C34.2081 78.7394 34.2069 78.7344 34.2033 78.7311C34.1569 78.6844 34.1181 78.6308 34.088 78.5722C34.0783 78.5544 34.0624 78.5407 34.0543 78.5222C33.9819 78.3594 33.9819 78.1735 34.0543 78.0107C34.0624 77.9922 34.0783 77.9784 34.088 77.9607C34.1181 77.9021 34.1569 77.8485 34.2033 77.8018C34.2069 77.7985 34.2081 77.7935 34.2118 77.7902L43.7383 69.1693C43.9081 69.0133 44.1486 68.9603 44.3683 69.0305C44.588 69.1006 44.7533 69.2832 44.8012 69.5088C44.8492 69.7344 44.7726 69.9684 44.6005 70.1219L36.3116 77.6236H57.3571C57.7122 77.6237 57.9999 77.9114 58 78.2664Z" fill="white"/>
<mask id="mask7_1023_1412" style="mask-type:luminance" maskUnits="userSpaceOnUse" x="34" y="69" width="24" height="19">
<path fill-rule="evenodd" clip-rule="evenodd" d="M58 78.2664C57.9999 78.6214 57.7122 78.9092 57.3571 78.9093H36.3116L44.6005 86.411C44.7712 86.5649 44.8468 86.7983 44.7986 87.023C44.7504 87.2478 44.5858 87.4296 44.3669 87.4999C44.1481 87.5702 43.9084 87.5182 43.7383 87.3636L34.2118 78.7427C34.2081 78.7394 34.2069 78.7344 34.2033 78.7311C34.1569 78.6844 34.1181 78.6308 34.088 78.5722C34.0783 78.5544 34.0624 78.5407 34.0543 78.5222C33.9819 78.3594 33.9819 78.1735 34.0543 78.0107C34.0624 77.9922 34.0783 77.9784 34.088 77.9607C34.1181 77.9021 34.1569 77.8485 34.2033 77.8018C34.2069 77.7985 34.2081 77.7935 34.2118 77.7902L43.7383 69.1693C43.9081 69.0133 44.1486 68.9603 44.3683 69.0305C44.588 69.1006 44.7533 69.2832 44.8012 69.5088C44.8492 69.7344 44.7726 69.9684 44.6005 70.1219L36.3116 77.6236H57.3571C57.7122 77.6237 57.9999 77.9114 58 78.2664Z" fill="white"/>
</mask>
<g mask="url(#mask7_1023_1412)">
</g>
<path d="M164.133 83.5L168.203 72.2266H169.617V74.2031H169.086L165.977 83.5H164.133ZM166.094 80.4531L166.586 79.0469H171.719L172.211 80.4531H166.094ZM172.32 83.5L169.219 74.2031V72.2266H170.102L174.164 83.5H172.32ZM179.031 83.6641C178.208 83.6641 177.497 83.487 176.898 83.1328C176.305 82.7734 175.846 82.263 175.523 81.6016C175.201 80.9401 175.039 80.151 175.039 79.2344V79.2188C175.039 78.3177 175.198 77.5417 175.516 76.8906C175.839 76.2396 176.297 75.737 176.891 75.3828C177.49 75.0286 178.201 74.8516 179.023 74.8516C179.737 74.8516 180.349 74.9766 180.859 75.2266C181.375 75.4714 181.784 75.8099 182.086 76.2422C182.393 76.6693 182.586 77.1562 182.664 77.7031L182.672 77.7422H181.039L181.031 77.7266C180.938 77.3099 180.721 76.9635 180.383 76.6875C180.044 76.4062 179.594 76.2656 179.031 76.2656C178.562 76.2656 178.159 76.3854 177.82 76.625C177.482 76.8594 177.221 77.1979 177.039 77.6406C176.862 78.0833 176.773 78.6094 176.773 79.2188V79.2344C176.773 79.8594 176.865 80.3958 177.047 80.8438C177.229 81.2917 177.49 81.638 177.828 81.8828C178.167 82.1224 178.568 82.2422 179.031 82.2422C179.562 82.2422 179.992 82.125 180.32 81.8906C180.654 81.6562 180.888 81.3099 181.023 80.8516L181.039 80.8125L182.664 80.8047L182.648 80.875C182.549 81.4271 182.349 81.9115 182.047 82.3281C181.745 82.7448 181.341 83.0729 180.836 83.3125C180.336 83.5469 179.734 83.6641 179.031 83.6641ZM188.156 83.6641C187.333 83.6641 186.622 83.487 186.023 83.1328C185.43 82.7734 184.971 82.263 184.648 81.6016C184.326 80.9401 184.164 80.151 184.164 79.2344V79.2188C184.164 78.3177 184.323 77.5417 184.641 76.8906C184.964 76.2396 185.422 75.737 186.016 75.3828C186.615 75.0286 187.326 74.8516 188.148 74.8516C188.862 74.8516 189.474 74.9766 189.984 75.2266C190.5 75.4714 190.909 75.8099 191.211 76.2422C191.518 76.6693 191.711 77.1562 191.789 77.7031L191.797 77.7422H190.164L190.156 77.7266C190.062 77.3099 189.846 76.9635 189.508 76.6875C189.169 76.4062 188.719 76.2656 188.156 76.2656C187.688 76.2656 187.284 76.3854 186.945 76.625C186.607 76.8594 186.346 77.1979 186.164 77.6406C185.987 78.0833 185.898 78.6094 185.898 79.2188V79.2344C185.898 79.8594 185.99 80.3958 186.172 80.8438C186.354 81.2917 186.615 81.638 186.953 81.8828C187.292 82.1224 187.693 82.2422 188.156 82.2422C188.688 82.2422 189.117 82.125 189.445 81.8906C189.779 81.6562 190.013 81.3099 190.148 80.8516L190.164 80.8125L191.789 80.8047L191.773 80.875C191.674 81.4271 191.474 81.9115 191.172 82.3281C190.87 82.7448 190.466 83.0729 189.961 83.3125C189.461 83.5469 188.859 83.6641 188.156 83.6641ZM197.305 83.6641C196.477 83.6641 195.76 83.487 195.156 83.1328C194.557 82.7786 194.096 82.2734 193.773 81.6172C193.451 80.9557 193.289 80.1719 193.289 79.2656V79.25C193.289 78.3385 193.451 77.5547 193.773 76.8984C194.102 76.2422 194.565 75.737 195.164 75.3828C195.768 75.0286 196.482 74.8516 197.305 74.8516C198.133 74.8516 198.846 75.0286 199.445 75.3828C200.044 75.7318 200.505 76.237 200.828 76.8984C201.156 77.5547 201.32 78.3385 201.32 79.25V79.2656C201.32 80.1719 201.156 80.9557 200.828 81.6172C200.505 82.2734 200.044 82.7786 199.445 83.1328C198.852 83.487 198.138 83.6641 197.305 83.6641ZM197.305 82.2422C197.789 82.2422 198.201 82.125 198.539 81.8906C198.878 81.651 199.135 81.3099 199.312 80.8672C199.49 80.4245 199.578 79.8906 199.578 79.2656V79.25C199.578 78.6198 199.49 78.0833 199.312 77.6406C199.135 77.1979 198.878 76.8594 198.539 76.625C198.201 76.3854 197.789 76.2656 197.305 76.2656C196.82 76.2656 196.409 76.3854 196.07 76.625C195.732 76.8594 195.471 77.1979 195.289 77.6406C195.112 78.0833 195.023 78.6198 195.023 79.25V79.2656C195.023 79.8906 195.112 80.4245 195.289 80.8672C195.471 81.3099 195.732 81.651 196.07 81.8906C196.409 82.125 196.82 82.2422 197.305 82.2422ZM206.164 83.6641C205.529 83.6641 204.992 83.5417 204.555 83.2969C204.122 83.0469 203.797 82.6875 203.578 82.2188C203.365 81.7448 203.258 81.1745 203.258 80.5078V75.0156H204.953V80.1094C204.953 80.8073 205.091 81.3307 205.367 81.6797C205.643 82.0286 206.094 82.2031 206.719 82.2031C207.052 82.2031 207.349 82.1536 207.609 82.0547C207.87 81.9505 208.089 81.8021 208.266 81.6094C208.443 81.4167 208.573 81.1849 208.656 80.9141C208.745 80.6432 208.789 80.3359 208.789 79.9922V75.0156H210.492V83.5H208.789V82.2188H208.664C208.529 82.5208 208.344 82.7812 208.109 83C207.875 83.2135 207.594 83.3776 207.266 83.4922C206.943 83.6068 206.576 83.6641 206.164 83.6641ZM212.93 83.5V75.0156H214.625V76.2969H214.758C214.966 75.8438 215.273 75.4896 215.68 75.2344C216.086 74.9792 216.599 74.8516 217.219 74.8516C218.172 74.8516 218.901 75.125 219.406 75.6719C219.911 76.2188 220.164 76.9974 220.164 78.0078V83.5H218.461V78.4062C218.461 77.6979 218.312 77.1719 218.016 76.8281C217.724 76.4792 217.266 76.3047 216.641 76.3047C216.229 76.3047 215.872 76.3958 215.57 76.5781C215.268 76.7552 215.034 77.0104 214.867 77.3438C214.706 77.6719 214.625 78.0651 214.625 78.5234V83.5H212.93ZM225.727 83.5547C224.799 83.5547 224.128 83.3776 223.711 83.0234C223.299 82.6641 223.094 82.0781 223.094 81.2656V76.3516H221.766V75.0156H223.094V72.875H224.828V75.0156H226.648V76.3516H224.828V80.8516C224.828 81.3099 224.919 81.6406 225.102 81.8438C225.284 82.0417 225.586 82.1406 226.008 82.1406C226.133 82.1406 226.24 82.138 226.328 82.1328C226.422 82.1276 226.529 82.1198 226.648 82.1094V83.4688C226.513 83.4896 226.367 83.5078 226.211 83.5234C226.055 83.5443 225.893 83.5547 225.727 83.5547Z" fill="white"/>
</g>
<rect x="4" y="4" width="383" height="820" rx="36" stroke="white" stroke-width="8"/>
<defs>
<filter id="filter0_d_1023_1412" x="118" y="517" width="20" height="20" filterUnits="userSpaceOnUse" color-interpolation-filters="sRGB">
<feFlood flood-opacity="0" result="BackgroundImageFix"/>
<feColorMatrix in="SourceAlpha" type="matrix" values="0 0 0 0 0 0 0 0 0 0 0 0 0 0 0 0 0 0 127 0" result="hardAlpha"/>
<feOffset dy="1"/>
<feGaussianBlur stdDeviation="2"/>
<feComposite in2="hardAlpha" operator="out"/>
<feColorMatrix type="matrix" values="0 0 0 0 1 0 0 0 0 1 0 0 0 0 1 0 0 0 0.65 0"/>
<feBlend mode="normal" in2="BackgroundImageFix" result="effect1_dropShadow_1023_1412"/>
<feBlend mode="normal" in="SourceGraphic" in2="effect1_dropShadow_1023_1412" result="shape"/>
</filter>
<clipPath id="clip0_1023_1412">
<rect x="8" y="8" width="375" height="812" rx="32" fill="white"/>
</clipPath>
<clipPath id="clip1_1023_1412">
<rect width="343" height="57" fill="white" transform="translate(24 338)"/>
</clipPath>
<clipPath id="clip2_1023_1412">
<rect width="343" height="57" fill="white" transform="translate(24 395)"/>
</clipPath>
<clipPath id="clip3_1023_1412">
<rect width="343" height="57" fill="white" transform="translate(24 452)"/>
</clipPath>
<clipPath id="clip4_1023_1412">
<rect width="343" height="56" fill="white" transform="translate(24 509)"/>
</clipPath>
<clipPath id="clip5_1023_1412">
<rect width="343" height="103" fill="white" transform="translate(24 626)"/>
</clipPath>
<clipPath id="clip6_1023_1412">
<rect width="343" height="102" fill="white" transform="translate(24 729)"/>
</clipPath>
<clipPath id="clip7_1023_1412">
<rect width="20" height="20" fill="white" transform="translate(42 770)"/>
</clipPath>
</defs>
</svg>
