<svg width="1098" height="512" viewBox="0 0 1098 512" fill="none" xmlns="http://www.w3.org/2000/svg">
<rect x="0.5" y="72.178" width="1096.05" height="351.115" rx="15.5" stroke="#65836D"/>
<rect x="218.729" y="45.1829" width="223.16" height="418.119" rx="16" transform="rotate(-10.0582 218.729 45.1829)" fill="#1B2E22"/>
<rect width="223.16" height="418.119" rx="16" transform="matrix(-0.984631 -0.174648 -0.174648 0.984631 874.425 45.1829)" fill="#1B2E22"/>
<path d="M289.075 25C288.862 25 288.776 24.8613 288.819 24.584L293.139 4.328C293.182 4.136 293.299 4.04 293.491 4.04H297.779C297.992 4.04 298.12 4.136 298.163 4.328L302.451 24.584C302.515 24.8613 302.44 25 302.227 25H298.547C298.355 25 298.238 24.904 298.195 24.712L296.275 12.264C296.168 11.5387 296.062 10.8133 295.955 10.088C295.848 9.34133 295.752 8.60533 295.667 7.88H295.603C295.496 8.60533 295.4 9.34133 295.315 10.088C295.23 10.8133 295.123 11.5493 294.995 12.296L293.011 24.712C292.99 24.904 292.872 25 292.659 25H289.075ZM293.075 20.648L293.619 17.416H297.555L298.163 20.648H293.075ZM306.37 25.192C305.624 25.192 305.016 25 304.546 24.616C304.098 24.232 303.874 23.688 303.874 22.984V22.408C303.874 21.6827 304.098 21.1387 304.546 20.776C305.016 20.392 305.624 20.2 306.37 20.2C307.181 20.2 307.8 20.392 308.226 20.776C308.653 21.1387 308.866 21.6827 308.866 22.408V22.984C308.866 23.688 308.653 24.232 308.226 24.616C307.8 25 307.181 25.192 306.37 25.192ZM320.023 25.192C318.658 25.192 317.559 24.9467 316.727 24.456C315.917 23.944 315.341 23.2187 314.999 22.28C314.679 21.32 314.573 20.2 314.679 18.92C314.701 18.6427 314.807 18.504 314.999 18.504H318.263C318.455 18.504 318.541 18.632 318.519 18.888C318.434 19.784 318.519 20.488 318.775 21C319.053 21.4907 319.49 21.736 320.087 21.736C320.642 21.736 321.047 21.576 321.303 21.256C321.559 20.936 321.687 20.4133 321.687 19.688C321.687 19.0693 321.581 18.536 321.367 18.088C321.175 17.6187 320.845 17.2133 320.375 16.872L317.655 14.76C316.653 13.992 315.906 13.1707 315.415 12.296C314.925 11.4213 314.69 10.3333 314.711 9.032C314.733 7.368 315.181 6.088 316.055 5.192C316.93 4.296 318.231 3.848 319.959 3.848C321.901 3.848 323.33 4.38133 324.247 5.448C325.165 6.49333 325.538 7.98667 325.367 9.928C325.346 10.2267 325.229 10.376 325.015 10.376H321.719C321.506 10.376 321.41 10.2267 321.431 9.928C321.517 9.18133 321.442 8.56267 321.207 8.072C320.994 7.56 320.621 7.304 320.087 7.304C319.639 7.304 319.287 7.45333 319.031 7.752C318.797 8.02933 318.669 8.47733 318.647 9.096C318.647 9.71467 318.775 10.2373 319.031 10.664C319.287 11.0693 319.629 11.4427 320.055 11.784L322.743 13.832C323.469 14.3653 324.045 14.9093 324.471 15.464C324.898 15.9973 325.197 16.6053 325.367 17.288C325.559 17.9493 325.655 18.7493 325.655 19.688C325.634 21.4587 325.175 22.824 324.279 23.784C323.383 24.7227 321.965 25.192 320.023 25.192ZM327.918 25C327.704 25 327.598 24.872 327.598 24.616V4.424C327.598 4.168 327.704 4.04 327.918 4.04H331.246C331.459 4.04 331.566 4.168 331.566 4.424V24.616C331.566 24.872 331.459 25 331.246 25H327.918ZM338.93 25.192C337.266 25.192 335.997 24.6267 335.122 23.496C334.248 22.3653 333.81 20.6587 333.81 18.376V11.048C333.81 8.68 334.333 6.888 335.378 5.672C336.445 4.456 337.992 3.848 340.018 3.848C342.045 3.848 343.581 4.46667 344.626 5.704C345.672 6.94133 346.12 8.616 345.97 10.728C345.949 10.984 345.842 11.112 345.65 11.112L342.322 11.08C342.109 11.08 342.013 10.952 342.034 10.696C342.12 9.65067 341.992 8.85067 341.65 8.296C341.33 7.72 340.786 7.432 340.018 7.432C339.229 7.432 338.653 7.72 338.29 8.296C337.928 8.872 337.746 9.78933 337.746 11.048V18.056C337.746 19.336 337.906 20.2533 338.226 20.808C338.546 21.3413 339.112 21.608 339.922 21.608C340.648 21.608 341.202 21.32 341.586 20.744C341.97 20.168 342.162 19.304 342.162 18.152V16.872H340.178C339.965 16.872 339.858 16.7547 339.858 16.52V14.408C339.858 14.152 339.965 14.024 340.178 14.024H345.714C345.906 14.024 346.002 14.152 346.002 14.408V20.104C346.002 21.1493 346.024 22.024 346.066 22.728C346.109 23.432 346.162 24.0507 346.226 24.584C346.29 24.8613 346.194 25 345.938 25H343.314C343.144 25 343.037 24.8933 342.994 24.68C342.952 24.4453 342.909 24.1467 342.866 23.784C342.845 23.4213 342.824 23.0053 342.802 22.536H342.77C342.429 23.3467 341.96 23.9973 341.362 24.488C340.765 24.9573 339.954 25.192 338.93 25.192ZM348.886 25C348.673 25 348.566 24.872 348.566 24.616V4.424C348.566 4.168 348.673 4.04 348.886 4.04H353.078C353.27 4.04 353.388 4.12533 353.43 4.296L356.054 14.024C356.204 14.5573 356.353 15.1547 356.502 15.816C356.673 16.456 356.833 17.1067 356.982 17.768C357.132 18.4293 357.249 19.0053 357.334 19.496H357.398C357.377 19.0693 357.345 18.5573 357.302 17.96C357.26 17.3627 357.217 16.744 357.174 16.104C357.153 15.464 357.132 14.8453 357.11 14.248C357.11 13.6507 357.11 13.1387 357.11 12.712V4.392C357.11 4.15733 357.217 4.04 357.43 4.04H360.47C360.705 4.04 360.822 4.15733 360.822 4.392V24.616C360.822 24.872 360.716 25 360.502 25H356.342C356.172 25 356.054 24.9147 355.99 24.744L353.302 15.176C353.046 14.2373 352.812 13.288 352.598 12.328C352.406 11.3467 352.236 10.4613 352.086 9.672H352.022C352.065 10.2907 352.108 11.0267 352.15 11.88C352.193 12.7333 352.225 13.5973 352.246 14.472C352.289 15.3253 352.31 16.0613 352.31 16.68V24.616C352.31 24.872 352.193 25 351.958 25H348.886ZM363.636 25C363.423 25 363.316 24.872 363.316 24.616V4.424C363.316 4.168 363.423 4.04 363.636 4.04H372.788C373.002 4.04 373.108 4.168 373.108 4.424V7.208C373.108 7.464 373.002 7.592 372.788 7.592H367.284V12.712H372.276C372.49 12.712 372.596 12.84 372.596 13.096V15.72C372.596 15.9547 372.49 16.072 372.276 16.072H367.284V21.448H372.788C373.002 21.448 373.108 21.576 373.108 21.832V24.616C373.108 24.872 373.002 25 372.788 25H363.636ZM375.732 25C375.476 25 375.348 24.872 375.348 24.616V4.424C375.348 4.168 375.476 4.04 375.732 4.04H380.308C382.718 4.04 384.532 4.776 385.748 6.248C386.964 7.69867 387.572 9.91733 387.572 12.904V15.592C387.572 18.7493 386.974 21.1067 385.78 22.664C384.585 24.2213 382.814 25 380.468 25H375.732ZM379.316 21.448H380.372C381.502 21.448 382.324 20.9787 382.836 20.04C383.348 19.08 383.604 17.608 383.604 15.624V12.904C383.604 11.112 383.337 9.77867 382.804 8.904C382.292 8.02933 381.438 7.592 380.244 7.592H379.316V21.448ZM394.043 25C393.829 25 393.723 24.872 393.723 24.616V4.424C393.723 4.168 393.829 4.04 394.043 4.04H397.371C397.584 4.04 397.691 4.168 397.691 4.424V24.616C397.691 24.872 397.584 25 397.371 25H394.043ZM400.511 25C400.298 25 400.191 24.872 400.191 24.616V4.424C400.191 4.168 400.298 4.04 400.511 4.04H404.703C404.895 4.04 405.013 4.12533 405.055 4.296L407.679 14.024C407.829 14.5573 407.978 15.1547 408.127 15.816C408.298 16.456 408.458 17.1067 408.607 17.768C408.757 18.4293 408.874 19.0053 408.959 19.496H409.023C409.002 19.0693 408.97 18.5573 408.927 17.96C408.885 17.3627 408.842 16.744 408.799 16.104C408.778 15.464 408.757 14.8453 408.735 14.248C408.735 13.6507 408.735 13.1387 408.735 12.712V4.392C408.735 4.15733 408.842 4.04 409.055 4.04H412.095C412.33 4.04 412.447 4.15733 412.447 4.392V24.616C412.447 24.872 412.341 25 412.127 25H407.967C407.797 25 407.679 24.9147 407.615 24.744L404.927 15.176C404.671 14.2373 404.437 13.288 404.223 12.328C404.031 11.3467 403.861 10.4613 403.711 9.672H403.647C403.69 10.2907 403.733 11.0267 403.775 11.88C403.818 12.7333 403.85 13.5973 403.871 14.472C403.914 15.3253 403.935 16.0613 403.935 16.68V24.616C403.935 24.872 403.818 25 403.583 25H400.511Z" fill="#FFFF00"/>
<path d="M696.277 25C696.021 25 695.893 24.872 695.893 24.616V4.424C695.893 4.168 696.021 4.04 696.277 4.04H700.821C702.783 4.04 704.245 4.47733 705.205 5.352C706.165 6.22667 706.645 7.53867 706.645 9.288C706.645 10.3973 706.442 11.3253 706.037 12.072C705.631 12.8187 704.981 13.416 704.085 13.864V13.992C705.151 14.312 705.951 14.8987 706.485 15.752C707.018 16.584 707.285 17.6507 707.285 18.952C707.285 21 706.773 22.5253 705.749 23.528C704.746 24.5093 703.178 25 701.045 25H696.277ZM699.861 21.672H701.045C701.813 21.672 702.389 21.4267 702.773 20.936C703.178 20.424 703.381 19.6667 703.381 18.664C703.381 17.7253 703.178 17.0107 702.773 16.52C702.389 16.0293 701.813 15.784 701.045 15.784H699.861V21.672ZM699.861 12.776H700.821C701.461 12.776 701.941 12.5413 702.261 12.072C702.602 11.5813 702.773 10.8667 702.773 9.928C702.773 9.032 702.613 8.38133 702.293 7.976C701.973 7.57067 701.461 7.368 700.757 7.368H699.861V12.776ZM711.478 25.192C710.731 25.192 710.123 25 709.654 24.616C709.206 24.232 708.982 23.688 708.982 22.984V22.408C708.982 21.6827 709.206 21.1387 709.654 20.776C710.123 20.392 710.731 20.2 711.478 20.2C712.288 20.2 712.907 20.392 713.334 20.776C713.76 21.1387 713.974 21.6827 713.974 22.408V22.984C713.974 23.688 713.76 24.232 713.334 24.616C712.907 25 712.288 25.192 711.478 25.192ZM725.131 25.192C723.765 25.192 722.667 24.9467 721.835 24.456C721.024 23.944 720.448 23.2187 720.107 22.28C719.787 21.32 719.68 20.2 719.787 18.92C719.808 18.6427 719.915 18.504 720.107 18.504H723.371C723.563 18.504 723.648 18.632 723.627 18.888C723.541 19.784 723.627 20.488 723.883 21C724.16 21.4907 724.597 21.736 725.195 21.736C725.749 21.736 726.155 21.576 726.411 21.256C726.667 20.936 726.795 20.4133 726.795 19.688C726.795 19.0693 726.688 18.536 726.475 18.088C726.283 17.6187 725.952 17.2133 725.483 16.872L722.763 14.76C721.76 13.992 721.013 13.1707 720.523 12.296C720.032 11.4213 719.797 10.3333 719.819 9.032C719.84 7.368 720.288 6.088 721.163 5.192C722.037 4.296 723.339 3.848 725.067 3.848C727.008 3.848 728.437 4.38133 729.355 5.448C730.272 6.49333 730.645 7.98667 730.475 9.928C730.453 10.2267 730.336 10.376 730.123 10.376H726.827C726.613 10.376 726.517 10.2267 726.539 9.928C726.624 9.18133 726.549 8.56267 726.315 8.072C726.101 7.56 725.728 7.304 725.195 7.304C724.747 7.304 724.395 7.45333 724.139 7.752C723.904 8.02933 723.776 8.47733 723.755 9.096C723.755 9.71467 723.883 10.2373 724.139 10.664C724.395 11.0693 724.736 11.4427 725.163 11.784L727.851 13.832C728.576 14.3653 729.152 14.9093 729.579 15.464C730.005 15.9973 730.304 16.6053 730.475 17.288C730.667 17.9493 730.763 18.7493 730.763 19.688C730.741 21.4587 730.283 22.824 729.387 23.784C728.491 24.7227 727.072 25.192 725.131 25.192ZM733.025 25C732.812 25 732.705 24.872 732.705 24.616V4.424C732.705 4.168 732.812 4.04 733.025 4.04H736.353C736.566 4.04 736.673 4.168 736.673 4.424V24.616C736.673 24.872 736.566 25 736.353 25H733.025ZM744.038 25.192C742.374 25.192 741.104 24.6267 740.23 23.496C739.355 22.3653 738.918 20.6587 738.918 18.376V11.048C738.918 8.68 739.44 6.888 740.486 5.672C741.552 4.456 743.099 3.848 745.126 3.848C747.152 3.848 748.688 4.46667 749.734 5.704C750.779 6.94133 751.227 8.616 751.078 10.728C751.056 10.984 750.95 11.112 750.758 11.112L747.43 11.08C747.216 11.08 747.12 10.952 747.142 10.696C747.227 9.65067 747.099 8.85067 746.758 8.296C746.438 7.72 745.894 7.432 745.126 7.432C744.336 7.432 743.76 7.72 743.398 8.296C743.035 8.872 742.854 9.78933 742.854 11.048V18.056C742.854 19.336 743.014 20.2533 743.334 20.808C743.654 21.3413 744.219 21.608 745.03 21.608C745.755 21.608 746.31 21.32 746.694 20.744C747.078 20.168 747.27 19.304 747.27 18.152V16.872H745.286C745.072 16.872 744.966 16.7547 744.966 16.52V14.408C744.966 14.152 745.072 14.024 745.286 14.024H750.822C751.014 14.024 751.11 14.152 751.11 14.408V20.104C751.11 21.1493 751.131 22.024 751.174 22.728C751.216 23.432 751.27 24.0507 751.334 24.584C751.398 24.8613 751.302 25 751.046 25H748.422C748.251 25 748.144 24.8933 748.102 24.68C748.059 24.4453 748.016 24.1467 747.974 23.784C747.952 23.4213 747.931 23.0053 747.91 22.536H747.878C747.536 23.3467 747.067 23.9973 746.47 24.488C745.872 24.9573 745.062 25.192 744.038 25.192ZM753.994 25C753.78 25 753.674 24.872 753.674 24.616V4.424C753.674 4.168 753.78 4.04 753.994 4.04H758.186C758.378 4.04 758.495 4.12533 758.538 4.296L761.162 14.024C761.311 14.5573 761.46 15.1547 761.61 15.816C761.78 16.456 761.94 17.1067 762.09 17.768C762.239 18.4293 762.356 19.0053 762.442 19.496H762.506C762.484 19.0693 762.452 18.5573 762.41 17.96C762.367 17.3627 762.324 16.744 762.282 16.104C762.26 15.464 762.239 14.8453 762.218 14.248C762.218 13.6507 762.218 13.1387 762.218 12.712V4.392C762.218 4.15733 762.324 4.04 762.538 4.04H765.578C765.812 4.04 765.93 4.15733 765.93 4.392V24.616C765.93 24.872 765.823 25 765.61 25H761.45C761.279 25 761.162 24.9147 761.098 24.744L758.41 15.176C758.154 14.2373 757.919 13.288 757.706 12.328C757.514 11.3467 757.343 10.4613 757.194 9.672H757.13C757.172 10.2907 757.215 11.0267 757.258 11.88C757.3 12.7333 757.332 13.5973 757.354 14.472C757.396 15.3253 757.418 16.0613 757.418 16.68V24.616C757.418 24.872 757.3 25 757.066 25H753.994ZM768.744 25C768.53 25 768.424 24.872 768.424 24.616V4.424C768.424 4.168 768.53 4.04 768.744 4.04H777.896C778.109 4.04 778.216 4.168 778.216 4.424V7.208C778.216 7.464 778.109 7.592 777.896 7.592H772.392V12.712H777.384C777.597 12.712 777.704 12.84 777.704 13.096V15.72C777.704 15.9547 777.597 16.072 777.384 16.072H772.392V21.448H777.896C778.109 21.448 778.216 21.576 778.216 21.832V24.616C778.216 24.872 778.109 25 777.896 25H768.744ZM780.839 25C780.583 25 780.455 24.872 780.455 24.616V4.424C780.455 4.168 780.583 4.04 780.839 4.04H785.415C787.826 4.04 789.639 4.776 790.855 6.248C792.071 7.69867 792.679 9.91733 792.679 12.904V15.592C792.679 18.7493 792.082 21.1067 790.887 22.664C789.692 24.2213 787.922 25 785.575 25H780.839ZM784.423 21.448H785.479C786.61 21.448 787.431 20.9787 787.943 20.04C788.455 19.08 788.711 17.608 788.711 15.624V12.904C788.711 11.112 788.444 9.77867 787.911 8.904C787.399 8.02933 786.546 7.592 785.351 7.592H784.423V21.448ZM804.782 25.192C802.755 25.192 801.209 24.6053 800.142 23.432C799.097 22.2587 798.574 20.5307 798.574 18.248V10.856C798.574 8.53067 799.097 6.78133 800.142 5.608C801.209 4.43467 802.755 3.848 804.782 3.848C806.809 3.848 808.355 4.43467 809.422 5.608C810.489 6.78133 811.022 8.53067 811.022 10.856V18.248C811.022 20.5307 810.489 22.2587 809.422 23.432C808.355 24.6053 806.809 25.192 804.782 25.192ZM804.782 21.608C805.571 21.608 806.147 21.3413 806.51 20.808C806.873 20.2533 807.054 19.3467 807.054 18.088V10.984C807.054 9.704 806.873 8.79733 806.51 8.264C806.147 7.70933 805.571 7.432 804.782 7.432C804.014 7.432 803.438 7.70933 803.054 8.264C802.691 8.79733 802.51 9.704 802.51 10.984V18.088C802.51 19.3467 802.691 20.2533 803.054 20.808C803.438 21.3413 804.014 21.608 804.782 21.608ZM819.22 25.192C817.193 25.192 815.678 24.5947 814.676 23.4C813.673 22.2053 813.172 20.392 813.172 17.96V4.392C813.172 4.15733 813.278 4.04 813.492 4.04H816.852C817.044 4.04 817.14 4.15733 817.14 4.392V17.864C817.14 19.2507 817.3 20.2213 817.62 20.776C817.961 21.3307 818.494 21.608 819.22 21.608C819.966 21.608 820.5 21.3307 820.82 20.776C821.161 20.2213 821.332 19.2507 821.332 17.864V4.392C821.332 4.15733 821.438 4.04 821.652 4.04H824.98C825.193 4.04 825.3 4.15733 825.3 4.392V17.96C825.3 20.392 824.788 22.2053 823.764 23.4C822.761 24.5947 821.246 25.192 819.22 25.192ZM830.905 25C830.692 25 830.585 24.872 830.585 24.616V7.592H827.225C827.012 7.592 826.905 7.464 826.905 7.208V4.424C826.905 4.168 827.012 4.04 827.225 4.04H837.849C838.062 4.04 838.169 4.168 838.169 4.424V7.208C838.169 7.464 838.062 7.592 837.849 7.592H834.521V24.616C834.521 24.872 834.414 25 834.201 25H830.905Z" fill="#FFFF00"/>
<path d="M476.076 479.811H475.833" stroke="#283D2C" stroke-width="2" stroke-linecap="round"/>
<path d="M475.833 479.811C475.412 478.868 474.991 477.926 473.776 474.9C472.561 471.874 470.565 466.794 469.271 463.199C467.976 459.604 467.442 457.648 466.892 455.634" stroke="#283D2C" stroke-width="2" stroke-linecap="round"/>
<path d="M598.092 424.845C598.092 468.538 572.134 503.958 528.442 503.958C471.992 537.399 457.237 451.984 457.237 408.292C457.237 398.68 458.568 390.27 461.11 382.998C462.785 378.208 368.214 399.717 434.791 309.734C437.456 305.95 461.11 304.013 477.08 360.12C489.393 350.293 506.962 345.733 528.442 345.733C546.396 345.733 563.654 366.071 575.048 376.149C598.092 387.445 598.092 399.107 598.092 424.845Z" fill="#304C37"/>
<path d="M462.514 435.86C460.802 425.445 458.198 410.09 457.738 404.657C457.317 399.686 459.183 393.47 461.923 386.211C464.518 379.334 470.574 373.093 477.962 364.675C482.468 359.541 487.482 355.865 494.857 352.825C511.285 346.054 533.697 345.608 538.022 345.757C542.422 345.909 545.397 350.189 549.051 352.614C552.799 355.101 556.911 358.124 565.906 368.532C571.67 375.202 575.195 380.359 578.828 383.432C584.241 388.011 590.233 387.378 592.099 388.406C593.041 388.925 593.883 389.592 594.094 391.85C595.185 403.504 593.398 409.599 597.921 429.939C598.877 434.235 599.063 435.305 599.183 436.684C600.189 448.224 565.318 457.443 557.012 460.603C552.56 462.297 548.117 464.868 542.791 466.417C540.133 467.091 537.777 467.65 535.453 468.254C534.167 468.621 532.665 469.114 529.23 470.098" stroke="black" stroke-width="3" stroke-linecap="round"/>
<path d="M472.375 470.59C472.755 470.409 473.136 470.228 483.336 468.317C493.536 466.406 513.544 462.772 534.396 458.785" stroke="black" stroke-width="3" stroke-linecap="round"/>
<path d="M535.11 458.543L536.062 457.817" stroke="#283D2C" stroke-width="2" stroke-linecap="round"/>
<path d="M537.252 457.09C538.354 456.371 547.071 436.136 551.388 423.175C552.247 420.598 552.563 418.051 552.397 416.044C552.021 411.481 545.294 409.137 541.252 405.504C540.063 404.434 538.762 402.935 538.101 401.595C535.768 396.864 540.033 390.875 542.255 386.387C544.408 382.04 551.405 382.055 555.236 380.815C561.727 378.715 554.853 368.771 553.309 363.873C553.218 362.699 553.529 361.421 554.004 360.283C554.478 359.145 555.107 358.187 557.424 355.02" stroke="black" stroke-width="3" stroke-linecap="round"/>
<path d="M567.974 379.763C567.597 380.865 567.14 382.12 566.581 383.457C565.964 384.694 565.209 385.811 564.308 386.769C563.831 387.217 563.313 387.587 561.923 388.39" stroke="black" stroke-width="2" stroke-linecap="round"/>
<path d="M571.979 384.794C571.979 384.715 571.583 385.144 571.292 385.874C571.396 386.133 572.012 386.168 572.508 385.993C573.004 385.817 573.361 385.43 573.369 384.912" stroke="black" stroke-width="2" stroke-linecap="round"/>
<path d="M595.818 420.842C592.66 420.898 587.223 421.963 582.224 424.628C576.471 429.309 573.417 432.713 572.304 434.402C571.819 435.11 571.494 435.515 571.04 436.405" stroke="black" stroke-width="2" stroke-linecap="round"/>
<path d="M461.725 390.753C460.638 390.368 454.313 387.319 439.839 383.435C430.656 380.97 424.591 380.791 423.319 380.029C421.067 378.68 421.556 374.288 416.769 365.082C413.849 359.466 413.496 351.699 414.012 346.793C414.368 343.399 415.682 339.337 416.199 335.47C416.477 333.399 419.622 325.879 424.631 314.871C428.378 306.637 435.586 305.464 440.048 304.655C445.279 303.706 446.696 317.11 448.066 317.185C451.481 317.372 453.201 313.319 454.317 313.326C458.171 313.352 457.63 320.814 458.128 324.15C458.262 325.05 458.298 326.041 458.503 327.277C458.708 328.512 459.046 329.967 461.018 329.835C462.99 329.703 466.586 327.939 468.686 327.309C470.787 326.678 471.283 327.234 471.563 328.163C472.21 330.307 471.765 333.777 471.729 337.286C471.692 340.928 475.642 341.883 477.07 344.027C479.797 348.122 476.827 353.033 476.586 355.708C476.368 358.128 478.064 360.339 478.699 362.719C478.74 363.521 478.7 364.561 478.738 365.37C478.776 366.178 478.893 366.724 479.131 367.878" stroke="black" stroke-width="3" stroke-linecap="round"/>
<path d="M590.978 472.523C591.445 470.676 592.839 466.942 593.953 463.143C595.112 459.191 603.557 451.791 608.393 447.615C613.752 442.987 619.386 433.84 620.822 431.393C622.202 429.041 623.865 426.854 624.71 424.738C625.241 423.406 621.325 423.827 619.368 423.974C616.525 424.187 614.713 427.71 607.395 436.74C604.501 440.312 603.208 442.84 595.371 449.27C593.154 451.212 592.089 452.251 590.68 453.331C589.824 453.924 588.68 454.609 586.898 455.907" stroke="black" stroke-width="3" stroke-linecap="round"/>
<path d="M555.317 451.387C557.006 452.701 560.245 463.199 561.653 468.284L578.551 465.468C576.36 461.948 570.337 452.936 563.765 445.05C555.551 435.193 548.745 441.999 547.337 445.05C545.929 448.101 553.204 449.744 555.317 451.387Z" fill="#304C37"/>
<path d="M578.744 467.443C577.586 465.458 572.854 457.504 564.085 445.833C560.919 441.62 558.151 440.402 556.398 440.076C552.587 439.366 549.636 440.956 546.827 441.91C546.144 442.142 545.573 442.597 545.166 443.117C544.361 444.145 544.353 445.614 544.693 446.701C545.446 449.104 549.687 448.184 552.192 449.518C555.049 451.04 556.418 454.206 557.887 457.787C559.181 460.8 560.389 464.445 562.01 467.1C562.383 467.67 562.677 468.306 562.979 469.109" stroke="black" stroke-width="3" stroke-linecap="round"/>
<path d="M608.783 417.435C607.372 418.333 602.209 428.284 599.804 433.147L603.973 421.283L596.598 415.19L599.804 435.157L606.057 436.995C608.355 432.933 613.336 423.72 614.875 419.359C616.799 413.908 610.546 416.313 608.783 417.435Z" fill="#304C37"/>
<path d="M604.83 440.657C605.779 438.455 609.005 431.53 610.449 428.279C611.797 425.247 613.067 422.602 614.482 419.712C615.186 418.273 614.609 416.667 613.884 415.685C613.046 414.549 610.945 415.49 609.592 415.859C606.82 416.615 604.555 422.422 602.959 426.12C601.939 428.692 601.072 430.859 600.4 432.503C600.089 433.272 599.84 433.909 599.433 435.011" stroke="black" stroke-width="3" stroke-linecap="round"/>
<path d="M597.144 414.353C597.899 415.009 600.513 417.326 602.853 419.557C603.4 420.105 603.938 420.594 604.46 421.066C604.982 421.538 605.471 421.978 606.716 423.025" stroke="black" stroke-width="3" stroke-linecap="round"/>
<path d="M546.701 445.673C546.967 445.508 547.678 445.086 548.612 444.647C550.454 443.782 551.804 444.413 553.462 444.436C554.126 444.445 554.59 444.353 554.83 444.493C554.779 445.092 554.583 445.739 554.404 446.167C554.318 446.375 552.729 448.641 552.652 448.838" stroke="black" stroke-width="2" stroke-linecap="round"/>
<path d="M586.898 278.806C586.898 304.91 565.737 326.071 539.633 326.071C534.348 326.071 524.547 340.279 519.802 338.679C515.397 337.193 516.002 320.001 512.286 317.36C500.232 308.795 492.369 294.719 492.369 278.806C492.369 252.703 513.53 231.542 539.633 231.542C565.737 231.542 586.898 252.703 586.898 278.806Z" fill="#FFFF00"/>
<path d="M537.871 304.922C537.906 304.885 536.83 304.847 534.99 305.125C534.198 305.244 533.883 306.031 533.736 306.596C533.59 307.161 533.67 307.663 534.123 308.013C535.217 308.859 536.818 308.715 537.952 308.58C538.521 308.513 539.049 308.267 539.57 307.796C540.091 307.326 540.581 306.593 540.599 305.789C540.617 304.986 540.147 304.134 539.633 303.629C538.575 302.992 536.897 302.835 535.129 303.02C534.48 303.226 534.332 303.659 534.918 304.386" stroke="black" stroke-width="2" stroke-linecap="round"/>
<path d="M535.267 291.899C535.267 287.262 535.42 277.569 535.848 276.588C536.079 276.058 536.519 275.551 537.043 275.226C541.285 272.6 549.082 275.446 550.261 274.808C553.255 273.188 552.233 261.829 549.64 255.72C547.488 250.65 541.394 250.909 540.279 251.064C538.037 251.376 536.731 253.364 534.508 254.926C533.704 255.721 533.148 256.746 532.76 258.017C532.606 258.65 532.54 259.257 532.471 260.527" stroke="black" stroke-width="2" stroke-linecap="round"/>
</svg>
