<svg width="391" height="828" viewBox="0 0 391 828" fill="none" xmlns="http://www.w3.org/2000/svg">
<g clip-path="url(#clip0_1023_1412)">
<rect x="8" y="8" width="375" height="812" rx="32" fill="#F2F2F2"/>
<rect width="375" height="2428" transform="translate(8 108)" fill="#F2F2F2"/>
<rect x="24" y="124" width="343" height="384" rx="12" fill="white"/>
<rect x="40" y="140" width="311" height="182" rx="10" fill="#E1F2FF"/>
<mask id="mask0_1023_1412" style="mask-type:alpha" maskUnits="userSpaceOnUse" x="167" y="168" width="57" height="56">
<circle cx="195.5" cy="196" r="28" fill="#D9D9D9"/>
</mask>
<g mask="url(#mask0_1023_1412)">
<path fill-rule="evenodd" clip-rule="evenodd" d="M153.102 266.981C130.499 242.976 121.108 207.942 133.798 177.13C155.686 123.977 198.225 144.275 225.54 177.13C238.637 192.881 253.519 196.439 266.655 199.579C280.919 202.988 293.122 205.906 298.744 223.407C303.479 238.149 301.173 253.919 291.694 266.982L153.102 266.981Z" fill="white"/>
<path fill-rule="evenodd" clip-rule="evenodd" d="M237.762 187.945L223.923 187.945L228.44 182.565C223.12 176.271 223.743 166.894 229.85 161.361C232.751 158.736 236.596 157.406 240.499 157.677C244.402 157.949 248.026 159.798 250.536 162.799C255.859 169.102 255.222 178.491 249.098 184.018C245.962 186.731 241.904 188.136 237.762 187.945Z" fill="#DAE9FD" stroke="#DAE9FD" stroke-width="1.59068" stroke-linejoin="round"/>
<path d="M154.864 226.969L149.384 227.493L155.037 215.069L151.174 215.445L157.743 202.28L164.311 215.445L160.448 215.069L166.101 227.493L160.625 226.969L168.506 241.671L157.743 239.584L146.982 241.671L154.864 226.969Z" fill="#D5E9DA" stroke="#D5E9DA" stroke-width="1.59068" stroke-miterlimit="10" stroke-linecap="round" stroke-linejoin="round"/>
<path d="M175.104 215.525V250.822" stroke="#D5E9DA" stroke-width="1.59068" stroke-miterlimit="10" stroke-linecap="round" stroke-linejoin="round"/>
<path d="M172.807 231.099L168.445 231.342L172.344 222.046L169.87 221.739L175.103 211.246L180.341 221.739L177.01 222.046L181.766 231.342L177.4 231.099L183.679 242.641L175.103 241.154L166.528 242.641L172.807 231.099Z" fill="#D5E9DA" stroke="#D5E9DA" stroke-width="1.59068" stroke-miterlimit="10" stroke-linecap="round" stroke-linejoin="round"/>
<path d="M199.361 160.157C197.26 160.157 195.427 161.3 194.445 162.997C193.979 162.738 193.443 162.591 192.873 162.591C191.081 162.591 189.629 164.043 189.629 165.835H189.222C187.207 165.835 185.573 167.469 185.573 169.484C185.573 171.5 187.207 173.135 189.222 173.135H204.633C206.649 173.135 208.283 171.5 208.283 169.484C208.283 167.606 206.863 166.059 205.039 165.857C205.039 165.85 205.039 165.842 205.039 165.835C205.039 162.699 202.497 160.157 199.361 160.157Z" fill="#F2F9FF"/>
<path d="M204.001 235.294C204.001 235.294 199.454 255.3 199.454 256.767V256.873C199.454 259.153 197.59 260.997 195.3 260.997H185.488C183.191 260.997 181.334 259.146 181.334 256.873V256.767C181.334 255.3 184.056 253.878 184.682 252.656L189.854 217.728" fill="#482A10"/>
<path d="M211.55 200.66L181.279 196.73L181.334 211.409C181.334 239.161 202.851 261.662 229.394 261.662H242.945C247.518 261.662 251.231 257.787 251.231 253.004V238.022C251.224 217.388 231.287 200.66 211.55 200.66Z" fill="#A06F45"/>
<path d="M208.279 192.408C211.055 192.408 213.304 190.157 213.304 187.382C213.304 184.607 211.054 182.356 208.279 182.356C205.503 182.356 203.253 184.607 203.253 187.382C203.253 190.157 205.503 192.408 208.279 192.408Z" fill="#A06F45"/>
<mask id="path-16-inside-1_1023_1412" fill="white">
<path d="M209.058 185.399C208.819 185.305 208.552 185.252 208.279 185.252C207.101 185.252 206.149 186.204 206.149 187.383C206.149 187.436 206.149 187.496 206.155 187.55"/>
</mask>
<path d="M209.058 185.399C208.819 185.305 208.552 185.252 208.279 185.252C207.101 185.252 206.149 186.204 206.149 187.383C206.149 187.436 206.149 187.496 206.155 187.55" fill="#482A10"/>
<path d="M209.058 185.399L209.421 184.467C209.069 184.33 208.68 184.252 208.279 184.252V185.252V186.252C208.424 186.252 208.568 186.281 208.695 186.33L209.058 185.399ZM208.279 185.252V184.252C206.549 184.252 205.149 185.652 205.149 187.383H206.149H207.149C207.149 186.756 207.653 186.252 208.279 186.252V185.252ZM206.149 187.383H205.149C205.149 187.423 205.148 187.544 205.162 187.666L206.155 187.55L207.149 187.433C207.15 187.44 207.15 187.445 207.15 187.445C207.15 187.445 207.15 187.443 207.15 187.438C207.149 187.433 207.149 187.426 207.149 187.416C207.149 187.407 207.149 187.396 207.149 187.383H206.149Z" fill="#482A10" mask="url(#path-16-inside-1_1023_1412)"/>
<path d="M181.279 196.73C181.279 188.381 188.135 181.611 196.59 181.611C205.045 181.611 211.901 188.381 211.901 196.73C211.901 198.429 211.617 200.055 211.097 201.581" fill="#A06F45"/>
<path d="M206.282 194.765C206.282 195.17 205.954 195.497 205.55 195.497C205.146 195.497 204.818 195.169 204.818 194.765C204.818 194.361 205.146 194.033 205.55 194.033C205.954 194.033 206.282 194.361 206.282 194.765Z" fill="#482A10" stroke="#482A10" stroke-width="0.842"/>
<path d="M191.317 194.765C191.317 195.17 190.989 195.497 190.585 195.497C190.181 195.497 189.853 195.169 189.853 194.765C189.853 194.361 190.181 194.033 190.585 194.033C190.989 194.033 191.317 194.361 191.317 194.765Z" fill="#482A10" stroke="#482A10" stroke-width="0.842"/>
<path d="M204.671 198.972C204.671 200.057 202.661 202.194 200.178 202.194C197.695 202.194 195.685 200.057 195.685 198.972C195.685 197.887 197.695 197.001 200.178 197.001C202.661 197.001 204.671 197.887 204.671 198.972Z" fill="#482A10" stroke="#482A10" stroke-width="1.684" stroke-linecap="round" stroke-linejoin="round"/>
<path d="M198.48 204.715C199.698 205.021 200.89 205.008 201.875 204.742L198.48 204.715Z" fill="#482A10"/>
<path d="M198.48 204.715C199.698 205.021 200.89 205.008 201.875 204.742" stroke="#482A10" stroke-width="1.684" stroke-linecap="round" stroke-linejoin="round"/>
<path d="M184.441 191.43C183.962 191.584 183.456 191.663 182.923 191.663C180.147 191.663 177.897 189.414 177.897 186.638C177.897 183.861 180.147 181.612 182.923 181.612C185.699 181.612 187.949 183.861 187.949 186.638" fill="#A06F45"/>
<mask id="path-25-inside-2_1023_1412" fill="white">
<path d="M182.144 184.653C182.383 184.56 182.65 184.507 182.922 184.507C184.101 184.507 185.053 185.459 185.053 186.637C185.053 186.69 185.053 186.75 185.046 186.804"/>
</mask>
<path d="M182.144 184.653C182.383 184.56 182.65 184.507 182.922 184.507C184.101 184.507 185.053 185.459 185.053 186.637C185.053 186.69 185.053 186.75 185.046 186.804" fill="#482A10"/>
<path d="M182.144 184.653L182.507 185.585C182.634 185.535 182.777 185.507 182.922 185.507V184.507V183.507C182.522 183.507 182.133 183.584 181.781 183.721L182.144 184.653ZM182.922 184.507V185.507C183.549 185.507 184.053 186.011 184.053 186.637H185.053H186.053C186.053 184.906 184.653 183.507 182.922 183.507V184.507ZM185.053 186.637H184.053C184.053 186.651 184.053 186.661 184.053 186.671C184.053 186.681 184.052 186.687 184.052 186.693C184.052 186.698 184.052 186.7 184.052 186.7C184.052 186.699 184.052 186.695 184.053 186.687L185.046 186.804L186.04 186.921C186.054 186.798 186.053 186.678 186.053 186.637H185.053Z" fill="#482A10" mask="url(#path-25-inside-2_1023_1412)"/>
<path d="M220.202 262.073L219.53 262.001L219.507 261.993C215.926 261.192 212.495 259.971 209.262 258.37C204.068 255.814 199.381 252.297 195.389 248.027C186.686 238.719 181.275 224.611 181.303 211.66L181.279 205.433C181.319 214.442 191.16 224.32 200.741 224.32C202.076 224.32 201.31 221.591 202.567 221.316L214.566 236.584L220.202 262.073Z" fill="#875830"/>
<path d="M214.596 235.768C214.596 235.768 210.049 255.918 210.049 257.396V257.503C210.049 259.799 208.185 261.657 205.895 261.657H196.083C193.787 261.657 191.929 259.793 191.929 257.503V257.396C191.929 255.919 194.652 254.487 195.278 253.256L200.45 218.075" fill="#A06F45"/>
<path d="M243.475 262.117H221.099C219.334 262.117 217.805 261.125 217.032 259.67C216.683 259.026 216.486 258.284 216.486 257.496V257.391C216.486 256.739 216.835 256.179 217.206 255.731C217.584 255.277 218.077 254.845 218.501 254.459C218.554 254.414 218.607 254.36 218.66 254.323C215.812 250.505 213.305 245.567 213.305 240.135C213.305 233.962 215.221 228.348 218.334 224.266C221.455 220.184 225.811 217.608 230.674 217.608C230.84 217.608 231.007 217.616 231.181 217.623C231.317 217.608 231.454 217.608 231.59 217.608C233.795 217.608 236.726 218.532 238.612 219.456C238.62 219.456 238.62 219.464 238.627 219.464C241.068 220.731 245.009 222.866 248.267 227.325C249.277 228.706 250.028 230.262 250.543 231.893C250.615 232.121 250.669 232.307 250.685 232.409C250.715 232.568 250.738 232.727 250.761 232.887C250.776 232.947 250.784 233.015 250.791 233.076C251.026 234.66 251.147 236.273 251.147 237.916V252.846C251.147 256.952 249.343 261.054 245.814 261.926L243.474 262.118C243.345 262.141 243.603 262.095 243.474 262.118" fill="#B6875E"/>
</g>
<path d="M135.709 258V238.976H138.768L148.036 252.305H148.115V238.976H151.49V258H148.458L139.164 244.619H139.098V258H135.709ZM158.666 258.237C155.871 258.237 153.986 256.51 153.986 254.019V253.992C153.986 251.514 155.911 250.024 159.299 249.813L162.951 249.589V248.626C162.951 247.216 162.028 246.359 160.367 246.359C158.811 246.359 157.862 247.084 157.651 248.112L157.625 248.231H154.579L154.592 248.073C154.79 245.594 156.939 243.735 160.485 243.735C163.979 243.735 166.233 245.581 166.233 248.389V258H162.951V255.851H162.872C162.067 257.314 160.512 258.237 158.666 258.237ZM157.255 253.887C157.255 255.034 158.205 255.732 159.642 255.732C161.527 255.732 162.951 254.48 162.951 252.819V251.764L159.76 251.962C158.139 252.067 157.255 252.766 157.255 253.874V253.887ZM174.438 258.277C171.511 258.277 170.127 257.09 170.127 254.216V246.557H168.149V244.025H170.127V240.479H173.462V244.025H176.059V246.557H173.462V253.939C173.462 255.311 174.069 255.746 175.268 255.746C175.585 255.746 175.835 255.706 176.059 255.693V258.158C175.677 258.211 175.097 258.277 174.438 258.277ZM193.127 258.33C187.577 258.33 184.123 254.559 184.123 248.416V248.402C184.123 242.364 187.577 238.646 193.061 238.646C197.57 238.646 200.497 241.257 201.222 244.764L201.274 244.975H197.82L197.781 244.83C197.056 242.786 195.408 241.6 193.074 241.6C189.646 241.6 187.59 244.104 187.59 248.376V248.389C187.59 252.753 189.739 255.376 193.167 255.376C196.041 255.376 198.018 253.61 198.084 250.947L198.097 250.657H193.377V248.007H201.419V250.063C201.419 255.231 198.334 258.33 193.127 258.33ZM204.232 258V244.025H207.514V246.438H207.58C208.015 244.75 209.175 243.735 210.784 243.735C211.193 243.735 211.575 243.801 211.825 243.867V246.833C211.548 246.728 211.048 246.649 210.494 246.649C208.635 246.649 207.514 247.822 207.514 249.892V258H204.232ZM219.489 258.277C215.297 258.277 212.765 255.495 212.765 251.052V251.039C212.765 246.636 215.336 243.735 219.331 243.735C223.325 243.735 225.804 246.543 225.804 250.762V251.817H216.022C216.074 254.269 217.419 255.719 219.555 255.719C221.19 255.719 222.258 254.849 222.574 253.913L222.6 253.821H225.672L225.633 253.966C225.198 256.115 223.141 258.277 219.489 258.277ZM219.37 246.306C217.63 246.306 216.325 247.479 216.061 249.628H222.614C222.376 247.414 221.111 246.306 219.37 246.306ZM234.43 258.277C230.238 258.277 227.706 255.495 227.706 251.052V251.039C227.706 246.636 230.277 243.735 234.272 243.735C238.267 243.735 240.745 246.543 240.745 250.762V251.817H230.963C231.016 254.269 232.36 255.719 234.496 255.719C236.131 255.719 237.199 254.849 237.515 253.913L237.541 253.821H240.613L240.574 253.966C240.139 256.115 238.082 258.277 234.43 258.277ZM234.311 246.306C232.571 246.306 231.266 247.479 231.002 249.628H237.555C237.317 247.414 236.052 246.306 234.311 246.306ZM243.228 258V244.025H246.51V246.214H246.576C247.301 244.711 248.725 243.735 250.848 243.735C253.919 243.735 255.673 245.713 255.673 248.956V258H252.39V249.615C252.39 247.625 251.467 246.504 249.595 246.504C247.71 246.504 246.51 247.875 246.51 249.892V258H243.228Z" fill="#2A2A2A"/>
<path d="M163.75 289V280.578H165.109V281.844H165.234C165.656 280.953 166.445 280.43 167.688 280.43C169.578 280.43 170.633 281.547 170.633 283.547V289H169.273V283.875C169.273 282.359 168.648 281.633 167.305 281.633C165.961 281.633 165.109 282.539 165.109 284.016V289H163.75ZM175.406 289.148C173.805 289.148 172.594 288.18 172.594 286.648V286.633C172.594 285.133 173.703 284.266 175.664 284.148L178.078 284V283.234C178.078 282.195 177.445 281.633 176.188 281.633C175.18 281.633 174.516 282.008 174.297 282.664L174.289 282.688H172.93L172.938 282.641C173.156 281.32 174.438 280.43 176.234 280.43C178.289 280.43 179.438 281.484 179.438 283.234V289H178.078V287.758H177.953C177.422 288.656 176.539 289.148 175.406 289.148ZM173.984 286.617C173.984 287.469 174.711 287.969 175.688 287.969C177.07 287.969 178.078 287.062 178.078 285.859V285.094L175.828 285.234C174.547 285.312 173.984 285.766 173.984 286.602V286.617ZM184.914 289.062C183.18 289.062 182.453 288.422 182.453 286.812V281.703H181.125V280.578H182.453V278.398H183.859V280.578H185.703V281.703H183.859V286.469C183.859 287.461 184.203 287.859 185.078 287.859C185.32 287.859 185.453 287.852 185.703 287.828V288.984C185.438 289.031 185.18 289.062 184.914 289.062ZM192.578 289.266C189.461 289.266 187.469 286.969 187.469 283.367V283.352C187.469 279.797 189.492 277.461 192.578 277.461C195.078 277.461 196.836 278.867 197.281 281.008L197.297 281.086H195.875L195.852 281.008C195.391 279.555 194.258 278.758 192.578 278.758C190.344 278.758 188.906 280.555 188.906 283.352V283.367C188.906 286.203 190.32 287.969 192.586 287.969C194.602 287.969 195.961 286.68 195.961 284.773V284.5H192.797V283.266H197.367V284.641C197.367 287.422 195.461 289.266 192.578 289.266ZM203.516 289.188C201.188 289.188 199.68 287.891 199.531 286.109L199.523 286.016H200.875L200.883 286.094C200.992 287.203 202.016 287.969 203.516 287.969C204.992 287.969 206 287.141 206 285.945V285.93C206 284.547 205.008 283.773 203.43 283.773H202.016V282.586H203.367C204.711 282.586 205.648 281.758 205.648 280.633V280.617C205.648 279.438 204.875 278.758 203.5 278.758C202.172 278.758 201.227 279.461 201.109 280.602L201.102 280.68H199.75L199.758 280.602C199.938 278.766 201.391 277.539 203.5 277.539C205.648 277.539 207.062 278.734 207.062 280.445V280.461C207.062 281.852 206.078 282.805 204.672 283.102V283.133C206.312 283.273 207.43 284.297 207.43 285.898V285.914C207.43 287.797 205.773 289.188 203.516 289.188ZM213.547 289.188C211.219 289.188 209.711 287.891 209.562 286.109L209.555 286.016H210.906L210.914 286.094C211.023 287.203 212.047 287.969 213.547 287.969C215.023 287.969 216.031 287.141 216.031 285.945V285.93C216.031 284.547 215.039 283.773 213.461 283.773H212.047V282.586H213.398C214.742 282.586 215.68 281.758 215.68 280.633V280.617C215.68 279.438 214.906 278.758 213.531 278.758C212.203 278.758 211.258 279.461 211.141 280.602L211.133 280.68H209.781L209.789 280.602C209.969 278.766 211.422 277.539 213.531 277.539C215.68 277.539 217.094 278.734 217.094 280.445V280.461C217.094 281.852 216.109 282.805 214.703 283.102V283.133C216.344 283.273 217.461 284.297 217.461 285.898V285.914C217.461 287.797 215.805 289.188 213.547 289.188ZM223.578 289.188C221.25 289.188 219.742 287.891 219.594 286.109L219.586 286.016H220.938L220.945 286.094C221.055 287.203 222.078 287.969 223.578 287.969C225.055 287.969 226.062 287.141 226.062 285.945V285.93C226.062 284.547 225.07 283.773 223.492 283.773H222.078V282.586H223.43C224.773 282.586 225.711 281.758 225.711 280.633V280.617C225.711 279.438 224.938 278.758 223.562 278.758C222.234 278.758 221.289 279.461 221.172 280.602L221.164 280.68H219.812L219.82 280.602C220 278.766 221.453 277.539 223.562 277.539C225.711 277.539 227.125 278.734 227.125 280.445V280.461C227.125 281.852 226.141 282.805 224.734 283.102V283.133C226.375 283.273 227.492 284.297 227.492 285.898V285.914C227.492 287.797 225.836 289.188 223.578 289.188Z" fill="#434343"/>
<g clip-path="url(#clip1_1023_1412)">
<path d="M56.6831 360.293C56.6931 357.909 54.7637 355.967 52.3737 355.957C49.9837 355.947 48.0381 357.872 48.0281 360.257C48.0181 362.642 49.9475 364.583 52.3375 364.593C54.7275 364.603 56.6731 362.678 56.6831 360.293Z" stroke="#003087" stroke-width="1.5" stroke-linecap="round" stroke-linejoin="round"/>
<path d="M59.4045 375.429V370.053C59.4045 367.846 58.0822 366.259 55.8126 366.259H49.2444C47.1816 366.259 45.3063 367.605 45.3063 369.995V375.429H59.4045Z" stroke="#003087" stroke-width="1.5" stroke-linecap="round" stroke-linejoin="round"/>
<path d="M57.2359 375.429V370.514" stroke="#003087" stroke-width="1.5" stroke-linecap="round" stroke-linejoin="round"/>
<path d="M47.4749 370.514V375.429" stroke="#003087" stroke-width="1.5" stroke-linecap="round" stroke-linejoin="round"/>
<path d="M73.4375 371.5V360.227H74.8047L80.9219 369H81.0469V360.227H82.4375V371.5H81.0703L74.9531 362.758H74.8281V371.5H73.4375ZM87.4531 371.648C85.8516 371.648 84.6406 370.68 84.6406 369.148V369.133C84.6406 367.633 85.75 366.766 87.7109 366.648L90.125 366.5V365.734C90.125 364.695 89.4922 364.133 88.2344 364.133C87.2266 364.133 86.5625 364.508 86.3438 365.164L86.3359 365.188H84.9766L84.9844 365.141C85.2031 363.82 86.4844 362.93 88.2812 362.93C90.3359 362.93 91.4844 363.984 91.4844 365.734V371.5H90.125V370.258H90C89.4688 371.156 88.5859 371.648 87.4531 371.648ZM86.0312 369.117C86.0312 369.969 86.7578 370.469 87.7344 370.469C89.1172 370.469 90.125 369.562 90.125 368.359V367.594L87.875 367.734C86.5938 367.812 86.0312 368.266 86.0312 369.102V369.117ZM93.9688 371.5V363.078H95.3281V364.359H95.4531C95.8281 363.453 96.625 362.93 97.7266 362.93C98.8672 362.93 99.6641 363.531 100.055 364.406H100.18C100.633 363.516 101.594 362.93 102.758 362.93C104.477 362.93 105.438 363.914 105.438 365.68V371.5H104.078V365.992C104.078 364.75 103.508 364.133 102.32 364.133C101.148 364.133 100.375 365.016 100.375 366.086V371.5H99.0156V365.781C99.0156 364.781 98.3281 364.133 97.2656 364.133C96.1641 364.133 95.3281 365.094 95.3281 366.281V371.5H93.9688ZM111.328 371.648C108.922 371.648 107.469 369.961 107.469 367.32V367.312C107.469 364.711 108.953 362.93 111.242 362.93C113.531 362.93 114.922 364.633 114.922 367.148V367.68H108.859C108.898 369.422 109.859 370.438 111.359 370.438C112.5 370.438 113.203 369.898 113.43 369.391L113.461 369.32H114.82L114.805 369.383C114.516 370.523 113.312 371.648 111.328 371.648ZM111.234 364.141C109.984 364.141 109.031 364.992 108.883 366.594H113.539C113.398 364.93 112.477 364.141 111.234 364.141Z" fill="#2A2A2A"/>
<path fill-rule="evenodd" clip-rule="evenodd" d="M335.59 371.34L340.17 366.75L335.59 362.16L337 360.75L343 366.75L337 372.75L335.59 371.34Z" fill="#434343"/>
<mask id="mask1_1023_1412" style="mask-type:luminance" maskUnits="userSpaceOnUse" x="335" y="360" width="8" height="13">
<path fill-rule="evenodd" clip-rule="evenodd" d="M335.59 371.34L340.17 366.75L335.59 362.16L337 360.75L343 366.75L337 372.75L335.59 371.34Z" fill="white"/>
</mask>
<g mask="url(#mask1_1023_1412)">
</g>
<rect x="40" y="394" width="327" height="1" fill="#C0C0C0"/>
</g>
<g clip-path="url(#clip2_1023_1412)">
<path d="M56.2772 428.721C56.6914 428.721 57.0272 428.386 57.0272 427.971C57.0272 427.557 56.6914 427.221 56.2772 427.221V427.971V428.721ZM47.5 427.971H46.75C46.75 428.386 47.0858 428.721 47.5 428.721V427.971ZM54.0743 423.334V424.084C54.0869 424.084 54.0995 424.084 54.112 424.083L54.0743 423.334ZM55.6686 423.883L55.1778 424.45L55.1876 424.458L55.6686 423.883ZM56.3629 425.323H57.1129C57.1129 425.317 57.1128 425.311 57.1127 425.305L56.3629 425.323ZM55.6129 427.851C55.6129 428.266 55.9487 428.601 56.3629 428.601C56.7771 428.601 57.1129 428.266 57.1129 427.851H56.3629H55.6129ZM52 421.431L52.0228 420.682C52.0059 420.681 51.9889 420.681 51.972 420.682L52 421.431ZM54.9486 418.654L55.6983 418.676C55.6988 418.657 55.6987 418.638 55.6978 418.619L54.9486 418.654ZM51.9486 415.903L51.9305 416.653C51.9465 416.653 51.9624 416.653 51.9783 416.652L51.9486 415.903ZM49 418.714L48.2502 418.697C48.2497 418.718 48.2501 418.739 48.2514 418.76L49 418.714ZM46.4286 429.536C46.0144 429.536 45.6786 429.872 45.6786 430.286C45.6786 430.7 46.0144 431.036 46.4286 431.036V430.286V429.536ZM57.5714 431.036C57.9857 431.036 58.3214 430.7 58.3214 430.286C58.3214 429.872 57.9857 429.536 57.5714 429.536V430.286V431.036ZM62.2857 412.714H63.0357C63.0357 412.3 62.6999 411.964 62.2857 411.964V412.714ZM41.7143 412.714V411.964C41.3001 411.964 40.9643 412.3 40.9643 412.714H41.7143ZM41.7143 433.286H40.9643C40.9643 433.7 41.3001 434.036 41.7143 434.036V433.286ZM62.2857 433.286V434.036C62.6999 434.036 63.0357 433.7 63.0357 433.286H62.2857ZM56.2772 427.971V427.221H47.5V427.971V428.721H56.2772V427.971ZM47.5 427.971H48.25V425.297H47.5H46.75V427.971H47.5ZM47.5 425.297H48.25C48.25 425.058 48.3909 424.767 48.7365 424.506C49.0785 424.247 49.5441 424.084 49.9943 424.084V423.334V422.584C49.2102 422.584 48.4286 422.858 47.8321 423.309C47.2391 423.757 46.75 424.448 46.75 425.297H47.5ZM49.9943 423.334V424.084H54.0743V423.334V422.584H49.9943V423.334ZM54.0743 423.334L54.112 424.083C54.5013 424.064 54.8831 424.195 55.1779 424.45L55.6686 423.883L56.1592 423.316C55.5722 422.808 54.8118 422.546 54.0365 422.585L54.0743 423.334ZM55.6686 423.883L55.1876 424.458C55.4499 424.678 55.6049 424.999 55.6131 425.341L56.3629 425.323L57.1127 425.305C57.0941 424.531 56.7432 423.804 56.1496 423.307L55.6686 423.883ZM56.3629 425.323H55.6129V427.851H56.3629H57.1129V425.323H56.3629ZM52 421.431L51.9772 422.181C52.9355 422.21 53.8661 421.857 54.564 421.2L54.0498 420.654L53.5356 420.108C53.1274 420.492 52.5832 420.699 52.0228 420.682L52 421.431ZM54.0498 420.654L54.564 421.2C55.262 420.543 55.67 419.635 55.6983 418.676L54.9486 418.654L54.1989 418.632C54.1824 419.193 53.9438 419.724 53.5356 420.108L54.0498 420.654ZM54.9486 418.654L55.6978 418.619C55.6044 416.622 53.9168 415.074 51.9188 415.153L51.9486 415.903L51.9783 416.652C53.1526 416.606 54.1445 417.515 54.1994 418.689L54.9486 418.654ZM51.9486 415.903L51.9666 415.153C51.0038 415.13 50.0713 415.49 49.3742 416.155L49.8918 416.698L50.4094 417.24C50.8183 416.85 51.3656 416.639 51.9305 416.653L51.9486 415.903ZM49.8918 416.698L49.3742 416.155C48.6772 416.819 48.2729 417.734 48.2502 418.697L49 418.714L49.7498 418.732C49.7631 418.167 50.0004 417.63 50.4094 417.24L49.8918 416.698ZM49 418.714L48.2514 418.76C48.3731 420.737 50.0494 422.255 52.0281 422.181L52 421.431L51.972 420.682C50.8071 420.726 49.8202 419.832 49.7486 418.668L49 418.714ZM46.4286 430.286V431.036H57.5714V430.286V429.536H46.4286V430.286ZM62.2857 412.714V411.964H41.7143V412.714V413.464H62.2857V412.714ZM41.7143 412.714H40.9643V433.286H41.7143H42.4643V412.714H41.7143ZM41.7143 433.286V434.036H62.2857V433.286V432.536H41.7143V433.286ZM62.2857 433.286H63.0357V412.714H62.2857H61.5357V433.286H62.2857Z" fill="#003087"/>
<path d="M77.9766 428.766C74.9141 428.766 73 426.5 73 422.875V422.859C73 419.227 74.9062 416.961 77.9688 416.961C80.3438 416.961 82.1953 418.453 82.5312 420.617L82.5234 420.633H81.1094L81.1016 420.617C80.7266 419.172 79.5234 418.258 77.9688 418.258C75.8047 418.258 74.4453 420.039 74.4453 422.859V422.875C74.4453 425.695 75.8047 427.469 77.9766 427.469C79.5469 427.469 80.7422 426.664 81.0938 425.367L81.1094 425.352H82.5312V425.367C82.1562 427.43 80.375 428.766 77.9766 428.766ZM88.1797 428.648C85.7812 428.648 84.2969 426.992 84.2969 424.297V424.281C84.2969 421.578 85.7812 419.93 88.1797 419.93C90.5781 419.93 92.0625 421.578 92.0625 424.281V424.297C92.0625 426.992 90.5781 428.648 88.1797 428.648ZM88.1797 427.445C89.7734 427.445 90.6719 426.281 90.6719 424.297V424.281C90.6719 422.289 89.7734 421.133 88.1797 421.133C86.5859 421.133 85.6875 422.289 85.6875 424.281V424.297C85.6875 426.281 86.5859 427.445 88.1797 427.445ZM94.1719 428.5V420.078H95.5312V421.344H95.6562C96.0781 420.453 96.8672 419.93 98.1094 419.93C100 419.93 101.055 421.047 101.055 423.047V428.5H99.6953V423.375C99.6953 421.859 99.0703 421.133 97.7266 421.133C96.3828 421.133 95.5312 422.039 95.5312 423.516V428.5H94.1719ZM106.508 428.562C104.773 428.562 104.047 427.922 104.047 426.312V421.203H102.719V420.078H104.047V417.898H105.453V420.078H107.297V421.203H105.453V425.969C105.453 426.961 105.797 427.359 106.672 427.359C106.914 427.359 107.047 427.352 107.297 427.328V428.484C107.031 428.531 106.773 428.562 106.508 428.562ZM111.641 428.648C110.039 428.648 108.828 427.68 108.828 426.148V426.133C108.828 424.633 109.938 423.766 111.898 423.648L114.312 423.5V422.734C114.312 421.695 113.68 421.133 112.422 421.133C111.414 421.133 110.75 421.508 110.531 422.164L110.523 422.188H109.164L109.172 422.141C109.391 420.82 110.672 419.93 112.469 419.93C114.523 419.93 115.672 420.984 115.672 422.734V428.5H114.312V427.258H114.188C113.656 428.156 112.773 428.648 111.641 428.648ZM110.219 426.117C110.219 426.969 110.945 427.469 111.922 427.469C113.305 427.469 114.312 426.562 114.312 425.359V424.594L112.062 424.734C110.781 424.812 110.219 425.266 110.219 426.102V426.117ZM121.602 428.648C119.242 428.648 117.734 426.938 117.734 424.266V424.25C117.734 421.633 119.234 419.93 121.594 419.93C123.641 419.93 124.867 421.109 125.117 422.609L125.125 422.656H123.773L123.766 422.633C123.555 421.805 122.805 421.133 121.594 421.133C120.078 421.133 119.125 422.352 119.125 424.25V424.266C119.125 426.203 120.094 427.445 121.594 427.445C122.727 427.445 123.445 426.945 123.758 426.008L123.773 425.961L125.117 425.953L125.102 426.039C124.758 427.562 123.625 428.648 121.602 428.648ZM130.258 428.562C128.523 428.562 127.797 427.922 127.797 426.312V421.203H126.469V420.078H127.797V417.898H129.203V420.078H131.047V421.203H129.203V425.969C129.203 426.961 129.547 427.359 130.422 427.359C130.664 427.359 130.797 427.352 131.047 427.328V428.484C130.781 428.531 130.523 428.562 130.258 428.562ZM138.297 418.453C137.781 418.453 137.359 418.031 137.359 417.516C137.359 417 137.781 416.578 138.297 416.578C138.812 416.578 139.234 417 139.234 417.516C139.234 418.031 138.812 418.453 138.297 418.453ZM137.609 428.5V420.078H138.969V428.5H137.609ZM141.531 428.5V420.078H142.891V421.344H143.016C143.438 420.453 144.227 419.93 145.469 419.93C147.359 419.93 148.414 421.047 148.414 423.047V428.5H147.055V423.375C147.055 421.859 146.43 421.133 145.086 421.133C143.742 421.133 142.891 422.039 142.891 423.516V428.5H141.531ZM151.438 428.5V421.203H150.039V420.078H151.438V419.141C151.438 417.461 152.281 416.656 153.883 416.656C154.211 416.656 154.508 416.68 154.789 416.734V417.82C154.625 417.789 154.398 417.781 154.156 417.781C153.188 417.781 152.797 418.258 152.797 419.18V420.078H154.711V421.203H152.797V428.5H151.438ZM159.773 428.648C157.375 428.648 155.891 426.992 155.891 424.297V424.281C155.891 421.578 157.375 419.93 159.773 419.93C162.172 419.93 163.656 421.578 163.656 424.281V424.297C163.656 426.992 162.172 428.648 159.773 428.648ZM159.773 427.445C161.367 427.445 162.266 426.281 162.266 424.297V424.281C162.266 422.289 161.367 421.133 159.773 421.133C158.18 421.133 157.281 422.289 157.281 424.281V424.297C157.281 426.281 158.18 427.445 159.773 427.445ZM165.766 428.5V420.078H167.125V421.328H167.25C167.57 420.445 168.359 419.93 169.5 419.93C169.758 419.93 170.047 419.961 170.18 419.984V421.305C169.898 421.258 169.641 421.227 169.344 421.227C168.047 421.227 167.125 422.047 167.125 423.281V428.5H165.766ZM172.016 428.5V420.078H173.375V421.359H173.5C173.875 420.453 174.672 419.93 175.773 419.93C176.914 419.93 177.711 420.531 178.102 421.406H178.227C178.68 420.516 179.641 419.93 180.805 419.93C182.523 419.93 183.484 420.914 183.484 422.68V428.5H182.125V422.992C182.125 421.75 181.555 421.133 180.367 421.133C179.195 421.133 178.422 422.016 178.422 423.086V428.5H177.062V422.781C177.062 421.781 176.375 421.133 175.312 421.133C174.211 421.133 173.375 422.094 173.375 423.281V428.5H172.016ZM188.25 428.648C186.648 428.648 185.438 427.68 185.438 426.148V426.133C185.438 424.633 186.547 423.766 188.508 423.648L190.922 423.5V422.734C190.922 421.695 190.289 421.133 189.031 421.133C188.023 421.133 187.359 421.508 187.141 422.164L187.133 422.188H185.773L185.781 422.141C186 420.82 187.281 419.93 189.078 419.93C191.133 419.93 192.281 420.984 192.281 422.734V428.5H190.922V427.258H190.797C190.266 428.156 189.383 428.648 188.25 428.648ZM186.828 426.117C186.828 426.969 187.555 427.469 188.531 427.469C189.914 427.469 190.922 426.562 190.922 425.359V424.594L188.672 424.734C187.391 424.812 186.828 425.266 186.828 426.102V426.117ZM197.758 428.562C196.023 428.562 195.297 427.922 195.297 426.312V421.203H193.969V420.078H195.297V417.898H196.703V420.078H198.547V421.203H196.703V425.969C196.703 426.961 197.047 427.359 197.922 427.359C198.164 427.359 198.297 427.352 198.547 427.328V428.484C198.281 428.531 198.023 428.562 197.758 428.562ZM201.297 418.453C200.781 418.453 200.359 418.031 200.359 417.516C200.359 417 200.781 416.578 201.297 416.578C201.812 416.578 202.234 417 202.234 417.516C202.234 418.031 201.812 418.453 201.297 418.453ZM200.609 428.5V420.078H201.969V428.5H200.609ZM207.992 428.648C205.594 428.648 204.109 426.992 204.109 424.297V424.281C204.109 421.578 205.594 419.93 207.992 419.93C210.391 419.93 211.875 421.578 211.875 424.281V424.297C211.875 426.992 210.391 428.648 207.992 428.648ZM207.992 427.445C209.586 427.445 210.484 426.281 210.484 424.297V424.281C210.484 422.289 209.586 421.133 207.992 421.133C206.398 421.133 205.5 422.289 205.5 424.281V424.297C205.5 426.281 206.398 427.445 207.992 427.445ZM213.984 428.5V420.078H215.344V421.344H215.469C215.891 420.453 216.68 419.93 217.922 419.93C219.812 419.93 220.867 421.047 220.867 423.047V428.5H219.508V423.375C219.508 421.859 218.883 421.133 217.539 421.133C216.195 421.133 215.344 422.039 215.344 423.516V428.5H213.984Z" fill="#2A2A2A"/>
<path fill-rule="evenodd" clip-rule="evenodd" d="M335.59 428.34L340.17 423.75L335.59 419.16L337 417.75L343 423.75L337 429.75L335.59 428.34Z" fill="#434343"/>
<mask id="mask2_1023_1412" style="mask-type:luminance" maskUnits="userSpaceOnUse" x="335" y="417" width="8" height="13">
<path fill-rule="evenodd" clip-rule="evenodd" d="M335.59 428.34L340.17 423.75L335.59 419.16L337 417.75L343 423.75L337 429.75L335.59 428.34Z" fill="white"/>
</mask>
<g mask="url(#mask2_1023_1412)">
</g>
<rect x="40" y="451" width="327" height="1" fill="#C0C0C0"/>
</g>
<g clip-path="url(#clip3_1023_1412)">
<path d="M57.9271 473.636C57.9271 474.05 58.2629 474.386 58.6771 474.386C59.0914 474.386 59.4271 474.05 59.4271 473.636H58.6771H57.9271ZM58.6771 471.737V470.987C58.2629 470.987 57.9271 471.323 57.9271 471.737H58.6771ZM61.6429 471.737H62.3929C62.3929 471.323 62.0571 470.987 61.6429 470.987V471.737ZM60.8929 475.534C60.8929 475.949 61.2286 476.284 61.6429 476.284C62.0571 476.284 62.3929 475.949 62.3929 475.534H61.6429H60.8929ZM43.0986 476.049C43.0986 475.634 42.7628 475.299 42.3486 475.299C41.9344 475.299 41.5986 475.634 41.5986 476.049H42.3486H43.0986ZM42.3486 489.943H41.5986C41.5986 490.357 41.9344 490.693 42.3486 490.693V489.943ZM61.6429 489.943V490.693C62.0571 490.693 62.3929 490.357 62.3929 489.943H61.6429ZM62.3929 475.56C62.3929 475.146 62.0571 474.81 61.6429 474.81C61.2286 474.81 60.8929 475.146 60.8929 475.56H61.6429H62.3929ZM51.8457 470.623L52.1818 469.952C51.9569 469.84 51.6905 469.847 51.4723 469.972L51.8457 470.623ZM42.3486 476.074L41.9752 475.424C41.7422 475.558 41.5986 475.806 41.5986 476.074H42.3486ZM42.3486 479.769H41.5986C41.5986 480.035 41.7398 480.281 41.9695 480.416C42.1993 480.55 42.4832 480.553 42.7155 480.423L42.3486 479.769ZM51.7771 474.48L52.1315 473.819C51.9057 473.698 51.6337 473.701 51.4102 473.826L51.7771 474.48ZM61.6429 479.769L61.2885 480.43C61.521 480.554 61.8018 480.548 62.028 480.412C62.2543 480.277 62.3929 480.032 62.3929 479.769H61.6429ZM61.6429 475.534H62.3929C62.3929 475.25 62.2327 474.991 61.979 474.864L61.6429 475.534ZM49.2743 489.943L48.5243 489.944C48.5247 490.358 48.8604 490.693 49.2743 490.693V489.943ZM54.2629 489.943V490.693C54.6771 490.693 55.0129 490.357 55.0129 489.943H54.2629ZM54.2629 482.023H55.0129C55.0129 481.609 54.6771 481.273 54.2629 481.273V482.023ZM49.2657 482.023V481.273C49.0667 481.273 48.8758 481.352 48.7351 481.493C48.5944 481.634 48.5155 481.825 48.5157 482.024L49.2657 482.023ZM58.6771 473.636H59.4271V471.737H58.6771H57.9271V473.636H58.6771ZM58.6771 471.737V472.487H61.6429V471.737V470.987H58.6771V471.737ZM61.6429 471.737H60.8929V475.534H61.6429H62.3929V471.737H61.6429ZM42.3486 476.049H41.5986V489.943H42.3486H43.0986V476.049H42.3486ZM42.3486 489.943V490.693H61.6429V489.943V489.193H42.3486V489.943ZM61.6429 489.943H62.3929V475.56H61.6429H60.8929V489.943H61.6429ZM51.8457 470.623L51.4723 469.972L41.9752 475.424L42.3486 476.074L42.7219 476.725L52.2191 471.273L51.8457 470.623ZM42.3486 476.074H41.5986V479.769H42.3486H43.0986V476.074H42.3486ZM42.3486 479.769L42.7155 480.423L52.144 475.134L51.7771 474.48L51.4102 473.826L41.9817 479.114L42.3486 479.769ZM51.7771 474.48L51.4228 475.141L61.2885 480.43L61.6429 479.769L61.9972 479.108L52.1315 473.819L51.7771 474.48ZM61.6429 479.769H62.3929V475.534H61.6429H60.8929V479.769H61.6429ZM61.6429 475.534L61.979 474.864L52.1818 469.952L51.8457 470.623L51.5096 471.293L61.3067 476.205L61.6429 475.534ZM49.2743 489.943V490.693H54.2629V489.943V489.193H49.2743V489.943ZM54.2629 489.943H55.0129V482.023H54.2629H53.5129V489.943H54.2629ZM54.2629 482.023V481.273H49.2657V482.023V482.773H54.2629V482.023ZM49.2657 482.023L48.5157 482.024L48.5243 489.944L49.2743 489.943L50.0243 489.942L50.0157 482.022L49.2657 482.023Z" fill="#003087"/>
<path d="M73.4375 485.5V474.227H74.8438V479.102H81.0312V474.227H82.4375V485.5H81.0312V480.367H74.8438V485.5H73.4375ZM88.6016 485.648C86.2031 485.648 84.7188 483.992 84.7188 481.297V481.281C84.7188 478.578 86.2031 476.93 88.6016 476.93C91 476.93 92.4844 478.578 92.4844 481.281V481.297C92.4844 483.992 91 485.648 88.6016 485.648ZM88.6016 484.445C90.1953 484.445 91.0938 483.281 91.0938 481.297V481.281C91.0938 479.289 90.1953 478.133 88.6016 478.133C87.0078 478.133 86.1094 479.289 86.1094 481.281V481.297C86.1094 483.281 87.0078 484.445 88.6016 484.445ZM94.5938 485.5V477.078H95.9531V478.359H96.0781C96.4531 477.453 97.25 476.93 98.3516 476.93C99.4922 476.93 100.289 477.531 100.68 478.406H100.805C101.258 477.516 102.219 476.93 103.383 476.93C105.102 476.93 106.062 477.914 106.062 479.68V485.5H104.703V479.992C104.703 478.75 104.133 478.133 102.945 478.133C101.773 478.133 101 479.016 101 480.086V485.5H99.6406V479.781C99.6406 478.781 98.9531 478.133 97.8906 478.133C96.7891 478.133 95.9531 479.094 95.9531 480.281V485.5H94.5938ZM111.953 485.648C109.547 485.648 108.094 483.961 108.094 481.32V481.312C108.094 478.711 109.578 476.93 111.867 476.93C114.156 476.93 115.547 478.633 115.547 481.148V481.68H109.484C109.523 483.422 110.484 484.438 111.984 484.438C113.125 484.438 113.828 483.898 114.055 483.391L114.086 483.32H115.445L115.43 483.383C115.141 484.523 113.938 485.648 111.953 485.648ZM111.859 478.141C110.609 478.141 109.656 478.992 109.508 480.594H114.164C114.023 478.93 113.102 478.141 111.859 478.141ZM124.469 485.648C122.867 485.648 121.656 484.68 121.656 483.148V483.133C121.656 481.633 122.766 480.766 124.727 480.648L127.141 480.5V479.734C127.141 478.695 126.508 478.133 125.25 478.133C124.242 478.133 123.578 478.508 123.359 479.164L123.352 479.188H121.992L122 479.141C122.219 477.82 123.5 476.93 125.297 476.93C127.352 476.93 128.5 477.984 128.5 479.734V485.5H127.141V484.258H127.016C126.484 485.156 125.602 485.648 124.469 485.648ZM123.047 483.117C123.047 483.969 123.773 484.469 124.75 484.469C126.133 484.469 127.141 483.562 127.141 482.359V481.594L124.891 481.734C123.609 481.812 123.047 482.266 123.047 483.102V483.117ZM134.094 485.648C131.961 485.648 130.562 483.922 130.562 481.297V481.281C130.562 478.641 131.953 476.93 134.094 476.93C135.25 476.93 136.258 477.508 136.719 478.406H136.844V473.734H138.203V485.5H136.844V484.156H136.719C136.203 485.094 135.266 485.648 134.094 485.648ZM134.406 484.445C135.938 484.445 136.875 483.242 136.875 481.297V481.281C136.875 479.336 135.938 478.133 134.406 478.133C132.867 478.133 131.953 479.32 131.953 481.281V481.297C131.953 483.258 132.867 484.445 134.406 484.445ZM143.922 485.648C141.789 485.648 140.391 483.922 140.391 481.297V481.281C140.391 478.641 141.781 476.93 143.922 476.93C145.078 476.93 146.086 477.508 146.547 478.406H146.672V473.734H148.031V485.5H146.672V484.156H146.547C146.031 485.094 145.094 485.648 143.922 485.648ZM144.234 484.445C145.766 484.445 146.703 483.242 146.703 481.297V481.281C146.703 479.336 145.766 478.133 144.234 478.133C142.695 478.133 141.781 479.32 141.781 481.281V481.297C141.781 483.258 142.695 484.445 144.234 484.445ZM150.641 485.5V477.078H152V478.328H152.125C152.445 477.445 153.234 476.93 154.375 476.93C154.633 476.93 154.922 476.961 155.055 476.984V478.305C154.773 478.258 154.516 478.227 154.219 478.227C152.922 478.227 152 479.047 152 480.281V485.5H150.641ZM159.938 485.648C157.531 485.648 156.078 483.961 156.078 481.32V481.312C156.078 478.711 157.562 476.93 159.852 476.93C162.141 476.93 163.531 478.633 163.531 481.148V481.68H157.469C157.508 483.422 158.469 484.438 159.969 484.438C161.109 484.438 161.812 483.898 162.039 483.391L162.07 483.32H163.43L163.414 483.383C163.125 484.523 161.922 485.648 159.938 485.648ZM159.844 478.141C158.594 478.141 157.641 478.992 157.492 480.594H162.148C162.008 478.93 161.086 478.141 159.844 478.141ZM168.531 485.648C166.656 485.648 165.367 484.742 165.211 483.352H166.602C166.828 484.055 167.5 484.516 168.578 484.516C169.711 484.516 170.516 483.977 170.516 483.211V483.195C170.516 482.625 170.086 482.227 169.047 481.977L167.742 481.664C166.164 481.289 165.453 480.602 165.453 479.391V479.383C165.453 477.984 166.797 476.93 168.586 476.93C170.352 476.93 171.578 477.812 171.766 479.188H170.43C170.25 478.523 169.594 478.062 168.578 478.062C167.578 478.062 166.844 478.578 166.844 479.32V479.336C166.844 479.906 167.266 480.266 168.258 480.508L169.555 480.82C171.141 481.203 171.906 481.891 171.906 483.094V483.109C171.906 484.609 170.445 485.648 168.531 485.648ZM176.75 485.648C174.875 485.648 173.586 484.742 173.43 483.352H174.82C175.047 484.055 175.719 484.516 176.797 484.516C177.93 484.516 178.734 483.977 178.734 483.211V483.195C178.734 482.625 178.305 482.227 177.266 481.977L175.961 481.664C174.383 481.289 173.672 480.602 173.672 479.391V479.383C173.672 477.984 175.016 476.93 176.805 476.93C178.57 476.93 179.797 477.812 179.984 479.188H178.648C178.469 478.523 177.812 478.062 176.797 478.062C175.797 478.062 175.062 478.578 175.062 479.32V479.336C175.062 479.906 175.484 480.266 176.477 480.508L177.773 480.82C179.359 481.203 180.125 481.891 180.125 483.094V483.109C180.125 484.609 178.664 485.648 176.75 485.648Z" fill="#2A2A2A"/>
<path fill-rule="evenodd" clip-rule="evenodd" d="M335.59 485.34L340.17 480.75L335.59 476.16L337 474.75L343 480.75L337 486.75L335.59 485.34Z" fill="#434343"/>
<mask id="mask3_1023_1412" style="mask-type:luminance" maskUnits="userSpaceOnUse" x="335" y="474" width="8" height="13">
<path fill-rule="evenodd" clip-rule="evenodd" d="M335.59 485.34L340.17 480.75L335.59 476.16L337 474.75L343 480.75L337 486.75L335.59 485.34Z" fill="white"/>
</mask>
<g mask="url(#mask3_1023_1412)">
</g>
</g>
<path d="M45.3047 556.281C42.6875 556.281 41.0234 554.992 40.8828 553.047L40.875 552.938H42.8281L42.8359 553.016C42.9297 553.961 43.9375 554.586 45.3672 554.586C46.7266 554.586 47.6797 553.914 47.6797 552.945V552.938C47.6797 552.125 47.0938 551.633 45.6406 551.32L44.4297 551.07C42.125 550.586 41.125 549.508 41.125 547.828V547.82C41.125 545.805 42.8594 544.445 45.2969 544.445C47.7969 544.445 49.3516 545.812 49.4922 547.625L49.5 547.727H47.5703L47.5547 547.633C47.4141 546.758 46.5781 546.133 45.2891 546.141C44.0391 546.141 43.1484 546.727 43.1484 547.688V547.695C43.1484 548.492 43.7188 548.992 45.125 549.289L46.3359 549.547C48.7109 550.047 49.7031 551 49.7031 552.703V552.711C49.7031 554.906 48.0078 556.281 45.3047 556.281ZM55.4219 556.172C52.8828 556.172 51.3438 554.469 51.3438 551.75V551.742C51.3438 549.055 52.8984 547.297 55.3281 547.297C57.7578 547.297 59.2578 549 59.2578 551.578V552.219H53.2891C53.3125 553.75 54.1406 554.641 55.4609 554.641C56.5156 554.641 57.1172 554.109 57.3047 553.719L57.3281 553.664H59.1797L59.1562 553.734C58.8828 554.836 57.7422 556.172 55.4219 556.172ZM55.3516 548.82C54.2656 548.82 53.4531 549.555 53.3047 550.914H57.3594C57.2266 549.516 56.4375 548.82 55.3516 548.82ZM61.2031 556V547.461H63.1484V548.773H63.2812C63.5703 547.859 64.3516 547.32 65.4766 547.32C65.7734 547.32 66.0781 547.359 66.2656 547.414V549.156C65.9531 549.094 65.6328 549.047 65.2969 549.047C64 549.047 63.1484 549.82 63.1484 551.039V556H61.2031ZM70.2812 556L67.2422 547.461H69.3203L71.2969 554.102H71.4297L73.3906 547.461H75.4375L72.4141 556H70.2812ZM78.0781 546.031C77.4375 546.031 76.9141 545.523 76.9141 544.883C76.9141 544.25 77.4375 543.734 78.0781 543.734C78.7109 543.734 79.2344 544.25 79.2344 544.883C79.2344 545.523 78.7109 546.031 78.0781 546.031ZM77.1016 556V547.461H79.0469V556H77.1016ZM85.1016 556.172C82.5312 556.172 81.0156 554.508 81.0156 551.719V551.703C81.0156 548.945 82.5234 547.297 85.0938 547.297C87.2891 547.297 88.6016 548.516 88.8203 550.281V550.312H86.9844L86.9766 550.289C86.7969 549.461 86.1641 548.867 85.1016 548.867C83.7734 548.867 82.9922 549.914 82.9922 551.703V551.719C82.9922 553.531 83.7812 554.594 85.1016 554.594C86.1094 554.594 86.7266 554.133 86.9688 553.234L86.9844 553.203L88.8203 553.195L88.8047 553.258C88.5234 555.008 87.2656 556.172 85.1016 556.172ZM94.3281 556.172C91.7891 556.172 90.25 554.469 90.25 551.75V551.742C90.25 549.055 91.8047 547.297 94.2344 547.297C96.6641 547.297 98.1641 549 98.1641 551.578V552.219H92.1953C92.2188 553.75 93.0469 554.641 94.3672 554.641C95.4219 554.641 96.0234 554.109 96.2109 553.719L96.2344 553.664H98.0859L98.0625 553.734C97.7891 554.836 96.6484 556.172 94.3281 556.172ZM94.2578 548.82C93.1719 548.82 92.3594 549.555 92.2109 550.914H96.2656C96.1328 549.516 95.3438 548.82 94.2578 548.82ZM103.336 556.172C101.164 556.172 99.8516 555.172 99.6875 553.727V553.711H101.617L101.625 553.727C101.828 554.32 102.398 554.734 103.367 554.734C104.336 554.734 105.008 554.297 105.008 553.656V553.641C105.008 553.141 104.633 552.812 103.695 552.602L102.312 552.289C100.688 551.93 99.9141 551.164 99.9141 549.906V549.898C99.9141 548.359 101.32 547.297 103.336 547.297C105.414 547.297 106.656 548.328 106.781 549.711V549.727H104.953L104.945 549.703C104.805 549.164 104.242 548.727 103.328 548.727C102.461 548.727 101.836 549.148 101.836 549.789V549.797C101.836 550.297 102.195 550.602 103.117 550.812L104.5 551.117C106.172 551.492 106.961 552.203 106.961 553.445V553.461C106.961 555.086 105.438 556.172 103.336 556.172ZM115.516 556.141C113.891 556.141 112.711 555.141 112.711 553.586V553.57C112.711 552.047 113.875 551.156 115.953 551.031L118.148 550.898V550.164C118.148 549.312 117.594 548.844 116.547 548.844C115.656 548.844 115.078 549.164 114.883 549.727L114.875 549.758H113.039L113.047 549.688C113.234 548.25 114.609 547.297 116.641 547.297C118.836 547.297 120.07 548.359 120.07 550.164V556H118.148V554.828H118.016C117.547 555.656 116.641 556.141 115.516 556.141ZM114.633 553.492C114.633 554.219 115.25 554.648 116.109 554.648C117.281 554.648 118.148 553.883 118.148 552.867V552.18L116.227 552.305C115.141 552.375 114.633 552.773 114.633 553.477V553.492ZM122.406 556V547.461H124.352V548.766H124.484C124.891 547.852 125.711 547.297 126.945 547.297C128.852 547.297 129.891 548.445 129.891 550.477V556H127.945V550.93C127.945 549.602 127.406 548.93 126.227 548.93C125.07 548.93 124.352 549.742 124.352 551.023V556H122.406ZM135.266 556.141C133.125 556.141 131.766 554.445 131.766 551.742V551.727C131.766 549.008 133.102 547.32 135.266 547.32C136.438 547.32 137.414 547.898 137.859 548.82H137.992V544.156H139.945V556H137.992V554.664H137.859C137.391 555.594 136.469 556.141 135.266 556.141ZM135.875 554.5C137.203 554.5 138.023 553.453 138.023 551.742V551.727C138.023 550.016 137.195 548.961 135.875 548.961C134.555 548.961 133.742 550.008 133.742 551.727V551.742C133.742 553.461 134.547 554.5 135.875 554.5ZM147.281 556V548.969H145.883V547.461H147.281V546.617C147.281 544.914 148.141 544.078 150.047 544.078C150.461 544.078 150.812 544.102 151.125 544.156V545.516C150.977 545.492 150.734 545.477 150.461 545.477C149.547 545.477 149.195 545.914 149.195 546.727V547.461H151.047V548.969H149.227V556H147.281ZM156.266 556.172C153.727 556.172 152.188 554.469 152.188 551.75V551.742C152.188 549.055 153.742 547.297 156.172 547.297C158.602 547.297 160.102 549 160.102 551.578V552.219H154.133C154.156 553.75 154.984 554.641 156.305 554.641C157.359 554.641 157.961 554.109 158.148 553.719L158.172 553.664H160.023L160 553.734C159.727 554.836 158.586 556.172 156.266 556.172ZM156.195 548.82C155.109 548.82 154.297 549.555 154.148 550.914H158.203C158.07 549.516 157.281 548.82 156.195 548.82ZM164.375 556.141C162.75 556.141 161.57 555.141 161.57 553.586V553.57C161.57 552.047 162.734 551.156 164.812 551.031L167.008 550.898V550.164C167.008 549.312 166.453 548.844 165.406 548.844C164.516 548.844 163.938 549.164 163.742 549.727L163.734 549.758H161.898L161.906 549.688C162.094 548.25 163.469 547.297 165.5 547.297C167.695 547.297 168.93 548.359 168.93 550.164V556H167.008V554.828H166.875C166.406 555.656 165.5 556.141 164.375 556.141ZM163.492 553.492C163.492 554.219 164.109 554.648 164.969 554.648C166.141 554.648 167.008 553.883 167.008 552.867V552.18L165.086 552.305C164 552.375 163.492 552.773 163.492 553.477V553.492ZM174.625 556.039C172.664 556.039 171.859 555.383 171.859 553.734V548.969H170.531V547.461H171.859V545.367H173.836V547.461H175.641V548.969H173.836V553.273C173.836 554.125 174.172 554.484 174.984 554.484C175.258 554.484 175.406 554.477 175.641 554.453V555.953C175.359 556.008 175 556.039 174.625 556.039ZM180.406 556.172C178.484 556.172 177.5 555.016 177.5 552.984V547.461H179.445V552.539C179.445 553.859 179.938 554.531 181.109 554.531C182.367 554.531 183.039 553.719 183.039 552.438V547.461H184.984V556H183.039V554.703H182.906C182.508 555.617 181.641 556.172 180.406 556.172ZM187.359 556V547.461H189.305V548.773H189.438C189.727 547.859 190.508 547.32 191.633 547.32C191.93 547.32 192.234 547.359 192.422 547.414V549.156C192.109 549.094 191.789 549.047 191.453 549.047C190.156 549.047 189.305 549.82 189.305 551.039V556H187.359ZM197.453 556.172C194.914 556.172 193.375 554.469 193.375 551.75V551.742C193.375 549.055 194.93 547.297 197.359 547.297C199.789 547.297 201.289 549 201.289 551.578V552.219H195.32C195.344 553.75 196.172 554.641 197.492 554.641C198.547 554.641 199.148 554.109 199.336 553.719L199.359 553.664H201.211L201.188 553.734C200.914 554.836 199.773 556.172 197.453 556.172ZM197.383 548.82C196.297 548.82 195.484 549.555 195.336 550.914H199.391C199.258 549.516 198.469 548.82 197.383 548.82ZM206.461 556.172C204.289 556.172 202.977 555.172 202.812 553.727V553.711H204.742L204.75 553.727C204.953 554.32 205.523 554.734 206.492 554.734C207.461 554.734 208.133 554.297 208.133 553.656V553.641C208.133 553.141 207.758 552.812 206.82 552.602L205.438 552.289C203.812 551.93 203.039 551.164 203.039 549.906V549.898C203.039 548.359 204.445 547.297 206.461 547.297C208.539 547.297 209.781 548.328 209.906 549.711V549.727H208.078L208.07 549.703C207.93 549.164 207.367 548.727 206.453 548.727C205.586 548.727 204.961 549.148 204.961 549.789V549.797C204.961 550.297 205.32 550.602 206.242 550.812L207.625 551.117C209.297 551.492 210.086 552.203 210.086 553.445V553.461C210.086 555.086 208.562 556.172 206.461 556.172Z" fill="#2A2A2A"/>
<rect x="24" y="569" width="343" height="205" rx="12" fill="white"/>
<g clip-path="url(#clip4_1023_1412)">
<path d="M47.5606 617.571H56.4985" stroke="#003087" stroke-width="1.5" stroke-linecap="round" stroke-linejoin="round"/>
<path d="M52.0296 615.605V619.378" stroke="#003087" stroke-width="1.5" stroke-linecap="round" stroke-linejoin="round"/>
<path fill-rule="evenodd" clip-rule="evenodd" d="M56.4985 617.571L55.6473 615.552H48.465L47.5606 617.571V624.479H56.4985V617.571Z" stroke="#003087" stroke-width="1.5" stroke-linecap="round" stroke-linejoin="round"/>
<path d="M52.0296 608.857V611.567" stroke="#003087" stroke-width="1.5" stroke-linecap="round" stroke-linejoin="round"/>
<path d="M52.0296 628.464V631.173" stroke="#003087" stroke-width="1.5" stroke-linecap="round" stroke-linejoin="round"/>
<path d="M43.3044 615.552C44.9537 612.364 48.2522 610.185 52.0296 610.185C57.4562 610.185 61.8719 614.596 61.8719 620.015" stroke="#003087" stroke-width="1.5" stroke-linecap="round" stroke-linejoin="round"/>
<path d="M59.7439 618.262L61.8187 620.015L63.202 617.624" stroke="#003087" stroke-width="1.5" stroke-linecap="round" stroke-linejoin="round"/>
<path d="M60.7547 624.532C59.1054 627.667 55.8069 629.845 52.0296 629.845C46.603 629.845 42.1872 625.435 42.1872 620.015" stroke="#003087" stroke-width="1.5" stroke-linecap="round" stroke-linejoin="round"/>
<path d="M44.3153 621.769L42.1872 620.015L40.8571 622.406" stroke="#003087" stroke-width="1.5" stroke-linecap="round" stroke-linejoin="round"/>
<path d="M72.5391 603L76.6953 591.727H78.0859L82.2422 603H80.7656L79.6328 599.773H75.1484L74.0156 603H72.5391ZM77.3281 593.547L75.5625 598.578H79.2188L77.4531 593.547H77.3281ZM86.4766 603.148C84.5625 603.148 83.5781 602.023 83.5781 600.031V594.578H84.9375V599.703C84.9375 601.219 85.4844 601.945 86.8281 601.945C88.3125 601.945 89.1016 601.039 89.1016 599.562V594.578H90.4609V603H89.1016V601.742H88.9766C88.5625 602.641 87.7109 603.148 86.4766 603.148ZM95.9922 603.062C94.2578 603.062 93.5312 602.422 93.5312 600.812V595.703H92.2031V594.578H93.5312V592.398H94.9375V594.578H96.7812V595.703H94.9375V600.469C94.9375 601.461 95.2812 601.859 96.1562 601.859C96.3984 601.859 96.5312 601.852 96.7812 601.828V602.984C96.5156 603.031 96.2578 603.062 95.9922 603.062ZM102.148 603.148C99.75 603.148 98.2656 601.492 98.2656 598.797V598.781C98.2656 596.078 99.75 594.43 102.148 594.43C104.547 594.43 106.031 596.078 106.031 598.781V598.797C106.031 601.492 104.547 603.148 102.148 603.148ZM102.148 601.945C103.742 601.945 104.641 600.781 104.641 598.797V598.781C104.641 596.789 103.742 595.633 102.148 595.633C100.555 595.633 99.6562 596.789 99.6562 598.781V598.797C99.6562 600.781 100.555 601.945 102.148 601.945ZM108.141 603V594.578H109.5V595.859H109.625C110 594.953 110.797 594.43 111.898 594.43C113.039 594.43 113.836 595.031 114.227 595.906H114.352C114.805 595.016 115.766 594.43 116.93 594.43C118.648 594.43 119.609 595.414 119.609 597.18V603H118.25V597.492C118.25 596.25 117.68 595.633 116.492 595.633C115.32 595.633 114.547 596.516 114.547 597.586V603H113.188V597.281C113.188 596.281 112.5 595.633 111.438 595.633C110.336 595.633 109.5 596.594 109.5 597.781V603H108.141ZM124.375 603.148C122.773 603.148 121.562 602.18 121.562 600.648V600.633C121.562 599.133 122.672 598.266 124.633 598.148L127.047 598V597.234C127.047 596.195 126.414 595.633 125.156 595.633C124.148 595.633 123.484 596.008 123.266 596.664L123.258 596.688H121.898L121.906 596.641C122.125 595.32 123.406 594.43 125.203 594.43C127.258 594.43 128.406 595.484 128.406 597.234V603H127.047V601.758H126.922C126.391 602.656 125.508 603.148 124.375 603.148ZM122.953 600.617C122.953 601.469 123.68 601.969 124.656 601.969C126.039 601.969 127.047 601.062 127.047 599.859V599.094L124.797 599.234C123.516 599.312 122.953 599.766 122.953 600.602V600.617ZM133.883 603.062C132.148 603.062 131.422 602.422 131.422 600.812V595.703H130.094V594.578H131.422V592.398H132.828V594.578H134.672V595.703H132.828V600.469C132.828 601.461 133.172 601.859 134.047 601.859C134.289 601.859 134.422 601.852 134.672 601.828V602.984C134.406 603.031 134.148 603.062 133.883 603.062ZM137.422 592.953C136.906 592.953 136.484 592.531 136.484 592.016C136.484 591.5 136.906 591.078 137.422 591.078C137.938 591.078 138.359 591.5 138.359 592.016C138.359 592.531 137.938 592.953 137.422 592.953ZM136.734 603V594.578H138.094V603H136.734ZM144.102 603.148C141.742 603.148 140.234 601.438 140.234 598.766V598.75C140.234 596.133 141.734 594.43 144.094 594.43C146.141 594.43 147.367 595.609 147.617 597.109L147.625 597.156H146.273L146.266 597.133C146.055 596.305 145.305 595.633 144.094 595.633C142.578 595.633 141.625 596.852 141.625 598.75V598.766C141.625 600.703 142.594 601.945 144.094 601.945C145.227 601.945 145.945 601.445 146.258 600.508L146.273 600.461L147.617 600.453L147.602 600.539C147.258 602.062 146.125 603.148 144.102 603.148ZM157.102 603.062C155.367 603.062 154.641 602.422 154.641 600.812V595.703H153.312V594.578H154.641V592.398H156.047V594.578H157.891V595.703H156.047V600.469C156.047 601.461 156.391 601.859 157.266 601.859C157.508 601.859 157.641 601.852 157.891 601.828V602.984C157.625 603.031 157.367 603.062 157.102 603.062ZM159.922 603V594.578H161.281V595.828H161.406C161.727 594.945 162.516 594.43 163.656 594.43C163.914 594.43 164.203 594.461 164.336 594.484V595.805C164.055 595.758 163.797 595.727 163.5 595.727C162.203 595.727 161.281 596.547 161.281 597.781V603H159.922ZM168.328 603.148C166.727 603.148 165.516 602.18 165.516 600.648V600.633C165.516 599.133 166.625 598.266 168.586 598.148L171 598V597.234C171 596.195 170.367 595.633 169.109 595.633C168.102 595.633 167.438 596.008 167.219 596.664L167.211 596.688H165.852L165.859 596.641C166.078 595.32 167.359 594.43 169.156 594.43C171.211 594.43 172.359 595.484 172.359 597.234V603H171V601.758H170.875C170.344 602.656 169.461 603.148 168.328 603.148ZM166.906 600.617C166.906 601.469 167.633 601.969 168.609 601.969C169.992 601.969 171 601.062 171 599.859V599.094L168.75 599.234C167.469 599.312 166.906 599.766 166.906 600.602V600.617ZM178.289 603.148C175.93 603.148 174.422 601.438 174.422 598.766V598.75C174.422 596.133 175.922 594.43 178.281 594.43C180.328 594.43 181.555 595.609 181.805 597.109L181.812 597.156H180.461L180.453 597.133C180.242 596.305 179.492 595.633 178.281 595.633C176.766 595.633 175.812 596.852 175.812 598.75V598.766C175.812 600.703 176.781 601.945 178.281 601.945C179.414 601.945 180.133 601.445 180.445 600.508L180.461 600.461L181.805 600.453L181.789 600.539C181.445 602.062 180.312 603.148 178.289 603.148ZM183.875 603V591.234H185.234V598.258H185.359L189 594.578H190.648L186.977 598.117L190.891 603H189.18L186.023 599.039L185.234 599.805V603H183.875ZM193.203 592.953C192.688 592.953 192.266 592.531 192.266 592.016C192.266 591.5 192.688 591.078 193.203 591.078C193.719 591.078 194.141 591.5 194.141 592.016C194.141 592.531 193.719 592.953 193.203 592.953ZM192.516 603V594.578H193.875V603H192.516ZM196.438 603V594.578H197.797V595.844H197.922C198.344 594.953 199.133 594.43 200.375 594.43C202.266 594.43 203.32 595.547 203.32 597.547V603H201.961V597.875C201.961 596.359 201.336 595.633 199.992 595.633C198.648 595.633 197.797 596.539 197.797 598.016V603H196.438ZM209.25 605.969C207.219 605.969 205.922 605.055 205.711 603.672L205.727 603.664H207.133L207.141 603.672C207.289 604.312 208.039 604.766 209.25 604.766C210.758 604.766 211.656 604.055 211.656 602.812V601.109H211.531C211 602.039 210.047 602.562 208.891 602.562C206.711 602.562 205.359 600.875 205.359 598.516V598.5C205.359 596.141 206.719 594.43 208.922 594.43C210.109 594.43 211.031 595.016 211.547 595.969H211.641V594.578H213V602.883C213 604.766 211.547 605.969 209.25 605.969ZM209.188 601.359C210.75 601.359 211.688 600.188 211.688 598.516V598.5C211.688 596.828 210.742 595.633 209.188 595.633C207.625 595.633 206.75 596.828 206.75 598.5V598.516C206.75 600.188 207.625 601.359 209.188 601.359Z" fill="#2A2A2A"/>
<path d="M76.3672 629V618.992H72.7344V617.727H81.4062V618.992H77.7734V629H76.3672ZM82.2344 629V620.578H83.5938V621.828H83.7188C84.0391 620.945 84.8281 620.43 85.9688 620.43C86.2266 620.43 86.5156 620.461 86.6484 620.484V621.805C86.3672 621.758 86.1094 621.727 85.8125 621.727C84.5156 621.727 83.5938 622.547 83.5938 623.781V629H82.2344ZM90.6406 629.148C89.0391 629.148 87.8281 628.18 87.8281 626.648V626.633C87.8281 625.133 88.9375 624.266 90.8984 624.148L93.3125 624V623.234C93.3125 622.195 92.6797 621.633 91.4219 621.633C90.4141 621.633 89.75 622.008 89.5312 622.664L89.5234 622.688H88.1641L88.1719 622.641C88.3906 621.32 89.6719 620.43 91.4688 620.43C93.5234 620.43 94.6719 621.484 94.6719 623.234V629H93.3125V627.758H93.1875C92.6562 628.656 91.7734 629.148 90.6406 629.148ZM89.2188 626.617C89.2188 627.469 89.9453 627.969 90.9219 627.969C92.3047 627.969 93.3125 627.062 93.3125 625.859V625.094L91.0625 625.234C89.7812 625.312 89.2188 625.766 89.2188 626.602V626.617ZM100.602 629.148C98.2422 629.148 96.7344 627.438 96.7344 624.766V624.75C96.7344 622.133 98.2344 620.43 100.594 620.43C102.641 620.43 103.867 621.609 104.117 623.109L104.125 623.156H102.773L102.766 623.133C102.555 622.305 101.805 621.633 100.594 621.633C99.0781 621.633 98.125 622.852 98.125 624.75V624.766C98.125 626.703 99.0938 627.945 100.594 627.945C101.727 627.945 102.445 627.445 102.758 626.508L102.773 626.461L104.117 626.453L104.102 626.539C103.758 628.062 102.625 629.148 100.602 629.148ZM106.188 629V617.234H107.547V624.258H107.672L111.312 620.578H112.961L109.289 624.117L113.203 629H111.492L108.336 625.039L107.547 625.805V629H106.188ZM119.297 631.812V620.578H120.656V621.922H120.781C121.297 620.984 122.234 620.43 123.406 620.43C125.539 620.43 126.938 622.156 126.938 624.781V624.797C126.938 627.438 125.547 629.148 123.406 629.148C122.25 629.148 121.242 628.57 120.781 627.672H120.656V631.812H119.297ZM123.094 627.945C124.633 627.945 125.547 626.758 125.547 624.797V624.781C125.547 622.82 124.633 621.633 123.094 621.633C121.562 621.633 120.625 622.836 120.625 624.781V624.797C120.625 626.742 121.562 627.945 123.094 627.945ZM131.375 629.148C129.773 629.148 128.562 628.18 128.562 626.648V626.633C128.562 625.133 129.672 624.266 131.633 624.148L134.047 624V623.234C134.047 622.195 133.414 621.633 132.156 621.633C131.148 621.633 130.484 622.008 130.266 622.664L130.258 622.688H128.898L128.906 622.641C129.125 621.32 130.406 620.43 132.203 620.43C134.258 620.43 135.406 621.484 135.406 623.234V629H134.047V627.758H133.922C133.391 628.656 132.508 629.148 131.375 629.148ZM129.953 626.617C129.953 627.469 130.68 627.969 131.656 627.969C133.039 627.969 134.047 627.062 134.047 625.859V625.094L131.797 625.234C130.516 625.312 129.953 625.766 129.953 626.602V626.617ZM141.336 629.148C138.977 629.148 137.469 627.438 137.469 624.766V624.75C137.469 622.133 138.969 620.43 141.328 620.43C143.375 620.43 144.602 621.609 144.852 623.109L144.859 623.156H143.508L143.5 623.133C143.289 622.305 142.539 621.633 141.328 621.633C139.812 621.633 138.859 622.852 138.859 624.75V624.766C138.859 626.703 139.828 627.945 141.328 627.945C142.461 627.945 143.18 627.445 143.492 626.508L143.508 626.461L144.852 626.453L144.836 626.539C144.492 628.062 143.359 629.148 141.336 629.148ZM146.922 629V617.234H148.281V624.258H148.406L152.047 620.578H153.695L150.023 624.117L153.938 629H152.227L149.07 625.039L148.281 625.805V629H146.922ZM157.609 629.148C156.008 629.148 154.797 628.18 154.797 626.648V626.633C154.797 625.133 155.906 624.266 157.867 624.148L160.281 624V623.234C160.281 622.195 159.648 621.633 158.391 621.633C157.383 621.633 156.719 622.008 156.5 622.664L156.492 622.688H155.133L155.141 622.641C155.359 621.32 156.641 620.43 158.438 620.43C160.492 620.43 161.641 621.484 161.641 623.234V629H160.281V627.758H160.156C159.625 628.656 158.742 629.148 157.609 629.148ZM156.188 626.617C156.188 627.469 156.914 627.969 157.891 627.969C159.273 627.969 160.281 627.062 160.281 625.859V625.094L158.031 625.234C156.75 625.312 156.188 625.766 156.188 626.602V626.617ZM167.594 631.969C165.562 631.969 164.266 631.055 164.055 629.672L164.07 629.664H165.477L165.484 629.672C165.633 630.312 166.383 630.766 167.594 630.766C169.102 630.766 170 630.055 170 628.812V627.109H169.875C169.344 628.039 168.391 628.562 167.234 628.562C165.055 628.562 163.703 626.875 163.703 624.516V624.5C163.703 622.141 165.062 620.43 167.266 620.43C168.453 620.43 169.375 621.016 169.891 621.969H169.984V620.578H171.344V628.883C171.344 630.766 169.891 631.969 167.594 631.969ZM167.531 627.359C169.094 627.359 170.031 626.188 170.031 624.516V624.5C170.031 622.828 169.086 621.633 167.531 621.633C165.969 621.633 165.094 622.828 165.094 624.5V624.516C165.094 626.188 165.969 627.359 167.531 627.359ZM177.312 629.148C174.906 629.148 173.453 627.461 173.453 624.82V624.812C173.453 622.211 174.938 620.43 177.227 620.43C179.516 620.43 180.906 622.133 180.906 624.648V625.18H174.844C174.883 626.922 175.844 627.938 177.344 627.938C178.484 627.938 179.188 627.398 179.414 626.891L179.445 626.82H180.805L180.789 626.883C180.5 628.023 179.297 629.148 177.312 629.148ZM177.219 621.641C175.969 621.641 175.016 622.492 174.867 624.094H179.523C179.383 622.43 178.461 621.641 177.219 621.641ZM185.906 629.148C184.031 629.148 182.742 628.242 182.586 626.852H183.977C184.203 627.555 184.875 628.016 185.953 628.016C187.086 628.016 187.891 627.477 187.891 626.711V626.695C187.891 626.125 187.461 625.727 186.422 625.477L185.117 625.164C183.539 624.789 182.828 624.102 182.828 622.891V622.883C182.828 621.484 184.172 620.43 185.961 620.43C187.727 620.43 188.953 621.312 189.141 622.688H187.805C187.625 622.023 186.969 621.562 185.953 621.562C184.953 621.562 184.219 622.078 184.219 622.82V622.836C184.219 623.406 184.641 623.766 185.633 624.008L186.93 624.32C188.516 624.703 189.281 625.391 189.281 626.594V626.609C189.281 628.109 187.82 629.148 185.906 629.148ZM199.352 629.148C196.953 629.148 195.469 627.492 195.469 624.797V624.781C195.469 622.078 196.953 620.43 199.352 620.43C201.75 620.43 203.234 622.078 203.234 624.781V624.797C203.234 627.492 201.75 629.148 199.352 629.148ZM199.352 627.945C200.945 627.945 201.844 626.781 201.844 624.797V624.781C201.844 622.789 200.945 621.633 199.352 621.633C197.758 621.633 196.859 622.789 196.859 624.781V624.797C196.859 626.781 197.758 627.945 199.352 627.945ZM205.344 629V620.578H206.703V621.844H206.828C207.25 620.953 208.039 620.43 209.281 620.43C211.172 620.43 212.227 621.547 212.227 623.547V629H210.867V623.875C210.867 622.359 210.242 621.633 208.898 621.633C207.555 621.633 206.703 622.539 206.703 624.016V629H205.344ZM222.18 629.062C220.445 629.062 219.719 628.422 219.719 626.812V621.703H218.391V620.578H219.719V618.398H221.125V620.578H222.969V621.703H221.125V626.469C221.125 627.461 221.469 627.859 222.344 627.859C222.586 627.859 222.719 627.852 222.969 627.828V628.984C222.703 629.031 222.445 629.062 222.18 629.062ZM225.078 629V617.234H226.438V621.844H226.562C226.984 620.953 227.773 620.43 229.016 620.43C230.906 620.43 231.961 621.547 231.961 623.547V629H230.602V623.875C230.602 622.359 229.977 621.633 228.633 621.633C227.289 621.633 226.438 622.539 226.438 624.016V629H225.078ZM237.859 629.148C235.453 629.148 234 627.461 234 624.82V624.812C234 622.211 235.484 620.43 237.773 620.43C240.062 620.43 241.453 622.133 241.453 624.648V625.18H235.391C235.43 626.922 236.391 627.938 237.891 627.938C239.031 627.938 239.734 627.398 239.961 626.891L239.992 626.82H241.352L241.336 626.883C241.047 628.023 239.844 629.148 237.859 629.148ZM237.766 621.641C236.516 621.641 235.562 622.492 235.414 624.094H240.07C239.93 622.43 239.008 621.641 237.766 621.641ZM244.281 618.953C243.766 618.953 243.344 618.531 243.344 618.016C243.344 617.5 243.766 617.078 244.281 617.078C244.797 617.078 245.219 617.5 245.219 618.016C245.219 618.531 244.797 618.953 244.281 618.953ZM243.594 629V620.578H244.953V629H243.594ZM247.516 629V620.578H248.875V621.828H249C249.32 620.945 250.109 620.43 251.25 620.43C251.508 620.43 251.797 620.461 251.93 620.484V621.805C251.648 621.758 251.391 621.727 251.094 621.727C249.797 621.727 248.875 622.547 248.875 623.781V629H247.516ZM259.734 629L257.375 620.578H258.734L260.391 627.312H260.516L262.398 620.578H263.688L265.57 627.312H265.695L267.352 620.578H268.703L266.344 629H264.977L263.094 622.484H262.969L261.094 629H259.734ZM272.578 629.148C270.977 629.148 269.766 628.18 269.766 626.648V626.633C269.766 625.133 270.875 624.266 272.836 624.148L275.25 624V623.234C275.25 622.195 274.617 621.633 273.359 621.633C272.352 621.633 271.688 622.008 271.469 622.664L271.461 622.688H270.102L270.109 622.641C270.328 621.32 271.609 620.43 273.406 620.43C275.461 620.43 276.609 621.484 276.609 623.234V629H275.25V627.758H275.125C274.594 628.656 273.711 629.148 272.578 629.148ZM271.156 626.617C271.156 627.469 271.883 627.969 272.859 627.969C274.242 627.969 275.25 627.062 275.25 625.859V625.094L273 625.234C271.719 625.312 271.156 625.766 271.156 626.602V626.617ZM279.5 631.953C279.32 631.953 279.086 631.938 278.898 631.906V630.789C279.062 630.82 279.273 630.828 279.461 630.828C280.234 630.828 280.703 630.477 281.008 629.508L281.164 629.008L278.047 620.578H279.5L281.812 627.508H281.938L284.242 620.578H285.672L282.383 629.516C281.688 631.406 280.992 631.953 279.5 631.953ZM294.961 629.062C293.227 629.062 292.5 628.422 292.5 626.812V621.703H291.172V620.578H292.5V618.398H293.906V620.578H295.75V621.703H293.906V626.469C293.906 627.461 294.25 627.859 295.125 627.859C295.367 627.859 295.5 627.852 295.75 627.828V628.984C295.484 629.031 295.227 629.062 294.961 629.062ZM301.117 629.148C298.719 629.148 297.234 627.492 297.234 624.797V624.781C297.234 622.078 298.719 620.43 301.117 620.43C303.516 620.43 305 622.078 305 624.781V624.797C305 627.492 303.516 629.148 301.117 629.148ZM301.117 627.945C302.711 627.945 303.609 626.781 303.609 624.797V624.781C303.609 622.789 302.711 621.633 301.117 621.633C299.523 621.633 298.625 622.789 298.625 624.781V624.797C298.625 626.781 299.523 627.945 301.117 627.945ZM73.9844 652.953C73.8047 652.953 73.5703 652.938 73.3828 652.906V651.789C73.5469 651.82 73.7578 651.828 73.9453 651.828C74.7188 651.828 75.1875 651.477 75.4922 650.508L75.6484 650.008L72.5312 641.578H73.9844L76.2969 648.508H76.4219L78.7266 641.578H80.1562L76.8672 650.516C76.1719 652.406 75.4766 652.953 73.9844 652.953ZM85.1016 650.148C82.7031 650.148 81.2188 648.492 81.2188 645.797V645.781C81.2188 643.078 82.7031 641.43 85.1016 641.43C87.5 641.43 88.9844 643.078 88.9844 645.781V645.797C88.9844 648.492 87.5 650.148 85.1016 650.148ZM85.1016 648.945C86.6953 648.945 87.5938 647.781 87.5938 645.797V645.781C87.5938 643.789 86.6953 642.633 85.1016 642.633C83.5078 642.633 82.6094 643.789 82.6094 645.781V645.797C82.6094 647.781 83.5078 648.945 85.1016 648.945ZM93.9141 650.148C92 650.148 91.0156 649.023 91.0156 647.031V641.578H92.375V646.703C92.375 648.219 92.9219 648.945 94.2656 648.945C95.75 648.945 96.5391 648.039 96.5391 646.562V641.578H97.8984V650H96.5391V648.742H96.4141C96 649.641 95.1484 650.148 93.9141 650.148ZM101.547 650.078C100.992 650.078 100.531 649.617 100.531 649.062C100.531 648.5 100.992 648.047 101.547 648.047C102.109 648.047 102.562 648.5 102.562 649.062C102.562 649.617 102.109 650.078 101.547 650.078Z" fill="#434343"/>
<path fill-rule="evenodd" clip-rule="evenodd" d="M335.59 625.34L340.17 620.75L335.59 616.16L337 614.75L343 620.75L337 626.75L335.59 625.34Z" fill="#434343"/>
<mask id="mask4_1023_1412" style="mask-type:luminance" maskUnits="userSpaceOnUse" x="335" y="614" width="8" height="13">
<path fill-rule="evenodd" clip-rule="evenodd" d="M335.59 625.34L340.17 620.75L335.59 616.16L337 614.75L343 620.75L337 626.75L335.59 625.34Z" fill="white"/>
</mask>
<g mask="url(#mask4_1023_1412)">
</g>
<rect x="40" y="671" width="327" height="1" fill="#C0C0C0"/>
</g>
<g clip-path="url(#clip5_1023_1412)">
<g clip-path="url(#clip6_1023_1412)">
<path d="M50.3333 727.193V731.359C50.3333 731.82 50.7064 732.193 51.1667 732.193H52.8333C53.2936 732.193 53.6667 731.82 53.6667 731.359V727.193" stroke="#003087" stroke-width="1.5"/>
<path d="M47.0833 713.75H57.8333C59.7203 713.75 61.2503 715.28 61.2503 717.167V727.167C61.2501 727.213 61.2122 727.25 61.1663 727.25H42.9163C42.8706 727.25 42.8335 727.213 42.8333 727.167V718C42.8333 715.653 44.7361 713.75 47.0833 713.75Z" stroke="#003087" stroke-width="1.5"/>
<path d="M46.2503 713.75H48.3987C50.2857 713.75 51.8157 715.28 51.8157 717.167V727.167C51.8156 727.213 51.7785 727.25 51.7327 727.25H42.9163C42.8706 727.25 42.8335 727.213 42.8333 727.167V717.167C42.8333 715.28 44.3633 713.75 46.2503 713.75Z" stroke="#003087" stroke-width="1.5"/>
<path d="M45.3333 723.833L49.5 723.833" stroke="#003087" stroke-width="1.5" stroke-linecap="round"/>
<rect x="54.5" y="716.333" width="4.16667" height="2.5" rx="0.833333" fill="#003087"/>
<path d="M54.9167 717.167V722.167" stroke="#003087" stroke-width="1.5" stroke-linecap="round"/>
</g>
<path d="M73.4375 706V694.727H75.0703L78.9297 704.133H79.0547L82.9141 694.727H84.5469V706H83.2344V697.391H83.1484L79.5859 706H78.3984L74.8359 697.391H74.75V706H73.4375ZM87.9688 708.953C87.7891 708.953 87.5547 708.938 87.3672 708.906V707.789C87.5312 707.82 87.7422 707.828 87.9297 707.828C88.7031 707.828 89.1719 707.477 89.4766 706.508L89.6328 706.008L86.5156 697.578H87.9688L90.2812 704.508H90.4062L92.7109 697.578H94.1406L90.8516 706.516C90.1562 708.406 89.4609 708.953 87.9688 708.953ZM96.1094 706V694.727H97.7422L101.602 704.133H101.727L105.586 694.727H107.219V706H105.906V697.391H105.82L102.258 706H101.07L97.5078 697.391H97.4219V706H96.1094ZM112.234 706.148C110.633 706.148 109.422 705.18 109.422 703.648V703.633C109.422 702.133 110.531 701.266 112.492 701.148L114.906 701V700.234C114.906 699.195 114.273 698.633 113.016 698.633C112.008 698.633 111.344 699.008 111.125 699.664L111.117 699.688H109.758L109.766 699.641C109.984 698.32 111.266 697.43 113.062 697.43C115.117 697.43 116.266 698.484 116.266 700.234V706H114.906V704.758H114.781C114.25 705.656 113.367 706.148 112.234 706.148ZM110.812 703.617C110.812 704.469 111.539 704.969 112.516 704.969C113.898 704.969 114.906 704.062 114.906 702.859V702.094L112.656 702.234C111.375 702.312 110.812 702.766 110.812 703.602V703.617ZM119.469 695.953C118.953 695.953 118.531 695.531 118.531 695.016C118.531 694.5 118.953 694.078 119.469 694.078C119.984 694.078 120.406 694.5 120.406 695.016C120.406 695.531 119.984 695.953 119.469 695.953ZM118.781 706V697.578H120.141V706H118.781ZM122.781 706V694.234H124.141V706H122.781Z" fill="#2A2A2A"/>
<path d="M78.1094 732.266C74.9922 732.266 73 729.969 73 726.367V726.352C73 722.797 75.0234 720.461 78.1094 720.461C80.6094 720.461 82.3672 721.867 82.8125 724.008L82.8281 724.086H81.4062L81.3828 724.008C80.9219 722.555 79.7891 721.758 78.1094 721.758C75.875 721.758 74.4375 723.555 74.4375 726.352V726.367C74.4375 729.203 75.8516 730.969 78.1172 730.969C80.1328 730.969 81.4922 729.68 81.4922 727.773V727.5H78.3281V726.266H82.8984V727.641C82.8984 730.422 80.9922 732.266 78.1094 732.266ZM88.6562 732.148C86.25 732.148 84.7969 730.461 84.7969 727.82V727.812C84.7969 725.211 86.2812 723.43 88.5703 723.43C90.8594 723.43 92.25 725.133 92.25 727.648V728.18H86.1875C86.2266 729.922 87.1875 730.938 88.6875 730.938C89.8281 730.938 90.5312 730.398 90.7578 729.891L90.7891 729.82H92.1484L92.1328 729.883C91.8438 731.023 90.6406 732.148 88.6562 732.148ZM88.5625 724.641C87.3125 724.641 86.3594 725.492 86.2109 727.094H90.8672C90.7266 725.43 89.8047 724.641 88.5625 724.641ZM97.3516 732.062C95.6172 732.062 94.8906 731.422 94.8906 729.812V724.703H93.5625V723.578H94.8906V721.398H96.2969V723.578H98.1406V724.703H96.2969V729.469C96.2969 730.461 96.6406 730.859 97.5156 730.859C97.7578 730.859 97.8906 730.852 98.1406 730.828V731.984C97.875 732.031 97.6172 732.062 97.3516 732.062ZM104.672 732V723.578H106.031V724.844H106.156C106.578 723.953 107.367 723.43 108.609 723.43C110.5 723.43 111.555 724.547 111.555 726.547V732H110.195V726.875C110.195 725.359 109.57 724.633 108.227 724.633C106.883 724.633 106.031 725.539 106.031 727.016V732H104.672ZM117.477 732.148C115.078 732.148 113.594 730.492 113.594 727.797V727.781C113.594 725.078 115.078 723.43 117.477 723.43C119.875 723.43 121.359 725.078 121.359 727.781V727.797C121.359 730.492 119.875 732.148 117.477 732.148ZM117.477 730.945C119.07 730.945 119.969 729.781 119.969 727.797V727.781C119.969 725.789 119.07 724.633 117.477 724.633C115.883 724.633 114.984 725.789 114.984 727.781V727.797C114.984 729.781 115.883 730.945 117.477 730.945ZM126.461 732.062C124.727 732.062 124 731.422 124 729.812V724.703H122.672V723.578H124V721.398H125.406V723.578H127.25V724.703H125.406V729.469C125.406 730.461 125.75 730.859 126.625 730.859C126.867 730.859 127 730.852 127.25 730.828V731.984C126.984 732.031 126.727 732.062 126.461 732.062ZM130 721.953C129.484 721.953 129.062 721.531 129.062 721.016C129.062 720.5 129.484 720.078 130 720.078C130.516 720.078 130.938 720.5 130.938 721.016C130.938 721.531 130.516 721.953 130 721.953ZM129.312 732V723.578H130.672V732H129.312ZM133.797 732V724.703H132.398V723.578H133.797V722.641C133.797 720.961 134.641 720.156 136.242 720.156C136.57 720.156 136.867 720.18 137.148 720.234V721.32C136.984 721.289 136.758 721.281 136.516 721.281C135.547 721.281 135.156 721.758 135.156 722.68V723.578H137.07V724.703H135.156V732H133.797ZM139.75 721.953C139.234 721.953 138.812 721.531 138.812 721.016C138.812 720.5 139.234 720.078 139.75 720.078C140.266 720.078 140.688 720.5 140.688 721.016C140.688 721.531 140.266 721.953 139.75 721.953ZM139.062 732V723.578H140.422V732H139.062ZM146.422 732.148C144.016 732.148 142.562 730.461 142.562 727.82V727.812C142.562 725.211 144.047 723.43 146.336 723.43C148.625 723.43 150.016 725.133 150.016 727.648V728.18H143.953C143.992 729.922 144.953 730.938 146.453 730.938C147.594 730.938 148.297 730.398 148.523 729.891L148.555 729.82H149.914L149.898 729.883C149.609 731.023 148.406 732.148 146.422 732.148ZM146.328 724.641C145.078 724.641 144.125 725.492 143.977 727.094H148.633C148.492 725.43 147.57 724.641 146.328 724.641ZM155.234 732.148C153.102 732.148 151.703 730.422 151.703 727.797V727.781C151.703 725.141 153.094 723.43 155.234 723.43C156.391 723.43 157.398 724.008 157.859 724.906H157.984V720.234H159.344V732H157.984V730.656H157.859C157.344 731.594 156.406 732.148 155.234 732.148ZM155.547 730.945C157.078 730.945 158.016 729.742 158.016 727.797V727.781C158.016 725.836 157.078 724.633 155.547 724.633C154.008 724.633 153.094 725.82 153.094 727.781V727.797C153.094 729.758 154.008 730.945 155.547 730.945ZM168.766 732.148C167.164 732.148 165.953 731.18 165.953 729.648V729.633C165.953 728.133 167.062 727.266 169.023 727.148L171.438 727V726.234C171.438 725.195 170.805 724.633 169.547 724.633C168.539 724.633 167.875 725.008 167.656 725.664L167.648 725.688H166.289L166.297 725.641C166.516 724.32 167.797 723.43 169.594 723.43C171.648 723.43 172.797 724.484 172.797 726.234V732H171.438V730.758H171.312C170.781 731.656 169.898 732.148 168.766 732.148ZM167.344 729.617C167.344 730.469 168.07 730.969 169.047 730.969C170.43 730.969 171.438 730.062 171.438 728.859V728.094L169.188 728.234C167.906 728.312 167.344 728.766 167.344 729.602V729.617ZM179.469 732.148C178.297 732.148 177.359 731.594 176.844 730.656H176.719V732H175.359V720.234H176.719V724.906H176.844C177.305 724.008 178.312 723.43 179.469 723.43C181.609 723.43 183 725.141 183 727.781V727.797C183 730.422 181.602 732.148 179.469 732.148ZM179.156 730.945C180.695 730.945 181.609 729.758 181.609 727.797V727.781C181.609 725.82 180.695 724.633 179.156 724.633C177.625 724.633 176.688 725.836 176.688 727.781V727.797C176.688 729.742 177.625 730.945 179.156 730.945ZM188.57 732.148C186.172 732.148 184.688 730.492 184.688 727.797V727.781C184.688 725.078 186.172 723.43 188.57 723.43C190.969 723.43 192.453 725.078 192.453 727.781V727.797C192.453 730.492 190.969 732.148 188.57 732.148ZM188.57 730.945C190.164 730.945 191.062 729.781 191.062 727.797V727.781C191.062 725.789 190.164 724.633 188.57 724.633C186.977 724.633 186.078 725.789 186.078 727.781V727.797C186.078 729.781 186.977 730.945 188.57 730.945ZM197.383 732.148C195.469 732.148 194.484 731.023 194.484 729.031V723.578H195.844V728.703C195.844 730.219 196.391 730.945 197.734 730.945C199.219 730.945 200.008 730.039 200.008 728.562V723.578H201.367V732H200.008V730.742H199.883C199.469 731.641 198.617 732.148 197.383 732.148ZM206.898 732.062C205.164 732.062 204.438 731.422 204.438 729.812V724.703H203.109V723.578H204.438V721.398H205.844V723.578H207.688V724.703H205.844V729.469C205.844 730.461 206.188 730.859 207.062 730.859C207.305 730.859 207.438 730.852 207.688 730.828V731.984C207.422 732.031 207.164 732.062 206.898 732.062ZM214.219 732V723.578H215.578V724.859H215.703C216.078 723.953 216.875 723.43 217.977 723.43C219.117 723.43 219.914 724.031 220.305 724.906H220.43C220.883 724.016 221.844 723.43 223.008 723.43C224.727 723.43 225.688 724.414 225.688 726.18V732H224.328V726.492C224.328 725.25 223.758 724.633 222.57 724.633C221.398 724.633 220.625 725.516 220.625 726.586V732H219.266V726.281C219.266 725.281 218.578 724.633 217.516 724.633C216.414 724.633 215.578 725.594 215.578 726.781V732H214.219ZM230.453 732.148C228.852 732.148 227.641 731.18 227.641 729.648V729.633C227.641 728.133 228.75 727.266 230.711 727.148L233.125 727V726.234C233.125 725.195 232.492 724.633 231.234 724.633C230.227 724.633 229.562 725.008 229.344 725.664L229.336 725.688H227.977L227.984 725.641C228.203 724.32 229.484 723.43 231.281 723.43C233.336 723.43 234.484 724.484 234.484 726.234V732H233.125V730.758H233C232.469 731.656 231.586 732.148 230.453 732.148ZM229.031 729.617C229.031 730.469 229.758 730.969 230.734 730.969C232.117 730.969 233.125 730.062 233.125 728.859V728.094L230.875 728.234C229.594 728.312 229.031 728.766 229.031 729.602V729.617ZM237.688 721.953C237.172 721.953 236.75 721.531 236.75 721.016C236.75 720.5 237.172 720.078 237.688 720.078C238.203 720.078 238.625 720.5 238.625 721.016C238.625 721.531 238.203 721.953 237.688 721.953ZM237 732V723.578H238.359V732H237ZM241 732V720.234H242.359V732H241ZM253.656 732.148C252.484 732.148 251.547 731.594 251.031 730.656H250.906V732H249.547V720.234H250.906V724.906H251.031C251.492 724.008 252.5 723.43 253.656 723.43C255.797 723.43 257.188 725.141 257.188 727.781V727.797C257.188 730.422 255.789 732.148 253.656 732.148ZM253.344 730.945C254.883 730.945 255.797 729.758 255.797 727.797V727.781C255.797 725.82 254.883 724.633 253.344 724.633C251.812 724.633 250.875 725.836 250.875 727.781V727.797C250.875 729.742 251.812 730.945 253.344 730.945ZM262.734 732.148C260.328 732.148 258.875 730.461 258.875 727.82V727.812C258.875 725.211 260.359 723.43 262.648 723.43C264.938 723.43 266.328 725.133 266.328 727.648V728.18H260.266C260.305 729.922 261.266 730.938 262.766 730.938C263.906 730.938 264.609 730.398 264.836 729.891L264.867 729.82H266.227L266.211 729.883C265.922 731.023 264.719 732.148 262.734 732.148ZM262.641 724.641C261.391 724.641 260.438 725.492 260.289 727.094H264.945C264.805 725.43 263.883 724.641 262.641 724.641ZM269 732V724.703H267.602V723.578H269V722.641C269 720.961 269.844 720.156 271.445 720.156C271.773 720.156 272.07 720.18 272.352 720.234V721.32C272.188 721.289 271.961 721.281 271.719 721.281C270.75 721.281 270.359 721.758 270.359 722.68V723.578H272.273V724.703H270.359V732H269ZM277.336 732.148C274.938 732.148 273.453 730.492 273.453 727.797V727.781C273.453 725.078 274.938 723.43 277.336 723.43C279.734 723.43 281.219 725.078 281.219 727.781V727.797C281.219 730.492 279.734 732.148 277.336 732.148ZM277.336 730.945C278.93 730.945 279.828 729.781 279.828 727.797V727.781C279.828 725.789 278.93 724.633 277.336 724.633C275.742 724.633 274.844 725.789 274.844 727.781V727.797C274.844 729.781 275.742 730.945 277.336 730.945ZM283.328 732V723.578H284.688V724.828H284.812C285.133 723.945 285.922 723.43 287.062 723.43C287.32 723.43 287.609 723.461 287.742 723.484V724.805C287.461 724.758 287.203 724.727 286.906 724.727C285.609 724.727 284.688 725.547 284.688 726.781V732H283.328ZM292.625 732.148C290.219 732.148 288.766 730.461 288.766 727.82V727.812C288.766 725.211 290.25 723.43 292.539 723.43C294.828 723.43 296.219 725.133 296.219 727.648V728.18H290.156C290.195 729.922 291.156 730.938 292.656 730.938C293.797 730.938 294.5 730.398 294.727 729.891L294.758 729.82H296.117L296.102 729.883C295.812 731.023 294.609 732.148 292.625 732.148ZM292.531 724.641C291.281 724.641 290.328 725.492 290.18 727.094H294.836C294.695 725.43 293.773 724.641 292.531 724.641ZM303.547 721.953C303.031 721.953 302.609 721.531 302.609 721.016C302.609 720.5 303.031 720.078 303.547 720.078C304.062 720.078 304.484 720.5 304.484 721.016C304.484 721.531 304.062 721.953 303.547 721.953ZM302.859 732V723.578H304.219V732H302.859ZM309.773 732.062C308.039 732.062 307.312 731.422 307.312 729.812V724.703H305.984V723.578H307.312V721.398H308.719V723.578H310.562V724.703H308.719V729.469C308.719 730.461 309.062 730.859 309.938 730.859C310.18 730.859 310.312 730.852 310.562 730.828V731.984C310.297 732.031 310.039 732.062 309.773 732.062ZM75.5781 753.148C73.9766 753.148 72.7656 752.18 72.7656 750.648V750.633C72.7656 749.133 73.875 748.266 75.8359 748.148L78.25 748V747.234C78.25 746.195 77.6172 745.633 76.3594 745.633C75.3516 745.633 74.6875 746.008 74.4688 746.664L74.4609 746.688H73.1016L73.1094 746.641C73.3281 745.32 74.6094 744.43 76.4062 744.43C78.4609 744.43 79.6094 745.484 79.6094 747.234V753H78.25V751.758H78.125C77.5938 752.656 76.7109 753.148 75.5781 753.148ZM74.1562 750.617C74.1562 751.469 74.8828 751.969 75.8594 751.969C77.2422 751.969 78.25 751.062 78.25 749.859V749.094L76 749.234C74.7188 749.312 74.1562 749.766 74.1562 750.602V750.617ZM82.0938 753V744.578H83.4531V745.828H83.5781C83.8984 744.945 84.6875 744.43 85.8281 744.43C86.0859 744.43 86.375 744.461 86.5078 744.484V745.805C86.2266 745.758 85.9688 745.727 85.6719 745.727C84.375 745.727 83.4531 746.547 83.4531 747.781V753H82.0938ZM88.3438 753V744.578H89.7031V745.828H89.8281C90.1484 744.945 90.9375 744.43 92.0781 744.43C92.3359 744.43 92.625 744.461 92.7578 744.484V745.805C92.4766 745.758 92.2188 745.727 91.9219 745.727C90.625 745.727 89.7031 746.547 89.7031 747.781V753H88.3438ZM95.1562 742.953C94.6406 742.953 94.2188 742.531 94.2188 742.016C94.2188 741.5 94.6406 741.078 95.1562 741.078C95.6719 741.078 96.0938 741.5 96.0938 742.016C96.0938 742.531 95.6719 742.953 95.1562 742.953ZM94.4688 753V744.578H95.8281V753H94.4688ZM100.773 753L97.6562 744.578H99.0938L101.398 751.516H101.523L103.828 744.578H105.266L102.148 753H100.773ZM110.188 753.148C107.781 753.148 106.328 751.461 106.328 748.82V748.812C106.328 746.211 107.812 744.43 110.102 744.43C112.391 744.43 113.781 746.133 113.781 748.648V749.18H107.719C107.758 750.922 108.719 751.938 110.219 751.938C111.359 751.938 112.062 751.398 112.289 750.891L112.32 750.82H113.68L113.664 750.883C113.375 752.023 112.172 753.148 110.188 753.148ZM110.094 745.641C108.844 745.641 107.891 746.492 107.742 748.094H112.398C112.258 746.43 111.336 745.641 110.094 745.641ZM118.781 753.148C116.906 753.148 115.617 752.242 115.461 750.852H116.852C117.078 751.555 117.75 752.016 118.828 752.016C119.961 752.016 120.766 751.477 120.766 750.711V750.695C120.766 750.125 120.336 749.727 119.297 749.477L117.992 749.164C116.414 748.789 115.703 748.102 115.703 746.891V746.883C115.703 745.484 117.047 744.43 118.836 744.43C120.602 744.43 121.828 745.312 122.016 746.688H120.68C120.5 746.023 119.844 745.562 118.828 745.562C117.828 745.562 117.094 746.078 117.094 746.82V746.836C117.094 747.406 117.516 747.766 118.508 748.008L119.805 748.32C121.391 748.703 122.156 749.391 122.156 750.594V750.609C122.156 752.109 120.695 753.148 118.781 753.148ZM125.375 753.078C124.82 753.078 124.359 752.617 124.359 752.062C124.359 751.5 124.82 751.047 125.375 751.047C125.938 751.047 126.391 751.5 126.391 752.062C126.391 752.617 125.938 753.078 125.375 753.078Z" fill="#434343"/>
<path fill-rule="evenodd" clip-rule="evenodd" d="M335.59 728.34L340.17 723.75L335.59 719.16L337 717.75L343 723.75L337 729.75L335.59 728.34Z" fill="#434343"/>
</g>
<path d="M40.5547 822L44.5547 810.727H46.8281L50.8281 822H48.7188L47.7734 819.086H43.6016L42.6641 822H40.5547ZM45.625 812.82L44.1094 817.531H47.2734L45.7578 812.82H45.625ZM55.7578 822.172C53.1875 822.172 51.6719 820.508 51.6719 817.719V817.703C51.6719 814.945 53.1797 813.297 55.75 813.297C57.9453 813.297 59.2578 814.516 59.4766 816.281V816.312H57.6406L57.6328 816.289C57.4531 815.461 56.8203 814.867 55.7578 814.867C54.4297 814.867 53.6484 815.914 53.6484 817.703V817.719C53.6484 819.531 54.4375 820.594 55.7578 820.594C56.7656 820.594 57.3828 820.133 57.625 819.234L57.6406 819.203L59.4766 819.195L59.4609 819.258C59.1797 821.008 57.9219 822.172 55.7578 822.172ZM64.9922 822.172C62.4219 822.172 60.9062 820.508 60.9062 817.719V817.703C60.9062 814.945 62.4141 813.297 64.9844 813.297C67.1797 813.297 68.4922 814.516 68.7109 816.281V816.312H66.875L66.8672 816.289C66.6875 815.461 66.0547 814.867 64.9922 814.867C63.6641 814.867 62.8828 815.914 62.8828 817.703V817.719C62.8828 819.531 63.6719 820.594 64.9922 820.594C66 820.594 66.6172 820.133 66.8594 819.234L66.875 819.203L68.7109 819.195L68.6953 819.258C68.4141 821.008 67.1562 822.172 64.9922 822.172ZM74.25 822.172C71.6875 822.172 70.1406 820.5 70.1406 817.734V817.719C70.1406 814.977 71.7109 813.297 74.25 813.297C76.7969 813.297 78.3594 814.969 78.3594 817.719V817.734C78.3594 820.5 76.8047 822.172 74.25 822.172ZM74.25 820.594C75.6016 820.594 76.3672 819.539 76.3672 817.742V817.727C76.3672 815.93 75.5938 814.867 74.25 814.867C72.8984 814.867 72.125 815.93 72.125 817.727V817.742C72.125 819.539 72.8984 820.594 74.25 820.594ZM83.1406 822.172C81.2188 822.172 80.2344 821.016 80.2344 818.984V813.461H82.1797V818.539C82.1797 819.859 82.6719 820.531 83.8438 820.531C85.1016 820.531 85.7734 819.719 85.7734 818.438V813.461H87.7188V822H85.7734V820.703H85.6406C85.2422 821.617 84.375 822.172 83.1406 822.172ZM90.0938 822V813.461H92.0391V814.766H92.1719C92.5781 813.852 93.3984 813.297 94.6328 813.297C96.5391 813.297 97.5781 814.445 97.5781 816.477V822H95.6328V816.93C95.6328 815.602 95.0938 814.93 93.9141 814.93C92.7578 814.93 92.0391 815.742 92.0391 817.023V822H90.0938ZM103.234 822.039C101.273 822.039 100.469 821.383 100.469 819.734V814.969H99.1406V813.461H100.469V811.367H102.445V813.461H104.25V814.969H102.445V819.273C102.445 820.125 102.781 820.484 103.594 820.484C103.867 820.484 104.016 820.477 104.25 820.453V821.953C103.969 822.008 103.609 822.039 103.234 822.039ZM113.68 822.172C111.508 822.172 110.195 821.172 110.031 819.727V819.711H111.961L111.969 819.727C112.172 820.32 112.742 820.734 113.711 820.734C114.68 820.734 115.352 820.297 115.352 819.656V819.641C115.352 819.141 114.977 818.812 114.039 818.602L112.656 818.289C111.031 817.93 110.258 817.164 110.258 815.906V815.898C110.258 814.359 111.664 813.297 113.68 813.297C115.758 813.297 117 814.328 117.125 815.711V815.727H115.297L115.289 815.703C115.148 815.164 114.586 814.727 113.672 814.727C112.805 814.727 112.18 815.148 112.18 815.789V815.797C112.18 816.297 112.539 816.602 113.461 816.812L114.844 817.117C116.516 817.492 117.305 818.203 117.305 819.445V819.461C117.305 821.086 115.781 822.172 113.68 822.172ZM122.922 822.172C120.383 822.172 118.844 820.469 118.844 817.75V817.742C118.844 815.055 120.398 813.297 122.828 813.297C125.258 813.297 126.758 815 126.758 817.578V818.219H120.789C120.812 819.75 121.641 820.641 122.961 820.641C124.016 820.641 124.617 820.109 124.805 819.719L124.828 819.664H126.68L126.656 819.734C126.383 820.836 125.242 822.172 122.922 822.172ZM122.852 814.82C121.766 814.82 120.953 815.555 120.805 816.914H124.859C124.727 815.516 123.938 814.82 122.852 814.82ZM132.062 822.039C130.102 822.039 129.297 821.383 129.297 819.734V814.969H127.969V813.461H129.297V811.367H131.273V813.461H133.078V814.969H131.273V819.273C131.273 820.125 131.609 820.484 132.422 820.484C132.695 820.484 132.844 820.477 133.078 820.453V821.953C132.797 822.008 132.438 822.039 132.062 822.039ZM138.422 822.039C136.461 822.039 135.656 821.383 135.656 819.734V814.969H134.328V813.461H135.656V811.367H137.633V813.461H139.438V814.969H137.633V819.273C137.633 820.125 137.969 820.484 138.781 820.484C139.055 820.484 139.203 820.477 139.438 820.453V821.953C139.156 822.008 138.797 822.039 138.422 822.039ZM142.375 812.031C141.734 812.031 141.211 811.523 141.211 810.883C141.211 810.25 141.734 809.734 142.375 809.734C143.008 809.734 143.531 810.25 143.531 810.883C143.531 811.523 143.008 812.031 142.375 812.031ZM141.398 822V813.461H143.344V822H141.398ZM145.734 822V813.461H147.68V814.766H147.812C148.219 813.852 149.039 813.297 150.273 813.297C152.18 813.297 153.219 814.445 153.219 816.477V822H151.273V816.93C151.273 815.602 150.734 814.93 149.555 814.93C148.398 814.93 147.68 815.742 147.68 817.023V822H145.734ZM159.188 825C156.938 825 155.586 824.039 155.391 822.602L155.398 822.578H157.344L157.352 822.602C157.484 823.148 158.133 823.531 159.219 823.531C160.547 823.531 161.32 822.914 161.32 821.82V820.188H161.188C160.695 821.102 159.766 821.602 158.586 821.602C156.422 821.602 155.078 819.93 155.078 817.508V817.492C155.078 815.023 156.422 813.32 158.625 813.32C159.805 813.32 160.727 813.898 161.211 814.867H161.312V813.461H163.258V821.789C163.258 823.758 161.68 825 159.188 825ZM159.188 820.055C160.539 820.055 161.352 819.016 161.352 817.508V817.492C161.352 815.984 160.531 814.938 159.188 814.938C157.836 814.938 157.07 815.984 157.07 817.492V817.508C157.07 819.016 157.836 820.055 159.188 820.055ZM168.867 822.172C166.695 822.172 165.383 821.172 165.219 819.727V819.711H167.148L167.156 819.727C167.359 820.32 167.93 820.734 168.898 820.734C169.867 820.734 170.539 820.297 170.539 819.656V819.641C170.539 819.141 170.164 818.812 169.227 818.602L167.844 818.289C166.219 817.93 165.445 817.164 165.445 815.906V815.898C165.445 814.359 166.852 813.297 168.867 813.297C170.945 813.297 172.188 814.328 172.312 815.711V815.727H170.484L170.477 815.703C170.336 815.164 169.773 814.727 168.859 814.727C167.992 814.727 167.367 815.148 167.367 815.789V815.797C167.367 816.297 167.727 816.602 168.648 816.812L170.031 817.117C171.703 817.492 172.492 818.203 172.492 819.445V819.461C172.492 821.086 170.969 822.172 168.867 822.172Z" fill="#2A2A2A"/>
<rect x="127" y="806.596" width="135" height="5" rx="2.5" fill="black"/>
<rect width="375" height="100" transform="translate(8 8)" fill="#E4002B"/>
<path fill-rule="evenodd" clip-rule="evenodd" d="M58 78.2664C57.9999 78.6214 57.7122 78.9092 57.3571 78.9093H36.3116L44.6005 86.411C44.7712 86.5649 44.8468 86.7983 44.7986 87.023C44.7504 87.2478 44.5858 87.4296 44.3669 87.4999C44.1481 87.5702 43.9084 87.5182 43.7383 87.3636L34.2118 78.7427C34.2081 78.7394 34.2069 78.7344 34.2033 78.7311C34.1569 78.6844 34.1181 78.6308 34.088 78.5722C34.0783 78.5544 34.0624 78.5407 34.0543 78.5222C33.9819 78.3594 33.9819 78.1735 34.0543 78.0107C34.0624 77.9922 34.0783 77.9784 34.088 77.9607C34.1181 77.9021 34.1569 77.8485 34.2033 77.8018C34.2069 77.7985 34.2081 77.7935 34.2118 77.7902L43.7383 69.1693C43.9081 69.0133 44.1486 68.9603 44.3683 69.0305C44.588 69.1006 44.7533 69.2832 44.8012 69.5088C44.8492 69.7344 44.7726 69.9684 44.6005 70.1219L36.3116 77.6236H57.3571C57.7122 77.6237 57.9999 77.9114 58 78.2664Z" fill="white"/>
<mask id="mask5_1023_1412" style="mask-type:luminance" maskUnits="userSpaceOnUse" x="34" y="69" width="24" height="19">
<path fill-rule="evenodd" clip-rule="evenodd" d="M58 78.2664C57.9999 78.6214 57.7122 78.9092 57.3571 78.9093H36.3116L44.6005 86.411C44.7712 86.5649 44.8468 86.7983 44.7986 87.023C44.7504 87.2478 44.5858 87.4296 44.3669 87.4999C44.1481 87.5702 43.9084 87.5182 43.7383 87.3636L34.2118 78.7427C34.2081 78.7394 34.2069 78.7344 34.2033 78.7311C34.1569 78.6844 34.1181 78.6308 34.088 78.5722C34.0783 78.5544 34.0624 78.5407 34.0543 78.5222C33.9819 78.3594 33.9819 78.1735 34.0543 78.0107C34.0624 77.9922 34.0783 77.9784 34.088 77.9607C34.1181 77.9021 34.1569 77.8485 34.2033 77.8018C34.2069 77.7985 34.2081 77.7935 34.2118 77.7902L43.7383 69.1693C43.9081 69.0133 44.1486 68.9603 44.3683 69.0305C44.588 69.1006 44.7533 69.2832 44.8012 69.5088C44.8492 69.7344 44.7726 69.9684 44.6005 70.1219L36.3116 77.6236H57.3571C57.7122 77.6237 57.9999 77.9114 58 78.2664Z" fill="white"/>
</mask>
<g mask="url(#mask5_1023_1412)">
</g>
<path d="M164.133 83.5L168.203 72.2266H169.617V74.2031H169.086L165.977 83.5H164.133ZM166.094 80.4531L166.586 79.0469H171.719L172.211 80.4531H166.094ZM172.32 83.5L169.219 74.2031V72.2266H170.102L174.164 83.5H172.32ZM179.031 83.6641C178.208 83.6641 177.497 83.487 176.898 83.1328C176.305 82.7734 175.846 82.263 175.523 81.6016C175.201 80.9401 175.039 80.151 175.039 79.2344V79.2188C175.039 78.3177 175.198 77.5417 175.516 76.8906C175.839 76.2396 176.297 75.737 176.891 75.3828C177.49 75.0286 178.201 74.8516 179.023 74.8516C179.737 74.8516 180.349 74.9766 180.859 75.2266C181.375 75.4714 181.784 75.8099 182.086 76.2422C182.393 76.6693 182.586 77.1562 182.664 77.7031L182.672 77.7422H181.039L181.031 77.7266C180.938 77.3099 180.721 76.9635 180.383 76.6875C180.044 76.4062 179.594 76.2656 179.031 76.2656C178.562 76.2656 178.159 76.3854 177.82 76.625C177.482 76.8594 177.221 77.1979 177.039 77.6406C176.862 78.0833 176.773 78.6094 176.773 79.2188V79.2344C176.773 79.8594 176.865 80.3958 177.047 80.8438C177.229 81.2917 177.49 81.638 177.828 81.8828C178.167 82.1224 178.568 82.2422 179.031 82.2422C179.562 82.2422 179.992 82.125 180.32 81.8906C180.654 81.6562 180.888 81.3099 181.023 80.8516L181.039 80.8125L182.664 80.8047L182.648 80.875C182.549 81.4271 182.349 81.9115 182.047 82.3281C181.745 82.7448 181.341 83.0729 180.836 83.3125C180.336 83.5469 179.734 83.6641 179.031 83.6641ZM188.156 83.6641C187.333 83.6641 186.622 83.487 186.023 83.1328C185.43 82.7734 184.971 82.263 184.648 81.6016C184.326 80.9401 184.164 80.151 184.164 79.2344V79.2188C184.164 78.3177 184.323 77.5417 184.641 76.8906C184.964 76.2396 185.422 75.737 186.016 75.3828C186.615 75.0286 187.326 74.8516 188.148 74.8516C188.862 74.8516 189.474 74.9766 189.984 75.2266C190.5 75.4714 190.909 75.8099 191.211 76.2422C191.518 76.6693 191.711 77.1562 191.789 77.7031L191.797 77.7422H190.164L190.156 77.7266C190.062 77.3099 189.846 76.9635 189.508 76.6875C189.169 76.4062 188.719 76.2656 188.156 76.2656C187.688 76.2656 187.284 76.3854 186.945 76.625C186.607 76.8594 186.346 77.1979 186.164 77.6406C185.987 78.0833 185.898 78.6094 185.898 79.2188V79.2344C185.898 79.8594 185.99 80.3958 186.172 80.8438C186.354 81.2917 186.615 81.638 186.953 81.8828C187.292 82.1224 187.693 82.2422 188.156 82.2422C188.688 82.2422 189.117 82.125 189.445 81.8906C189.779 81.6562 190.013 81.3099 190.148 80.8516L190.164 80.8125L191.789 80.8047L191.773 80.875C191.674 81.4271 191.474 81.9115 191.172 82.3281C190.87 82.7448 190.466 83.0729 189.961 83.3125C189.461 83.5469 188.859 83.6641 188.156 83.6641ZM197.305 83.6641C196.477 83.6641 195.76 83.487 195.156 83.1328C194.557 82.7786 194.096 82.2734 193.773 81.6172C193.451 80.9557 193.289 80.1719 193.289 79.2656V79.25C193.289 78.3385 193.451 77.5547 193.773 76.8984C194.102 76.2422 194.565 75.737 195.164 75.3828C195.768 75.0286 196.482 74.8516 197.305 74.8516C198.133 74.8516 198.846 75.0286 199.445 75.3828C200.044 75.7318 200.505 76.237 200.828 76.8984C201.156 77.5547 201.32 78.3385 201.32 79.25V79.2656C201.32 80.1719 201.156 80.9557 200.828 81.6172C200.505 82.2734 200.044 82.7786 199.445 83.1328C198.852 83.487 198.138 83.6641 197.305 83.6641ZM197.305 82.2422C197.789 82.2422 198.201 82.125 198.539 81.8906C198.878 81.651 199.135 81.3099 199.312 80.8672C199.49 80.4245 199.578 79.8906 199.578 79.2656V79.25C199.578 78.6198 199.49 78.0833 199.312 77.6406C199.135 77.1979 198.878 76.8594 198.539 76.625C198.201 76.3854 197.789 76.2656 197.305 76.2656C196.82 76.2656 196.409 76.3854 196.07 76.625C195.732 76.8594 195.471 77.1979 195.289 77.6406C195.112 78.0833 195.023 78.6198 195.023 79.25V79.2656C195.023 79.8906 195.112 80.4245 195.289 80.8672C195.471 81.3099 195.732 81.651 196.07 81.8906C196.409 82.125 196.82 82.2422 197.305 82.2422ZM206.164 83.6641C205.529 83.6641 204.992 83.5417 204.555 83.2969C204.122 83.0469 203.797 82.6875 203.578 82.2188C203.365 81.7448 203.258 81.1745 203.258 80.5078V75.0156H204.953V80.1094C204.953 80.8073 205.091 81.3307 205.367 81.6797C205.643 82.0286 206.094 82.2031 206.719 82.2031C207.052 82.2031 207.349 82.1536 207.609 82.0547C207.87 81.9505 208.089 81.8021 208.266 81.6094C208.443 81.4167 208.573 81.1849 208.656 80.9141C208.745 80.6432 208.789 80.3359 208.789 79.9922V75.0156H210.492V83.5H208.789V82.2188H208.664C208.529 82.5208 208.344 82.7812 208.109 83C207.875 83.2135 207.594 83.3776 207.266 83.4922C206.943 83.6068 206.576 83.6641 206.164 83.6641ZM212.93 83.5V75.0156H214.625V76.2969H214.758C214.966 75.8438 215.273 75.4896 215.68 75.2344C216.086 74.9792 216.599 74.8516 217.219 74.8516C218.172 74.8516 218.901 75.125 219.406 75.6719C219.911 76.2188 220.164 76.9974 220.164 78.0078V83.5H218.461V78.4062C218.461 77.6979 218.312 77.1719 218.016 76.8281C217.724 76.4792 217.266 76.3047 216.641 76.3047C216.229 76.3047 215.872 76.3958 215.57 76.5781C215.268 76.7552 215.034 77.0104 214.867 77.3438C214.706 77.6719 214.625 78.0651 214.625 78.5234V83.5H212.93ZM225.727 83.5547C224.799 83.5547 224.128 83.3776 223.711 83.0234C223.299 82.6641 223.094 82.0781 223.094 81.2656V76.3516H221.766V75.0156H223.094V72.875H224.828V75.0156H226.648V76.3516H224.828V80.8516C224.828 81.3099 224.919 81.6406 225.102 81.8438C225.284 82.0417 225.586 82.1406 226.008 82.1406C226.133 82.1406 226.24 82.138 226.328 82.1328C226.422 82.1276 226.529 82.1198 226.648 82.1094V83.4688C226.513 83.4896 226.367 83.5078 226.211 83.5234C226.055 83.5443 225.893 83.5547 225.727 83.5547Z" fill="white"/>
</g>
<rect x="4" y="4" width="383" height="820" rx="36" stroke="white" stroke-width="8"/>
<defs>
<clipPath id="clip0_1023_1412">
<rect x="8" y="8" width="375" height="812" rx="32" fill="white"/>
</clipPath>
<clipPath id="clip1_1023_1412">
<rect width="343" height="57" fill="white" transform="translate(24 338)"/>
</clipPath>
<clipPath id="clip2_1023_1412">
<rect width="343" height="57" fill="white" transform="translate(24 395)"/>
</clipPath>
<clipPath id="clip3_1023_1412">
<rect width="343" height="56" fill="white" transform="translate(24 452)"/>
</clipPath>
<clipPath id="clip4_1023_1412">
<rect width="343" height="103" fill="white" transform="translate(24 569)"/>
</clipPath>
<clipPath id="clip5_1023_1412">
<rect width="343" height="102" fill="white" transform="translate(24 672)"/>
</clipPath>
<clipPath id="clip6_1023_1412">
<rect width="20" height="20" fill="white" transform="translate(42 713)"/>
</clipPath>
</defs>
</svg>
