<svg width="64" height="64" viewBox="0 0 64 64" fill="none" xmlns="http://www.w3.org/2000/svg">
<path d="M14 30.4371C25.8252 30.4371 37.6505 30.4371 49.4757 30.4371C50.0473 30.4371 50.5468 30.5321 50.2831 31.2967C50.2609 31.3612 46.9289 28.4113 46.5715 28.0538C45.0323 26.5147 43.4285 24.9704 42.0263 23.3133C41.6673 22.889 40.5766 21.6366 40.8803 22.1022C42.2197 24.156 44.0774 26.1321 45.6468 28.0408C46.4997 29.0781 47.3251 30.249 48.4078 31.0492C48.619 31.2053 50.2427 32.1498 50.179 32.1953C49.3497 32.7876 48.5556 33.1805 47.7957 33.9404C45.9867 35.7494 44.2916 37.6521 42.43 39.4102C41.8479 39.96 41.3556 40.7994 40.724 41.2205" stroke="#66836E" stroke-width="4" stroke-linecap="round"/>
</svg>
