<svg width="18" height="22" viewBox="0 0 18 22" fill="none" xmlns="http://www.w3.org/2000/svg">
<g clip-path="url(#clip0_3808_20080)">
<path d="M7.22168 12.5391C6.05182 12.5391 7.12655 12.5392 7.95851 12.2253C8.79046 11.9114 10.7637 8.9103 10.5478 8.6877C10.3319 8.4651 7.92315 11.0401 7.43703 11.3241C6.95092 11.6081 6.55246 11.9684 6.62632 12.3851C6.70018 12.8018 7.25844 13.264 7.83202 13.7399C8.40559 14.2159 8.97757 14.6916 10.5478 15.9097" stroke="#FFFF00" stroke-width="2" stroke-linecap="round"/>
<path d="M1 8.83741V19.3084C1 19.8607 1.44771 20.3084 2 20.3084H15.6277C16.18 20.3084 16.6277 19.8607 16.6277 19.3084V8.83741C16.6277 8.57037 16.5209 8.31442 16.3311 8.12659L9.51721 1.38422C9.12756 0.998656 8.50013 0.998655 8.11048 1.38422L1.29663 8.12659C1.10681 8.31442 1 8.57037 1 8.83741Z" stroke="#FFFF00" stroke-width="2"/>
</g>
<defs>
<clipPath id="clip0_3808_20080">
<rect width="17.6277" height="21.8282" fill="white"/>
</clipPath>
</defs>
</svg>
