<svg width="52" height="24" viewBox="0 0 52 24" fill="none" xmlns="http://www.w3.org/2000/svg">
<path d="M24.0361 11.8674C20.0395 12.0962 12.7351 12.214 4.95995 12.214C3.10133 12.214 4.80882 12.2141 6.1306 11.7102C7.45237 11.2062 10.5874 6.38758 10.2444 6.03017C9.90134 5.67277 6.07442 9.80713 5.3021 10.2631C4.52979 10.7191 3.89673 11.2977 4.01407 11.9668C4.13142 12.6358 5.01836 13.3779 5.92963 14.142C6.84091 14.9062 7.74964 15.67 10.2444 17.6258" stroke="#FFFF00" stroke-width="2" stroke-linecap="round"/>
<path d="M32.0361 10.1516V20.6341C32.0361 21.1864 32.4838 21.6341 33.0361 21.6341H46.5108C47.0631 21.6341 47.5108 21.1864 47.5108 20.6341V10.1516C47.5108 9.88634 47.4055 9.63199 47.2179 9.44445L40.4806 2.70711C40.0901 2.31658 39.4569 2.31658 39.0664 2.70711L32.329 9.44445C32.1415 9.63198 32.0361 9.88634 32.0361 10.1516Z" stroke="#FFFF00" stroke-width="2"/>
</svg>
