<svg width="18" height="22" viewBox="0 0 18 22" fill="none" xmlns="http://www.w3.org/2000/svg">
<g clip-path="url(#clip0_3808_20080)">
<path d="M7.22168 12.9764C6.05182 12.9764 7.12655 12.9764 7.95851 12.6592C8.79046 12.342 10.7637 9.30904 10.5478 9.08408C10.3319 8.85912 7.92315 11.4614 7.43703 11.7484C6.95092 12.0354 6.55246 12.3996 6.62632 12.8207C6.70018 13.2418 7.25844 13.7089 7.83202 14.1899C8.40559 14.6708 8.97757 15.1516 10.5478 16.3826" stroke="#FFFF00" stroke-width="2" stroke-linecap="round"/>
<path d="M1 9.22806V19.8282C1 20.3805 1.44771 20.8282 2 20.8282H15.6277C16.18 20.8282 16.6277 20.3805 16.6277 19.8282V9.22806C16.6277 8.96284 16.5223 8.70849 16.3348 8.52095L9.52095 1.70711C9.13043 1.31658 8.49726 1.31658 8.10674 1.70711L1.29289 8.52095C1.10536 8.70849 1 8.96284 1 9.22806Z" stroke="#FFFF00" stroke-width="2"/>
</g>
<defs>
<clipPath id="clip0_3808_20080">
<rect width="17.6277" height="21.8282" fill="white"/>
</clipPath>
</defs>
</svg>
