<svg width="18" height="22" viewBox="0 0 18 22" fill="none" xmlns="http://www.w3.org/2000/svg">
<g clip-path="url(#clip0_4416_20085)">
<path d="M8.56658 9.54492C8.56658 8.37506 8.56654 9.4498 8.88041 10.2818C9.19427 11.1137 12.1954 13.087 12.418 12.8711C12.6406 12.6551 10.0657 10.2464 9.78165 9.76028C9.49764 9.27416 9.13729 8.8757 8.72058 8.94956C8.30387 9.02342 7.84173 9.58168 7.36579 10.1553C6.88986 10.7288 6.41414 11.3008 5.19602 12.8711" stroke="#FFFF00" stroke-width="2" stroke-linecap="round"/>
<path d="M1 19.2236V2.60416C1 2.05187 1.44771 1.60416 2 1.60416H15.6277C16.18 1.60416 16.6277 2.05187 16.6277 2.60415V19.2236C16.6277 19.7759 16.18 20.2236 15.6277 20.2236H2C1.44772 20.2236 1 19.7759 1 19.2236Z" stroke="#FFFF00" stroke-width="2"/>
</g>
<defs>
<clipPath id="clip0_4416_20085">
<rect width="17.6277" height="21.8282" fill="white"/>
</clipPath>
</defs>
</svg>
