<svg width="753" height="345" viewBox="0 0 753 345" fill="none" xmlns="http://www.w3.org/2000/svg">
<path d="M315.951 151.9C316.716 166.622 318.575 183.823 326.726 196.503C331.696 204.234 331.973 176.223 331.8 172.949C331.599 169.12 327.463 159.872 323.844 158.666" stroke="#2E4032" stroke-width="3" stroke-linecap="round"/>
<path d="M322.717 157.538C370.813 127.36 427.576 112.759 480.581 93.8287C489.998 90.4653 498.42 84.3679 507.58 80.3602C514.34 77.403 521.937 78.6061 529.255 78.6061C541.513 78.6061 553.77 78.6061 566.028 78.6061C572.041 78.6061 569.847 78.123 565.715 82.6154C560.473 88.3123 556.002 94.5535 551.62 100.908C546.195 108.773 535.465 113.096 527.689 117.696C506.041 130.505 485.964 145.036 462.915 155.408C443.677 164.065 423.643 171.411 404.781 180.842C392.116 187.174 378.264 190.57 365.816 197.255C357.793 201.564 347.625 203.77 338.503 203.77" stroke="#2E4032" stroke-width="3" stroke-linecap="round"/>
<path d="M347.524 142.879C355.92 142.879 355.777 143.567 360.805 150.271C365.395 156.392 366.592 165.284 366.694 172.823C366.807 181.248 367.217 190.239 357.673 190.239" stroke="#2E4032" stroke-width="3" stroke-linecap="round"/>
<path d="M492.984 83.1166C500.768 82.9267 508.917 76.7851 516.1 77.5412C523.205 78.2891 514.412 89.3743 513.031 92.1374C510.418 97.3632 510.128 96.8645 516.915 93.7661C517.684 93.415 528.585 89.0614 528.378 90.5086C527.812 94.4714 521.109 98.3841 518.543 100.908C510.132 109.181 522.006 99.0282 526.061 99.0282C528.092 99.0282 507.613 116.303 522.051 110.43C531.616 106.539 525.685 114.141 525.685 119.2" stroke="#2E4032" stroke-width="3" stroke-linecap="round"/>
<path d="M549.364 79.7338C555.642 81.1462 556.328 84.1739 553.624 89.8822C552.395 92.4779 551.716 95.3265 550.492 97.7754" stroke="#2E4032" stroke-width="3" stroke-linecap="round"/>
<path d="M463.827 124.174C444.083 134.262 423.44 143.016 404.288 154.203C403.132 154.877 395.554 160.587 397.545 160.391C410.169 159.146 421.923 149.507 433.842 145.662C435.354 145.174 466.902 132.251 463.15 129.772" stroke="#2E4032" stroke-width="3" stroke-linecap="round"/>
<path d="M7.09443 164.006V181.071L-13.3827 193.585L-17.9336 234.54L21.884 242.503L44.637 208.374L35.5358 193.585H53.7381L74.2158 170.832V151.492V136.702L66.2522 123.051H35.5358L7.09443 164.006Z" fill="#F8714A"/>
<path d="M138.501 283.049C119.726 263.552 90.3615 185.266 78.026 148.559C64.9803 112.046 138.501 122.383 147.527 127.799C156.553 133.215 173.703 224.379 178.216 244.236C182.729 264.094 161.969 307.42 138.501 283.049Z" fill="#65836D"/>
<path d="M306.067 306.395C282.739 296.521 258.169 185.097 249.642 144.138C240.625 103.394 287.345 123.122 293.584 129.165C299.823 135.208 330.398 240.928 333.518 263.087C336.637 285.245 333.518 318.016 306.067 306.395Z" fill="#65836D"/>
<path d="M378.053 220.704C361.787 210.83 344.768 124.981 338.822 84.0225C338.822 84.0225 364.998 37.4311 369.349 43.4742C373.699 49.5173 402.457 172.767 404.632 194.925C406.808 217.083 397.195 232.324 378.053 220.704Z" fill="#65836D"/>
<path d="M214.356 219.126C198.09 209.251 183.897 155.449 177.951 114.49L221.825 119.803C221.825 119.803 238.76 171.189 240.935 193.347C243.11 215.505 233.498 230.746 214.356 219.126Z" fill="#65836D"/>
<path d="M303.479 127.896L117.016 114.49C134.484 79.1476 172.101 7.24344 182.826 2.36859C196.232 -3.72499 264.48 14.5557 292.51 25.5242C314.935 34.2989 353.04 43.8049 369.289 47.461L303.479 127.896Z" fill="#FFEF9D"/>
<path d="M68.8203 146.153C86.2766 184.79 102.807 225.295 127.694 259.84C133.791 268.304 139.315 276.953 144.858 285.771C146.666 288.647 148.001 290.527 151.502 290.661C170.418 291.389 172.693 269.755 176.417 254.857C176.918 252.854 176.9 250.624 176.786 248.582C175.659 228.296 170.544 208.067 166.082 188.324C162.359 171.853 158.465 155.435 153.071 139.417C149.28 128.159 150.454 126.28 138.767 126.221C126.341 126.158 113.913 126.221 101.487 126.221C98.5252 126.221 95.116 125.462 93.8278 128.897C92.8903 131.397 89.8006 145.262 94.1969 146.061C101.329 147.358 111.705 136.64 116.99 132.865" stroke="#2E4032" stroke-width="3" stroke-linecap="round"/>
<path d="M116.989 116.255C120.586 99.5769 127.096 86.2213 135.445 71.4999C142.092 59.7802 146.671 46.8047 154.362 35.6958C160.718 26.5146 165.173 16.4896 171.065 6.99714C176.697 -2.07811 193.456 4.88526 202.162 5.88979C223.9 8.39798 245.787 9.63577 267.496 12.3493C274.667 13.2457 278.196 15.4476 283.921 19.6393C296.155 28.596 309.143 34.5661 323.878 38.3719C336.171 41.547 348.75 41.333 360.974 44.0931C362.748 44.4937 369.769 48.6355 369.094 50.8295C366.65 58.7731 353.276 67.5504 347.87 73.4377C339.043 83.0517 332.611 93.7931 325.723 104.812C321.163 112.109 315.486 117.816 310.497 124.468C307.425 128.565 302.75 127.501 298.224 126.775C265.107 121.46 232.024 118.762 198.748 114.963C183.649 113.239 169.212 109.424 154.27 107.027C143.198 105.251 131.487 106.289 120.311 106.289" stroke="#304C37" stroke-width="3" stroke-linecap="round"/>
<path d="M176.786 11.6111C213.937 37.1012 257.71 55.9928 289.827 88.1101C297.533 95.8157 298.883 104.232 304.684 112.933" stroke="#304C37" stroke-width="3" stroke-linecap="round"/>
<path d="M254.854 127.882C260.419 176.731 264.531 226.709 283.46 272.575C285.525 277.578 286.708 282.975 288.166 288.078C290.468 296.135 303.048 302.289 310.959 302.289C343.31 302.289 332.898 284.797 328.4 263.163C321.536 230.154 312.72 197.878 307.175 164.609C305.191 152.702 301.362 140.036 301.362 127.882" stroke="#2E4032" stroke-width="3" stroke-linecap="round"/>
<path d="M337.905 86.3567C353.468 125.533 356.201 167.796 375.186 205.765C379.884 215.161 382.738 227.417 395.949 221.637C405.359 217.52 410.859 212.146 408.96 201.89C402.692 168.045 391.863 134.265 383.86 100.752C380.86 88.1877 376.848 75.4758 374.632 62.7334C374.182 60.1445 374.389 59.7222 372.787 58.1194" stroke="#2E4032" stroke-width="3" stroke-linecap="round"/>
<path d="M175.125 112.933C180.304 135.242 189.343 156.174 195.888 177.989C198.277 185.953 200.406 193.579 204.1 200.967C207.468 207.702 208.016 219.905 216.65 222.191C222.519 223.744 233.258 220.479 235.752 214.993C238.074 209.886 238.285 201.064 237.874 195.799C235.529 165.738 224.887 137.439 219.972 107.95" stroke="#2E4032" stroke-width="3" stroke-linecap="round"/>
<path d="M-17.5527 189.34C-15.0633 201.787 -14.8677 214.673 -12.662 226.805C-10.7262 237.451 6.96463 237.297 15.8521 240.462C26.5698 244.279 25.4688 243.318 32.2777 232.618C35.7993 227.084 39.8774 215.78 45.5658 212.225C51.5551 208.481 47.1689 200.977 45.4736 195.891C45.0523 194.627 41.9422 178.038 37.8144 178.451C10.9258 181.14 17.3286 211.887 17.3286 230.865" stroke="#E75930" stroke-width="3" stroke-linecap="round"/>
<path d="M-14.2314 186.018C-4.80494 183.092 6.51989 182.227 15.2977 177.713C18.0969 176.273 18.0645 176.321 21.019 177.344C25.2398 178.805 28.133 178.971 30.616 182.696" stroke="#E75930" stroke-width="3" stroke-linecap="round"/>
<path d="M14.0071 191.001C7.23079 188.785 -1.95345 184.356 -9.24707 184.356" stroke="#E75930" stroke-width="3" stroke-linecap="round"/>
<path d="M5.70215 159.441C16.1426 145.521 26.0916 131.8 39.107 120.131C44.5336 115.266 51.9051 117.916 59.962 117.916C75.1208 117.916 75.4648 130.028 75.4648 142.831" stroke="#E75930" stroke-width="3" stroke-linecap="round"/>
<path d="M12.3457 161.102C28.9326 160.843 45.7999 159.441 62.1761 159.441" stroke="#E75930" stroke-width="3" stroke-linecap="round"/>
<path d="M14.0067 154.458C12.585 162.278 12.3457 169.829 12.3457 177.713" stroke="#E75930" stroke-width="3" stroke-linecap="round"/>
<path d="M58.8541 159.441C60.5662 164.257 67.348 186.018 58.0235 186.018C51.4486 186.018 45.4242 187.679 38.9219 187.679" stroke="#E75930" stroke-width="3" stroke-linecap="round"/>
<path d="M57.1934 194.323C61.6705 189.974 67.0026 186.253 70.4815 181.035" stroke="#E75930" stroke-width="3" stroke-linecap="round"/>
<path d="M475.297 292.139C475.297 319.372 454.976 341.449 429.909 341.449C404.842 341.449 388.785 320.048 388.785 292.814C388.785 265.581 409.106 243.503 434.173 243.503C459.24 243.503 480.393 249.059 475.297 292.139Z" fill="#FFEF9D"/>
<path d="M465.803 252.458C443.573 246.958 398.077 242.512 392.257 273.405C387.979 296.111 395.029 317.429 412.927 331.541C419.927 337.06 432.206 349.298 439.965 339.385C445.284 332.588 448.59 325.26 451.684 317.238C456.769 304.056 455.811 297.641 454.176 284.018" stroke="#2E4032" stroke-width="3" stroke-linecap="round"/>
<path d="M515.871 279.24V255.382L561.678 237.25H744.905L752.539 255.382L712.458 291.646L515.871 279.24Z" fill="#F8714A"/>
<path d="M512.57 250.211C512.932 252.243 513.915 276.583 518.106 278.195C531.422 283.317 549.182 283.227 563.312 284.499C567.71 284.896 571.233 286.019 575.459 286.268C611.277 288.375 647.221 287.575 683.092 287.575C689.146 287.575 708.736 295.746 707.54 285.576C706.856 279.764 701.238 267.311 703.773 261.82C707.322 254.128 723.572 247.295 730.219 242.83C733.11 240.889 739.524 233.76 743.135 237.372C747.874 242.11 747.4 247.996 750.285 253.286C750.331 253.369 723.911 280.546 720.148 286.191" stroke="#E75930" stroke-width="3" stroke-linecap="round"/>
<path d="M742.289 237.756C683.777 234.436 625.606 239.14 567.232 239.14C564.312 239.14 562.542 236.26 559.083 237.372C546.817 241.314 535.689 248.962 523.641 252.978" stroke="#E75930" stroke-width="3" stroke-linecap="round"/>
<path d="M523.641 252.978C569.674 256.632 616.187 256.407 662.333 256.284C680.32 256.236 698.14 256.148 715.996 254.362" stroke="#E75930" stroke-width="3" stroke-linecap="round"/>
</svg>
