<svg width="309" height="334" viewBox="0 0 309 334" fill="none" xmlns="http://www.w3.org/2000/svg">
<path d="M300.289 181.473C300.289 261.656 235.288 326.658 155.104 326.658C74.9207 326.658 9.91905 250.595 9.91905 170.411C9.91905 90.2275 69.896 6.47339 150.08 6.47339C230.263 6.47339 300.289 101.289 300.289 181.473Z" fill="#FFFF00"/>
<path d="M166.42 16.0247C203.836 20.279 236.482 46.4102 258.731 81.019C280.977 115.622 292.717 158.535 288.447 196.083C279.911 271.161 212.128 325.105 137.049 316.568C62.0616 308.042 9.20242 229.91 17.7498 154.736C22.0227 117.157 40.4527 80.3179 67.2111 53.9539C93.9656 27.5938 128.975 11.7671 166.42 16.0247Z" stroke="#111111" stroke-width="2"/>
<path d="M154.402 291.233C151.354 292.049 149.066 291.216 148.302 288.909L148.252 288.758L151.147 287.983L151.189 288.072C151.554 288.82 152.609 289.092 153.806 288.772C155.046 288.44 155.669 287.708 155.464 286.944L155.462 286.936C155.275 286.24 154.646 286.063 153.136 286.167L151.816 286.266C149.267 286.467 147.664 285.613 147.162 283.737L147.159 283.728C146.527 281.368 148.166 279.3 150.976 278.547C154.049 277.724 156.176 278.701 156.883 280.896L156.939 281.072L154.044 281.847L154.01 281.756C153.701 280.975 152.777 280.685 151.657 280.986C150.51 281.293 150.004 281.983 150.193 282.688L150.195 282.697C150.372 283.359 151.043 283.552 152.425 283.446L153.745 283.347C156.477 283.152 157.965 283.881 158.49 285.842L158.492 285.851C159.148 288.296 157.645 290.364 154.402 291.233ZM167.06 287.841C163.341 288.837 160.362 287.024 159.316 283.119L159.311 283.102C158.267 279.205 159.958 276.141 163.659 275.149C167.386 274.15 170.365 275.964 171.409 279.86L171.414 279.877C172.46 283.783 170.795 286.84 167.06 287.841ZM166.368 285.26C168.151 284.782 168.863 283.026 168.247 280.726L168.242 280.709C167.621 278.391 166.108 277.259 164.351 277.73C162.61 278.196 161.863 279.925 162.486 282.251L162.491 282.268C163.114 284.594 164.619 285.729 166.368 285.26ZM180.685 284.19C176.967 285.186 173.988 283.373 172.941 279.468L172.937 279.451C171.893 275.554 173.583 272.49 177.284 271.498C181.011 270.499 183.99 272.313 185.034 276.209L185.039 276.226C186.085 280.132 184.421 283.189 180.685 284.19ZM179.994 281.609C181.777 281.131 182.489 279.376 181.872 277.075L181.868 277.058C181.247 274.74 179.733 273.608 177.976 274.079C176.236 274.545 175.489 276.274 176.112 278.6L176.116 278.617C176.74 280.943 178.245 282.078 179.994 281.609ZM188.547 281.847L185.264 269.597L187.904 268.889L194.698 274.648L194.757 274.632L192.862 267.561L195.969 266.728L199.252 278.979L196.637 279.679L189.798 273.85L189.738 273.866L191.654 281.014L188.547 281.847Z" fill="#111111"/>
<path d="M167.158 50.4043C170.206 51.2209 171.772 53.0871 171.28 55.4667L171.247 55.6217L168.352 54.846L168.36 54.7481C168.419 53.9176 167.641 53.1541 166.444 52.8334C165.204 52.5012 164.299 52.8229 164.095 53.5869L164.092 53.5954C163.906 54.2916 164.363 54.7597 165.722 55.4243L166.915 55.9987C169.223 57.0993 170.184 58.6398 169.681 60.516L169.679 60.5245C169.046 62.8846 166.593 63.856 163.783 63.103C160.71 62.2796 159.356 60.37 159.842 58.1162L159.881 57.9356L162.776 58.7113L162.76 58.807C162.637 59.6385 163.292 60.3509 164.413 60.6512C165.559 60.9583 166.343 60.6133 166.532 59.9087L166.534 59.9002C166.711 59.238 166.227 58.7352 164.977 58.1365L163.785 57.5621C161.321 56.3651 160.398 54.9894 160.923 53.0283L160.925 53.0198C161.58 50.5748 163.915 49.5353 167.158 50.4043ZM154.501 47.0127C158.219 48.009 159.893 51.0688 158.846 54.974L158.842 54.991C157.797 58.8877 154.801 60.6964 151.1 59.7046C147.373 58.706 145.7 55.6462 146.744 51.7495L146.748 51.7325C147.795 47.8273 150.765 46.0118 154.501 47.0127ZM153.809 49.5935C152.026 49.1158 150.532 50.2803 149.915 52.581L149.911 52.5979C149.29 54.9156 150.034 56.6529 151.792 57.1238C153.532 57.5901 155.043 56.4664 155.666 54.1402L155.671 54.1233C156.294 51.7971 155.558 50.0621 153.809 49.5935ZM140.875 43.3617C144.594 44.3581 146.267 47.4179 145.221 51.3231L145.216 51.3401C144.172 55.2368 141.176 57.0455 137.475 56.0537C133.748 55.055 132.074 51.9952 133.118 48.0985L133.123 48.0816C134.169 44.1763 137.14 42.3608 140.875 43.3617ZM140.184 45.9426C138.401 45.4649 136.906 46.6294 136.29 48.93L136.285 48.947C135.664 51.2647 136.409 53.002 138.166 53.4728C139.906 53.9392 141.418 52.8155 142.041 50.4893L142.046 50.4723C142.669 48.1462 141.933 46.4112 140.184 45.9426ZM132.896 41.4602L129.613 53.7107L126.973 53.0032L123.969 44.6188L123.91 44.6029L122.015 51.6747L118.908 50.8422L122.19 38.5917L124.805 39.2923L127.814 47.7599L127.873 47.7759L129.789 40.6276L132.896 41.4602Z" fill="#111111"/>
<path d="M43.097 145.733C43.097 141.927 45.5316 139.563 49.6712 139.563L49.68 139.563C53.8197 139.563 56.2367 141.945 56.2367 145.733C56.2367 149.046 54.1097 151.34 51.2708 151.454L51.183 151.454L51.183 148.352L51.3148 148.334C52.6331 148.132 53.5648 147.209 53.5648 145.733C53.5648 143.966 52.1146 142.85 49.6888 142.85L49.68 142.85C47.2279 142.85 45.7689 143.975 45.7689 145.741C45.7689 147.139 46.639 148.132 48.054 148.352L48.1507 148.369L48.1507 151.472L48.054 151.463C45.2152 151.349 43.097 149.029 43.097 145.733ZM43.097 159.259C43.097 155.409 45.6195 153.001 49.6624 153.001L49.68 153.001C53.7142 153.001 56.2367 155.427 56.2367 159.259C56.2367 163.117 53.7142 165.525 49.68 165.525L49.6624 165.525C45.6195 165.525 43.097 163.126 43.097 159.259ZM45.7689 159.259C45.7689 161.104 47.2806 162.247 49.6624 162.247L49.68 162.247C52.0794 162.247 53.5648 161.078 53.5648 159.259C53.5648 157.457 52.0882 156.288 49.68 156.288L49.6624 156.288C47.2542 156.288 45.7689 157.448 45.7689 159.259ZM43.3255 167.458L56.0081 167.458L56.0081 171.185L47.7201 174.367L47.7201 174.419L56.0081 177.601L56.0081 181.328L43.3255 181.328L43.3255 178.489L51.2533 178.489L51.2533 178.418L43.3255 175.316L43.3255 173.47L51.2533 170.368L51.2533 170.297L43.3255 170.297L43.3255 167.458ZM43.3255 183.604L56.0081 183.604L56.0081 186.829L43.3255 186.829L43.3255 183.604ZM43.3255 189.114L56.0081 189.114L56.0081 191.847L48.6869 196.919L48.6869 196.98L56.0081 196.98L56.0081 200.197L43.3255 200.197L43.3255 197.49L50.7259 192.392L50.7259 192.331L43.3255 192.331L43.3255 189.114ZM43.097 208.397C43.097 204.486 45.514 202.13 49.6888 202.13L49.6976 202.13C53.8109 202.13 56.2367 204.495 56.2367 208.318C56.2367 211.429 54.4085 213.67 51.9476 214.004L51.8421 214.022L51.8421 210.831L51.93 210.805C52.9583 210.471 53.5648 209.566 53.5648 208.327C53.5648 206.498 52.1937 205.417 49.7328 205.417L49.724 205.417C47.2103 205.417 45.7689 206.613 45.7689 208.467C45.7689 209.926 46.5599 210.928 47.8343 211.034L47.9925 211.042L47.9925 208.502L50.2777 208.502L50.2777 214.154L48.6869 214.154C45.2152 214.154 43.097 212.009 43.097 208.397Z" fill="#111111"/>
<path d="M273.193 175.098C274.178 178.774 272.438 181.688 268.439 182.76L268.431 182.762C264.432 183.833 261.481 182.158 260.501 178.499C259.643 175.299 261.104 172.532 263.816 171.687L263.901 171.665L264.704 174.661L264.582 174.712C263.36 175.249 262.699 176.382 263.082 177.808C263.539 179.514 265.228 180.217 267.572 179.589L267.58 179.587C269.949 178.952 271.067 177.488 270.61 175.782C270.248 174.432 269.15 173.698 267.727 173.852L267.629 173.86L266.826 170.863L266.921 170.846C269.693 170.222 272.34 171.915 273.193 175.098ZM269.692 162.033C270.688 165.752 268.875 168.731 264.97 169.777L264.953 169.782C261.056 170.826 257.992 169.136 257 165.434C256.001 161.707 257.815 158.728 261.711 157.684L261.728 157.68C265.633 156.633 268.691 158.298 269.692 162.033ZM267.111 162.725C266.633 160.942 264.877 160.23 262.577 160.846L262.56 160.851C260.242 161.472 259.11 162.985 259.581 164.743C260.047 166.483 261.776 167.23 264.102 166.607L264.119 166.602C266.445 165.979 267.58 164.474 267.111 162.725ZM267.349 154.172L255.098 157.455L254.134 153.855L261.316 148.637L261.302 148.586L252.473 147.658L251.509 144.058L263.759 140.776L264.494 143.518L256.836 145.569L256.855 145.637L265.315 146.582L265.793 148.365L258.938 153.414L258.956 153.482L266.614 151.43L267.349 154.172ZM263.17 138.577L250.92 141.86L250.085 138.744L262.335 135.461L263.17 138.577ZM261.744 133.254L249.494 136.537L248.786 133.897L254.545 127.103L254.529 127.044L247.458 128.939L246.625 125.832L258.875 122.549L259.576 125.164L253.747 132.003L253.763 132.063L260.911 130.147L261.744 133.254ZM256.974 114.569C257.986 118.347 256.261 121.248 252.229 122.329L252.22 122.331C248.247 123.395 245.292 121.74 244.302 118.047C243.497 115.041 244.683 112.403 246.974 111.444L247.071 111.4L247.897 114.481L247.819 114.529C246.912 115.118 246.56 116.15 246.881 117.347C247.354 119.112 248.958 119.802 251.335 119.165L251.344 119.163C253.772 118.512 254.855 116.984 254.375 115.193C253.997 113.784 252.974 113.021 251.716 113.249L251.561 113.281L252.218 115.735L250.011 116.326L248.548 110.867L250.085 110.456C253.438 109.557 256.039 111.08 256.974 114.569Z" fill="#111111"/>
</svg>
