<svg width="157" height="165" viewBox="0 0 157 165" fill="none" xmlns="http://www.w3.org/2000/svg">
<path d="M13.8271 157.377C14.2584 148.358 14.4806 135.249 13.4459 117.778C11.5169 85.2073 8.88711 72.0668 11.4243 59.9436C12.9319 52.7398 15.6834 46.4881 19.0594 41.075C23.1044 34.5892 27.3472 30.359 32.699 25.2068C40.2415 17.9455 48.565 14.196 63.3507 7.41665C71.2762 3.78275 79.4454 2.60016 92.3098 2.0199C99.7674 1.68352 107.617 5.68123 114.308 7.77389C119.886 9.51858 123.548 15.1769 128.459 20.4064C134.498 26.8378 138.272 33.046 141.314 38.8264C144.537 44.9523 146.43 51.7326 148.432 58.3017C150.139 63.9056 152.164 79.0226 153.76 90.6574C154.991 99.6293 153.86 110.858 151.526 122.149C150.613 126.564 149.928 129.727 148.502 131.666C146.955 133.769 142.716 131.827 139.695 132.497C131.546 134.305 128.37 143.861 126.2 145.531C125.107 146.372 123.504 146.367 121.85 145.096C113.519 138.693 111.899 132.946 109.625 131.245C108.398 130.327 106.194 130.804 104.376 131.637C95.501 135.704 88.8541 144.91 78.3957 148.849C74.583 150.284 70.9776 145.127 67.3679 142.434C60.9635 137.656 51.5758 148.427 47.228 152.988C46.2542 154.009 45.2007 154.938 43.8176 155.102C37.0631 153.879 26.1954 154.771 16.9329 158.779C15.22 159.522 13.8529 159.62 11.4883 157.809" stroke="#111111" stroke-width="4" stroke-linecap="round"/>
<path d="M44.4575 44.8203C48.5267 47.4387 52.5959 50.057 55.2875 51.8818C57.9791 53.7065 59.1698 54.6583 60.8268 55.7039C62.4837 56.7494 64.5709 57.8599 66.7214 59.3172" stroke="#111111" stroke-width="4" stroke-linecap="round"/>
<path d="M65.3225 40.6235C60.8397 45.0974 56.3569 49.5712 53.4791 52.5087C50.6012 55.4461 49.464 56.7117 47.655 59.274" stroke="#111111" stroke-width="4" stroke-linecap="round"/>
<path d="M116.85 26.5047C117.775 27.4583 118.7 28.4119 120.588 29.9877C122.475 31.5635 125.297 33.7327 128.801 35.8457C132.305 37.9586 136.406 39.9496 140.945 42.3141" stroke="#111111" stroke-width="4" stroke-linecap="round"/>
<path d="M130.548 23.6852C130.443 23.7886 130.337 23.892 128.883 26.3506C127.429 28.8092 124.629 33.6199 122.895 36.7809C121.161 39.9418 120.578 41.3071 119.978 42.7138" stroke="#111111" stroke-width="4" stroke-linecap="round"/>
<path d="M79.6735 48.0989C80.087 48.7191 81.3356 50.2792 83.6319 52.4173C85.8725 54.5035 90.6867 54.4677 95.7116 54.242C97.8953 53.9129 99.3355 53.1483 100.648 52.0708C101.96 50.9933 103.101 49.6262 105.529 44.7123" stroke="#111111" stroke-width="4" stroke-linecap="round"/>
<path d="M105.529 43.7562L106.156 41.8442" stroke="#111111" stroke-width="4" stroke-linecap="round"/>
<path d="M95.9084 7.46867C95.4689 7.38077 92.5622 7.33549 85.526 7.97687C75.0848 8.92863 68.4676 11.2778 66.8215 11.5844C60.4343 12.7742 54.5559 16.5756 46.6892 20.6656C35.5827 26.4401 28.6097 31.9303 27.6574 33.1551C26.805 34.2515 25.3293 35.7375 22.8326 38.6249C19.0823 42.9621 16.3215 47.4641 13.1048 59.5285C10.3551 69.8416 6.64626 88.9906 4.30455 105.424C1.96284 121.858 1.43544 135.08 1.12463 142.884C0.631101 155.276 1.6972 157.813 2.68046 160.36C2.95325 161.066 3.31021 161.884 3.7881 162.43C4.266 162.976 4.86566 163.222 5.56753 163.164C8.94952 162.888 11.8662 160.034 26.0669 151.98C29.6031 149.974 31.0541 149.493 32.7704 149.337C36.0077 149.042 42.0584 153.332 46.3195 154.972C48.9981 156.003 52.1745 152.422 58.0601 147.692C60.1585 146.005 61.9799 145.446 63.686 145.454C70.5226 145.483 77.38 153.766 80.9896 154.838C85.1558 156.075 91.8974 146.132 100.588 138.529C104.161 135.403 105.304 133.869 106.436 133.415C114.33 130.244 126.512 144.201 129.332 144.215C132.689 144.231 135.355 137.425 138.894 134.296C143.003 130.664 151.953 133.104 153.003 132.447C154.117 128.004 154.048 122.264 153.772 119.781C153.652 118.684 153.574 117.919 153.493 117.131" stroke="#111111" stroke-width="2" stroke-linecap="round"/>
</svg>
