<svg width="700" height="939" viewBox="0 0 700 939" fill="none" xmlns="http://www.w3.org/2000/svg">
<circle cx="484.297" cy="206" r="205.5" stroke="white"/>
<path d="M683.278 515.317C653.832 625.211 540.875 690.427 430.981 660.981C321.087 631.535 255.871 518.577 285.317 408.683" stroke="white"/>
<path d="M675.278 523.317C645.832 633.211 532.875 698.427 422.981 668.981C313.087 639.535 247.871 526.577 277.317 416.683" stroke="white"/>
<path d="M269.317 424.683C239.871 534.577 305.087 647.535 414.981 676.981C487.486 696.408 561.325 674.63 611.632 626" stroke="white"/>
<path d="M261.317 432.683C231.871 542.577 297.087 655.535 406.981 684.981C479.486 704.408 553.325 682.63 603.632 634" stroke="white"/>
<path d="M253.317 440.683C223.871 550.577 289.087 663.535 398.981 692.981C471.486 712.408 545.325 690.63 595.632 642" stroke="white"/>
<path d="M245.317 448.683C215.871 558.577 281.087 671.535 390.981 700.981C463.486 720.408 537.325 698.63 587.632 650" stroke="white"/>
<path d="M237.317 456.684C207.871 566.578 273.087 679.535 382.981 708.981C455.486 728.409 529.325 706.63 579.632 658" stroke="white"/>
<path d="M229.317 464.684C199.871 574.578 265.087 687.535 374.981 716.981C447.486 736.409 521.325 714.63 571.632 666" stroke="white"/>
<path d="M221.317 472.684C191.871 582.578 257.087 695.535 366.981 724.981C439.486 744.409 513.325 722.63 563.632 674" stroke="white"/>
<path d="M213.317 480.684C183.871 590.578 249.087 703.535 358.981 732.981C431.486 752.409 505.325 730.63 555.632 682" stroke="white"/>
<path d="M205.317 488.684C175.871 598.578 241.087 711.535 350.981 740.981C423.486 760.409 497.325 738.63 547.632 690" stroke="white"/>
<path d="M197.317 496.684C167.871 606.578 233.087 719.535 342.981 748.981C415.486 768.409 489.325 746.63 539.632 698" stroke="white"/>
<path d="M189.317 504.684C159.871 614.578 225.087 727.535 334.981 756.981C407.486 776.409 481.325 754.63 531.632 706" stroke="white"/>
<path d="M181.317 512.684C151.871 622.578 217.087 735.535 326.981 764.981C399.486 784.409 473.325 762.63 523.632 714" stroke="white"/>
<path d="M173.317 520.684C143.871 630.578 209.087 743.535 318.981 772.981C391.486 792.409 465.325 770.63 515.632 722" stroke="white"/>
<path d="M165.317 528.684C135.871 638.578 201.087 751.535 310.981 780.981C383.486 800.409 457.325 778.63 507.632 730" stroke="white"/>
<path d="M157.317 536.684C127.871 646.578 193.087 759.535 302.981 788.981C375.486 808.409 449.325 786.63 499.632 738" stroke="white"/>
<path d="M149.317 544.684C119.871 654.578 185.087 767.535 294.981 796.981C367.486 816.409 441.325 794.63 491.632 746" stroke="white"/>
<path d="M141.317 552.684C111.871 662.578 177.087 775.535 286.981 804.981C359.486 824.409 433.325 802.63 483.632 754" stroke="white"/>
<path d="M133.317 560.684C103.871 670.578 169.087 783.535 278.981 812.981C351.486 832.409 425.325 810.63 475.632 762" stroke="white"/>
<path d="M125.317 568.684C95.8709 678.578 161.087 791.535 270.981 820.981C343.486 840.409 417.325 818.63 467.632 770" stroke="white"/>
<path d="M117.317 576.684C87.8709 686.578 153.087 799.535 262.981 828.981C335.486 848.409 409.325 826.63 459.632 778" stroke="white"/>
<path d="M109.317 584.684C79.8709 694.578 145.087 807.535 254.981 836.981C327.486 856.409 401.325 834.63 451.632 786" stroke="white"/>
<path d="M101.317 592.684C71.8709 702.578 137.087 815.535 246.981 844.981C319.486 864.409 393.325 842.63 443.632 794" stroke="white"/>
<path d="M93.3169 600.684C63.8709 710.578 129.087 823.535 238.981 852.981C311.486 872.409 385.325 850.63 435.632 802" stroke="white"/>
<path d="M85.3169 608.684C55.8709 718.578 121.087 831.535 230.981 860.981C303.486 880.409 377.325 858.63 427.632 810" stroke="white"/>
<path d="M77.3169 616.684C47.8709 726.578 113.087 839.535 222.981 868.981C295.486 888.409 369.325 866.63 419.632 818" stroke="white"/>
<path d="M69.3169 624.684C39.8709 734.578 105.087 847.535 214.981 876.981C287.486 896.409 361.325 874.63 411.632 826" stroke="white"/>
<path d="M61.3169 632.684C31.8709 742.578 97.0869 855.535 206.981 884.981C279.486 904.409 353.325 882.63 403.632 834" stroke="white"/>
<path d="M53.3169 640.684C23.8709 750.578 89.0869 863.535 198.981 892.981C271.486 912.409 345.325 890.63 395.632 842" stroke="white"/>
<path d="M690.297 214C690.297 327.771 598.068 420 484.297 420C370.527 420 278.297 327.771 278.297 214" stroke="white"/>
<path d="M690.297 222C690.297 335.771 598.068 428 484.297 428C370.527 428 278.297 335.771 278.297 222" stroke="white"/>
<path d="M690.297 230C690.297 343.771 598.068 436 484.297 436C370.527 436 278.297 343.771 278.297 230" stroke="white"/>
<path d="M690.297 238C690.297 351.771 598.068 444 484.297 444C370.527 444 278.297 351.771 278.297 238" stroke="white"/>
<path d="M690.297 246C690.297 359.771 598.068 452 484.297 452C370.527 452 278.297 359.771 278.297 246" stroke="white"/>
<path d="M690.297 254C690.297 367.771 598.068 460 484.297 460C370.527 460 278.297 367.771 278.297 254" stroke="white"/>
<path d="M690.297 262C690.297 375.771 598.068 468 484.297 468C370.527 468 278.297 375.771 278.297 262" stroke="white"/>
<path d="M690.297 270C690.297 383.771 598.068 476 484.297 476C370.527 476 278.297 383.771 278.297 270" stroke="white"/>
<path d="M690.297 278C690.297 391.771 598.068 484 484.297 484C370.527 484 278.297 391.771 278.297 278" stroke="white"/>
<path d="M690.297 286C690.297 399.771 598.068 492 484.297 492C370.527 492 278.297 399.771 278.297 286" stroke="white"/>
<path d="M690.297 294C690.297 407.771 598.068 500 484.297 500C370.527 500 278.297 407.771 278.297 294" stroke="white"/>
<path d="M690.297 302C690.297 415.771 598.068 508 484.297 508C370.527 508 278.297 415.771 278.297 302" stroke="white"/>
<path d="M690.297 310C690.297 423.771 598.068 516 484.297 516C370.527 516 278.297 423.771 278.297 310" stroke="white"/>
<path d="M690.297 318C690.297 431.771 598.068 524 484.297 524C370.527 524 278.297 431.771 278.297 318" stroke="white"/>
<path d="M690.297 326C690.297 439.771 598.068 532 484.297 532C370.527 532 278.297 439.771 278.297 326" stroke="white"/>
<path d="M690.297 334C690.297 447.771 598.068 540 484.297 540C370.527 540 278.297 447.771 278.297 334" stroke="white"/>
<path d="M690.297 342C690.297 455.771 598.068 548 484.297 548C370.527 548 278.297 455.771 278.297 342" stroke="white"/>
<path d="M690.297 350C690.297 463.771 598.068 556 484.297 556C370.527 556 278.297 463.771 278.297 350" stroke="white"/>
<path d="M690.297 358C690.297 471.771 598.068 564 484.297 564C370.527 564 278.297 471.771 278.297 358" stroke="white"/>
<path d="M690.297 366C690.297 479.771 598.068 572 484.297 572C370.527 572 278.297 479.771 278.297 366" stroke="white"/>
<path d="M690.297 374C690.297 487.771 598.068 580 484.297 580C370.527 580 278.297 487.771 278.297 374" stroke="white"/>
<path d="M690.297 382C690.297 495.771 598.068 588 484.297 588C370.527 588 278.297 495.771 278.297 382" stroke="white"/>
<path d="M690.297 390C690.297 503.771 598.068 596 484.297 596C370.527 596 278.297 503.771 278.297 390" stroke="white"/>
<path d="M690.297 398C690.297 511.771 598.068 604 484.297 604C370.527 604 278.297 511.771 278.297 398" stroke="white"/>
<path d="M690.297 406C690.297 519.771 598.068 612 484.297 612C370.527 612 278.297 519.771 278.297 406" stroke="white"/>
<path d="M690.297 414C690.297 527.771 598.068 620 484.297 620C370.527 620 278.297 527.771 278.297 414" stroke="white"/>
<path d="M690.297 422C690.297 535.771 598.068 628 484.297 628C370.527 628 278.297 535.771 278.297 422" stroke="white"/>
<path d="M690.297 430C690.297 543.771 598.068 636 484.297 636C370.527 636 278.297 543.771 278.297 430" stroke="white"/>
<path d="M690.297 438C690.297 551.771 598.068 644 484.297 644C370.527 644 278.297 551.771 278.297 438" stroke="white"/>
<path d="M690.297 446C690.297 559.771 598.068 652 484.297 652C370.527 652 278.297 559.771 278.297 446" stroke="white"/>
<path d="M690.297 454C690.297 567.771 598.068 660 484.297 660C370.527 660 278.297 567.771 278.297 454" stroke="white"/>
<path d="M690.297 462C690.297 575.771 598.068 668 484.297 668C370.527 668 278.297 575.771 278.297 462" stroke="white"/>
<rect x="448.297" y="53.0015" width="239" height="239" transform="rotate(45 448.297 53.0015)" stroke="white"/>
<path d="M275.099 222.547C277.77 220.118 281.191 219.391 284.649 218.598C306.429 213.607 327.481 207.428 348.516 199.817C356.282 197.008 364.034 194.15 371.779 191.281C374.856 190.14 378.623 189.242 381.009 186.799C399.401 167.969 417.665 149.442 437.352 131.843C472.016 100.855 506.4 69.9392 535.153 33.1352C537.4 30.2588 544.622 22.088 541.876 24.4916C541.236 25.0508 538.397 25.6621 537.714 25.8788C515.211 33.0139 491.393 39.8656 468.619 44.9267C461.477 46.5136 453.43 51.5961 446.049 51.5961" stroke="white" stroke-width="3" stroke-linecap="round"/>
<path d="M538.248 24.7051C539.928 25.5455 541.237 27.6409 542.356 28.9202C549.318 36.8768 556.623 44.5234 564.392 51.7029C579.342 65.5197 596.482 76.6544 611.451 90.4389C632.927 110.216 651.983 132.315 669.875 155.319C671.21 157.035 672.685 159.035 674.197 160.548C677.431 163.782 682.871 170.233 687.109 171.646" stroke="white" stroke-width="3" stroke-linecap="round"/>
<path d="M692.871 181.25C670.23 192.339 648.374 205.214 625.644 216.037C622.701 217.438 619.721 218.812 617 220.626" stroke="white" stroke-width="3" stroke-linecap="round"/>
<path d="M697.673 182.21C694.463 183.28 691.513 187.166 689.03 189.253C676.603 199.698 664.128 210.096 651.681 220.519C633.905 235.404 616.97 249.202 601.527 266.511C589.874 279.573 578.558 292.603 566.526 305.247C560.996 311.059 555.476 316.513 550.839 323.068C544.087 332.615 536.028 342.34 526.723 349.319" stroke="white" stroke-width="3" stroke-linecap="round"/>
<path d="M531.525 344.517C529.605 346.985 526.67 348.838 524.215 350.653C513.53 358.55 502.204 365.071 490.388 371.141C474.725 379.188 458.962 385.416 442.208 390.616" stroke="white" stroke-width="3" stroke-linecap="round"/>
<path d="M381.703 187.972C383.637 192.118 388.589 196.255 391.413 199.497C411.835 222.941 431.967 246.531 453.466 269.019C472.148 288.562 491.848 306.81 511.836 324.989C518.284 330.853 530.215 339.016 534.406 347.398" stroke="white" stroke-linecap="square" stroke-dasharray="6 6"/>
</svg>
