<svg width="392" height="348" viewBox="0 0 392 348" fill="none" xmlns="http://www.w3.org/2000/svg">
<path d="M391.317 202.387C391.317 217.337 389.024 231.988 384.44 246.34C380.054 260.493 373.576 273.748 365.005 286.107C356.633 298.266 346.566 309.03 334.806 318.399C323.244 327.568 310.288 334.844 295.936 340.226C281.584 345.409 266.135 348 249.591 348C246.601 348 242.614 347.9 237.631 347.701C232.647 347.502 227.465 347.402 222.083 347.402C216.9 347.203 212.116 347.103 207.731 347.103C203.146 347.103 198.561 347.203 193.977 347.402C189.392 347.402 185.206 347.502 181.419 347.701C177.631 347.701 174.442 347.801 171.851 348L172.748 342.02C179.126 341.621 184.11 340.824 187.698 339.628C191.485 338.432 194.475 336.04 196.668 332.452C198.86 328.864 200.854 323.482 202.648 316.306L241.817 168.002C243.611 161.424 244.508 156.341 244.508 152.753C244.508 148.966 243.013 146.374 240.023 144.979C237.033 143.384 231.85 142.487 224.475 142.288L225.372 136.308C228.162 136.507 231.551 136.707 235.538 136.906C239.524 137.105 243.81 137.205 248.395 137.205C252.979 137.205 257.464 137.205 261.85 137.205C266.434 137.006 271.517 136.906 277.099 136.906C282.68 136.707 288.062 136.607 293.245 136.607C298.627 136.408 303.211 136.308 306.999 136.308C335.304 136.308 356.433 141.989 370.387 153.351C384.34 164.514 391.317 180.859 391.317 202.387ZM246.003 342.618C261.351 342.618 275.205 340.027 287.564 334.844C299.922 329.661 310.786 322.386 320.155 313.017C329.523 303.648 337.297 292.785 343.477 280.426C349.855 268.067 354.639 254.612 357.829 240.061C361.018 225.51 362.613 210.46 362.613 194.912C362.613 177.171 357.629 163.916 347.663 155.145C337.696 146.175 321.351 141.69 298.627 141.69C292.647 141.69 287.863 142.388 284.275 143.783C280.687 145.178 277.796 147.77 275.604 151.557C273.411 155.145 271.418 160.427 269.624 167.404L230.455 316.904C228.86 322.685 227.963 327.568 227.764 331.555C227.564 335.342 228.76 338.133 231.352 339.927C234.142 341.721 239.026 342.618 246.003 342.618Z" fill="#C34225"/>
<path d="M70.667 247.536L72.162 241.556H131.962L130.467 247.536H70.667ZM178.606 199.098C180.998 185.145 182.094 174.181 181.895 166.208C181.696 158.035 179.005 152.155 173.822 148.567C168.839 144.979 160.068 143.185 147.51 143.185H131.663C124.886 143.185 119.603 143.783 115.816 144.979C112.228 145.976 109.338 148.268 107.145 151.856C104.952 155.245 102.859 160.627 100.866 168.002L61.099 316.306C59.1057 323.482 58.408 328.864 59.006 332.452C59.604 336.04 61.8963 338.432 65.883 339.628C70.069 340.824 76.2483 341.621 84.421 342.02L82.926 348C77.7433 347.601 71.1653 347.402 63.192 347.402C55.2187 347.203 47.1457 347.103 38.973 347.103C31.199 347.103 23.9233 347.203 17.146 347.402C10.568 347.402 5.186 347.601 1 348L2.495 342.02C9.27233 341.621 14.5547 340.824 18.342 339.628C22.1293 338.432 25.0197 336.04 27.013 332.452C29.2057 328.864 31.2987 323.482 33.292 316.306L73.059 168.002C75.0523 160.627 75.8497 155.245 75.451 151.856C75.2517 148.268 73.5573 145.876 70.368 144.68C67.378 143.285 62.4943 142.487 55.717 142.288L57.212 136.308C64.5873 136.507 72.3613 136.707 80.534 136.906C88.7067 136.906 96.7797 137.006 104.753 137.205C112.726 137.205 120.102 137.205 126.879 137.205C133.856 137.205 139.537 137.205 143.922 137.205C152.693 137.205 162.56 137.205 173.523 137.205C184.686 137.006 194.652 136.707 203.423 136.308C200.832 143.883 198.34 151.258 195.948 158.434C193.755 165.411 192.161 170.793 191.164 174.58C189.769 179.364 188.573 183.849 187.576 188.035C186.779 192.221 186.081 195.909 185.483 199.098H178.606ZM102.959 241.556C109.537 241.556 114.919 240.26 119.105 237.669C123.291 234.878 126.779 231.39 129.57 227.204C132.361 223.018 134.653 218.732 136.447 214.347C138.241 209.762 139.836 205.676 141.231 202.088H148.108C144.321 213.45 141.63 222.121 140.035 228.101C138.64 234.081 137.244 239.563 135.849 244.546C134.653 249.529 133.357 255.011 131.962 260.991C130.567 266.971 128.673 275.642 126.281 287.004H119.404C120.002 282.22 120.6 277.536 121.198 272.951C121.796 268.167 121.796 263.881 121.198 260.094C120.6 256.307 118.806 253.317 115.816 251.124C112.826 248.732 108.042 247.536 101.464 247.536L102.959 241.556Z" fill="#C34225"/>
<path d="M391.316 74.3872C391.316 89.3372 389.024 103.988 384.439 118.34C380.054 132.493 373.576 145.749 365.004 158.107C356.632 170.267 346.566 181.031 334.805 190.399C323.244 199.569 310.287 206.844 295.935 212.226C281.583 217.409 266.135 220 249.59 220C246.6 220 242.614 219.901 237.63 219.701C232.647 219.502 227.464 219.402 222.082 219.402C216.9 219.203 212.116 219.103 207.73 219.103C203.146 219.103 198.561 219.203 193.976 219.402C189.392 219.402 185.206 219.502 181.418 219.701C177.631 219.701 174.442 219.801 171.85 220M241.816 40.0022C243.61 33.4242 244.507 28.3412 244.507 24.7532C244.507 20.9658 243.012 18.3745 240.022 16.9792C237.032 15.3845 231.85 14.4875 224.474 14.2882M362.612 66.9122C362.612 49.1715 357.629 35.9159 347.662 27.1452C337.696 18.1752 321.35 13.6902 298.626 13.6902C292.646 13.6902 287.862 14.3879 284.274 15.7832C280.686 17.1785 277.796 19.7699 275.603 23.5572C273.411 27.1452 271.417 32.4275 269.623 39.4042L230.454 188.904" stroke="white"/>
<path d="M391.316 82.3872C391.316 97.3372 389.024 111.988 384.439 126.34C380.054 140.493 373.576 153.749 365.004 166.107C356.632 178.267 346.566 189.031 334.805 198.399C323.244 207.569 310.287 214.844 295.935 220.226C281.583 225.409 266.135 228 249.59 228C246.6 228 242.614 227.901 237.63 227.701C232.647 227.502 227.464 227.402 222.082 227.402C216.9 227.203 212.116 227.103 207.73 227.103C203.146 227.103 198.561 227.203 193.976 227.402C189.392 227.402 185.206 227.502 181.418 227.701C177.631 227.701 174.442 227.801 171.85 228M241.816 48.0022C243.61 41.4242 244.507 36.3412 244.507 32.7532C244.507 28.9658 243.012 26.3745 240.022 24.9792C237.032 23.3845 231.85 22.4875 224.474 22.2882M362.612 74.9122C362.612 57.1715 357.629 43.9159 347.662 35.1452C337.696 26.1752 321.35 21.6902 298.626 21.6902C292.646 21.6902 287.862 22.3879 284.274 23.7832C280.686 25.1785 277.796 27.7699 275.603 31.5572C273.411 35.1452 271.417 40.4275 269.623 47.4042L230.454 196.904" stroke="white"/>
<path d="M391.316 90.3872C391.316 105.337 389.024 119.988 384.439 134.34C380.054 148.493 373.576 161.749 365.004 174.107C356.632 186.267 346.566 197.031 334.805 206.399C323.244 215.569 310.287 222.844 295.935 228.226C281.583 233.409 266.135 236 249.59 236C246.6 236 242.614 235.901 237.63 235.701C232.647 235.502 227.464 235.402 222.082 235.402C216.9 235.203 212.116 235.103 207.73 235.103C203.146 235.103 198.561 235.203 193.976 235.402C189.392 235.402 185.206 235.502 181.418 235.701C177.631 235.701 174.442 235.801 171.85 236M241.816 56.0022C243.61 49.4242 244.507 44.3412 244.507 40.7532C244.507 36.9658 243.012 34.3745 240.022 32.9792C237.032 31.3845 231.85 30.4875 224.474 30.2882M362.612 82.9122C362.612 65.1715 357.629 51.9159 347.662 43.1452C337.696 34.1752 321.35 29.6902 298.626 29.6902C292.646 29.6902 287.862 30.3879 284.274 31.7832C280.686 33.1785 277.796 35.7699 275.603 39.5572C273.411 43.1452 271.417 48.4275 269.623 55.4042L231.739 200" stroke="white"/>
<path d="M391.316 98.3872C391.316 113.337 389.024 127.988 384.439 142.34C380.054 156.493 373.576 169.749 365.004 182.107C356.632 194.267 346.566 205.031 334.805 214.399C323.244 223.569 310.287 230.844 295.935 236.226C281.583 241.409 266.135 244 249.59 244C246.6 244 242.614 243.901 237.63 243.701C232.647 243.502 227.464 243.402 222.082 243.402C216.9 243.203 212.116 243.103 207.73 243.103C203.146 243.103 198.561 243.203 193.976 243.402C189.392 243.402 185.206 243.502 181.418 243.701C177.631 243.701 174.442 243.801 171.85 244M241.816 64.0022C243.61 57.4242 244.507 52.3412 244.507 48.7532C244.507 44.9658 243.012 42.3745 240.022 40.9792C237.032 39.3845 231.85 38.4875 224.474 38.2882M362.612 90.9122C362.612 73.1715 357.629 59.9159 347.662 51.1452C337.696 42.1752 321.35 37.6902 298.626 37.6902C292.646 37.6902 287.862 38.3879 284.274 39.7832C280.686 41.1785 277.796 43.7699 275.603 47.5572C273.411 51.1452 271.417 56.4275 269.623 63.4042L233.311 202" stroke="white"/>
<path d="M391.316 106.387C391.316 121.337 389.024 135.988 384.439 150.34C380.054 164.493 373.576 177.749 365.004 190.107C356.632 202.267 346.566 213.031 334.805 222.399C323.244 231.569 310.287 238.844 295.935 244.226C281.583 249.409 266.135 252 249.59 252C246.6 252 242.614 251.901 237.63 251.701C232.647 251.502 227.464 251.402 222.082 251.402C216.9 251.203 212.116 251.103 207.73 251.103C203.146 251.103 198.561 251.203 193.976 251.402C189.392 251.402 185.206 251.502 181.418 251.701C177.631 251.701 174.442 251.801 171.85 252M241.816 72.0022C243.61 65.4242 244.507 60.3412 244.507 56.7532C244.507 52.9658 243.012 50.3745 240.022 48.9792C237.032 47.3845 231.85 46.4875 224.474 46.2882M362.612 98.9122C362.612 81.1715 357.629 67.9159 347.662 59.1452C337.696 50.1752 321.35 45.6902 298.626 45.6902C292.646 45.6902 287.862 46.3879 284.274 47.7832C280.686 49.1785 277.796 51.7699 275.603 55.5572C273.411 59.1452 271.417 64.4275 269.623 71.4042L235.145 203" stroke="white"/>
<path d="M391.316 114.387C391.316 129.337 389.024 143.988 384.439 158.34C380.054 172.493 373.576 185.749 365.004 198.107C356.632 210.267 346.566 221.031 334.805 230.399C323.244 239.569 310.287 246.844 295.935 252.226C281.583 257.409 266.135 260 249.59 260C246.6 260 242.614 259.901 237.63 259.701C232.647 259.502 227.464 259.402 222.082 259.402C216.9 259.203 212.116 259.103 207.73 259.103C203.146 259.103 198.561 259.203 193.976 259.402C189.392 259.402 185.206 259.502 181.418 259.701C177.631 259.701 174.442 259.801 171.85 260M241.816 80.0022C243.61 73.4242 244.507 68.3412 244.507 64.7532C244.507 60.9658 243.012 58.3745 240.022 56.9792C237.032 55.3845 231.85 54.4875 224.474 54.2882M362.612 106.912C362.612 89.1715 357.629 75.9159 347.662 67.1452C337.696 58.1752 321.35 53.6902 298.626 53.6902C292.646 53.6902 287.862 54.3879 284.274 55.7832C280.686 57.1785 277.796 59.7699 275.603 63.5572C273.411 67.1452 271.417 72.4275 269.623 79.4042L237.11 203.5" stroke="white"/>
<path d="M391.316 122.387C391.316 137.337 389.024 151.988 384.439 166.34C380.054 180.493 373.576 193.749 365.004 206.107C356.632 218.267 346.566 229.031 334.805 238.399C323.244 247.569 310.287 254.844 295.935 260.226C281.583 265.409 266.135 268 249.59 268C246.6 268 242.614 267.901 237.63 267.701C232.647 267.502 227.464 267.402 222.082 267.402C216.9 267.203 212.116 267.103 207.73 267.103C203.146 267.103 198.561 267.203 193.976 267.402C189.392 267.402 185.206 267.502 181.418 267.701C177.631 267.701 174.442 267.801 171.85 268M241.816 88.0022C243.61 81.4242 244.507 76.3412 244.507 72.7532C244.507 68.9658 243.012 66.3745 240.022 64.9792C237.032 63.3845 231.85 62.4875 224.474 62.2882M362.612 114.912C362.612 97.1715 357.629 83.9159 347.662 75.1452C337.696 66.1752 321.35 61.6902 298.626 61.6902C292.646 61.6902 287.862 62.3879 284.274 63.7832C280.686 65.1785 277.796 67.7699 275.603 71.5572C273.411 75.1452 271.417 80.4275 269.623 87.4042L239.075 204" stroke="white"/>
<path d="M391.316 130.387C391.316 145.337 389.024 159.988 384.439 174.34C380.054 188.493 373.576 201.749 365.004 214.107C356.632 226.267 346.566 237.031 334.805 246.399C323.244 255.569 310.287 262.844 295.935 268.226C281.583 273.409 266.135 276 249.59 276C246.6 276 242.614 275.901 237.63 275.701C232.647 275.502 227.464 275.402 222.082 275.402C216.9 275.203 212.116 275.103 207.73 275.103C203.146 275.103 198.561 275.203 193.976 275.402C189.392 275.402 185.206 275.502 181.418 275.701C177.631 275.701 174.442 275.801 171.85 276M241.816 96.0022C243.61 89.4242 244.507 84.3412 244.507 80.7532C244.507 76.9658 243.012 74.3745 240.022 72.9792C237.032 71.3845 231.85 70.4875 224.474 70.2882M362.612 122.912C362.612 105.172 357.629 91.9159 347.662 83.1452C337.696 74.1752 321.35 69.6902 298.626 69.6902C292.646 69.6902 287.862 70.3879 284.274 71.7832C280.686 73.1785 277.796 75.7699 275.603 79.5572C273.411 83.1452 271.417 88.4275 269.623 95.4042L241.171 204" stroke="white"/>
<path d="M391.316 138.387C391.316 153.337 389.024 167.988 384.439 182.34C380.054 196.493 373.576 209.749 365.004 222.107C356.632 234.267 346.566 245.031 334.805 254.399C323.244 263.569 310.287 270.844 295.935 276.226C281.583 281.409 266.135 284 249.59 284C246.6 284 242.614 283.901 237.63 283.701C232.647 283.502 227.464 283.402 222.082 283.402C216.9 283.203 212.116 283.103 207.73 283.103C203.146 283.103 198.561 283.203 193.976 283.402C189.392 283.402 185.206 283.502 181.418 283.701C177.631 283.701 174.442 283.801 171.85 284M241.816 104.002C243.61 97.4242 244.507 92.3412 244.507 88.7532C244.507 84.9658 243.012 82.3745 240.022 80.9792C237.032 79.3845 231.85 78.4875 224.474 78.2882M362.612 130.912C362.612 113.172 357.629 99.9159 347.662 91.1452C337.696 82.1752 321.35 77.6902 298.626 77.6902C292.646 77.6902 287.862 78.3879 284.274 79.7832C280.686 81.1785 277.796 83.7699 275.603 87.5572C273.411 91.1452 271.417 96.4275 269.623 103.404L243.136 204.5" stroke="white"/>
<path d="M391.316 146.387C391.316 161.337 389.024 175.988 384.439 190.34C380.054 204.493 373.576 217.749 365.004 230.107C356.632 242.267 346.566 253.031 334.805 262.399C323.244 271.569 310.287 278.844 295.935 284.226C281.583 289.409 266.135 292 249.59 292C246.6 292 242.614 291.901 237.63 291.701C232.647 291.502 227.464 291.402 222.082 291.402C216.9 291.203 212.116 291.103 207.73 291.103C203.146 291.103 198.561 291.203 193.976 291.402C189.392 291.402 185.206 291.502 181.418 291.701C177.631 291.701 174.442 291.801 171.85 292M241.816 112.002C243.61 105.424 244.507 100.341 244.507 96.7532C244.507 92.9658 243.012 90.3745 240.022 88.9792C237.032 87.3845 231.85 86.4875 224.474 86.2882M362.612 138.912C362.612 121.172 357.629 107.916 347.662 99.1452C337.696 90.1752 321.35 85.6902 298.626 85.6902C292.646 85.6902 287.862 86.3879 284.274 87.7832C280.686 89.1785 277.796 91.7699 275.603 95.5572C273.411 99.1452 271.417 104.428 269.623 111.404L245.232 204.5" stroke="white"/>
<path d="M181.895 38.2081C181.696 30.0354 179.005 24.1551 173.822 20.5671C168.839 16.9791 160.068 15.1851 147.51 15.1851H131.663C124.886 15.1851 119.603 15.7831 115.816 16.9791C112.228 17.9758 109.338 20.2681 107.145 23.8561C104.952 27.2448 102.859 32.6268 100.866 40.0021L85.9651 95L84.0984 102M82.926 220C77.7433 219.601 71.1653 219.402 63.192 219.402C55.2187 219.203 47.1457 219.103 38.973 219.103C31.199 219.103 23.9233 219.203 17.146 219.402C10.568 219.402 5.186 219.601 1 220M73.059 40.0021C75.0523 32.6268 75.8497 27.2448 75.451 23.8561C75.2517 20.2681 73.5573 17.8761 70.368 16.6801C67.378 15.2848 62.4943 14.4874 55.717 14.2881M203.423 8.30811C200.832 15.8828 198.34 23.2581 195.948 30.4341C193.755 37.4108 192.161 42.7928 191.164 46.5801C189.769 51.3641 188.573 55.8491 187.576 60.0351C186.779 64.2211 186.081 67.9088 185.483 71.0981M148.108 74.0881C144.321 85.4501 141.63 94.1211 140.035 100.101C138.64 106.081 137.244 111.563 135.849 116.546C134.653 121.529 133.357 127.011 131.962 132.991C130.567 138.971 128.673 147.642 126.281 159.004M121.198 132.094C120.6 128.307 118.806 125.317 115.816 123.124C112.826 120.732 108.042 119.536 101.464 119.536C101.464 119.536 96.4651 119.536 91.4651 119.536C86.4651 119.536 79.4651 121.3 77.4651 128.5L63.4651 182" stroke="white"/>
<path d="M181.895 46.2081C181.696 38.0354 179.005 32.1551 173.822 28.5671C168.839 24.9791 160.068 23.1851 147.51 23.1851H131.663C124.886 23.1851 119.603 23.7831 115.816 24.9791C112.228 25.9758 109.338 28.2681 107.145 31.8561C104.952 35.2448 102.859 40.6268 100.866 48.0021L86.236 102M82.926 228C77.7433 227.601 71.1653 227.402 63.192 227.402C55.2187 227.203 47.1457 227.103 38.973 227.103C31.199 227.103 23.9233 227.203 17.146 227.402C10.568 227.402 5.186 227.601 1 228M73.059 48.0021C75.0523 40.6268 75.8497 35.2448 75.451 31.8561C75.2517 28.2681 73.5573 25.8761 70.368 24.6801C67.378 23.2848 62.4943 22.4874 55.717 22.2881M203.423 16.3081C200.832 23.8828 198.34 31.2581 195.948 38.4341C193.755 45.4108 192.161 50.7928 191.164 54.5801C189.769 59.3641 188.573 63.8491 187.576 68.0351C186.779 72.2211 186.081 75.9088 185.483 79.0981M148.108 82.0881C144.321 93.4501 141.63 102.121 140.035 108.101C138.64 114.081 137.244 119.563 135.849 124.546C134.653 129.529 133.357 135.011 131.962 140.991C130.567 146.971 128.673 155.642 126.281 167.004M121.198 140.094C120.6 136.307 118.806 133.317 115.816 131.124C112.826 128.732 108.042 127.536 101.464 127.536C101.464 127.536 96.4651 127.536 91.4651 127.536C86.4651 127.536 79.4651 129.3 77.4651 136.5L63.4651 190" stroke="white"/>
<path d="M181.895 54.2081C181.696 46.0354 179.005 40.1551 173.822 36.5671C168.839 32.9791 160.068 31.1851 147.51 31.1851H131.663C124.886 31.1851 119.603 31.7831 115.816 32.9791C112.228 33.9758 109.338 36.2681 107.145 39.8561C104.952 43.2448 102.859 48.6268 100.866 56.0021L88.4035 102M82.926 236C77.7433 235.601 71.1653 235.402 63.192 235.402C55.2187 235.203 47.1457 235.103 38.973 235.103C31.199 235.103 23.9233 235.203 17.146 235.402C10.568 235.402 5.186 235.601 1 236M73.059 56.0021C75.0523 48.6268 75.8497 43.2448 75.451 39.8561C75.2517 36.2681 73.5573 33.8761 70.368 32.6801C67.378 31.2848 62.4943 30.4874 55.717 30.2881M203.423 24.3081C200.832 31.8828 198.34 39.2581 195.948 46.4341C193.755 53.4108 192.161 58.7928 191.164 62.5801C189.769 67.3641 188.573 71.8491 187.576 76.0351C186.779 80.2211 186.081 83.9088 185.483 87.0981M148.108 90.0881C144.321 101.45 141.63 110.121 140.035 116.101C138.64 122.081 137.244 127.563 135.849 132.546C134.653 137.529 133.357 143.011 131.962 148.991C130.567 154.971 128.673 163.642 126.281 175.004M121.198 148.094C120.6 144.307 118.806 141.317 115.816 139.124C112.826 136.732 108.042 135.536 101.464 135.536C101.464 135.536 96.4651 135.536 91.4651 135.536C86.4651 135.536 79.4651 137.3 77.4651 144.5L63.4651 198" stroke="white"/>
<path d="M181.895 62.2081C181.696 54.0354 179.005 48.1551 173.822 44.5671C168.839 40.9791 160.068 39.1851 147.51 39.1851H131.663C124.886 39.1851 119.603 39.7831 115.816 40.9791C112.228 41.9758 109.338 44.2681 107.145 47.8561C104.952 51.2448 102.859 56.6268 100.866 64.0021L90.571 102M82.926 244C77.7433 243.601 71.1653 243.402 63.192 243.402C55.2187 243.203 47.1457 243.103 38.973 243.103C31.199 243.103 23.9233 243.203 17.146 243.402C10.568 243.402 5.186 243.601 1 244M73.059 64.0021C75.0523 56.6268 75.8497 51.2448 75.451 47.8561C75.2517 44.2681 73.5573 41.8761 70.368 40.6801C67.378 39.2848 62.4943 38.4874 55.717 38.2881M203.423 32.3081C200.832 39.8828 198.34 47.2581 195.948 54.4341C193.755 61.4108 192.161 66.7928 191.164 70.5801C189.769 75.3641 188.573 79.8491 187.576 84.0351C186.779 88.2211 186.081 91.9088 185.483 95.0981M148.108 98.0881C144.321 109.45 141.63 118.121 140.035 124.101C138.64 130.081 137.244 135.563 135.849 140.546C134.653 145.529 133.357 151.011 131.962 156.991C130.567 162.971 128.673 171.642 126.281 183.004M121.198 156.094C120.6 152.307 118.806 149.317 115.816 147.124C112.826 144.732 108.042 143.536 101.464 143.536C101.464 143.536 96.4651 143.536 91.4651 143.536C86.4651 143.536 79.4651 145.3 77.4651 152.5L64.9043 200.5" stroke="white"/>
<path d="M181.895 70.2081C181.696 62.0354 179.005 56.1551 173.822 52.5671C168.839 48.9791 160.068 47.1851 147.51 47.1851H131.663C124.886 47.1851 119.603 47.7831 115.816 48.9791C112.228 49.9758 109.338 52.2681 107.145 55.8561C104.952 59.2448 102.859 64.6268 100.866 72.0021L92.7385 102M82.926 252C77.7433 251.601 71.1653 251.402 63.192 251.402C55.2187 251.203 47.1457 251.103 38.973 251.103C31.199 251.103 23.9233 251.203 17.146 251.402C10.568 251.402 5.186 251.601 1 252M73.059 72.0021C75.0523 64.6268 75.8497 59.2448 75.451 55.8561C75.2517 52.2681 73.5573 49.8761 70.368 48.6801C67.378 47.2848 62.4943 46.4874 55.717 46.2881M203.423 40.3081C200.832 47.8828 198.34 55.2581 195.948 62.4341C193.755 69.4108 192.161 74.7928 191.164 78.5801C189.769 83.3641 188.573 87.8491 187.576 92.0351C186.779 96.2211 186.081 99.9088 185.483 103.098M148.108 106.088C144.321 117.45 141.63 126.121 140.035 132.101C138.64 138.081 137.244 143.563 135.849 148.546C134.653 153.529 133.357 159.011 131.962 164.991C130.567 170.971 128.673 179.642 126.281 191.004M121.198 164.094C120.6 160.307 118.806 157.317 115.816 155.124C112.826 152.732 108.042 151.536 101.464 151.536C101.464 151.536 96.4651 151.536 91.4651 151.536C86.4651 151.536 79.4651 153.3 77.4651 160.5L66.6053 202" stroke="white"/>
<path d="M181.895 78.2081C181.696 70.0354 179.005 64.1551 173.822 60.5671C168.839 56.9791 160.068 55.1851 147.51 55.1851H131.663C124.886 55.1851 119.603 55.7831 115.816 56.9791C112.228 57.9758 109.338 60.2681 107.145 63.8561C104.952 67.2448 102.859 72.6268 100.866 80.0021L94.906 102M82.926 260C77.7433 259.601 71.1653 259.402 63.192 259.402C55.2187 259.203 47.1457 259.103 38.973 259.103C31.199 259.103 23.9233 259.203 17.146 259.402C10.568 259.402 5.186 259.601 1 260M73.059 80.0021C75.0523 72.6268 75.8497 67.2448 75.451 63.8561C75.2517 60.2681 73.5573 57.8761 70.368 56.6801C67.378 55.2848 62.4943 54.4874 55.717 54.2881M203.423 48.3081C200.832 55.8828 198.34 63.2581 195.948 70.4341C193.755 77.4108 192.161 82.7928 191.164 86.5801C189.769 91.3641 188.573 95.8491 187.576 100.035C186.779 104.221 186.081 107.909 185.483 111.098M148.108 114.088C144.321 125.45 141.63 134.121 140.035 140.101C138.64 146.081 137.244 151.563 135.849 156.546C134.653 161.529 133.357 167.011 131.962 172.991C130.567 178.971 128.673 187.642 126.281 199.004M121.198 172.094C120.6 168.307 118.806 165.317 115.816 163.124C112.826 160.732 108.042 159.536 101.464 159.536C101.464 159.536 96.4651 159.536 91.4651 159.536C86.4651 159.536 79.4651 161.3 77.4651 168.5L68.5679 202.5" stroke="white"/>
<path d="M181.895 86.2081C181.696 78.0354 179.005 72.1551 173.822 68.5671C168.839 64.9791 160.068 63.1851 147.51 63.1851H131.663C124.886 63.1851 119.603 63.7831 115.816 64.9791C112.228 65.9758 109.338 68.2681 107.145 71.8561C104.952 75.2448 102.859 80.6268 100.866 88.0021L97.0735 102M82.926 268C77.7433 267.601 71.1653 267.402 63.192 267.402C55.2187 267.203 47.1457 267.103 38.973 267.103C31.199 267.103 23.9233 267.203 17.146 267.402C10.568 267.402 5.186 267.601 1 268M73.059 88.0021C75.0523 80.6268 75.8497 75.2448 75.451 71.8561C75.2517 68.2681 73.5573 65.8761 70.368 64.6801C67.378 63.2848 62.4943 62.4874 55.717 62.2881M203.423 56.3081C200.832 63.8828 198.34 71.2581 195.948 78.4341C193.755 85.4108 192.161 90.7928 191.164 94.5801C189.769 99.3641 188.573 103.849 187.576 108.035C186.779 112.221 186.081 115.909 185.483 119.098M148.108 122.088C144.321 133.45 141.63 142.121 140.035 148.101C138.64 154.081 137.244 159.563 135.849 164.546C134.653 169.529 133.357 175.011 131.962 180.991C130.567 186.971 128.673 195.642 126.281 207.004M121.198 180.094C120.6 176.307 118.806 173.317 115.816 171.124C112.826 168.732 108.042 167.536 101.464 167.536C101.464 167.536 96.4651 167.536 91.4651 167.536C86.4651 167.536 79.4651 169.3 77.4651 176.5L70.4651 203.25" stroke="white"/>
<path d="M181.895 94.2081C181.696 86.0354 179.005 80.1551 173.822 76.5671C168.839 72.9791 160.068 71.1851 147.51 71.1851H131.663C124.886 71.1851 119.603 71.7831 115.816 72.9791C112.228 73.9758 109.338 76.2681 107.145 79.8561C104.952 83.2448 102.859 88.6268 100.866 96.0021L99.241 102M82.926 276C77.7433 275.601 71.1653 275.402 63.192 275.402C55.2187 275.203 47.1457 275.103 38.973 275.103C31.199 275.103 23.9233 275.203 17.146 275.402C10.568 275.402 5.186 275.601 1 276M73.059 96.0021C75.0523 88.6268 75.8497 83.2448 75.451 79.8561C75.2517 76.2681 73.5573 73.8761 70.368 72.6801C67.378 71.2848 62.4943 70.4874 55.717 70.2881M203.423 64.3081C200.832 71.8828 198.34 79.2581 195.948 86.4341C193.755 93.4108 192.161 98.7928 191.164 102.58C189.769 107.364 188.573 111.849 187.576 116.035C186.779 120.221 186.081 123.909 185.483 127.098M148.108 130.088C144.321 141.45 141.63 150.121 140.035 156.101C138.64 162.081 137.244 167.563 135.849 172.546C134.653 177.529 133.357 183.011 131.962 188.991C130.567 194.971 128.673 203.642 126.281 215.004M121.198 188.094C120.6 184.307 118.806 181.317 115.816 179.124C112.826 176.732 108.042 175.536 101.464 175.536C101.464 175.536 96.4651 175.536 91.4651 175.536C86.4651 175.536 79.4651 177.3 77.4651 184.5L72.4931 203.5" stroke="white"/>
<path d="M181.895 102.208C181.696 94.0354 179.005 88.1551 173.822 84.5671C168.839 80.9791 160.068 79.1851 147.51 79.1851M82.926 284C77.7433 283.601 71.1653 283.402 63.192 283.402C55.2187 283.203 47.1457 283.103 38.973 283.103C31.199 283.103 23.9233 283.203 17.146 283.402C10.568 283.402 5.186 283.601 1 284M73.059 104.002C75.0523 96.6268 75.8497 91.2448 75.451 87.8561C75.2517 84.2681 73.5573 81.8761 70.368 80.6801C67.378 79.2848 62.4943 78.4874 55.717 78.2881M203.423 72.3081C200.832 79.8828 198.34 87.2581 195.948 94.4341C193.755 101.411 192.161 106.793 191.164 110.58C189.769 115.364 188.573 119.849 187.576 124.035C186.779 128.221 186.081 131.909 185.483 135.098M148.108 138.088C144.321 149.45 141.63 158.121 140.035 164.101C138.64 170.081 137.244 175.563 135.849 180.546C134.653 185.529 133.357 191.011 131.962 196.991C130.567 202.971 128.673 211.642 126.281 223.004M121.198 196.094C120.6 192.307 118.806 189.317 115.816 187.124C112.826 184.732 108.042 183.536 101.464 183.536C101.464 183.536 96.4651 183.536 91.4651 183.536C86.4651 183.536 79.4651 185.3 77.4651 192.5L74.5866 203.5M101.424 102C103.249 95.6449 105.156 90.9302 107.145 87.8561C109.338 84.2681 112.228 81.9758 115.816 80.9791C119.603 79.7831 124.886 79.1851 131.663 79.1851H139.587" stroke="white"/>
<path d="M181.895 110.208C181.696 102.035 179.005 96.1551 173.822 92.5671C168.839 88.9791 160.068 87.1851 147.51 87.1851M82.926 292C77.7433 291.601 71.1653 291.402 63.192 291.402C55.2187 291.203 47.1457 291.103 38.973 291.103C31.199 291.103 23.9233 291.203 17.146 291.402C10.568 291.402 5.186 291.601 1 292M73.059 112.002C75.0523 104.627 75.8497 99.2448 75.451 95.8561C75.2517 92.2681 73.5573 89.8761 70.368 88.6801C67.378 87.2848 62.4943 86.4874 55.717 86.2881M203.423 80.3081C200.832 87.8828 198.34 95.2581 195.948 102.434C193.755 109.411 192.161 114.793 191.164 118.58C189.769 123.364 188.573 127.849 187.576 132.035C186.779 136.221 186.081 139.909 185.483 143.098M148.108 146.088C144.321 157.45 141.63 166.121 140.035 172.101C138.64 178.081 137.244 183.563 135.849 188.546C134.653 193.529 133.357 199.011 131.962 204.991C130.567 210.971 128.673 219.642 126.281 231.004M121.198 204.094C120.6 200.307 118.806 197.317 115.816 195.124C112.826 192.732 108.042 191.536 101.464 191.536C101.464 191.536 96.4651 191.536 91.4651 191.536C86.4651 191.536 79.4651 193.3 77.4651 200.5L76.5246 204.094M104.102 102C105.094 99.5064 106.108 97.4584 107.145 95.8561C109.338 92.2681 112.228 89.9758 115.816 88.9791C119.603 87.7831 124.886 87.1851 131.663 87.1851H139.587" stroke="white"/>
<path d="M391.317 66.3871C391.317 81.3371 389.024 95.9881 384.44 110.34C380.054 124.493 373.576 137.748 365.005 150.107C356.633 162.266 346.566 173.03 334.806 182.399C323.244 191.568 310.288 198.844 295.936 204.226C281.584 209.409 266.135 212 249.591 212C246.601 212 242.614 211.9 237.631 211.701C232.647 211.502 227.465 211.402 222.083 211.402C216.9 211.203 212.116 211.103 207.731 211.103C203.146 211.103 198.561 211.203 193.977 211.402C189.392 211.402 185.206 211.502 181.419 211.701C177.631 211.701 174.442 211.801 171.851 212L172.748 206.02C179.126 205.621 184.11 204.824 187.698 203.628C191.485 202.432 194.475 200.04 196.668 196.452C198.86 192.864 200.854 187.482 202.648 180.306L241.817 32.0021C243.611 25.4241 244.508 20.3411 244.508 16.7531C244.508 12.9658 243.013 10.3744 240.023 8.9791C237.033 7.38443 231.85 6.48743 224.475 6.2881L225.372 0.308105C228.162 0.507436 231.551 0.706767 235.538 0.906097C239.524 1.10543 243.81 1.20509 248.395 1.20509C252.979 1.20509 257.464 1.20509 261.85 1.20509C266.434 1.00576 271.517 0.906097 277.099 0.906097C282.68 0.706767 288.062 0.607101 293.245 0.607101C298.627 0.407771 303.211 0.308105 306.999 0.308105C335.304 0.308105 356.433 5.98911 370.387 17.3511C384.34 28.5138 391.317 44.8591 391.317 66.3871ZM246.003 206.618C261.351 206.618 275.205 204.027 287.564 198.844C299.922 193.661 310.786 186.386 320.155 177.017C329.523 167.648 337.297 156.785 343.477 144.426C349.855 132.067 354.639 118.612 357.829 104.061C361.018 89.5098 362.613 74.4601 362.613 58.9121C362.613 41.1714 357.629 27.9158 347.663 19.1451C337.696 10.1751 321.351 5.69009 298.627 5.69009C292.647 5.69009 287.863 6.38776 284.275 7.7831C280.687 9.17842 277.796 11.7698 275.604 15.5571C273.411 19.1451 271.418 24.4274 269.624 31.4041L230.455 180.904C228.86 186.685 227.963 191.568 227.764 195.555C227.564 199.342 228.76 202.133 231.352 203.927C234.142 205.721 239.026 206.618 246.003 206.618Z" fill="white"/>
<path d="M70.667 111.536L72.162 105.556H131.962L130.467 111.536H70.667ZM178.606 63.0981C180.998 49.1448 182.094 38.1814 181.895 30.2081C181.696 22.0354 179.005 16.1551 173.822 12.5671C168.839 8.97909 160.068 7.18509 147.51 7.18509H131.663C124.886 7.18509 119.603 7.78309 115.816 8.9791C112.228 9.97577 109.338 12.2681 107.145 15.8561C104.952 19.2448 102.859 24.6268 100.866 32.0021L61.099 180.306C59.1057 187.482 58.408 192.864 59.006 196.452C59.604 200.04 61.8963 202.432 65.883 203.628C70.069 204.824 76.2483 205.621 84.421 206.02L82.926 212C77.7433 211.601 71.1653 211.402 63.192 211.402C55.2187 211.203 47.1457 211.103 38.973 211.103C31.199 211.103 23.9233 211.203 17.146 211.402C10.568 211.402 5.186 211.601 1 212L2.495 206.02C9.27233 205.621 14.5547 204.824 18.342 203.628C22.1293 202.432 25.0197 200.04 27.013 196.452C29.2057 192.864 31.2987 187.482 33.292 180.306L73.059 32.0021C75.0523 24.6268 75.8497 19.2448 75.451 15.8561C75.2517 12.2681 73.5573 9.8761 70.368 8.68011C67.378 7.28477 62.4943 6.48743 55.717 6.2881L57.212 0.308105C64.5873 0.507436 72.3613 0.706767 80.534 0.906097C88.7067 0.906097 96.7797 1.00576 104.753 1.20509C112.726 1.20509 120.102 1.20509 126.879 1.20509C133.856 1.20509 139.537 1.20509 143.922 1.20509C152.693 1.20509 162.56 1.20509 173.523 1.20509C184.686 1.00576 194.652 0.706767 203.423 0.308105C200.832 7.88277 198.34 15.2581 195.948 22.4341C193.755 29.4108 192.161 34.7928 191.164 38.5801C189.769 43.3641 188.573 47.8491 187.576 52.0351C186.779 56.2211 186.081 59.9088 185.483 63.0981H178.606ZM102.959 105.556C109.537 105.556 114.919 104.26 119.105 101.669C123.291 98.8784 126.779 95.3901 129.57 91.2041C132.361 87.0181 134.653 82.7324 136.447 78.3471C138.241 73.7624 139.836 69.6761 141.231 66.0881H148.108C144.321 77.4501 141.63 86.1211 140.035 92.1011C138.64 98.0811 137.244 103.563 135.849 108.546C134.653 113.529 133.357 119.011 131.962 124.991C130.567 130.971 128.673 139.642 126.281 151.004H119.404C120.002 146.22 120.6 141.536 121.198 136.951C121.796 132.167 121.796 127.881 121.198 124.094C120.6 120.307 118.806 117.317 115.816 115.124C112.826 112.732 108.042 111.536 101.464 111.536L102.959 105.556Z" fill="white"/>
</svg>
