<svg width="324" height="204" viewBox="0 0 324 204" fill="none" xmlns="http://www.w3.org/2000/svg">
<path d="M5.75925 100.705C7.6071 94.4412 23.1591 87.0413 30.7041 84.1243C35.9395 85.199 48.8124 87.3483 58.4207 87.3483C68.0291 87.3483 82.7496 85.199 88.9088 84.1243C91.9884 85.813 97.3161 90.0196 93.9901 93.3357C89.8327 97.4808 68.5834 100.705 64.8879 104.85C61.9315 108.166 63.6561 129.567 64.8879 139.853L55.6491 143.077C53.6474 137.397 48.9972 124.194 46.4103 116.825C43.8234 109.456 45.3324 103.008 46.4103 100.705H37.6334L30.7041 113.601V147.222L19.1554 143.077C13.9201 131.563 3.91141 106.968 5.75925 100.705Z" fill="#08170C"/>
<path d="M47.1644 40.0714C41.0429 37.2973 38.1217 26.8941 37.4263 22.0393L63.8592 16.4911V40.0714C63.8592 44.2326 54.8164 43.539 47.1644 40.0714Z" fill="#F8714A"/>
<path d="M45.3223 4.4108C34.6541 9.72897 36.0283 17.5046 38.0489 20.7277H56.2334C67.1445 20.7277 64.1132 27.9798 65.9316 20.7277C67.75 13.4756 58.6576 -2.23692 45.3223 4.4108Z" fill="#08170C"/>
<path d="M34.6851 142.736C33.7941 135.314 32.2349 122.986 31.5558 115.136C31.371 113 30.0841 106.523 32.3381 104.276C36.1726 100.453 44.5943 98.0806 49.0078 96.5357C61.7467 92.0765 74.782 88.1039 87.9439 85.0756C105.279 81.087 124.034 81.1555 141.684 80.3355C165.223 79.242 188.774 79.0155 212.335 79.0155" stroke="#65836D" stroke-width="3" stroke-linecap="round"/>
<path d="M65.0159 89.8152C78.1838 79.8691 96.2532 76.3016 111.835 71.695C119.686 69.3742 125.906 64.5841 133.019 60.6549C157.81 46.9599 189.791 44.4548 217.691 44.4548C235.732 44.4548 262.12 40.5403 274.079 56.9349C281.147 66.6245 286.594 73.2093 291.411 84.4151" stroke="#65836D" stroke-width="3" stroke-linecap="round"/>
<path d="M291.41 84.4149C298.62 86.7623 303.986 90.3005 308.621 96.655C309.915 98.4286 312.571 99.0356 314.158 101.455C318.68 108.35 319.651 118.047 320.537 125.995C321.09 130.959 323.524 138.449 320.657 142.735" stroke="#65836D" stroke-width="3" stroke-linecap="round"/>
<path d="M308.742 113.576C315.283 125.575 313.563 139.166 315.843 152.156C317.68 162.621 320.427 152.612 321.259 147.296C322.875 136.965 319.79 127.263 315.482 117.956C314.677 116.216 313.528 112.182 311.991 111.416" stroke="#65836D" stroke-width="3" stroke-linecap="round"/>
<path d="M213.418 114.656C213.745 133.971 213.204 155.459 219.556 174.056C220.104 175.659 226.418 189.907 228.523 188.396C253.37 170.559 232.601 134.13 222.084 114.656" stroke="#65836D" stroke-width="3" stroke-linecap="round"/>
<path d="M241.582 178.375C242.241 163.088 248.17 158.988 262.886 154.375C278.256 149.556 294.116 146.215 309.825 142.735" stroke="#65836D" stroke-width="3" stroke-linecap="round"/>
<path d="M208.001 174.056C199.37 171.93 191.331 169.455 183.087 166.496" stroke="#65836D" stroke-width="3" stroke-linecap="round"/>
<path d="M24.9358 111.415C61.9674 106.27 98.2792 106.015 135.546 106.015C143.744 106.015 152.018 106.522 160.099 107.935C170.435 109.743 185.802 108.117 186.337 121.976C186.423 124.208 186.337 126.461 186.337 128.696C186.337 133.087 168.77 132.899 165.154 133.016C155.744 133.318 146.539 135.653 137.471 132.176C133.494 130.651 130.375 126.901 127.421 123.956C119.382 115.94 108.899 118.975 97.3918 118.975C84.8958 118.975 72.9856 122.216 60.6824 122.216C56.0472 122.216 52.7645 123.779 49.3084 126.536C47.9299 127.635 48.5205 130.836 47.142 131.936C43.6059 134.756 35.75 133.016 31.4352 133.016" stroke="#65836D" stroke-width="3" stroke-linecap="round"/>
<path d="M200.419 106.015C202.659 119.416 201.502 133.486 201.502 147.056C201.502 149.839 200.803 153.525 201.563 156.176C201.831 157.113 202.362 157.888 202.044 156.116C200.766 148.981 201.502 141.324 201.502 134.096" stroke="#65836D" stroke-width="3" stroke-linecap="round"/>
<path d="M214.501 128.695C217.765 126.075 220.439 123.843 224.25 122.215" stroke="#65836D" stroke-width="3" stroke-linecap="round"/>
<path d="M225.333 130.855C219.478 136.481 213.571 143.239 205.956 146.575C203.594 147.61 205.467 147.055 206.919 147.055" stroke="#65836D" stroke-width="3" stroke-linecap="round"/>
<path d="M240.499 143.816C230.204 149.119 219.74 153.37 209.085 157.856" stroke="#65836D" stroke-width="3" stroke-linecap="round"/>
<path d="M242.665 160.015C230.964 163.636 220.256 169.105 209.085 174.055" stroke="#65836D" stroke-width="3" stroke-linecap="round"/>
<path d="M320.657 128.695C317.716 130.804 314.846 132.962 311.991 135.175" stroke="#65836D" stroke-width="3" stroke-linecap="round"/>
<path d="M198.253 79.0151C211.065 68.651 231.255 53.0948 248.563 53.0948C256.237 53.0948 269.106 58.5452 270.829 67.135" stroke="#65836D" stroke-width="3" stroke-linecap="round"/>
<path d="M234 60.6548C237.627 65.6284 242.921 72.2187 244.832 77.9349" stroke="#65836D" stroke-width="3" stroke-linecap="round"/>
<path d="M201.503 83.3346C216.936 79.4877 233.104 80.0946 248.924 80.0946C258.731 80.0946 268.626 81.0177 278.412 81.7146C283.909 82.1061 289.506 81.6215 294.66 83.3346" stroke="#65836D" stroke-width="3" stroke-linecap="round"/>
<path d="M280.578 75.775C289.458 70.7377 295.866 69.5627 305.974 71.395C308.113 71.7829 309.668 71.8748 309.825 74.695C310.403 85.0705 288.362 84.4151 280.578 84.4151" stroke="#65836D" stroke-width="3" stroke-linecap="round"/>
<path d="M34.6853 104.935C46.3551 99.3225 57.756 97.5946 70.5522 97.3746C90.6218 97.0296 111.107 95.5482 131.093 93.5946C141.363 92.5907 151.832 93.0546 162.145 93.0546C167.665 93.0546 175.845 91.6039 180.921 94.1346" stroke="#65836D" stroke-width="3" stroke-linecap="round"/>
<path d="M36.8515 142.735C30.7934 151.04 21.2933 163.747 28.1856 174.055" stroke="#65836D" stroke-width="3" stroke-linecap="round"/>
<path d="M35.768 176.216C32.3569 165.013 33.1165 154.776 46.4799 152.216C58.052 149.999 70.3014 149.389 81.9858 148.196C93.0067 147.071 104.332 145.182 115.446 144.956C128.715 144.686 146.071 141.623 158.053 148.496C164.865 152.404 170.683 157.13 176.588 162.176" stroke="#65836D" stroke-width="3" stroke-linecap="round"/>
<path d="M19.5197 140.576C15.768 131.885 12.1794 123.102 8.56707 114.356C6.9903 110.538 5.43774 106.917 5.43774 102.775C5.43774 97.6803 14.0584 92.3431 17.8949 89.8753C22.8982 86.657 28.4479 85.4174 33.6017 82.2552" stroke="#65836D" stroke-width="3" stroke-linecap="round"/>
<path d="M63.9325 83.3347C55.694 93.1514 41.1152 101.058 45.1565 115.615C47.1469 122.785 56.6912 132.022 55.9286 139.435C55.3343 145.213 51.0348 150.431 47.2026 154.495C45.8856 155.892 42.0244 161.7 47.1424 160.915C52.1292 160.15 59.4519 154.067 64.0528 151.615C71.5343 147.628 65.1494 143.543 61.766 139.495" stroke="#65836D" stroke-width="3" stroke-linecap="round"/>
<path d="M14.1038 143.816C18.4972 155.385 24.1314 157.528 35.7683 155.696" stroke="#65836D" stroke-width="3" stroke-linecap="round"/>
<path d="M40.6513 51.0965L44.3413 42.5106H63.6152H69.7662L85.3488 59.2734C87.6726 63.0893 92.32 71.2936 92.32 73.5831C92.32 75.8727 98.8811 80.8061 102.162 82.9867L92.32 87.0752L88.6294 82.9867C79.1978 86.6663 59.7606 93.4532 57.4642 91.1637C55.1678 88.8741 35.457 87.484 25.8887 87.0752L34.0899 82.9867L40.6513 51.0965Z" fill="#304C37"/>
<path d="M102.437 93.8389L94.7998 87.5684L102.437 84.4332L132.535 93.8389H102.437Z" fill="#F8714A"/>
<path d="M59.5996 89.8154C69.3985 88.0656 84.9703 88.3394 92.5177 81.1153C95.5285 78.2336 92.3155 73.2965 91.0133 70.3752" stroke="#65836D" stroke-width="3" stroke-linecap="round"/>
<path d="M86.6799 60.6552C82.4894 55.7129 78.2287 51.1492 73.6812 46.6151" stroke="#65836D" stroke-width="3" stroke-linecap="round"/>
<path d="M67.1821 42.2942C69.1774 51.3569 77.3048 57.5119 80.1809 66.1144C83.0243 74.6193 86.8799 81.0246 94.0221 87.1746C96.3924 89.2155 99.2532 92.914 102.568 93.0546C109.391 93.3441 116.33 93.1099 123.149 92.9946C126.576 92.9367 136.429 93.5338 133.379 91.9746C130.097 90.2962 125.24 89.6868 121.765 88.6746C114.544 86.5715 107.43 84.8719 100.221 83.2745C96.8443 82.5265 92.3856 76.8368 89.9299 74.6945" stroke="#65836D" stroke-width="3" stroke-linecap="round"/>
<path d="M40.1008 52.0146V79.0149" stroke="#65836D" stroke-width="3" stroke-linecap="round"/>
<path d="M39.0183 77.9344C37.9795 69.5189 37.1946 62.1444 40.1015 54.1742" stroke="#65836D" stroke-width="3" stroke-linecap="round"/>
<path d="M48.7672 39.0547C42.3877 35.3315 39.2495 33.0788 40.1616 24.8946C40.8842 18.41 45.0046 12.0333 52.0169 11.0345C60.112 9.88147 63.919 22.6712 65.8582 28.6146C69.4798 39.7148 63.028 46.1193 52.0169 43.3748" stroke="#65836D" stroke-width="3" stroke-linecap="round"/>
<path d="M36.8516 20.6942C31.4192 5.52876 52.7491 -2.93228 64.2934 4.43409C73.1231 10.0683 69.4771 15.2917 60.803 17.9342C54.462 19.866 48.9435 22.8542 42.2677 22.8542" stroke="#65836D" stroke-width="3" stroke-linecap="round"/>
<path d="M50.934 178.376C36.948 178.591 22.5995 179.331 8.8686 182.156C8.21632 182.29 -0.673467 186.099 2.85066 188.636C5.61521 190.627 11.725 190.77 14.706 191.096C39.49 193.811 64.5647 195.045 89.4488 196.256C122.053 197.843 155.371 196.39 187.782 200.216C194.891 201.056 205.73 203.067 212.576 200.396C214.829 199.517 216.948 197.083 219.075 195.896C228.351 190.724 238.391 186.796 248.262 182.936C263.835 176.847 279.691 172.962 295.864 168.896C304.397 166.751 312.43 162.091 320.658 158.936" stroke="#65836D" stroke-width="3" stroke-linecap="round"/>
<path d="M44.0374 41.4358C44.4107 41.5084 46.9613 42.4005 46.6329 41.3363C46.5188 40.9664 45.5191 39.215 45.7844 39.3208C47.3697 39.953 48.7676 41.0718 50.3266 41.7842C52.1123 42.6002 57.5819 44.372 55.6175 44.372C55.2793 44.372 52.5103 42.4453 53.9204 43.6504C55.0592 44.6236 53.8461 43.5254 53.3713 43.2274C52.638 42.7671 51.7486 42.4866 50.9754 42.0828C49.0239 41.0636 50.6373 40.9426 51.8739 41.5353C56.5974 43.7995 49.843 40.3427 53.1966 40.7142C53.8486 40.7864 53.6554 39.96 54.8188 40.54C55.4459 40.8526 56.1102 41.0096 56.6657 41.2865C56.9051 41.4059 58.7613 42.9681 58.787 42.9039C58.8818 42.6677 58.148 41.1111 58.5125 41.9832C59.5342 44.4279 60.7278 42.4233 59.3111 40.54" stroke="#08170C" stroke-width="3" stroke-linecap="round"/>
<path d="M58.8617 40.5398C57.4149 39.447 56.2129 37.808 58.7618 39.2957C60.4805 40.2987 57.8977 40.0919 59.3359 40.0919C62.0298 40.0919 59.6322 36.912 60.3092 36.6083C61.0838 36.2607 58.1992 36.1023 59.86 36.0609C60.7162 36.0395 63.4037 36.5088 61.1328 36.5088C59.2369 36.5088 63.1809 36.7939 63.7034 36.9567C65.821 37.6164 64.2319 37.1796 64.3522 37.4045C65.229 39.0435 66.2712 35.687 64.0278 35.19C62.2888 34.8047 63.1626 37.3506 62.9047 35.1651C62.746 33.8203 59.3073 35.7364 60.2593 32.6519C61.673 28.071 65.108 32.3054 63.3789 34.8914C62.4222 36.3221 62.9785 41.738 61.008 41.8835C58.1585 42.0939 55.5402 43.6773 52.7971 44.0981C51.4511 44.3045 47.6208 44.6612 46.6327 43.7746C45.324 42.6003 43.8331 41.352 42.4648 40.291C40.9797 39.1393 42.9106 38.9805 42.5896 38.3003C42.2478 37.5761 41.3515 37.2249 40.9923 36.5088C40.127 34.7833 43.0481 36.33 43.3633 36.5585C43.8197 36.8895 48.6986 41.3765 47.6309 41.4356C45.0558 41.5782 45.581 41.9402 44.4863 44.1229" stroke="#08170C" stroke-width="3" stroke-linecap="round"/>
<path d="M44.9358 38.3004C45.7957 37.6312 47.8278 35.5398 49.2284 36.1604C49.8528 36.4371 50.4155 36.8408 50.8756 36.0609C52.0816 34.0167 56.6945 35.337 57.7388 36.9567C59.0621 39.0091 57.2494 37.0433 55.9918 36.3346C55.1734 35.8734 53.7237 34.3191 52.7723 34.3191C50.6129 34.3191 48.4126 36.288 46.7327 37.4046" stroke="#08170C" stroke-width="3" stroke-linecap="round"/>
<path d="M11.7651 149.525L18.2321 140.313L29.7806 144.458V151.828C25.9311 154.437 16.9387 159.657 11.7651 159.657C6.59145 159.657 9.6094 152.902 11.7651 149.525Z" fill="#08170C" fill-opacity="0.6"/>
<path d="M45.4865 159.657C43.6388 157.446 50.8759 145.84 54.7253 140.313H62.5783L68.5835 149.525L57.497 155.052C54.2634 157.508 47.3343 161.868 45.4865 159.657Z" fill="#08170C" fill-opacity="0.6"/>
</svg>
