<svg width="17" height="16" viewBox="0 0 17 16" fill="none" xmlns="http://www.w3.org/2000/svg">
<path d="M2 2L2 1.375L1.375 1.375V2H2ZM2 14H1.375V14.625H2V14ZM15 14V14.625H15.625V14H15ZM8.07607 7.54075L7.61682 7.96467L8.46467 8.88318L8.92393 8.45925L8.07607 7.54075ZM15 2H15.625V1.375H15V2ZM1.375 2V14H2.625V2H1.375ZM2 14.625H15V13.375H2V14.625ZM15.625 14V10.5714H14.375V14H15.625ZM8.92393 8.45925L15.4239 2.45925L14.5761 1.54075L8.07607 7.54075L8.92393 8.45925ZM14.375 2V7.14286H15.625V2H14.375ZM15 1.375H9.42857V2.625H15V1.375ZM2 2.625L5.71429 2.625L5.71429 1.375L2 1.375L2 2.625Z" fill="#26352A"/>
</svg>
