<svg width="654" height="731" viewBox="0 0 654 731" fill="none" xmlns="http://www.w3.org/2000/svg">
<mask id="mask0_954_2601" style="mask-type:alpha" maskUnits="userSpaceOnUse" x="0" y="0" width="654" height="731">
<rect x="0.87439" y="0.884766" width="653" height="730" rx="32" fill="#FAFB71"/>
</mask>
<g mask="url(#mask0_954_2601)">
<path fill-rule="evenodd" clip-rule="evenodd" d="M596.716 495.706L543.204 726.542H619.692L640.551 636.883L649.44 589.581L656.789 617.214L656.8 617.249L690.681 726.542H779.533L835.464 485.27H776.096L776.263 487.106H833.154L778.074 724.706H692.034L658.554 616.706L649.554 582.866H648.834L638.754 636.506L618.234 724.706H545.514L598.6 495.706H596.716ZM758.433 495.706L739.914 575.306L728.754 632.546H728.034L719.754 599.066L687.714 487.106H611.719L612.623 485.27H689.098L721.519 598.561L721.528 598.593L728.224 625.668L738.112 574.954L738.118 574.922L756.548 495.706H758.433Z" fill="#65836D"/>
<path fill-rule="evenodd" clip-rule="evenodd" d="M370.587 495.706C357.599 502.181 346.26 510.659 336.585 521.14L336.579 521.147L336.572 521.155C325.114 533.832 316.354 548.93 310.281 566.421C304.204 583.682 301.178 602.729 301.178 623.546C301.178 645.66 306.041 664.842 315.844 681.017L315.851 681.028C325.635 696.927 339.096 709.159 356.193 717.708L356.203 717.712L356.212 717.717C373.293 726.013 392.533 730.142 413.894 730.142C434.733 730.142 453.454 726.749 470.03 719.925C486.825 713.109 500.975 703.357 512.45 690.663C524.147 677.99 533.03 663.012 539.106 645.755L539.109 645.748C545.184 628.251 548.21 609.085 548.21 588.266C548.21 565.916 543.35 546.727 533.538 530.783C524.232 515.661 511.598 503.963 495.67 495.706H491.578C491.844 495.838 492.109 495.971 492.374 496.106C509.174 504.266 522.374 516.146 531.974 531.746C541.574 547.346 546.374 566.186 546.374 588.266C546.374 608.906 543.374 627.866 537.374 645.146C531.374 662.186 522.614 676.946 511.094 689.426C499.814 701.906 485.894 711.506 469.334 718.226C453.014 724.946 434.534 728.306 413.894 728.306C392.774 728.306 373.814 724.226 357.014 716.066C340.214 707.666 327.014 695.666 317.414 680.066C307.814 664.226 303.014 645.386 303.014 623.546C303.014 602.906 306.014 584.066 312.014 567.026C318.014 549.746 326.654 534.866 337.934 522.386C349.454 509.906 363.374 500.306 379.694 493.586C396.254 486.866 414.854 483.506 435.494 483.506C437.241 483.506 438.971 483.534 440.686 483.59L440.011 481.733C438.517 481.691 437.012 481.67 435.494 481.67C414.654 481.67 395.815 485.063 379.004 491.884L378.995 491.888C376.679 492.842 374.41 493.853 372.189 494.921L372.008 495.706H370.587ZM436.214 657.386C430.454 662.666 423.494 665.306 415.334 665.306C408.854 665.306 403.454 664.106 399.134 661.706C394.814 659.066 391.574 655.226 389.414 650.186C387.494 645.146 386.534 639.026 386.534 631.826C386.534 622.946 387.494 613.586 389.414 603.746C391.334 593.666 394.214 584.306 398.054 575.666C402.134 567.026 407.054 560.066 412.814 554.786C418.814 549.266 425.894 546.506 434.054 546.506C440.774 546.506 446.174 547.826 450.254 550.466C454.574 552.866 457.694 556.586 459.614 561.626C461.774 566.426 462.854 572.546 462.854 579.986C462.854 588.866 461.894 598.346 459.974 608.426C458.054 618.266 455.054 627.506 450.974 636.146C447.134 644.786 442.214 651.866 436.214 657.386ZM458.171 608.082C460.073 598.098 461.018 588.734 461.018 579.986C461.018 572.706 459.959 566.865 457.94 562.379L457.918 562.33L457.899 562.279C456.118 557.604 453.269 554.241 449.363 552.07L449.309 552.041L449.257 552.007C445.568 549.62 440.551 548.342 434.054 548.342C426.354 548.342 419.718 550.929 414.057 556.137L414.055 556.139C408.509 561.223 403.722 567.968 399.723 576.431C395.95 584.926 393.112 594.144 391.218 604.089L391.216 604.097C389.316 613.836 388.37 623.078 388.37 631.826C388.37 638.855 389.307 644.729 391.117 649.497C393.134 654.187 396.117 657.701 400.059 660.119C404.03 662.316 409.09 663.47 415.334 663.47C423.056 663.47 429.567 660.988 434.971 656.034C440.759 650.709 445.543 643.847 449.297 635.4L449.305 635.381L449.314 635.362C453.325 626.868 456.279 617.777 458.171 608.082Z" fill="#65836D"/>
<path fill-rule="evenodd" clip-rule="evenodd" d="M215.973 495.706L162.461 726.542H250.111L303.623 495.706H301.738L248.652 724.706H164.772L217.858 495.706H215.973ZM291.922 487.106H255.919L256.344 485.27H292.347L291.922 487.106Z" fill="#65836D"/>
<path fill-rule="evenodd" clip-rule="evenodd" d="M-41.6425 495.706L-54.4603 550.502H20.0661L-20.6139 726.542H67.0348L107.715 550.502H181.871L194.688 495.706H192.803L180.415 548.666H106.255L65.5747 724.706H-18.3053L22.3747 548.666H-52.1453L-39.757 495.706H-41.6425ZM172.039 487.106H3.83529L4.25811 485.27H172.464L172.039 487.106Z" fill="#65836D"/>
<path fill-rule="evenodd" clip-rule="evenodd" d="M519.701 495.706L518.675 497.542H598.175L598.6 495.706H519.701ZM611.719 487.106L630.884 448.186H697.124L698.204 495.706H758.433L758.006 497.542H696.41L695.33 450.022H632.027L613.766 487.106H611.719ZM778.106 487.106L757.121 256.27H653.568L524.655 486.846L525.539 489.026L654.644 258.106H755.444L776.263 487.106H778.106ZM656.804 395.986L694.604 316.786L695.684 395.986H656.804ZM659.715 394.15H693.823L692.876 324.67L659.715 394.15Z" fill="#65836D"/>
<path fill-rule="evenodd" clip-rule="evenodd" d="M301.312 497.542H371.021C371.349 497.377 371.678 497.213 372.008 497.051C372.595 496.762 373.185 496.478 373.779 496.197L390.998 421.582H416.204L438.714 483.538C439.373 483.551 440.031 483.568 440.686 483.59L417.49 419.746H389.537L372.008 495.706H301.738L301.312 497.542ZM494.368 407.286C493.797 407.503 493.223 407.715 492.646 407.924L525.539 489.026L526.687 486.973L495.059 408.988C495.793 408.709 496.523 408.423 497.248 408.131C513.859 401.535 526.879 391.608 536.226 378.328C545.849 364.755 550.604 347.923 550.604 327.946C550.604 305.385 542.727 287.665 526.872 275.03C516.128 266.468 502.812 260.869 486.989 258.167C486.026 258.643 485.05 259.107 484.059 259.559C500.8 262.034 514.689 267.669 525.728 276.466C541.088 288.706 548.768 305.866 548.768 327.946C548.768 347.626 544.088 364.066 534.728 377.266C525.608 390.226 512.888 399.946 496.568 406.426C495.84 406.719 495.107 407.006 494.368 407.286ZM359.084 258.106C357.608 257.514 356.143 256.902 354.689 256.27H343.549L290.037 487.106H291.922L345.008 258.106H359.084ZM530.229 495.706H491.578C491.844 495.838 492.109 495.971 492.374 496.106C493.335 496.572 494.284 497.051 495.22 497.542H530.974L530.229 495.706ZM402.248 364.666H432.848C439.808 364.666 445.808 363.586 450.848 361.426C455.888 359.266 459.848 356.146 462.728 352.066C465.608 347.986 467.048 343.306 467.048 338.026C467.048 330.586 464.528 325.426 459.488 322.546C454.688 319.426 448.808 317.866 441.848 317.866H413.048L402.248 364.666ZM414.508 319.702L404.556 362.83H432.848C439.624 362.83 445.366 361.778 450.125 359.738C454.884 357.698 458.563 354.783 461.228 351.007C463.876 347.255 465.212 342.95 465.212 338.026C465.212 331.03 462.88 326.599 458.577 324.14L458.531 324.114L458.487 324.085C454.044 321.197 448.53 319.702 441.848 319.702H414.508Z" fill="#65836D"/>
<path fill-rule="evenodd" clip-rule="evenodd" d="M192.374 497.542H217.432L217.858 495.706H192.803L192.374 497.542ZM255.919 487.106L309.005 258.106H272.179L272.605 256.27H311.315L257.803 487.106H255.919ZM170.154 487.106L221.479 265.706H223.363L172.039 487.106H170.154Z" fill="#65836D"/>
<path fill-rule="evenodd" clip-rule="evenodd" d="M-30.5917 265.706L-84.3355 497.542H-40.1864L-39.757 495.706H-82.0253L-28.7071 265.706H-30.5917ZM3.83532 487.106L17.6904 426.946H67.0147C89.8147 426.946 109.255 422.986 125.335 415.066C141.655 407.146 154.135 396.226 162.775 382.306C171.415 368.146 175.735 351.946 175.735 333.706C175.735 309.466 166.855 290.866 149.095 277.906C138.922 270.241 126.402 264.802 111.536 261.588L111.952 259.799C127.014 263.059 139.775 268.588 150.188 276.431C168.468 289.775 177.571 308.954 177.571 333.706C177.571 352.248 173.175 368.786 164.342 383.262L164.335 383.274C155.493 397.519 142.735 408.662 126.139 416.716C109.749 424.787 90.0185 428.782 67.0147 428.782H19.1515L5.71931 487.106H3.83532ZM40.045 256.27H4.04214L3.61653 258.106H39.6193L40.045 256.27ZM59.8147 367.546C67.0147 367.546 73.0147 366.346 77.8147 363.946C82.8547 361.306 86.6947 357.946 89.3347 353.866C91.9747 349.546 93.2947 344.866 93.2947 339.826C93.2947 332.866 91.2547 327.466 87.1747 323.626C83.0947 319.546 75.8947 317.506 65.5747 317.506H42.8947L31.3704 367.546H59.8147ZM33.6772 365.71H59.8147C66.8146 365.71 72.5073 364.543 76.9783 362.311C81.7699 359.799 85.3423 356.648 87.7803 352.889C90.2368 348.861 91.4588 344.519 91.4588 339.826C91.4588 333.241 89.5421 328.375 85.9164 324.963L85.8962 324.944L85.8765 324.924C82.3281 321.375 75.7595 319.342 65.5747 319.342H44.3559L33.6772 365.71Z" fill="#65836D"/>
<path fill-rule="evenodd" clip-rule="evenodd" d="M354.308 258.106C348.315 255.516 342.495 252.578 336.848 249.292C323.477 241.513 311.449 231.67 300.765 219.772L299.699 218.585L343.863 166.046L345.273 167.657C351.869 175.196 359.775 181.925 369.002 187.84C378.244 193.764 387.832 198.499 397.77 202.05C407.691 205.355 416.968 206.99 425.611 206.99C430.061 206.99 433.253 206.518 435.331 205.696C437.768 204.583 439.371 203.324 440.317 201.998C441.284 200.645 441.775 199.102 441.775 197.306C441.775 195.418 440.89 193.79 438.666 192.375L438.582 192.321L438.504 192.259C436.368 190.55 432.545 188.712 426.831 186.807L426.814 186.802L393.309 174.913L393.3 174.91C383.33 171.262 373.846 166.52 364.852 160.686L364.838 160.676L364.823 160.667C355.725 154.519 348.339 146.765 342.681 137.416C336.956 127.958 334.135 116.696 334.135 103.706C334.135 85.3919 338.779 70.2052 348.205 58.2943C357.559 46.2349 370.215 37.2869 386.095 31.4233C401.93 25.5766 419.67 22.6697 439.291 22.6697C465.397 22.6697 487.635 26.8981 505.939 35.4379C524.122 43.6822 540.255 54.5983 554.327 68.1848L555.614 69.4283L508.828 120.399L507.473 119.044C501.578 113.149 494.972 107.958 487.652 103.471L487.634 103.46L487.616 103.448C480.306 98.7319 472.65 95.0818 464.646 92.4924C456.665 89.9102 448.575 88.6216 440.371 88.6216C436.646 88.6216 433.587 88.971 431.157 89.6307C429.001 90.2809 427.562 91.2004 426.662 92.281C425.778 93.3416 425.287 94.7061 425.287 96.5056C425.287 98.4654 426.463 100.481 429.757 102.468C433.243 104.323 437.936 106.321 443.866 108.456C443.869 108.457 443.871 108.457 443.873 108.458L474.459 119.253C474.46 119.253 474.46 119.254 474.461 119.254C493.116 125.796 507.559 134.445 517.66 145.278C528.138 156.015 533.287 170.552 533.287 188.666C533.287 206.286 528.63 221.444 519.243 234.043C511.087 244.99 500.412 253.664 487.263 260.077C486.207 259.891 485.139 259.718 484.059 259.559C498.08 253.162 509.318 244.291 517.771 232.946C526.891 220.706 531.451 205.946 531.451 188.666C531.451 170.906 526.411 156.866 516.331 146.546C506.491 135.986 492.331 127.466 473.851 120.986L443.251 110.186C437.251 108.026 432.451 105.986 428.851 104.066C425.251 101.906 423.451 99.3856 423.451 96.5056C423.451 94.3456 424.051 92.5456 425.251 91.1056C426.451 89.6656 428.251 88.5856 430.651 87.8656C433.291 87.1456 436.531 86.7856 440.371 86.7856C448.771 86.7856 457.051 88.1056 465.211 90.7456C473.371 93.3856 481.171 97.1056 488.611 101.906C495.514 106.137 501.798 110.987 507.461 116.458C507.902 116.883 508.338 117.313 508.771 117.746L553.051 69.5056C539.131 56.0656 523.171 45.2656 505.171 37.1056C487.171 28.7056 465.211 24.5056 439.291 24.5056C419.851 24.5056 402.331 27.3856 386.731 33.1456C371.131 38.9056 358.771 47.6656 349.651 59.4256C340.531 70.9456 335.971 85.7056 335.971 103.706C335.971 116.426 338.731 127.346 344.251 136.466C349.771 145.586 356.971 153.146 365.851 159.146C374.731 164.906 384.091 169.586 393.931 173.186L427.411 185.066C433.171 186.986 437.251 188.906 439.651 190.826C442.291 192.506 443.611 194.666 443.611 197.306C443.611 199.466 443.011 201.386 441.811 203.066C440.611 204.746 438.691 206.186 436.051 207.386C433.651 208.346 430.171 208.826 425.611 208.826C416.731 208.826 407.251 207.146 397.171 203.786C387.091 200.186 377.371 195.386 368.011 189.386C359.218 183.749 351.589 177.37 345.126 170.25C344.709 169.792 344.298 169.33 343.891 168.866L302.131 218.546C312.691 230.306 324.571 240.026 337.771 247.706C344.617 251.689 351.721 255.155 359.084 258.106H354.308Z" fill="#65836D"/>
<path fill-rule="evenodd" clip-rule="evenodd" d="M274.064 258.106L327.808 26.2698H251.32L230.462 115.922L220.568 166.668L213.872 139.593L181.442 26.2698H91.4785L37.7347 258.106H39.6194L92.9375 28.1057H180.058L212.098 140.066L220.378 173.546H221.098L232.258 116.306L252.778 28.1057H325.498L272.179 258.106H274.064ZM111.536 261.588L131.098 177.506L141.178 123.866H141.898L150.898 157.706L184.378 265.706H223.363L222.938 267.542H183.025L149.133 158.214L141.784 130.581L132.895 177.883L113.327 261.988C112.734 261.851 112.137 261.718 111.536 261.588Z" fill="#65836D"/>
<path fill-rule="evenodd" clip-rule="evenodd" d="M56.9347 28.1057H-26.9453L-82.0253 265.706H-28.7071L-29.1327 267.542H-84.3355L-28.4043 26.2698H59.2449L5.50115 258.106H3.61653L56.9347 28.1057Z" fill="#65836D"/>
<path opacity="0.3" fill-rule="evenodd" clip-rule="evenodd" d="M385.58 231.285C378.217 228.335 371.113 224.868 364.267 220.885C351.067 213.205 339.187 203.485 328.627 191.725L370.387 142.045C377.107 149.725 385.147 156.565 394.507 162.565C403.867 168.565 413.587 173.365 423.667 176.965C433.747 180.325 443.227 182.005 452.107 182.005C456.667 182.005 460.147 181.525 462.547 180.565C465.187 179.365 467.107 177.925 468.307 176.245C469.507 174.565 470.107 172.645 470.107 170.485C470.107 167.845 468.787 165.685 466.147 164.005C463.747 162.085 459.667 160.165 453.907 158.245L420.427 146.365C410.587 142.765 401.227 138.085 392.347 132.325C383.467 126.325 376.267 118.765 370.747 109.645C365.227 100.525 362.467 89.6048 362.467 76.8848C362.467 58.8848 367.027 44.1248 376.147 32.6048C385.267 20.8448 397.627 12.0848 413.227 6.32481C428.827 0.564813 446.347 -2.31519 465.787 -2.31519C491.707 -2.31519 513.667 1.88481 531.667 10.2848C549.667 18.4448 565.627 29.2448 579.547 42.6848L535.267 90.9248C529.267 84.9248 522.547 79.6448 515.107 75.0848C507.667 70.2848 499.867 66.5648 491.707 63.9248C483.547 61.2848 475.267 59.9648 466.867 59.9648C463.027 59.9648 459.787 60.3248 457.147 61.0448C454.747 61.7648 452.947 62.8448 451.747 64.2848C450.547 65.7248 449.947 67.5248 449.947 69.6848C449.947 72.5648 451.747 75.0848 455.347 77.2448C458.947 79.1648 463.747 81.2048 469.747 83.3648L500.347 94.1648C518.827 100.645 532.987 109.165 542.827 119.725C552.907 130.045 557.947 144.085 557.947 161.845C557.947 179.125 553.387 193.885 544.267 206.125C535.813 217.47 524.576 226.342 510.555 232.738C527.295 235.213 541.185 240.849 552.223 249.645C567.583 261.885 575.263 279.045 575.263 301.125C575.263 320.805 570.583 337.245 561.223 350.445C552.103 363.405 539.383 373.125 523.063 379.605C521.772 380.125 520.465 380.625 519.141 381.103L552.034 462.205L681.14 231.285H781.94L802.758 460.285H859.649L804.569 697.885H718.529L685.049 589.885L676.049 556.045H675.329L665.249 609.685L644.729 697.885H572.009L625.096 468.885H554.743H548.3H518.073C518.34 469.017 518.605 469.15 518.87 469.285C535.67 477.445 548.87 489.325 558.47 504.925C568.07 520.525 572.87 539.365 572.87 561.445C572.87 582.085 569.87 601.045 563.87 618.325C557.87 635.365 549.11 650.125 537.59 662.605C526.31 675.085 512.39 684.685 495.83 691.405C479.51 698.125 461.03 701.485 440.39 701.485C419.27 701.485 400.31 697.405 383.51 689.245C366.71 680.845 353.51 668.845 343.91 653.245C334.31 637.405 329.51 618.565 329.51 596.725C329.51 576.085 332.51 557.245 338.51 540.205C344.51 522.925 353.15 508.045 364.43 495.565C375.95 483.085 389.87 473.485 406.19 466.765C422.75 460.045 441.35 456.685 461.99 456.685C463.737 456.685 465.467 456.713 467.181 456.769L443.985 392.925H416.033L398.503 468.885H328.233L275.147 697.885H191.267L244.353 468.885H219.299L206.91 521.845H132.75L92.0703 697.885H8.19028L48.8703 521.845H-25.6497L-13.2614 468.885H-55.5297L-2.21154 238.885H-55.5297L-0.449718 1.28491H83.4303L30.1121 231.285H66.115L119.433 1.28491H206.553L238.593 113.245L246.873 146.725H247.593L258.753 89.4849L279.273 1.28491H351.993L298.675 231.285H335.501L282.414 460.285H318.417L371.503 231.285H385.58ZM175.59 251.085C165.417 243.42 152.898 237.981 138.031 234.767L157.593 150.685L167.673 97.0449H168.393L177.393 130.885L210.873 238.885H249.859L198.534 460.285H30.3309L44.1859 400.125H93.5103C116.31 400.125 135.75 396.165 151.83 388.245C168.15 380.325 180.63 369.405 189.27 355.485C197.91 341.325 202.23 325.125 202.23 306.885C202.23 282.645 193.35 264.045 175.59 251.085ZM86.3103 340.725H57.8659L69.3903 290.685H92.0703C102.39 290.685 109.59 292.725 113.67 296.805C117.75 300.645 119.79 306.045 119.79 313.005C119.79 318.045 118.47 322.725 115.83 327.045C113.19 331.125 109.35 334.485 104.31 337.125C99.5103 339.525 93.5103 340.725 86.3103 340.725ZM784.929 468.885H724.7L723.62 421.365H657.38L638.215 460.285H714.209L746.249 572.245L754.529 605.725H755.249L766.409 548.485L784.929 468.885ZM722.18 369.165H683.3L721.1 289.965L722.18 369.165ZM441.83 638.485C449.99 638.485 456.95 635.845 462.71 630.565C468.71 625.045 473.63 617.965 477.47 609.325C481.55 600.685 484.55 591.445 486.47 581.605C488.39 571.525 489.35 562.045 489.35 553.165C489.35 545.725 488.27 539.605 486.11 534.805C484.19 529.765 481.07 526.045 476.75 523.645C472.67 521.005 467.27 519.685 460.55 519.685C452.39 519.685 445.31 522.445 439.31 527.965C433.55 533.245 428.63 540.205 424.55 548.845C420.71 557.485 417.83 566.845 415.91 576.925C413.99 586.765 413.03 596.125 413.03 605.005C413.03 612.205 413.99 618.325 415.91 623.365C418.07 628.405 421.31 632.245 425.63 634.885C429.95 637.285 435.35 638.485 441.83 638.485ZM428.743 337.845H459.343C466.303 337.845 472.303 336.765 477.343 334.605C482.383 332.445 486.343 329.325 489.223 325.245C492.103 321.165 493.543 316.485 493.543 311.205C493.543 303.765 491.023 298.605 485.983 295.725C481.183 292.605 475.303 291.045 468.343 291.045H439.543L428.743 337.845Z" fill="#233627"/>
</g>
</svg>
