<svg width="102" height="26" viewBox="0 0 102 26" fill="none" xmlns="http://www.w3.org/2000/svg">
<path fill-rule="evenodd" clip-rule="evenodd" d="M13.1643 2.49811H8.7443V18.6677L8.73669 18.7803C8.73669 19.6507 8.35002 21.3125 6.17296 20.996C4.61657 20.7697 4.02255 20.2272 3.72275 19.9534C3.66965 19.9049 3.62578 19.8649 3.58742 19.8365L0.835938 22.7346C1.85145 23.7661 3.66414 25.1793 8.36691 24.8736C10.3453 24.6285 13.1643 22.9011 13.1643 19.1932L13.1643 19.1932V2.49811Z" fill="#F8714A"/>
<path fill-rule="evenodd" clip-rule="evenodd" d="M28.6919 2.56067H24.6611L15.2227 24.9161H19.4024L21.7724 19.5576H31.579L33.949 24.9161H38.1304L28.6919 2.56067ZM26.6757 8.47129L23.5277 15.5889H29.8237L26.6757 8.47129Z" fill="#F8714A"/>
<path fill-rule="evenodd" clip-rule="evenodd" d="M60.0663 19.4862C58.0075 22.8523 54.2974 25.0987 50.0626 25.0987C43.591 25.0987 38.3447 20.7963 38.3447 13.3808C38.3447 5.96539 43.591 1.66296 50.0626 1.66296C54.5585 1.66296 58.463 4.19494 60.428 7.91073L56.3 10.2941C55.1356 7.95333 52.7795 6.3526 50.0625 6.3526C46.1897 6.3526 43.0501 9.01974 43.0501 13.6167C43.0501 18.2137 46.1897 20.8808 50.0625 20.8808C52.6675 20.8808 54.9407 19.4094 56.1499 17.2251L60.0663 19.4862Z" fill="#F8714A"/>
<path fill-rule="evenodd" clip-rule="evenodd" d="M67.6164 2.56067H63.3105V24.9161H67.6164V14.6587L77.5492 24.9163H83.6844L72.3737 13.2358L81.5487 2.56077H75.4136L67.6164 11.6327V2.56067Z" fill="#F8714A"/>
<path d="M90.0569 11.6756L89.9439 9.50892C89.9422 9.47329 89.9486 9.43774 89.9625 9.4049C89.9764 9.37205 89.9976 9.34275 90.0243 9.31914C90.051 9.29553 90.0827 9.27822 90.117 9.26849C90.1514 9.25875 90.1874 9.25683 90.2226 9.26288L92.3792 9.64198L92.088 8.83858C92.0762 8.80661 92.0746 8.77175 92.0837 8.73888C92.0927 8.70601 92.1117 8.67678 92.1382 8.6553L94.5007 6.7422L93.9684 6.49365C93.9325 6.47666 93.904 6.44713 93.8883 6.41061C93.8725 6.37409 93.8707 6.33309 93.8831 6.29531L94.3501 4.85922L92.9893 5.14795C92.9524 5.15563 92.914 5.15033 92.8806 5.13294C92.8472 5.11556 92.8209 5.08715 92.806 5.05254L92.5424 4.43242L91.4804 5.57224C91.4561 5.59786 91.4242 5.61491 91.3894 5.62084C91.3546 5.62677 91.3188 5.62126 91.2874 5.60514C91.256 5.58901 91.2307 5.56315 91.2153 5.53141C91.1998 5.49968 91.1951 5.4638 91.2017 5.42914L91.7139 2.78795L90.8929 3.26246C90.8736 3.27376 90.8522 3.28098 90.8301 3.28367C90.8079 3.28636 90.7854 3.28447 90.764 3.27812C90.7426 3.27176 90.7227 3.26108 90.7056 3.24672C90.6884 3.23237 90.6744 3.21465 90.6644 3.19467L89.8309 1.55774L88.9974 3.19467C88.9874 3.21465 88.9734 3.23237 88.9563 3.24672C88.9392 3.26108 88.9193 3.27176 88.8979 3.27812C88.8764 3.28447 88.8539 3.28636 88.8318 3.28367C88.8096 3.28098 88.7882 3.27376 88.7689 3.26246L87.9479 2.78795L88.4601 5.42914C88.4668 5.4638 88.462 5.49968 88.4466 5.53141C88.4311 5.56315 88.4058 5.58901 88.3744 5.60514C88.343 5.62126 88.3072 5.62677 88.2724 5.62084C88.2376 5.61491 88.2057 5.59786 88.1814 5.57224L87.1194 4.43242L86.8558 5.05254C86.841 5.08715 86.8146 5.11556 86.7812 5.13294C86.7478 5.15033 86.7094 5.15563 86.6725 5.14795L85.3118 4.85922L85.7787 6.29531C85.7911 6.33309 85.7893 6.37409 85.7736 6.41061C85.7578 6.44713 85.7293 6.47666 85.6934 6.49365L85.1611 6.7422L87.5236 8.6553C87.5501 8.67678 87.5692 8.70601 87.5782 8.73888C87.5872 8.77175 87.5857 8.80661 87.5739 8.83858L87.2826 9.64198L89.4393 9.26288C89.4744 9.25683 89.5105 9.25875 89.5448 9.26849C89.5791 9.27822 89.6108 9.29553 89.6375 9.31914C89.6643 9.34275 89.6854 9.37205 89.6993 9.4049C89.7132 9.43774 89.7196 9.47329 89.7179 9.50892L89.605 11.6756H90.0569Z" fill="#F8714A"/>
</svg>
