<svg width="745" height="747" viewBox="0 0 745 747" fill="none" xmlns="http://www.w3.org/2000/svg">
<path d="M226.882 563.42C238.269 552.034 237.32 537.8 235.423 532.107L373.488 470.902L460.313 463.786L473.123 519.296C483.086 534.004 509.845 566.836 537.174 580.501C571.334 597.581 649.619 621.778 688.049 640.282C718.794 655.084 738.816 710.026 744.983 735.646C494.947 733.749 -3.98567 728.53 0.569059 722.836C5.12379 717.143 56.5544 665.427 81.7004 640.282C125.35 619.406 215.496 574.807 226.882 563.42Z" fill="url(#paint0_linear_27_2297)"/>
<path d="M135.26 220.384V133.599C170.995 31.4995 307.553 -9.34038 393.062 4.69833C478.57 18.7371 504.095 73.6157 532.173 164.229C560.25 254.843 492.609 364.6 477.294 402.887C465.042 433.517 462.83 453.937 463.255 460.319C454.747 460.319 428.797 461.85 393.062 467.976C366.261 529.236 356.051 515.197 327.973 524.131C299.896 533.065 179.929 530.512 176.1 524.131C172.271 517.75 154.404 470.529 146.746 460.319C140.62 452.151 149.299 442.451 154.404 438.622L146.746 422.031V392.677C142.917 389.7 135.26 381.191 135.26 370.981C135.26 360.771 142.917 339.5 146.746 330.141L135.26 313.55V281.644V261.224V220.384Z" fill="#F8714A"/>
<path d="M153.088 440.118V423.725H183.444C195.101 423.725 224.324 418.463 237.479 415.833C230.193 418.463 213.922 425.182 207.122 431.011C200.323 436.839 168.266 439.511 153.088 440.118Z" fill="white"/>
<path d="M345.5 127.218C334.928 111.903 198.383 129.345 131.432 139.981C131.432 118.284 180.324 18.7371 324.357 3.42209C468.391 -11.8929 509.354 57.0245 535.782 148.914C556.925 222.426 520.806 313.125 500.104 349.285C487.331 336.948 462.048 309.721 463.105 299.511C464.162 289.301 455.617 271.434 451.212 263.777C449.45 258.672 444.869 243.101 440.641 221.66C435.355 194.859 374.571 202.517 363.999 196.135C353.428 189.754 358.714 146.362 345.5 127.218Z" fill="url(#paint1_linear_27_2297)"/>
<path d="M130.155 279.983C131.625 283.527 134.41 291.304 139.727 290.122C148.932 288.077 137.388 274.809 135.26 272.326" stroke="#26352A" stroke-width="7" stroke-linecap="round"/>
<path d="M172.272 80.8887C164.971 92.3614 157.309 103.557 149.229 114.497C146.484 118.212 142.836 121.696 141.571 126.125C139.857 132.126 140.476 139.146 140.082 145.836C138.534 172.154 131.749 201.144 136.466 227.09C138.245 236.874 137.83 247.215 139.728 257.082C141.609 266.863 144.396 276.279 146.463 286.081C147.619 291.561 150.576 298.591 150.576 304.232" stroke="#363228" stroke-width="3" stroke-linecap="round"/>
<path d="M224.598 267.221C228.775 273.648 231.878 274.302 239.204 273.531C240.442 273.401 248.181 272.782 248.846 271.617C251.789 266.466 243.966 282.076 243.032 284.237C241.248 288.369 236.095 281.772 233.815 279.7C231.524 277.617 229.122 275.428 227.15 272.964C224.202 269.279 235.62 265.46 236.58 266.228C238.262 267.573 231.716 277.245 236.367 277.431C240.112 277.581 241.955 275.006 243.741 272.326" stroke="#26352A" stroke-width="7" stroke-linecap="round"/>
<path d="M135.261 135.767C195.874 125.938 259.557 115.566 321.167 120.736C326.041 121.145 341.824 122.958 345.842 126.975C353.791 134.925 356.323 152.282 360.447 162.214C363.416 169.362 366.972 176.418 369.239 183.839C370.161 186.854 369.558 187.832 372.785 188.377C392.955 191.786 414.726 193.125 430.074 207.45C451.768 227.698 451.74 252.99 445.389 279.983" stroke="#010101" stroke-width="3" stroke-linecap="round"/>
<path d="M179.929 68.1263C201.653 47.7599 229.813 26.7007 259.907 21.685C270.009 20.0013 279.333 17.9547 288.977 14.2403C305.894 7.72494 320.831 6.18924 339.176 4.3848C357.205 2.61141 378.148 -0.0527453 395.614 4.3139" stroke="#201E18" stroke-width="3" stroke-linecap="round"/>
<path d="M170.995 103.861C224.362 92.3074 275.239 81.8363 329.25 92.3749" stroke="#201E18" stroke-width="3" stroke-linecap="round"/>
<path d="M170.995 83.4412C216.287 65.247 268.964 50.4043 318.26 52.315C324.349 52.551 328.403 53.0263 333.079 55.3638" stroke="#201E18" stroke-width="3" stroke-linecap="round"/>
<path d="M209.283 50.2588C254.716 38.48 302.76 34.5169 349.599 33.8094C357.872 33.6844 379.088 32.312 373.919 38.7726" stroke="#201E18" stroke-width="3" stroke-linecap="round"/>
<path d="M298.619 9.41888C332.126 10.2936 365.372 10.7091 398.45 16.5091C410.648 18.6479 421.66 19.298 433.901 19.6289" stroke="#201E18" stroke-width="3" stroke-linecap="round"/>
<path d="M225.873 33.6676C265.263 29.083 303.691 24.7339 343.288 24.7339" stroke="#201E18" stroke-width="3" stroke-linecap="round"/>
<path d="M446.665 19.6288C467.095 29.7301 483.504 41.2912 493.319 62.454C496.468 69.244 501.915 78.4864 502.749 85.9937C503.186 89.9285 504.096 93.5027 504.096 97.4799" stroke="#010101" stroke-width="3" stroke-linecap="round"/>
<path d="M519.411 143.425C523.069 179.67 528.954 215.344 528.345 251.906C528.232 258.676 525.433 265.085 523.878 271.617C523.501 273.198 522.614 277.676 521.326 278.707C517.508 281.761 518.344 295.61 516.859 299.694C514.175 307.075 512.165 314.69 509.201 322.099" stroke="#010101" stroke-width="3" stroke-linecap="round"/>
<path d="M389.233 467.976C411.229 467.662 432.555 461.595 454.322 461.595C460.726 461.595 466.625 470.695 468.077 476.343C470.673 486.436 467.253 498.742 464.816 508.249C463.582 513.062 467.185 519.429 468.361 524.131" stroke="#304C37" stroke-width="3" stroke-linecap="round"/>
<path d="M232.255 557.313C202.57 580.961 169.817 598.777 134.551 612.759C123.982 616.95 113.26 620.742 102.645 624.813C100.356 625.69 99.1619 625.681 98.249 627.507" stroke="#304C37" stroke-width="3" stroke-linecap="round"/>
<path d="M504.096 544.551C512.831 560.649 524.062 573.776 534.726 588.369C539.006 594.227 553.808 594.677 559.825 596.168C588.083 603.17 611.766 613.668 638.102 624.954" stroke="#304C37" stroke-width="3" stroke-linecap="round"/>
<path d="M119.945 261.224C128.373 259.177 140.654 254.86 149.299 258.955C153.964 261.165 153.843 267.517 154.12 271.859C154.776 282.112 154.659 292.106 156.956 302.064" stroke="#26352A" stroke-width="6" stroke-linecap="round"/>
<path d="M118.669 273.986C115.636 288.773 114.095 305.682 115.124 320.782C115.528 326.704 116.354 334.349 120.513 338.508C125.758 343.753 130.857 345.456 139.089 345.456" stroke="#26352A" stroke-width="6" stroke-linecap="round"/>
<path d="M186.311 257.395C187.075 281.095 187.829 305.878 192.692 329.149C193.881 334.837 195.158 339.658 197.797 344.747C201.405 351.705 209.488 353.424 216.373 355.666C223.973 358.141 232.171 360.468 240.126 361.339C245.831 361.963 251.364 362.228 257.001 360.984C275.326 356.938 293.405 352.682 311.95 349.569C325.637 347.271 339.787 345.99 353.357 342.975C355.886 342.413 358.302 337.228 359.597 335.53C368.93 323.294 376.845 311.18 382.002 296.534C386.362 284.152 395.032 248.121 377.748 239.811C371.533 236.823 363.885 236.833 357.328 235.415C346.614 233.099 334.899 234.27 324.004 233.856C275.109 231.997 226.302 231.87 177.377 231.87" stroke="#26352A" stroke-width="6" stroke-linecap="round"/>
<path d="M376.471 249.738C393.734 237.749 421.731 239.178 441.559 236.975" stroke="#26352A" stroke-width="6" stroke-linecap="round"/>
<path d="M176.101 279.091C173.06 276.855 169.916 273.763 165.891 273.986C162.835 274.156 162.031 280.719 160.148 280.51C159.836 280.475 152.828 264.246 153.129 262.217C154.199 254.993 174.748 250.123 180.639 248.462C183.266 247.721 187.134 247.863 189.502 246.547C193.143 244.524 190.876 257.985 190.707 259.31C189.254 270.727 187.587 281.551 187.587 293.13" stroke="#26352A" stroke-width="6" stroke-linecap="round"/>
<path d="M158.233 271.05C156.096 290.105 152.357 308.932 146.463 327.204C142.075 340.807 134.46 351.765 128.454 364.499C125.521 370.716 124.845 371.501 129.517 375.135C135.923 380.117 137.842 387.864 146.392 390.379C154.132 392.655 170.052 393.28 177.376 390.024C183.817 387.162 196.676 391.556 203.894 390.733C208.467 390.212 219.165 386.704 219.493 380.807C219.859 374.209 215.021 371.231 210.559 366.768" stroke="#26352A" stroke-width="3" stroke-linecap="round"/>
<path d="M142.918 274.878C137.992 276.651 133.692 279.334 128.879 281.26" stroke="#26352A" stroke-width="3" stroke-linecap="round"/>
<path d="M131.432 296.574C134.399 297.154 137.333 297.851 140.365 297.851" stroke="#26352A" stroke-width="3" stroke-linecap="round"/>
<path d="M213.111 291.469C236.33 294.614 258.774 298.9 282.029 296.574" stroke="#26352A" stroke-width="3" stroke-linecap="round"/>
<path d="M208.006 295.298C211.952 299.244 217.095 307.015 223.321 307.777C235.947 309.323 250.014 305.508 262.884 305.508" stroke="#26352A" stroke-width="3" stroke-linecap="round"/>
<path d="M201.625 269.773C214.225 266.893 225.79 264.668 238.636 264.668" stroke="#26352A" stroke-width="3" stroke-linecap="round"/>
<path d="M190.139 260.84C207.73 250.734 226.942 248.272 247.003 246.375C255.045 245.615 263.145 244.271 270.613 247.793C280.279 252.353 290.09 256.59 299.896 260.84" stroke="#26352A" stroke-width="3" stroke-linecap="round"/>
<path d="M250.123 325.928C275.583 318.039 301.332 311.073 326.698 302.956" stroke="#26352A" stroke-width="3" stroke-linecap="round"/>
<path d="M289.686 322.099C299.742 318.328 309.439 314.137 319.039 309.337" stroke="#26352A" stroke-width="3" stroke-linecap="round"/>
<path d="M150.575 412.713C154.934 406.959 154.623 406.707 160.927 407.608C167.386 408.531 167.099 408.061 172.271 405.339C176.264 403.238 179.243 406.676 183.119 407.537C184.835 407.918 187.425 411.554 188.863 413.351C189.634 414.315 193.312 415.265 194.535 415.265C208.786 415.265 223.031 412.713 237.36 412.713" stroke="#26352A" stroke-width="3" stroke-linecap="round"/>
<path d="M156.956 425.475C156.785 425.408 149.866 423.058 149.866 422.923C149.866 422.308 151.095 422.923 151.71 422.923C156.247 422.923 160.785 422.923 165.323 422.923C173.223 422.923 181.06 424.199 188.863 424.199C195.343 424.199 202.13 421.901 208.361 420.37C215.24 418.681 223.393 419.065 229.703 416.542" stroke="#26352A" stroke-width="3" stroke-linecap="round"/>
<path d="M148.022 444.619C154.967 453.107 164.878 457.068 175.533 457.382C183.223 457.608 188.602 453.286 195.598 450.788C206.303 446.964 214.998 437.889 224.81 432.282C228.144 430.377 237.36 427.889 237.36 422.923" stroke="#26352A" stroke-width="3" stroke-linecap="round"/>
<path d="M209.282 430.58C188.414 436.317 168.479 442.067 146.746 442.067" stroke="#26352A" stroke-width="3" stroke-linecap="round"/>
<path d="M151.852 429.304C152.727 432.895 153.725 434.224 155.68 436.962" stroke="#26352A" stroke-width="3" stroke-linecap="round"/>
<path d="M417.311 246.801C434.68 221.905 461.082 274.252 466.233 286.932C472.689 302.823 470.599 317.863 455.882 327.913C444.931 335.392 429.804 333.586 417.311 333.586" stroke="#26352A" stroke-width="3" stroke-linecap="round"/>
<path d="M423.693 279.983C427.388 289.632 417.516 299.983 409.654 305.225C407.023 306.978 416.871 309.038 417.95 310.117C419.915 312.082 421.567 316.994 424.969 316.994C431.032 316.994 432.938 305.778 438.795 304.941C441.689 304.528 454.181 307.934 454.181 302.105C454.181 297.887 451.639 293.173 450.21 289.342C446.555 279.54 444.142 268.877 438.724 259.847C434.544 252.88 433.983 250.557 426.954 251.835C423.427 252.476 421.773 254.148 419.864 257.011" stroke="#26352A" stroke-width="3" stroke-linecap="round"/>
<path d="M135.26 246.801C132.813 253.39 128.629 260.969 128.879 268.213C129.261 279.304 134.557 291.574 136.536 302.601C138.176 311.737 142.176 321.427 151.851 324.652" stroke="#26352A" stroke-width="3" stroke-linecap="round"/>
<path d="M505.372 347.624C491.461 370.28 479.385 392.226 470.275 417.18C466.991 426.176 463.256 435.803 463.256 445.47C463.256 468.19 466.397 490.635 468.999 513.182C469.836 520.439 471.176 528.364 473.466 535.233" stroke="#26352A" stroke-width="3" stroke-linecap="round"/>
<path d="M213.111 369.705C223.545 370.823 230.414 377.198 238.424 383.531C247.022 390.33 255.749 395.297 265.437 400.335" stroke="#26352A" stroke-width="3" stroke-linecap="round"/>
<path d="M196.52 205.069C200.456 201.994 202.56 200.344 207.864 199.681C228.82 197.061 250.323 197.455 271.393 197.412C274.303 197.406 312.658 194.34 312.658 201.24" stroke="#26352A" stroke-width="3" stroke-linecap="round"/>
<path d="M205.454 207.622C199.473 212.045 189.275 219.77 200.491 207.763C204.221 203.771 211.192 193.679 216.656 191.598C220.952 189.961 210.437 206.129 214.955 205.282C220.993 204.15 228.093 197.706 233.035 194.505C235.813 192.705 247.081 184.901 236.651 192.803C228.671 198.848 220.64 204.691 213.962 212.23C204.219 223.231 214.365 213.823 217.933 210.032C221.522 206.219 225.408 202.641 229.277 199.113C230.038 198.42 225.915 205.554 225.59 206.204C225.314 206.757 219.809 218.863 220.343 218.966C223.085 219.493 225.296 216.385 227.717 214.996C235.991 210.25 244.317 205.59 252.533 200.744C268.893 191.096 249.88 204.935 245.301 208.118C236.537 214.21 236.173 215.642 246.79 209.252C249.459 207.646 279.218 188.415 260.9 193.867C254.113 195.886 245.975 199.077 240.622 203.935C237.319 206.931 249.58 203.683 253.951 202.8C263.757 200.82 274.532 197.648 284.581 197.553C296.531 197.441 264.19 210.022 254.093 216.414C237.517 226.907 266.491 219.305 268.77 218.895C287.732 215.484 307.216 213.29 325.917 208.614C332.439 206.984 329.539 206.771 324.428 206.771C315.791 206.771 303.222 207.748 295.075 208.472C284.444 209.418 253.638 213.791 264.019 216.272C276.829 219.333 293.244 218.841 305.994 215.563C310.834 214.318 318.349 213.881 322.94 215.35C332.548 218.425 343.944 217.337 354.066 219.108C371.278 222.12 351.451 225.746 344.565 228.042" stroke="#26352A" stroke-width="3" stroke-linecap="round"/>
<path d="M205.454 208.098C199.473 210.541 189.275 214.807 200.491 208.176C204.221 205.971 211.192 200.398 216.656 199.249C220.952 198.345 210.437 207.274 214.955 206.806C220.993 206.181 228.093 202.622 233.035 200.854C235.813 199.86 247.081 195.55 236.651 199.914C228.671 203.253 220.64 206.48 213.962 210.643C204.219 216.719 214.365 211.523 217.933 209.43C221.522 207.324 225.408 205.347 229.277 203.399C230.038 203.016 225.915 206.956 225.59 207.315C225.314 207.62 219.809 214.307 220.343 214.363C223.085 214.655 225.296 212.938 227.717 212.171C235.991 209.55 244.317 206.976 252.533 204.3C268.893 198.971 249.88 206.614 245.301 208.372C236.537 211.737 236.173 212.527 246.79 208.999C249.459 208.112 279.218 197.491 260.9 200.502C254.113 201.617 245.975 203.379 240.622 206.062C237.319 207.717 249.58 205.923 253.951 205.435C263.757 204.342 274.532 202.59 284.581 202.538C296.531 202.476 264.19 209.424 254.093 212.954C237.517 218.749 266.491 214.551 268.77 214.324C287.732 212.44 307.216 211.228 325.917 208.646C332.439 207.746 329.539 207.628 324.428 207.628C315.791 207.628 303.222 208.168 295.075 208.568C284.444 209.091 253.638 211.506 264.019 212.875C276.829 214.566 293.244 214.294 305.994 212.484C310.834 211.797 318.349 211.555 322.94 212.366C332.548 214.064 343.944 213.463 354.066 214.442C371.278 216.105 351.451 218.108 344.565 219.376" stroke="#26352A" stroke-width="3" stroke-linecap="round"/>
<path d="M145.47 203.793C143.969 206.983 140.237 212.407 142.989 215.846C143.882 216.964 146.144 220.597 145.187 219.533C143.503 217.662 136.433 203.767 133.7 210.6C131.881 215.148 131.431 219.94 131.431 224.78C131.431 226.552 130.545 232.203 132.282 227.616C133.851 223.474 135.503 219.398 136.466 215.066C137.322 211.213 136.536 222.96 136.536 226.907C136.536 229.023 135.3 236.432 136.607 238.393C138.857 241.768 138.445 230.486 139.089 226.482C139.799 222.062 141.5 216.997 141.5 212.514C141.5 212.011 140.684 213.118 140.365 213.507C137.289 217.251 134.139 220.924 130.864 224.496C125.325 230.54 119.517 236.94 112.997 241.938C108.794 245.161 117.76 233.378 117.96 233.147C120.605 230.079 134.552 220.952 130.155 216.555" stroke="#26352A" stroke-width="3" stroke-linecap="round"/>
<path d="M154.404 461.21C157.621 477.412 162.565 491.216 168.301 506.375C169.561 509.704 169.817 513.341 172.555 515.805C174.849 517.87 176.843 520.512 179.291 522.47C181.447 524.195 184.372 524.229 186.949 525.661C191.683 528.291 198.364 528.24 203.611 529.49C217.211 532.728 232.887 531.404 247.003 531.404C267.692 531.404 287.869 530.499 308.405 527.859C323.637 525.9 338.103 527.529 351.584 520.556C359.713 516.351 365.151 513.36 369.523 505.241C376.038 493.142 386.064 481.606 394.197 470.57C402.635 459.118 408.178 446.195 416.035 434.409" stroke="#26352A" stroke-width="3" stroke-linecap="round"/>
<path d="M154.404 492.225C155.73 509.241 156.761 526.371 159.226 543.275C161 555.441 163.82 548.738 168.868 541.502C172.397 536.444 180.727 520.182 187.303 518.317C189.939 517.57 194.518 522.845 194.961 523.28C201.615 529.822 208.191 540.535 217.224 544.125C221.16 545.69 223.086 543.465 224.314 540.155C226.698 533.73 222.331 528.795 217.791 524.84C210.635 518.606 198.256 515.105 192.195 508.178C190.645 506.406 196.711 509.52 198.931 510.305C213.359 515.404 227.852 520.188 242.607 524.273C256.714 528.178 299.695 537.278 285.432 533.986C276.768 531.987 197.32 512.683 198.08 510.801C199.435 507.45 204.338 507.106 207.723 505.838C226.143 498.939 245.544 494.882 264.8 491.161C272.601 489.654 295.285 483.545 288.339 487.403C280.487 491.766 265.556 491.323 256.788 492.367C250.629 493.1 248.662 493.212 243.174 493.501C240.867 493.622 240.29 493.753 243.812 494.21C248.048 494.759 252.241 495.053 256.504 495.415C259.009 495.628 261.528 495.72 264.02 496.053C265.887 496.303 270.467 496.827 265.438 498.181C244.702 503.763 221.849 503.432 200.562 504.278C196.287 504.448 184.239 503.93 187.87 506.193C191 508.142 194.714 508.957 198.222 510.092C208.266 513.341 241.044 522.744 249.697 525.124C269.566 530.587 289.884 536.44 310.39 539.162C317.454 540.1 306.427 536.129 305.852 535.901C294.334 531.325 282.46 526.791 270.259 524.415C269.069 524.183 255.512 523.089 260.12 522.713C276.393 521.385 292.645 520.524 308.972 520.302C311.998 520.261 315.208 521.065 318.048 520.019C321.988 518.567 310.601 515.99 306.561 514.843C295.15 511.603 286.244 509.964 274.301 507.965C266.558 506.67 251.196 502.701 242.465 503.995C239.721 504.401 247.933 504.963 250.69 505.271C261.483 506.475 272.3 507.456 283.093 508.674C287.192 509.137 299.383 513.239 295.642 505.271C294.842 503.567 292.04 498.654 291.105 497.046C290.216 495.518 286.742 492.754 288.481 492.437C290.766 492.022 293.112 492.79 295.43 492.934C309.728 493.82 324.148 494.278 338.467 493.643C347.152 493.257 373.341 490.41 351.017 484C346.325 482.653 340.617 481.391 335.844 480.313C332.584 479.577 323.849 475.902 325.989 478.47C327.579 480.378 330.564 480.43 332.937 481.164C345.76 485.127 358.876 487.939 372.075 490.31C375.047 490.844 384.016 492.065 381.009 491.799C365.504 490.431 349.982 489.126 334.497 487.545C328.63 486.946 307.332 484.635 300.038 483.433C298.562 483.189 295.124 483.603 295.713 482.227C296.401 480.624 299.15 481.584 300.889 481.448C305.466 481.088 310.058 480.945 314.644 480.739C334.823 479.83 355.028 480.161 375.195 479.32C378.693 479.175 382.105 479.205 376.542 477.548C359.436 472.453 341.419 469.725 324.003 465.991C312.984 463.628 301.053 463.488 291.105 458.192C290.115 457.665 292.758 456.422 293.87 456.277C303.894 454.97 346.739 454.63 349.954 454.575C365.328 454.314 400.668 453.864 417.949 453.228C447.954 452.124 422.691 450.742 416.744 450.392C406.806 449.808 387.393 449.172 377.606 448.832C372.052 448.639 366.497 448.467 360.944 448.265C356.498 448.104 343.394 449.034 347.614 447.627C351.695 446.267 356.218 447.522 360.518 447.414C372.57 447.113 385.878 447.75 397.742 445.287C404.087 443.97 384.795 444.517 378.315 444.578C355.181 444.797 332.023 445.341 308.901 446.138C290.328 446.778 346.008 443.567 364.418 441.033C381.203 438.723 368.421 440.584 363.709 442.168C363.154 442.354 353.485 447.346 359.809 445.571C379.379 440.078 398.905 431.872 417.028 422.74C424.631 418.909 433.257 413.949 419.226 415.863C417.969 416.034 399.467 418.127 399.727 420.471C399.814 421.25 404.279 419.412 402.634 418.911C400.012 418.113 392.857 418.457 391.786 418.486C375.556 418.925 359.249 420.257 343.147 422.315C338.661 422.888 334.165 423.475 329.746 424.442C328.087 424.805 324.313 424.73 324.996 426.285C326.728 430.231 353.663 427.2 356.477 427.065C362.308 426.786 378.634 423.811 373.99 427.349C372.745 428.297 363.836 435.054 369.806 429.547C371.139 428.318 388.27 413.17 386.185 412.388C382.797 411.118 373.702 413.701 372.359 414.019C357.44 417.55 342.598 422.141 328.258 427.562C322.501 429.737 317.907 431.772 312.659 434.652C311.926 435.054 307.377 438.244 312.375 434.723C328.308 423.497 344.243 412.254 359.88 400.619C376.418 388.313 357.797 398.683 351.514 401.186C341.532 405.162 312.511 418.774 321.451 412.814C322.598 412.049 323.989 411.737 325.28 411.254C340.548 405.542 356.066 400.439 371.508 395.23C373.77 394.467 405.042 384.008 410.93 381.971C413.212 381.182 415.658 380.718 417.737 379.49C422.968 376.398 405.868 382.126 400.011 383.744C382.538 388.569 363.259 394.268 346.125 399.91C336.111 403.206 312.67 408.605 303.442 416.643C301.741 418.124 307.93 417.475 310.177 417.281C319.482 416.476 328.784 415.142 337.9 413.097C344.996 411.506 350.704 408.39 357.398 406.007C365.471 403.134 374.037 402.812 382.144 400.335C386.851 398.897 391.73 393.137 395.473 390.196C399.58 386.969 403.414 383.602 407.101 379.915" stroke="#26352A" stroke-width="3" stroke-linecap="round"/>
<path d="M403.273 379.915C393.451 380.698 383.707 381.777 373.919 382.893C370.136 383.324 361.897 385.42 367.822 379.915C372.612 375.464 377.905 371.631 382.357 366.798C382.859 366.252 384.097 365.655 383.704 365.025C382.2 362.62 378.453 367.184 375.904 368.429C366.372 373.084 356.781 377.648 347.331 382.467C346.252 383.018 339.529 387.77 337.475 387.998C332.71 388.527 344.966 382.01 348.749 379.064C358.909 371.152 369.273 363.109 378.173 353.752C378.649 353.252 380.008 352.527 379.45 352.121C377.548 350.738 375.345 354.419 373.352 355.666C368.348 358.799 363.26 361.924 358.675 365.664C348.836 373.69 382.656 354.724 390.51 344.747C394.388 339.821 397.429 334.938 401.855 330.283C403.954 328.075 410.389 325.304 407.952 323.476C406.463 322.36 392.672 331.53 390.51 332.694" stroke="#26352A" stroke-width="3" stroke-linecap="round"/>
<path d="M145.471 407.992C147.54 404.186 152.592 388.501 148.591 401.682C148.295 402.657 143.694 414.991 143.557 414.799C142.142 412.818 141.768 409.675 141.643 414.799C141.483 421.354 141.512 416.347 141.926 412.53C143.649 396.64 148.516 410.125 154.901 402.32C156.239 400.685 155.49 400.914 156.674 402.887C157.399 404.096 157.874 402.141 158.234 401.611C160.024 398.973 161.607 401.898 163.339 402.887" stroke="#26352A" stroke-width="3" stroke-linecap="round"/>
<path d="M168.443 396.506C170.912 399.036 175.01 407.459 178.724 404.589C182.306 401.822 183.802 398.344 184.964 404.731C185.87 409.714 193.833 396.881 195.67 395.372C196.64 394.575 193.924 408.823 196.521 405.156C200.443 399.619 196.521 410.254 196.521 412.956C196.521 414.438 202.56 405.924 203.469 405.015C204.556 403.928 201.358 417.667 207.44 409.694C209.9 406.469 217.933 398.159 217.933 393.812C217.933 390.239 215.25 400.496 214.672 404.022C213.478 411.306 219.156 399.548 222.329 398.279C224.638 397.355 222.474 408.584 227.789 405.227C230.72 403.376 232.256 398.208 232.256 404.164C232.256 410.23 232.063 411.471 237.786 407.283C242.336 403.954 238.464 419.893 240.126 422.386C241.474 424.408 243.922 419.741 244.735 419.904C245.431 420.043 243.251 430.298 243.175 430.823C241.22 444.229 247.12 427.565 248.563 423.449C251.449 415.219 248.847 423.245 248.847 427.136" stroke="#26352A" stroke-width="3" stroke-linecap="round"/>
<path d="M265.438 422.031C258.694 432.821 251.487 443.796 247.712 456.064C245.683 462.658 255.837 448.978 257.071 447.485C258.18 446.144 266.302 433.58 265.296 436.85C264.896 438.15 262.227 445.283 261.042 441.388C260.055 438.145 260.697 434.753 260.191 431.461C259.528 427.152 250.274 438.472 250.052 438.693C245.974 442.771 241.477 446.712 237.715 451.101C235.509 453.675 243.544 447.623 246.294 445.642C246.502 445.492 255.908 437.751 256.93 438.481C258.826 439.835 254.216 450.311 253.81 451.385C252.573 454.654 247.45 462.222 248.067 465.92C248.186 466.635 254.315 459.411 254.448 459.255C257.646 455.497 261.232 450.835 265.296 447.981C274.246 441.698 252.793 465.927 246.578 474.924C237.384 488.233 253.477 470.065 254.802 468.685C255.015 468.464 264.532 459.611 264.02 460.46C256.613 472.727 228.541 504.772 239.913 496.053C253.333 485.764 288.958 449.637 277.917 462.446C274.297 466.645 271.535 473.869 271.535 479.462C271.535 482.19 276.159 476.431 278.768 475.634C280.761 475.025 282.54 477.7 283.589 477.052C289.613 473.331 294.668 461.811 302.449 461.595C313.175 461.297 320.377 458.287 330.526 453.937" stroke="#26352A" stroke-width="3" stroke-linecap="round"/>
<path d="M169.982 509.541C173.09 512.061 175.897 514.739 178.484 517.796C179.243 518.693 175.011 513.97 174.049 513.053C170.046 509.241 176.275 514.73 176.759 515.209C181.512 519.909 185.96 524.608 191.545 528.331C192.312 528.842 199.944 535.106 196.597 530.364C192.333 524.324 187.465 518.474 182.119 513.361C180.886 512.181 189.349 516.994 188.465 509.479C188.123 506.577 183.121 502.56 183.906 503.134C190.63 508.051 197.529 512.549 203.867 517.981C211.308 524.359 192.204 511.517 193.27 512.868C198.353 519.306 205.654 524.273 212.985 527.777C212.994 527.781 220 530.349 219.453 529.748C218.311 528.492 211.296 524.394 215.326 526.175C232.508 533.767 256.05 538.653 274.839 537.141C279.355 536.778 268.226 530.215 263.811 529.194C248.314 525.609 228.723 523.996 213.108 527.9C212.342 528.091 210.889 529.475 211.629 529.748C215.887 531.323 226.48 532.945 230.481 530.426C234.67 527.789 223.275 523.293 218.714 521.37C217.346 520.792 185.018 513.498 205.469 512.498C243.221 510.652 203.071 513.635 240.462 511.143C244.922 510.845 257.874 510.668 253.707 509.048C246.386 506.201 232.994 510.372 225.922 512.375C214.259 515.678 243.302 516.019 244.035 516.01C246.816 515.976 284.008 512.921 283.71 512.252C282.294 509.064 229.91 516.697 275.701 515.948C288.686 515.736 327.607 515.264 314.638 514.593C294.301 513.541 273.362 516.918 253.276 519.645C250.499 520.022 247.729 520.448 244.959 520.877C243.745 521.065 241.648 520.307 241.324 521.493C241.022 522.602 243.624 521.573 244.774 521.554C256.188 521.375 269.006 520.829 280.076 520.137C299.438 518.927 314.493 517.81 333.551 514.962C342.641 513.604 368.684 509.268 359.858 506.707C345.719 502.604 330.466 504.75 315.746 504.489C303.016 504.263 290.282 504.233 277.55 504.119C256.87 503.935 247.392 503.996 285.867 503.996C311.813 503.996 361.058 504.018 387.396 503.935C396.905 503.905 406.413 503.889 415.921 503.75C417.628 503.725 422.731 503.63 421.034 503.442C417.502 503.049 413.93 503.182 410.376 503.134C367.726 502.556 325.005 502.527 282.355 503.134C274.703 503.243 266.374 501.258 259.437 504.489C255.993 506.093 266.449 507.71 270.218 508.186C273.166 508.557 307.207 508.503 306.629 505.844C305.881 502.406 251.525 507.371 245.637 507.693C240.804 507.957 239.674 508.223 243.973 507.446C256.295 505.219 268.617 502.979 280.876 500.423C287.291 499.086 301.3 496.117 308.23 493.893C314.251 491.96 315.634 489.907 308.785 489.272C303.596 488.79 297.057 488.971 291.966 489.149C289.212 489.245 286.459 489.391 283.71 489.58C282.577 489.658 281.41 489.623 280.322 489.95C279.634 490.156 281.761 489.996 282.478 489.95C302.04 488.684 321.958 486.588 341.252 483.111C342.754 482.84 347.146 481.613 345.626 481.756C338.367 482.436 330.173 485.81 323.632 488.594C313.888 492.742 284.238 509.741 312.851 512.19C325.063 513.235 337.958 511.534 349.877 509.294C360.757 507.25 379.716 504.276 387.581 494.509C389.247 492.44 389.113 488.458 386.719 486.869C381.148 483.172 371.514 487.287 366.635 489.765C356.596 494.862 351.379 502.148 350.74 513.237C350.556 516.414 351.595 506.926 351.787 503.75C352.193 497.054 345.167 505.058 343.1 506.584C334.652 512.822 332.564 514.338 323.755 520.63C319.352 523.776 312.299 530.423 306.813 532.397C305.542 532.855 307.328 529.697 307.984 528.516C310.753 523.531 314.683 517.35 317.471 512.621C322.627 503.879 331.367 491.232 330.532 480.216C330.431 478.877 327.799 480.882 326.836 481.817C320.194 488.265 314.164 495.501 308.292 502.641C308.047 502.938 296.674 519.517 296.771 519.521C300.319 519.663 302.236 514.974 304.78 512.498C315.741 501.832 326.46 490.882 336.447 479.291C338.118 477.351 358.064 455.075 342.238 466.415C325.761 478.222 305.95 492.347 297.018 511.204C289.949 526.128 311.077 507.398 312.913 505.475C318.448 499.675 322.781 493.544 326.836 486.623C331.276 479.045 339.157 467.006 339.157 457.667C339.157 445.69 306.782 472.874 306.012 473.562C298.882 479.933 287.062 491.461 280.876 498.698C275.944 504.47 263.776 517.562 267.138 526.976C273.438 544.615 320.354 508.208 325.357 503.503C333.645 495.711 353.33 468.921 328.561 469.311C308.866 469.621 292.273 486.338 280.876 500.793C278.272 504.096 273.009 511.32 273.484 516.564C274.39 526.589 287.614 523.252 292.582 521.123C305.708 515.498 322.236 503.877 333.305 496.172C345.32 487.808 364.002 476.824 373.535 464.567C384.234 450.81 345.925 485.994 333.613 498.328C326.671 505.283 313.583 518.993 307.984 528.27C301.288 539.363 309.592 539.132 317.41 535.724C338.25 526.64 351.745 507.791 353.204 485.021C353.481 480.691 350.48 471.814 347.659 479.908C346.667 482.754 338.532 511.12 344.579 508.802C358.551 503.446 364.71 479.199 367.928 466.97C368.433 465.052 371.675 453.728 370.639 449.843C369.324 444.913 360.832 453.644 357.27 457.297C343.701 471.218 331.601 489.066 325.049 507.446C324.452 509.121 323.018 513.82 324.433 512.745C329.939 508.56 334.995 496.026 337.679 490.566C339.021 487.835 358.014 445.853 349.692 447.071C344.476 447.834 333.656 454.366 330.594 456.189C319.649 462.702 306.541 470.319 299.482 481.448C288.742 498.378 315.714 492.551 322.523 490.504C335.206 486.692 349.823 479.829 350.247 464.567C350.45 457.25 332.534 480.818 332.381 481.016C331.703 481.889 308.525 511.561 321.291 499.56C327.109 494.092 334.215 486.764 339.281 480.832C340.961 478.864 358.124 461.03 354.806 455.942C350.291 449.019 318.225 465.754 314.021 467.956C307.44 471.403 290.09 482.573 297.511 482.926C301.276 483.106 306.548 474.915 308.292 472.576C310.136 470.103 316.486 461.651 308.846 468.017C294.135 480.276 280.692 493.962 266.707 507.015C265.412 508.223 261.368 511.627 262.517 510.28C270.085 501.415 278.956 493.656 286.668 484.898C292.898 477.822 298.578 470.79 303.795 462.965C305.755 460.024 310.234 451.91 306.813 452.8C301.657 454.142 291.254 459.772 287.9 461.61C277.095 467.532 265.826 473.909 257.219 482.926C246.662 493.986 263.64 484.147 266.522 482.618C289.852 470.245 314.94 459.872 337.186 445.592C350.249 437.207 307.019 453.426 292.767 459.577C280.88 464.707 272.329 468.886 261.47 475.595C256.747 478.513 245.623 487.464 251.058 488.594C256.031 489.628 268.784 487.641 272.498 486.869C288.073 483.633 303.111 477.985 317.41 471.098C321.305 469.221 327.396 466.084 331.456 463.273C339.362 457.8 315.556 474.202 308.477 480.708C303.237 485.524 276.844 510.854 287.16 520.815C291.435 524.942 297.969 523.475 302.686 521.308C318.869 513.873 327.483 498.422 337.186 484.528C344.934 473.434 352.454 471.568 363.061 464.074C374.644 455.891 383.105 446.126 391.771 435.18C392.396 434.39 392.092 437.2 391.955 438.199C390.405 449.529 388.746 460.841 387.458 472.207C386.989 476.341 384.964 480.773 386.472 484.651C386.687 485.203 387.201 483.706 387.458 483.173C388.465 481.084 393.727 468.3 393.742 468.264C396.94 460.522 399.211 455.119 402.121 447.379C405.193 439.207 405.37 437.428 397.685 444.113C379.991 459.505 361.839 475.685 347.721 494.509C345.687 497.22 343.997 500.15 347.105 494.632C354.639 481.253 362.622 468.096 369.468 454.34C370.53 452.208 384.765 425.582 370.208 435.858C363.413 440.654 358.175 445.531 352.342 451.63C348.594 455.548 336.292 467.015 336.2 474.055C336.167 476.59 341.15 472.471 343.1 470.851C355.139 460.853 365.792 449.054 375.814 437.09C376.892 435.804 385.799 425.194 387.581 421.257C390.017 415.877 376.697 426.013 371.81 429.328C369.371 430.981 327.476 461.13 337.987 464.69C342.471 466.209 349.739 463.399 353.142 462.041C366.039 456.897 378.352 448.928 387.458 438.322C389.005 436.521 394.999 428.111 394.235 424.152C392.611 415.742 370.48 424.991 369.407 425.385C359.004 429.201 350.88 433.035 342.115 439.801C340.674 440.913 324.049 454.962 329.054 460.131C333.256 464.472 341.326 459.867 347.043 457.914C364.869 451.823 382.196 443.232 397.931 432.901C401.22 430.741 404.518 428.536 407.419 425.877C408.499 424.888 410.182 423.502 409.698 422.119C408.01 417.295 378.954 425.689 378.71 425.754C376.05 426.466 323.487 443.424 331.58 451.876C335.035 455.485 345.153 454.699 348.091 454.464C362.878 453.278 377.444 448.613 389.799 440.294C390.375 439.906 399.077 433.084 399.163 430.067C399.195 428.96 397.72 428.144 396.638 427.911C390.444 426.573 377.529 429.224 373.042 430.128C360.602 432.635 350.549 435.304 338.788 439.862C336.001 440.942 318.186 449.14 335.091 446.085C342.717 444.707 355.933 441.057 363.061 438.569C365.231 437.812 384.276 432.131 384.008 426.37C383.572 417.007 338.83 430.906 335.584 432.038C333.893 432.628 318.935 438.218 315.87 440.663C309.351 445.865 332.54 438.795 340.513 436.351C354.361 432.105 365.966 427.865 379.326 422.119C384.786 419.771 390.295 417.471 395.467 414.542C397.961 413.129 406.785 408.077 397.562 407.272C390.13 406.624 368.592 409.526 363.061 410.352C344.23 413.166 325.305 416.802 306.937 421.873C290.434 426.429 307.785 422.972 312.173 421.072C314.852 419.913 321.869 415.527 318.95 415.527C316.832 415.527 312.639 422.194 312.05 423.783C311.176 426.139 314.887 425.254 315.5 425.138C327.094 422.948 338.434 417.645 349.015 412.693C354.663 410.05 359.93 406.593 365.71 404.253C369.817 402.591 359.674 410.779 357.147 414.418C353.059 420.306 350.269 429.647 357.825 418.854C361.957 412.95 374.555 396.365 368.298 399.941C365.68 401.436 357.739 410.968 357.332 411.461C352.957 416.757 344.401 425.628 344.333 433.394C344.317 435.175 346.398 436.088 347.783 435.365C351.523 433.411 351.105 426.88 350.925 423.66C350.37 413.784 345.593 410.845 336.323 409.367C334.199 409.028 330.038 408.667 327.698 408.874C324.255 409.178 334.533 410.033 337.987 410.168C346.777 410.511 358.509 411.851 365.033 404.438C366.379 402.908 367.307 397.847 369.53 397.291C369.698 397.249 376.516 407.724 377.601 408.504C380.995 410.945 392.458 416.705 393.126 408.689C393.58 403.243 386.115 403.692 382.406 403.329C381.461 403.237 375.784 403.741 378.71 401.912C382.478 399.557 410.101 387.916 408.651 383.368C408.208 381.978 405.859 382.356 404.4 382.321C400.677 382.231 396.958 382.668 393.249 382.998C373.681 384.74 354.16 387.134 334.598 388.974C324.467 389.928 294.111 392.609 304.287 392.609C326.86 392.609 348.715 391.219 371.317 393.102C371.921 393.153 370.849 391.961 370.454 391.5C365.673 385.923 345.426 396.684 341.375 398.647C333.891 402.274 329.693 404.911 323.139 409.798C319.878 412.229 313.407 421.673 313.775 417.622C314.304 411.798 328.581 401.357 332.134 397.908C333.049 397.019 339.696 390.53 341.745 388.913C343.625 387.429 340.214 393.482 339.034 395.566C333.168 405.928 327.155 416.451 324.433 428.157C323.408 432.565 318.032 435.98 315.13 439.185C310.704 444.074 306.782 450.432 301.823 454.772C293.735 461.849 289.366 473.632 280.322 479.661C276.142 482.448 272.78 490.479 269.664 494.262C268.676 495.462 256.353 510.458 256.11 506.337C255.952 503.641 257.886 478.683 255.987 478.737C253.031 478.821 247.1 494.174 245.698 496.603C241.217 504.37 248.223 484.373 248.594 483.173C250.343 477.512 251.448 472.133 247.423 480.585C245.471 484.686 243.799 490.066 240.647 493.461C236.589 497.831 244.449 482.146 246.746 476.642C249.745 469.455 260.174 448.905 255.124 454.833C252.09 458.396 241.508 470.664 242.803 475.657C243.197 477.176 245.265 473.673 246.253 472.453C250.026 467.794 253.421 462.847 256.726 457.852C257.269 457.032 265.098 445.27 264.366 449.535C262.486 460.48 257.583 470.788 254.816 481.509C254.26 483.665 253.845 485.016 255.494 482.742C259.213 477.612 262.462 472.152 266.214 467.032C271.041 460.443 276.724 453.875 267.384 464.382C265.881 466.074 256.72 476.47 256.726 476.396C257.069 472.286 261.698 461.284 256.233 459.392C252.353 458.049 250.922 459.078 248.348 462.473C244.525 467.511 256.323 452.654 260.238 447.687C263.457 443.603 276.37 430.082 264.612 441.279C259.127 446.503 253.698 452.92 247.485 457.297C243.571 460.055 250.585 448.23 252.414 443.805C253.292 441.681 255.417 439.435 254.632 437.275C254.031 435.622 251.165 442.912 251.058 441.156C250.888 438.35 256.561 428.709 251.058 434.441C247.287 438.37 248.717 429.677 248.717 427.726C248.717 425.343 249.082 418.235 248.656 420.579C248.351 422.254 246.89 426.022 247.608 427.603C247.962 428.381 248.639 426.236 249.087 425.508C251.272 421.951 253.443 418.388 255.556 414.788C260.731 405.971 257.679 431.669 258.328 431.669C262.782 431.669 268.332 409.33 264.735 425.2C264.383 426.753 263.033 441.517 261.778 442.019C261.17 442.262 259.375 432.733 259.252 432.161C257.292 423.015 253.486 434.369 250.565 438.137C245.773 444.322 248.278 432.455 248.471 430.991C249.642 422.092 257.872 396.391 254.755 404.808C249.645 418.603 250.74 413.5 249.58 419.594C249.223 421.464 246.602 431.009 246.561 430.498C246.044 424.041 246.591 417.534 245.637 411.092C245.578 410.695 247.932 423.237 244.528 418.608C243.428 417.111 242.187 414.667 242.187 412.755C242.187 412.501 246.614 418.241 247.115 418.977C249.181 422.012 250.447 423.254 248.409 418.669C245.982 413.208 242.698 408.543 239.476 403.575C238.909 402.701 245.849 407.315 246.931 408.319C250.067 411.231 241.623 409.984 240.215 409.49C236.612 408.224 244.286 399.186 233.685 405.547C229.299 408.178 229.001 407.154 223.396 408.134C221.573 408.454 216.416 409.36 218.16 409.983C224.128 412.114 235.884 404.924 240.585 402.158C259.481 391.043 230.321 403.845 229.927 402.467C228.954 399.062 232.899 404.338 236.827 404.992C245.766 406.482 218.841 402.452 209.781 402.22C204.071 402.074 195.709 402.038 189.82 402.22C187.599 402.289 181.336 402.041 183.228 403.206C195.425 410.712 217.791 409.893 230.481 404.253C231.267 403.904 232.958 403.285 232.453 402.59C231.122 400.761 221.087 401.136 220.378 401.111C215.726 400.951 206.834 400.865 202.142 400.865C198.932 400.865 189.823 399.757 192.531 401.481C197.792 404.829 212.486 400.911 213.786 400.803C218.356 400.422 223.014 399.233 226.785 396.491C228.578 395.186 230.023 393.772 226.354 393.965C216.722 394.472 206.75 397.934 197.46 400.249C193.95 401.123 190.044 401.151 186.986 403.083C183.02 405.588 196.343 404.073 201.033 403.945C202.223 403.913 231.953 400.314 218.653 400.249C208.073 400.196 194.661 399.753 184.583 403.575C181.799 404.632 200.077 405.726 201.526 405.67C206.988 405.461 222.962 402.881 217.544 402.158C212.204 401.446 205.19 403.285 199.924 404.192C191.962 405.561 211.271 401.974 202.511 401.974C199.592 401.974 195.851 403.238 193.024 402.467C187.791 401.039 203.865 403.065 209.288 402.959C212.366 402.9 242.693 399.297 243.234 403.083C243.547 405.274 246.032 407.315 247.731 408.504C250.35 410.337 242.417 404.303 239.23 404.068C228.037 403.244 216.637 405.79 205.592 407.272C197.207 408.397 171.873 409.736 180.333 409.736C184.397 409.736 188.58 410.994 188.834 406.409C189.011 403.228 189.679 402.669 191.915 403.575C196.856 405.579 205.245 407.183 210.336 404.808C211.541 404.245 207.721 404.258 206.393 404.192C199.721 403.858 193.042 403.663 186.37 403.329C176.331 402.827 189.176 405.379 188.095 398.893C187.548 395.612 184.273 396.519 187.479 400.125C187.932 400.635 201.407 398.706 205.838 398.031C206.664 397.905 217.213 394.917 217.605 397.661C217.89 399.654 218.136 401.163 218.776 403.083" stroke="#26352A" stroke-width="3" stroke-linecap="round"/>
<path d="M147.92 502.252C152.556 509.626 158.068 522.779 166.38 527.397C169.495 529.127 167.044 515.278 166 513.191C165.748 512.686 164.43 511.427 165.393 512.127C172.089 516.997 178.21 522.65 183.853 528.688C195.386 541.031 178.713 531.439 172.23 528.992C170.043 528.167 167.069 528.202 165.773 526.257C165.408 525.711 166.934 526.871 167.52 527.169C171.534 529.212 188.77 543.031 185.296 531.347C183.124 524.042 177.874 519.394 171.774 515.166C168.24 512.717 156.535 508.329 160.835 508.329C164.657 508.329 171.627 512.673 174.965 513.951C181.618 516.497 190.909 521.243 198.286 521.243C214.043 521.243 167.389 513.191 153.846 505.138C153.009 504.641 149.131 502.996 151.643 501.644C156.784 498.876 165.515 503.897 170.103 505.746C176.722 508.415 183.872 510.125 190.31 513.191C193.55 514.734 193.48 515.712 189.55 513.647C182.779 510.087 173.381 508.417 167.9 502.935C166.108 501.144 161.161 492.4 158.86 499.061C158.596 499.823 157.992 506.446 157.416 506.734C156.856 507.014 152.958 489.752 152.782 488.73C148.47 463.639 152.059 496.387 151.719 496.174C148.098 493.911 151.061 464.291 153.314 479.31C154.152 484.899 155.185 491.293 154.453 496.934C153.899 501.211 152.488 488.481 152.326 484.172C152.138 479.165 152.023 471.913 152.023 466.851C152.023 464.105 151.308 456.33 152.782 458.647C155.637 463.133 154.94 471.773 155.441 476.879C157.255 495.379 154.788 466.047 159.923 480.069C160.11 480.579 163.247 489.617 162.658 484.172C161.701 475.318 159.947 464.66 156.808 456.292C156.222 454.728 153.146 453.247 151.719 451.962C146.204 446.998 153.01 460.396 153.466 462.825C154.577 468.751 156.41 474.534 157.188 480.525C157.394 482.106 157.9 493.758 156.125 487.21C152.427 473.573 157.34 490.423 157.34 495.187C157.34 500.734 155.581 484.225 155.061 478.702C154.277 470.368 157.067 484.285 157.188 485.843C157.513 490.028 159.704 511.027 158.708 494.579C158.109 484.701 156.636 476.077 152.326 467.459C151.7 466.206 149.44 461.708 149.44 460.546C149.44 454.291 149.288 473.055 149.288 479.31C149.288 480.87 149.309 488.825 149.212 488.046C148.433 481.814 146.753 475.744 145.945 469.51C145.772 468.176 145.016 455.282 145.186 458.495C145.382 462.226 142.272 473.487 146.553 471.561C150.84 469.632 149.288 486.294 149.288 489.869C149.288 498.932 154.627 493.916 160.987 492.68C166.364 491.634 159.741 512.585 163.494 506.582C163.624 506.373 163.024 510.972 162.962 512.279C162.715 517.464 161.401 510.588 161.29 509.393C161.033 506.621 161.818 498.525 159.619 496.326C158.614 495.321 159.824 499.162 159.923 500.58C160.252 505.285 160.227 509.998 160.227 514.71C160.227 529.478 161.558 508.601 167.064 506.658C168.459 506.166 172.642 527.634 168.431 499.365C168.384 499.044 165.255 477.389 167.064 486.755C168.32 493.258 168.791 503.336 173.293 508.633C173.542 508.926 169.003 495.652 170.558 498.985C171.929 501.921 176.461 507.148 179.371 508.785C181.394 509.923 166.747 507.09 172.686 506.43C186.785 504.863 200.044 495.407 214.467 492.224C234.981 487.697 207.858 497.307 202.313 498.605C185.089 502.636 210.879 494.589 201.249 492.984C191.771 491.404 181.648 491.606 172.078 491.388C152.432 490.942 172.97 492.585 180.13 493.364C195.102 494.991 209.911 495.415 224.951 495.415C235.895 495.415 219.681 496.714 217.506 497.086C213.4 497.788 187.197 505.879 204.744 501.492C211.635 499.769 223.974 498.83 229.889 494.655C236.05 490.306 214.799 495.314 207.326 496.326C197.248 497.692 167.688 505.285 177.395 502.252C189.616 498.433 225.601 484.989 213.404 488.882C207.562 490.746 185.212 497.151 183.321 503.771C182.115 507.993 191.853 501.683 196.083 500.505C207.37 497.359 218.732 494.535 230.116 491.768C232.266 491.246 238.71 489.982 236.498 489.945C225.643 489.764 213.565 492.202 202.996 493.667C185.978 496.027 135.933 507.615 152.099 501.796C172.624 494.407 235.299 476.466 215.531 485.691C210.595 487.994 204.858 490.59 200.945 494.503C194.261 501.187 218.5 487.461 227.078 483.488C227.723 483.189 241.599 474.454 238.321 480.829C234.998 487.291 229.13 497.22 222.672 501.036C216.383 504.752 231.354 489.263 236.194 483.792C241.955 477.279 241.55 477.706 237.181 484.855C236.706 485.634 227.586 498.975 227.534 498.909C226.589 497.728 242.312 474.59 243.639 471.865C245.97 467.075 251.544 452.132 250.172 457.279C247.584 466.984 243.216 477.202 238.549 486.071C236.154 490.62 240.856 470.213 241.36 468.067C241.753 466.389 246.518 446.276 244.702 451.962C241.907 460.713 240.632 469.785 238.853 478.778C238.122 482.472 237.057 505.235 233.383 506.81C228.047 509.097 214.998 501.254 210.213 499.061C199.951 494.358 221.131 489.8 225.103 488.426C232.148 485.988 242.307 482.836 230.268 490.553C218.5 498.097 202.185 504.886 192.285 514.786C191.372 515.699 194.717 515.813 196.007 515.85C204.074 516.08 212.172 515.97 220.241 515.926C242.659 515.803 200.847 511.173 199.274 511.064C180.953 509.792 125.861 513.526 144.198 512.507C195.563 509.654 247.729 503.951 298.639 496.554C300.118 496.339 301.694 496.359 303.045 495.719C306.269 494.191 295.933 496.373 292.409 496.934C280.199 498.877 267.664 500.752 255.793 504.303C248.759 506.407 237.811 512.293 250.4 514.482C255.725 515.409 259.457 514.371 251.083 514.558C236.926 514.875 222.808 516.359 208.77 518.129C203.163 518.836 197.543 519.487 191.981 520.484C186.396 521.485 179.209 523.055 190.462 523.826C253.314 528.133 317.793 524.207 380.607 520.864C397.432 519.968 414.241 518.71 384.633 518.661C356.492 518.614 328.27 518.692 300.158 520.104C290.511 520.588 281.32 522.447 271.746 523.067C257.858 523.965 244.032 525.408 230.192 526.865C220.537 527.881 192.052 528.653 201.401 531.271C204.246 532.068 222.07 533.053 222.976 533.094C241.406 533.939 259.915 533.819 278.355 533.55C289.244 533.391 321.522 533.863 310.945 531.271C294.034 527.126 271.501 529.299 254.654 529.068C240.524 528.874 222.792 528.67 208.238 529.068C193.52 529.47 199.752 530.695 208.238 531.879C225.648 534.307 242.848 535.755 260.351 536.285C274.3 536.708 284.601 537.01 299.094 536.133C307.221 535.641 315.357 535.014 323.404 533.778C336.957 531.697 347.169 529.098 324.543 526.637C268.521 520.544 211.163 522.349 154.909 521.699C144.198 521.576 133.486 521.573 122.775 521.395C121.278 521.371 116.799 521.182 118.293 521.092C124.792 520.698 131.309 520.684 137.817 520.484C166.08 519.615 190.619 518.906 219.253 517.901C246.019 516.961 278.504 518.894 305.324 513.191C322.26 509.589 270.981 507.807 253.666 507.721C234.531 507.627 261 508.877 264.605 508.785C268.099 508.696 291.406 509.817 294.081 505.594C294.804 504.453 291.479 504.772 290.13 504.683C282.003 504.146 267.847 504.821 260.503 505.214C251.034 505.722 242.248 506.338 232.927 507.569C223.308 508.84 229.819 509.346 234.067 509.697C243.504 510.475 253.099 511.05 262.554 510.228C264.367 510.071 266.189 509.859 267.948 509.393C268.847 509.154 266.446 508.066 265.517 508.025C259.537 507.764 249.357 508.265 243.942 508.633C238.576 508.998 218.651 508.161 213.784 512.279C213.09 512.867 215.533 512.882 216.442 512.887C225.868 512.935 240.638 511.313 248.956 510.152C265.633 507.825 293.372 506.786 308.058 496.782C311.612 494.361 300.125 492.843 295.828 492.68C279.075 492.043 261.109 493.325 245.006 498.301C240.022 499.842 224.136 506.889 238.853 510.228C250.466 512.863 263.644 511.291 275.241 509.393C298.217 505.631 261.442 507.493 259.744 507.645C239.195 509.49 218.612 512.24 198.362 516.23C195.874 516.72 193.052 516.647 190.994 518.129C185.3 522.228 205.029 518.925 212.036 518.585C236.438 517.4 253.912 515.764 278.735 512.887C289.949 511.588 301.147 510.145 312.313 508.481C318.827 507.51 325.333 506.428 331.76 504.987C333.715 504.548 339.049 503.971 337.382 502.859C334.614 501.014 330.757 502.144 327.43 502.1C310.143 501.869 281.904 503.138 266.277 503.847C254.017 504.403 241.759 505.01 229.509 505.746C218.24 506.423 206.36 504.851 195.779 508.785C190.059 510.912 207.911 510.28 214.011 510.456C239.119 511.183 264.81 511.956 289.826 509.165C294.757 508.615 319.095 503.357 296.36 500.277C271.593 496.921 245.541 499.119 220.773 501.036C218.309 501.227 196.671 502.848 190.462 504.759C180.131 507.937 212.016 506.951 222.824 506.81C243.817 506.535 265.645 506.694 286.484 503.619C287.957 503.402 292.045 502.967 290.738 502.252C282.606 497.802 272.198 501.303 262.934 501.644C239.034 502.525 167.626 505.695 191.449 507.797C206.305 509.108 221.47 509.081 236.346 508.633C250.917 508.194 274.164 509.833 288.231 503.847C292.143 502.183 279.871 502.026 275.621 501.948C263.839 501.731 251.958 502.322 240.296 504.075C218.19 507.398 285.005 501.109 306.995 497.086C307.532 496.988 327.078 493.288 330.849 491.464C338.167 487.926 314.559 490.891 306.463 491.616C293.483 492.779 280.579 494.377 267.796 496.934C262 498.093 279.371 494.522 285.116 493.136C285.838 492.962 326.146 483.286 306.691 484.02C295.897 484.427 285.02 485.765 274.405 487.742C260.134 490.4 274.607 488.626 275.849 488.426C281.335 487.542 292.53 485.524 298.031 484.324C300.724 483.736 310.222 481.265 299.626 482.197C288.357 483.187 277.003 485.195 265.973 487.666C263.868 488.138 261.672 488.449 259.744 489.413C256.3 491.135 267.476 489.636 271.29 489.109C283.65 487.405 294.432 485.268 306.615 482.197C312.156 480.799 317.774 479.559 323.1 477.487C332.899 473.674 329.077 471.994 320.517 470.953C297.38 468.14 273.352 469.434 250.096 469.434C245.816 469.434 241.534 469.577 237.257 469.434C231.673 469.247 234.831 468.422 238.321 467.307C246.181 464.795 254.141 462.61 262.023 460.166C266.911 458.651 280.031 452.362 286.028 453.861C288.625 454.51 285.597 479.265 285.344 482.197C284.715 489.492 285.423 486.675 288.611 481.893C292.428 476.167 300.652 466.975 288.459 475.056C283.703 478.207 277.314 482.71 272.658 485.995C271.159 487.052 269.68 488.137 268.176 489.185C267.29 489.803 269.823 487.787 270.683 487.134C276.749 482.528 283.082 478.172 288.763 473.08C290.163 471.826 291.539 470.522 292.713 469.054C294.937 466.274 293.216 466.711 291.042 467.687C283.279 471.172 272.708 477.265 267.796 484.476C265.556 487.763 266.764 488.802 270.455 486.906C282.866 480.533 294.618 471.872 305.931 463.813C313.38 458.507 320.682 453.016 327.658 447.1C328.778 446.15 329.941 445.216 330.849 444.061C332.806 441.57 325.797 447.903 323.48 450.063C316.218 456.829 309.222 464.105 303.804 472.473C302.198 474.953 298.131 481.214 301.07 480.905C303.856 480.612 305.946 478.145 308.362 476.727C317.724 471.232 327.729 465.034 337.989 461.382C339.184 460.956 341.409 459.943 341.788 461.154C343.46 466.505 336.328 470.958 333.279 475.663C331.253 478.79 321.605 490.556 322.492 495.719C323.437 501.218 351.523 478.021 353.487 476.347C356.722 473.59 362.017 467.444 366.249 465.788C371.322 463.803 362.859 476.163 360.628 481.133C354.741 494.244 335.714 532.634 344.067 520.94C348.86 514.229 353.032 507.056 357.893 500.353C360.404 496.89 367.373 484.812 372.023 482.197C373.923 481.128 369.791 485.943 368.68 487.818C362.056 498.997 356.608 510.629 351.587 522.611C349.818 526.835 348.141 531.098 346.498 535.373C345.532 537.885 344.614 540.417 343.763 542.97C343.448 543.914 342.023 545.684 343.003 545.857C344.106 546.051 344.433 544.129 345.054 543.198C349.427 536.639 354.794 527.455 358.424 521.016C363.338 512.3 375.605 484.882 370.959 493.743C366.109 502.994 351.979 530.94 356.221 521.395C361.795 508.854 369.272 497.03 375.213 484.627C378.375 478.028 378.032 479.195 376.732 485.615C375.322 492.584 373.681 499.597 372.782 506.658C372.573 508.301 372.384 510.932 373.694 507.417C376.895 498.83 378.863 489.631 380.683 480.677C381.625 476.043 382.412 462.022 383.114 466.699C383.791 471.212 383.114 476.713 383.114 481.209C383.114 482.871 382.899 491.169 383.57 493.516C384.854 498.013 389.434 485.937 390.71 481.437C393.759 470.689 395.338 459.635 395.116 448.467C395.059 445.568 395.338 437.106 391.014 443.15C378.86 460.139 369.927 479.942 360.4 498.453C358.808 501.545 357.243 504.65 355.614 507.721C354.25 510.292 353.534 516.691 351.056 515.166C350.111 514.585 354.854 502.777 355.006 502.328C355.322 501.391 361.567 482.354 358.045 491.161C356.082 496.067 353.205 501.453 352.423 506.734C351.842 510.659 357.019 500.245 358.956 496.782C365.263 485.509 371.36 474.49 374.605 461.913C377.227 451.755 368.307 464.662 366.857 466.395C354.381 481.303 342.534 496.723 330.393 511.9C327.841 515.09 325.388 518.369 322.644 521.395C321.926 522.187 320.67 524.173 320.061 523.295C318.048 520.387 331.117 502.328 332.064 500.884C338.533 491.018 345.677 481.571 353.183 472.473C360.539 463.556 356.062 469.958 353.942 472.929C347.791 481.551 346.997 482.377 340.572 491.92C337.486 496.504 323.86 512.243 323.86 518.585C323.86 519.791 325.435 516.754 326.139 515.774C329.979 510.422 339.758 495.893 342.699 491.464C351.129 478.772 359.388 465.98 367.161 452.873C369.34 449.198 370.417 447.034 368.3 451.126C363.136 461.109 358.347 471.17 354.854 481.893C352.847 488.053 346.535 504.041 349.081 511.216C350.937 516.448 356.258 502.627 358.804 497.694C367.084 481.656 373.313 464.124 376.505 446.34C378.429 435.619 377.01 468.444 380.455 478.778C381.341 481.435 382.365 483.625 383.873 479.462C387.608 469.153 388.57 455.149 387.52 444.365C385.576 424.399 366.107 462.343 360.779 466.092C355.413 469.868 360.049 452.824 361.463 446.416C362.833 440.209 367.452 424.663 361.691 427.348C359.451 428.393 357.794 430.391 355.842 431.906C353.504 433.721 348.838 438.347 353.031 432.058C356.227 427.265 366.795 413.618 369.592 409.952C374.477 403.547 387.386 383.466 384.633 391.036C376.517 413.356 360.858 433.077 351.967 455.304C350.554 458.838 361.636 444.689 362.603 443.529C363.878 441.999 370.5 432.21 373.39 432.21C374.191 432.21 374.541 433.414 374.757 434.185C375.636 437.317 376.79 450.043 376.96 451.658C377.633 458.025 378.349 480.887 382.05 461.837C385.157 445.848 381.212 428.938 362.451 426.437C350.882 424.894 340.489 429.025 336.774 440.339C335.013 445.701 333.169 453.836 336.47 459.103C344.171 471.392 358.822 455.57 363.514 450.29C373.097 439.51 381.861 425.48 385.697 411.395C386.412 408.766 388.268 399.305 382.05 402.735C365.648 411.785 352.649 433.296 346.574 450.366C345.594 453.12 335.217 482.763 344.826 476.119C357.598 467.289 368.39 453.898 377.112 441.326C384.731 430.345 393.725 416.39 393.597 402.279C393.423 382.997 378.205 393.289 370.883 401.216C353.798 419.712 339.188 442.471 334.951 467.611C333.14 478.353 333.607 478.886 342.244 470.65C354.993 458.49 367.206 445.548 377.416 431.147C383.535 422.517 392.065 410.05 391.926 398.633C391.755 384.652 369.423 397.554 365.034 400C360.797 402.361 337.286 413.584 346.953 422.942C357.276 432.935 379.999 431.568 392.534 428.412C399.882 426.562 402.72 417.686 400.586 426.133C399.45 430.63 397.551 441.862 398.155 430.387C398.719 419.676 402.854 409.096 405.98 398.937C409.573 387.259 408.423 414.247 408.335 416.713C407.85 430.283 406.983 421.437 406.663 414.13C406.226 404.113 406.36 394.07 406.36 384.047C406.36 379.597 407.464 370.665 406.056 365.815C405.371 363.456 402.649 369.456 401.574 371.665C397.754 379.506 392.136 378.469 383.949 380.857C378.787 382.362 374.141 383.869 369.136 385.795C367.494 386.426 365.866 387.098 364.274 387.846C362.073 388.88 362.543 389.111 364.578 388.301C369.472 386.354 405.175 364.943 406.967 366.879C408.338 368.359 402.76 386.74 400.358 387.618C392.092 390.638 382.1 390.963 373.542 393.467C371.059 394.194 363.941 397.205 366.173 395.898C381.815 386.742 396.428 375.001 410.158 363.232C421.151 353.809 405.827 364.964 403.017 366.423C391.879 372.207 380.144 377.182 368.376 381.54C360.113 384.601 383.739 372.826 390.862 367.638C391.973 366.829 407.196 353.477 403.929 354.724C391.69 359.394 380.893 367.786 369.744 374.476C362.87 378.6 382.067 364.207 388.507 359.434C393.553 355.695 402.179 351.092 406.208 345.912C409.417 341.786 395.914 347.882 390.938 349.482C388.754 350.185 356.168 362.785 361.083 354.116C365.851 345.707 374.457 339.653 378.86 331.174C380.643 327.74 370.801 333.382 379.012 327.224" stroke="#26352A" stroke-width="3" stroke-linecap="round"/>
<path d="M39.9316 655.9C40.6242 673.906 51.2644 685.743 67.1602 693.207C92.7887 705.243 117.37 714.232 145.612 718.029C173.569 721.788 201.753 722.554 229.93 722.993C284.553 723.845 339.526 724.211 394.054 720.286C454.806 715.912 514.927 705.297 575.929 704.716C587.631 704.604 600.446 706.162 612.033 703.587C615.353 702.85 618.081 704.21 620.758 705.994" stroke="#F8714A" stroke-width="3" stroke-linecap="round"/>
<path d="M481.305 529.986C488.829 541.181 496.223 552.598 507.029 560.976C518.269 569.69 532.493 574.365 545.841 578.652C560.839 583.469 576.159 587.182 591.122 592.116C613.978 599.652 635.077 609.872 656.41 620.849C666.523 626.052 678.465 630.035 684.391 640.405C703.201 673.324 595.501 665.377 593.679 665.377" stroke="#F8714A" stroke-width="3" stroke-linecap="round"/>
<path d="M590.972 603.097C578.842 616.866 570.803 636.809 564.796 653.944C561.917 662.156 559.071 670.457 561.186 678.916" stroke="#F8714A" stroke-width="3" stroke-linecap="round"/>
<path d="M118.458 622.052C111.399 629.587 104.431 636.927 99.5033 646.122C94.0558 656.285 94.0169 665.421 91.3799 676.208" stroke="#F8714A" stroke-width="3" stroke-linecap="round"/>
<path d="M99.5034 710.056C97.1798 715.27 93.6483 721.157 92.7339 726.905C91.953 731.813 99.5262 731.831 102.512 732.32C131.668 737.102 161.123 740.027 190.366 744.205C199.598 745.524 207.799 746.681 210.524 735.78" stroke="#F8714A" stroke-width="3" stroke-linecap="round"/>
<defs>
<linearGradient id="paint0_linear_27_2297" x1="372.761" y1="463.786" x2="372.761" y2="735.646" gradientUnits="userSpaceOnUse">
<stop stop-color="#65836D"/>
<stop offset="1" stop-color="#65836D" stop-opacity="0"/>
</linearGradient>
<linearGradient id="paint1_linear_27_2297" x1="465.616" y1="175.285" x2="480.545" y2="310.693" gradientUnits="userSpaceOnUse">
<stop stop-color="#26352A"/>
<stop offset="1" stop-color="#26352A" stop-opacity="0"/>
</linearGradient>
</defs>
</svg>
