<svg width="281" height="396" viewBox="0 0 281 396" fill="none" xmlns="http://www.w3.org/2000/svg">
<g clip-path="url(#clip0_3399_54)">
<path d="M8.92037 7.48651L58.2512 56.8174" stroke="#6BC7F3"/>
<path d="M82.8741 58.545C88.7311 57.2434 85.1265 48.7848 82.8741 46.2674C80.193 43.2709 81.1263 37.059 81.3394 33.2225C81.5282 29.8242 88.9744 25.5209 91.4855 24.0143C93.1598 23.0097 101.16 19.8472 103.422 21.8828C110.437 28.1958 110.499 37.4586 110.499 46.2674C110.499 49.3187 110.678 52.4303 110.499 55.4756C110.404 57.088 101.263 59.3123 99.7558 59.3123" stroke="#EEFD76" stroke-linecap="round"/>
<path d="M81.3396 58.545C75.4122 58.545 70.1992 64.0034 64.4153 64.7264C61.246 65.1226 56.6841 66.936 54.0987 68.9468C47.5154 74.0671 41.8261 82.9325 37.1744 89.6652C34.958 92.8731 31.1324 96.3663 29.9272 99.9818" stroke="#EEFD76" stroke-linecap="round"/>
<path d="M28.3926 102.284C34.6118 108.273 42.605 112.81 50.0488 117.119C51.8074 118.137 53.8029 119.769 55.8466 119.933C58.6815 120.16 59.2476 122.043 62.6248 120.274C66.7266 118.125 70.339 115.074 74.4335 113.027" stroke="#EEFD76" stroke-linecap="round"/>
<path d="M49.1108 136.814V136.047" stroke="#EEFD76" stroke-linecap="round"/>
<path d="M48.5168 135.28C47.9843 140.705 46.3215 145.95 45.5793 151.351C44.5977 158.494 44.4495 165.67 44.4495 172.88C44.4495 174.28 43.8235 177.051 44.0729 178.251C44.3224 179.452 48.6664 179.345 49.3454 179.445C56.4856 180.493 63.6547 180.987 70.8497 181.278C74.852 181.44 79.0516 182.03 82.7128 183.964C86.2773 185.847 91.6948 185.812 95.5928 186.522C99.2701 187.191 103.722 187.459 107.456 187.459C111.081 187.459 114.717 187.565 118.34 187.459C120.74 187.39 122.81 185.925 125.119 185.925" stroke="#EEFD76" stroke-linecap="round"/>
<path d="M122.776 134.512C122.776 131.852 124.592 129.735 125.078 127.18C125.473 125.109 125.635 122.617 126.443 120.7C127.232 118.826 127.138 111.371 125.846 110.725" stroke="#EEFD76" stroke-linecap="round"/>
<path d="M99.7559 60.0797C100.211 64.1761 106.03 66.8221 109.049 68.5205C114.205 71.4206 120.188 72.9339 125.078 76.194" stroke="#EEFD76" stroke-linecap="round"/>
<path d="M126.613 79.2634C126.133 79.3233 128.915 96.0022 128.915 99.2144" stroke="#EEFD76" stroke-linecap="round"/>
<path d="M127.38 77.7287C130.588 82.5404 154.883 108.504 148.099 113.027" stroke="#EEFD76" stroke-linecap="round"/>
<path d="M148.866 109.957C146.943 110.198 143.505 110.84 141.662 111.833C138.043 113.781 132.624 115.317 128.574 116.053C127.202 116.303 125.707 116.373 125.078 117.631" stroke="#EEFD76" stroke-linecap="round"/>
<path d="M145.797 114.561C147.248 118.914 151.203 123.424 153.3 127.692C153.906 128.925 154.554 130.772 155.517 131.784C158.849 135.288 201.545 158.837 202.581 156.766" stroke="#EEFD76" stroke-linecap="round"/>
<path d="M129.682 120.7C130.442 124.688 134.509 127.926 137.356 130.505C139.634 132.569 142.386 136.26 145.029 137.582" stroke="#EEFD76" stroke-linecap="round"/>
<path d="M148.099 139.117C146.637 139.117 146.767 139.425 148.184 140.225C154.774 143.945 162.189 146.548 169.243 149.177C176.42 151.852 183.981 153.759 191.07 156.595C192.085 157.001 192.572 156.531 193.372 155.998" stroke="#EEFD76" stroke-linecap="round"/>
<path d="M195.674 156.766C198.476 157.116 198.977 161.995 199.554 164.013C200.668 167.913 204.049 162.203 204.882 161.37" stroke="#EEFD76" stroke-linecap="round"/>
<path d="M206.417 156.766C212.871 156.766 214.057 166.675 209.487 169.214C207.324 170.415 205.469 172.454 203.007 173.178C200.998 173.769 201.779 170.971 203.007 170.62C205.86 169.805 207.185 165.621 207.185 162.904" stroke="#EEFD76" stroke-linecap="round"/>
<path d="M194.14 157.533C194.859 164.004 203.039 165.206 207.952 165.206" stroke="#EEFD76" stroke-linecap="round"/>
<path d="M33.7639 104.586C32.8955 113.27 27.6039 123.096 24.3 131.059C23.6147 132.711 19.4128 143.41 19.1843 142.953" stroke="#EEFD76" stroke-linecap="round"/>
<path d="M19.9517 143.721C18.4534 144.095 17.3098 148.98 17.0528 150.115C14.8463 159.861 12.9436 169.694 10.7862 179.402C10.4217 181.042 10.7435 183.093 10.7435 184.774C10.7435 186.664 7.9853 187.451 7.07732 188.994C5.27961 192.05 1.67608 193.924 0.810639 197.819C-0.0531517 201.706 0.000660529 205.646 0.000660529 209.713" stroke="#EEFD76" stroke-linecap="round"/>
<path d="M2.30273 210.48C2.30273 218.563 8.13871 218.574 14.7508 220.626C17.946 221.618 16.0682 220.436 15.1771 218.921C13.9708 216.87 11.6494 214.455 9.97622 212.782" stroke="#EEFD76" stroke-linecap="round"/>
<path d="M11.5107 208.945C11.5107 206.72 11.5681 205.159 12.6618 203.19C14.1297 200.548 13.2468 199.284 15.7312 201.272C16.5278 201.909 16.8822 205.239 16.8822 206.302C16.8822 209.02 18.2624 209.175 20.2926 209.755C21.9996 210.243 23.3921 210.593 25.323 210.48C27.5977 210.346 24.0097 207.973 23.6178 207.581C22.3674 206.331 20.6409 205.457 19.3547 204.171C16.6654 201.481 18.6893 197.598 14.5801 195.133" stroke="#EEFD76" stroke-linecap="round"/>
<path d="M15.3477 192.064C18.8257 186.267 21.3316 179.929 24.5558 173.988C27.4355 168.682 30.9061 163.4 33.3377 157.874C34.5672 155.08 34.7196 152.555 35.6824 149.859C37.7571 144.05 42.8553 139.696 46.9795 135.28C51.0841 130.884 55.1782 126.503 59.0439 121.894C59.7412 121.062 63.112 118.335 60.6212 119.165" stroke="#EEFD76" stroke-linecap="round"/>
<path d="M108.964 54.7082C108.964 55.5892 109.004 54.6574 108.922 54.3672C108.671 53.492 105.839 53.9409 105.17 53.9409C101.575 53.9409 97.9797 53.9409 94.3845 53.9409" stroke="#EEFD76" stroke-linecap="round"/>
<path d="M47.5762 182.855C47.5762 194.256 52.7571 204.531 54.4397 215.468C54.9396 218.717 56.1885 221.532 57.7222 224.292C63.7209 235.09 68.2964 247.415 73.325 258.695C79.9566 273.571 84.8823 289.094 90.7182 304.267C92.0984 307.855 94.1035 311.746 95.1091 315.266C95.9645 318.259 98.3058 320.93 99.7558 323.749C101.897 327.912 103.765 332.817 105.298 337.263C107.179 342.72 108.605 348.368 112.374 352.823C114.738 355.616 115.302 359.425 118.343 361.648C120.995 363.586 122.104 368.745 123.544 371.623" stroke="#EEFD76" stroke-linecap="round"/>
<path d="M125.846 371.623C126.092 372.361 140.283 360.261 142.727 359.175C145.971 357.734 156.83 359.532 158.074 357.043" stroke="#EEFD76" stroke-linecap="round"/>
<path d="M110.499 202.039C112.077 206.073 113.161 214.015 116.041 217.216C116.402 217.617 117.388 214.586 117.405 214.146C117.502 211.634 116.638 204.129 116.638 206.643" stroke="#EEFD76" stroke-linecap="round"/>
<path d="M116.637 215.084C125.529 228.188 130.837 242.009 135.992 257.032C136.54 258.631 137.083 262.288 138.507 263.427C138.967 263.795 139.622 264.354 139.658 264.962C140.012 270.988 145.423 277.329 147.331 283.207C150.817 293.945 155.834 305.033 163.019 313.731C168.286 320.107 171.495 328.213 173.848 335.941C174.87 339.302 175.183 341.716 176.874 344.723C177.902 346.55 178.025 353.001 178.025 350.905" stroke="#EEFD76" stroke-linecap="round"/>
<path d="M132.752 367.786C134.23 369.833 136.023 375.177 138.123 376.227" stroke="#EEFD76" stroke-linecap="round"/>
<path d="M148.099 359.345C153.254 362.782 155.361 368.91 159.609 373.158" stroke="#EEFD76" stroke-linecap="round"/>
<path d="M141.96 378.529C144.86 376.064 149.292 374.693 152.703 372.987C155.01 371.833 157.905 372.447 160.376 371.623" stroke="#EEFD76" stroke-linecap="round"/>
<path d="M161.144 370.856C164.153 370.856 167.179 370.928 170.181 370.685C175.992 370.215 181.772 367.786 187.575 367.786C189.095 367.786 190.632 367.43 191.667 368.724C193.072 370.48 183.269 373.925 181.862 373.925" stroke="#EEFD76" stroke-linecap="round"/>
<path d="M138.891 377.762C143.451 378.269 144.311 386.193 147.715 388.462C150.902 390.586 155.108 390.807 158.842 390.807" stroke="#EEFD76" stroke-linecap="round"/>
<path d="M156.54 388.505C154.108 388.505 150.715 388.021 154.579 386.203C167.601 380.074 182.749 376.694 196.442 372.39" stroke="#EEFD76" stroke-linecap="round"/>
<path d="M153.47 390.039C162.193 387.116 175.905 384.17 181.862 376.227" stroke="#EEFD76" stroke-linecap="round"/>
<path d="M126.946 188.994C126.819 200.378 124.979 212.845 123.544 223.525" stroke="#EEFD76" stroke-linecap="round"/>
<path d="M88.2457 287.215C79.6867 295.445 71.9282 304.26 64.2022 313.305C57.4435 321.216 50.8913 329.286 44.4216 337.433C43.5618 338.516 42.5357 339.338 41.4375 340.162" stroke="#EEFD76" stroke-linecap="round"/>
<path d="M39.1354 339.394C33.7338 339.394 29.3543 337.523 24.1295 336.496C19.9548 335.674 16.115 336.062 16.115 331.209C16.115 329.078 16.115 326.946 16.115 324.815" stroke="#EEFD76" stroke-linecap="round"/>
<path d="M17.6497 321.745C24.7364 310.356 30.3337 298.355 35.9808 286.192C37.6113 282.68 41.2415 279.652 42.2474 276.131C42.7101 274.512 44.6742 270.592 45.871 269.395C52.9437 262.323 55.4504 251.815 58.7028 242.709C59.78 239.692 59.5273 236.292 61.3885 233.5" stroke="#EEFD76" stroke-linecap="round"/>
<path d="M17.6497 333.256C17.2331 333.308 14.587 339.194 13.813 340.162" stroke="#EEFD76" stroke-linecap="round"/>
<path d="M30.6946 337.092C28.6127 337.353 23.2178 342.445 21.5716 344.297C20.718 345.257 16.7988 348.853 17.6496 346.301" stroke="#EEFD76" stroke-linecap="round"/>
<path d="M13.0454 340.162C13.6404 345.517 17.0738 347.132 21.4862 348.603" stroke="#EEFD76" stroke-linecap="round"/>
<path d="M12.2782 337.86C8.64722 337.86 4.0285 343.296 1.91902 345.874C0.336059 347.809 0.686451 352.439 3.83739 352.439C7.74499 352.439 10.8222 355.485 13.9408 357.512C17.8219 360.035 21.5141 362.457 25.5789 364.674C26.5423 365.2 27.9431 366.12 28.3925 367.019" stroke="#EEFD76" stroke-linecap="round"/>
<path d="M30.6945 367.019C35.5946 367.019 56.0459 370.892 48.3435 361.264C46.5221 358.987 42.4322 358.155 39.7321 357.64C33.5208 356.457 29.5685 351.297 23.7883 349.37" stroke="#EEFD76" stroke-linecap="round"/>
<path d="M122.993 136.285C122.993 139.616 122.993 142.947 122.993 146.277C122.993 157.292 121.865 169.611 124.484 180.395C124.863 181.958 125.93 185.982 123.987 186.468" stroke="#EEFD76" stroke-linecap="round"/>
<path d="M138.335 82.8536L280.996 82.8537" stroke="#65836D"/>
<path d="M213.782 161.393L280.996 161.393" stroke="#65836D"/>
<path d="M138.863 250.217L280.996 250.217" stroke="#65836D"/>
<path d="M280.996 5.99999L196.442 5.99999L111.072 91.3696" stroke="#65836D"/>
</g>
<defs>
<clipPath id="clip0_3399_54">
<rect width="281" height="396" fill="white"/>
</clipPath>
</defs>
</svg>
