<svg width="231" height="412" viewBox="0 0 231 412" fill="none" xmlns="http://www.w3.org/2000/svg">
<path d="M91.8741 58.3315C97.7311 57.03 94.1265 48.5713 91.8741 46.054C89.193 43.0574 90.1263 36.8456 90.3394 33.009C90.5282 29.6108 97.9744 25.3075 100.485 23.8009C102.16 22.7963 110.16 19.6338 112.422 21.6693C119.437 27.9824 119.499 37.2452 119.499 46.054C119.499 49.1053 119.678 52.2168 119.499 55.2621C119.404 56.8745 110.263 59.0989 108.756 59.0989" stroke="#FFEF9D" stroke-linecap="round"/>
<path d="M90.3396 58.3315C84.4122 58.3315 79.1992 63.79 73.4153 64.513C70.246 64.9091 65.6841 66.7225 63.0987 68.7334C56.5154 73.8537 50.8261 82.719 46.1744 89.4518C43.958 92.6597 40.1324 96.1528 38.9272 99.7683" stroke="#FFEF9D" stroke-linecap="round"/>
<path d="M37.3926 102.07C43.6118 108.059 51.605 112.596 59.0488 116.906C60.8074 117.924 62.8029 119.556 64.8466 119.719C67.6815 119.946 68.2476 121.829 71.6248 120.06C75.7266 117.912 79.339 114.86 83.4335 112.813" stroke="#FFEF9D" stroke-linecap="round"/>
<path d="M58.1108 136.601V135.834" stroke="#FFEF9D" stroke-linecap="round"/>
<path d="M57.5168 135.066C56.9843 140.492 55.3215 145.737 54.5793 151.138C53.5977 158.281 53.4495 165.457 53.4495 172.666C53.4495 174.067 52.8235 176.838 53.0729 178.038C53.3224 179.238 57.6664 179.132 58.3454 179.231C65.4856 180.279 72.6547 180.774 79.8497 181.065C83.852 181.226 88.0516 181.816 91.7128 183.75C95.2773 185.633 100.695 185.599 104.593 186.308C108.27 186.977 112.722 187.246 116.456 187.246C120.081 187.246 123.717 187.351 127.34 187.246C129.74 187.176 131.81 185.711 134.119 185.711" stroke="#FFEF9D" stroke-linecap="round"/>
<path d="M131.776 134.299C131.776 131.638 133.592 129.521 134.078 126.967C134.473 124.896 134.635 122.404 135.443 120.487C136.232 118.613 136.138 111.157 134.846 110.511" stroke="#FFEF9D" stroke-linecap="round"/>
<path d="M108.756 59.8662C109.211 63.9626 115.03 66.6086 118.049 68.307C123.205 71.2071 129.188 72.7204 134.078 75.9805" stroke="#FFEF9D" stroke-linecap="round"/>
<path d="M135.613 79.0499C135.133 79.1099 137.915 95.7888 137.915 99.001" stroke="#FFEF9D" stroke-linecap="round"/>
<path d="M136.38 77.5153C139.588 82.327 163.883 108.29 157.099 112.813" stroke="#FFEF9D" stroke-linecap="round"/>
<path d="M157.866 109.744C155.943 109.984 152.505 110.627 150.662 111.62C147.043 113.568 141.624 115.104 137.574 115.84C136.202 116.09 134.707 116.16 134.078 117.417" stroke="#FFEF9D" stroke-linecap="round"/>
<path d="M154.797 114.348C156.248 118.701 160.203 123.21 162.3 127.478C162.906 128.712 163.554 130.559 164.517 131.571C167.849 135.074 210.545 158.624 211.581 156.552" stroke="#FFEF9D" stroke-linecap="round"/>
<path d="M138.682 120.487C139.442 124.475 143.509 127.713 146.356 130.292C148.634 132.355 151.386 136.047 154.029 137.368" stroke="#FFEF9D" stroke-linecap="round"/>
<path d="M157.099 138.903C155.637 138.903 155.767 139.212 157.184 140.011C163.774 143.732 171.189 146.335 178.243 148.964C185.42 151.639 192.981 153.546 200.07 156.382C201.085 156.787 201.572 156.318 202.372 155.785" stroke="#FFEF9D" stroke-linecap="round"/>
<path d="M204.674 156.552C207.476 156.902 207.977 161.781 208.554 163.799C209.668 167.7 213.049 161.989 213.882 161.156" stroke="#FFEF9D" stroke-linecap="round"/>
<path d="M215.417 156.552C221.871 156.552 223.057 166.461 218.487 169C216.324 170.202 214.469 172.241 212.007 172.965C209.998 173.556 210.779 170.758 212.007 170.407C214.86 169.592 216.185 165.407 216.185 162.691" stroke="#FFEF9D" stroke-linecap="round"/>
<path d="M203.14 157.319C203.859 163.79 212.039 164.993 216.952 164.993" stroke="#FFEF9D" stroke-linecap="round"/>
<path d="M42.7639 104.372C41.8955 113.057 36.6039 122.883 33.3 130.846C32.6147 132.498 28.4128 143.197 28.1843 142.74" stroke="#FFEF9D" stroke-linecap="round"/>
<path d="M28.9517 143.507C27.4534 143.882 26.3098 148.767 26.0528 149.902C23.8463 159.647 21.9436 169.481 19.7862 179.189C19.4217 180.829 19.7435 182.88 19.7435 184.56C19.7435 186.45 16.9853 187.237 16.0773 188.781C14.2796 191.837 10.6761 193.711 9.81064 197.605C8.94685 201.492 9.00066 205.433 9.00066 209.499" stroke="#FFEF9D" stroke-linecap="round"/>
<path d="M11.3027 210.266C11.3027 218.35 17.1387 218.36 23.7508 220.413C26.946 221.404 25.0682 220.222 24.1771 218.707C22.9708 216.657 20.6494 214.242 18.9762 212.569" stroke="#FFEF9D" stroke-linecap="round"/>
<path d="M20.5107 208.732C20.5107 206.507 20.5681 204.945 21.6618 202.977C23.1297 200.334 22.2468 199.071 24.7312 201.058C25.5278 201.696 25.8822 205.026 25.8822 206.089C25.8822 208.806 27.2624 208.962 29.2926 209.542C30.9996 210.029 32.3921 210.38 34.323 210.266C36.5977 210.133 33.0097 207.759 32.6178 207.368C31.3674 206.117 29.6409 205.243 28.3547 203.957C25.6654 201.268 27.6893 197.385 23.5801 194.919" stroke="#FFEF9D" stroke-linecap="round"/>
<path d="M24.3477 191.85C27.8257 186.053 30.3316 179.716 33.5558 173.775C36.4355 168.469 39.9061 163.187 42.3377 157.661C43.5672 154.866 43.7196 152.342 44.6824 149.646C46.7571 143.837 51.8553 139.483 55.9795 135.066C60.0841 130.671 64.1782 126.289 68.0439 121.68C68.7412 120.849 72.112 118.122 69.6212 118.952" stroke="#FFEF9D" stroke-linecap="round"/>
<path d="M117.964 54.4948C117.964 55.3757 118.004 54.4439 117.922 54.1538C117.671 53.2786 114.839 53.7275 114.17 53.7275C110.575 53.7275 106.98 53.7275 103.385 53.7275" stroke="#FFEF9D" stroke-linecap="round"/>
<path d="M56.5762 182.642C56.5762 194.043 61.7571 204.318 63.4397 215.254C63.9396 218.504 65.1885 221.318 66.7222 224.079C72.7209 234.876 77.2964 247.201 82.325 258.482C88.9566 273.358 93.8823 288.88 99.7182 304.054C101.098 307.642 103.103 311.532 104.109 315.052C104.964 318.046 107.306 320.716 108.756 323.536C110.897 327.698 112.765 332.604 114.298 337.049C116.179 342.506 117.605 348.154 121.374 352.61C123.738 355.403 124.302 359.212 127.343 361.434C129.995 363.372 131.104 368.531 132.544 371.41" stroke="#FFEF9D" stroke-linecap="round"/>
<path d="M134.846 371.41C135.092 372.147 149.283 360.048 151.727 358.962C154.971 357.52 165.83 359.318 167.074 356.83" stroke="#FFEF9D" stroke-linecap="round"/>
<path d="M119.499 201.826C121.077 205.86 122.161 213.802 125.041 217.002C125.402 217.404 126.388 214.372 126.405 213.933C126.502 211.42 125.638 203.916 125.638 206.43" stroke="#FFEF9D" stroke-linecap="round"/>
<path d="M125.637 214.871C134.529 227.974 139.837 241.795 144.992 256.819C145.54 258.417 146.083 262.074 147.507 263.213C147.967 263.581 148.622 264.141 148.658 264.748C149.012 270.774 154.423 277.115 156.331 282.994C159.817 293.732 164.834 304.82 172.019 313.517C177.286 319.893 180.495 327.999 182.848 335.728C183.87 339.089 184.183 341.502 185.874 344.51C186.902 346.336 187.025 352.787 187.025 350.691" stroke="#FFEF9D" stroke-linecap="round"/>
<path d="M141.752 367.573C143.23 369.619 145.023 374.964 147.123 376.014" stroke="#FFEF9D" stroke-linecap="round"/>
<path d="M157.099 359.132C162.254 362.568 164.361 368.697 168.609 372.944" stroke="#FFEF9D" stroke-linecap="round"/>
<path d="M150.96 378.316C153.86 375.851 158.292 374.479 161.703 372.774C164.01 371.62 166.905 372.234 169.376 371.41" stroke="#FFEF9D" stroke-linecap="round"/>
<path d="M170.144 370.642C173.153 370.642 176.179 370.715 179.181 370.472C184.992 370.002 190.772 367.573 196.575 367.573C198.095 367.573 199.632 367.217 200.667 368.511C202.072 370.267 192.269 373.712 190.862 373.712" stroke="#FFEF9D" stroke-linecap="round"/>
<path d="M147.891 377.548C152.451 378.055 153.311 385.979 156.715 388.249C159.902 390.373 164.108 390.593 167.842 390.593" stroke="#FFEF9D" stroke-linecap="round"/>
<path d="M165.54 388.291C163.108 388.291 159.715 387.807 163.579 385.989C176.601 379.861 191.749 376.48 205.442 372.177" stroke="#FFEF9D" stroke-linecap="round"/>
<path d="M162.47 389.826C171.193 386.903 184.905 383.956 190.862 376.014" stroke="#FFEF9D" stroke-linecap="round"/>
<path d="M135.946 188.781C135.819 200.164 133.979 212.631 132.544 223.311" stroke="#FFEF9D" stroke-linecap="round"/>
<path d="M97.2457 287.001C88.6867 295.231 80.9282 304.047 73.2022 313.091C66.4435 321.003 59.8913 329.073 53.4216 337.22C52.5618 338.303 51.5357 339.125 50.4375 339.948" stroke="#FFEF9D" stroke-linecap="round"/>
<path d="M48.1354 339.181C42.7338 339.181 38.3543 337.31 33.1295 336.282C28.9548 335.461 25.115 335.848 25.115 330.996C25.115 328.864 25.115 326.733 25.115 324.601" stroke="#FFEF9D" stroke-linecap="round"/>
<path d="M26.6497 321.532C33.7364 310.143 39.3337 298.141 44.9808 285.978C46.6113 282.466 50.2415 279.438 51.2474 275.917C51.7101 274.298 53.6742 270.379 54.871 269.182C61.9437 262.109 64.4504 251.602 67.7028 242.495C68.78 239.479 68.5273 236.079 70.3885 233.287" stroke="#FFEF9D" stroke-linecap="round"/>
<path d="M26.6497 333.042C26.2331 333.094 23.587 338.981 22.813 339.948" stroke="#FFEF9D" stroke-linecap="round"/>
<path d="M39.6946 336.879C37.6127 337.139 32.2178 342.232 30.5716 344.084C29.718 345.044 25.7988 348.64 26.6496 346.087" stroke="#FFEF9D" stroke-linecap="round"/>
<path d="M22.0454 339.948C22.6404 345.304 26.0738 346.918 30.4862 348.389" stroke="#FFEF9D" stroke-linecap="round"/>
<path d="M21.2782 337.646C17.6472 337.646 13.0285 343.083 10.919 345.661C9.33606 347.596 9.68645 352.226 12.8374 352.226C16.745 352.226 19.8222 355.272 22.9408 357.299C26.8219 359.822 30.5141 362.244 34.5789 364.461C35.5423 364.986 36.9431 365.907 37.3925 366.806" stroke="#FFEF9D" stroke-linecap="round"/>
<path d="M39.6945 366.806C44.5946 366.806 65.0459 370.678 57.3435 361.05C55.5221 358.774 51.4322 357.941 48.7321 357.427C42.5208 356.244 38.5685 351.083 32.7883 349.156" stroke="#FFEF9D" stroke-linecap="round"/>
<path d="M131.993 136.071C131.993 139.402 131.993 142.733 131.993 146.064C131.993 157.079 130.865 169.398 133.484 180.182C133.863 181.744 134.93 185.769 132.987 186.255" stroke="#FFEF9D" stroke-linecap="round"/>
</svg>
