<svg width="73" height="73" viewBox="0 0 73 73" fill="none" xmlns="http://www.w3.org/2000/svg">
<path fill-rule="evenodd" clip-rule="evenodd" d="M36.6709 16.2585C37.4993 16.2585 38.1709 16.9301 38.1709 17.7585V40.4899C38.1709 41.3184 37.4993 41.9899 36.6709 41.9899C35.8425 41.9899 35.1709 41.3184 35.1709 40.4899V17.7585C35.1709 16.9301 35.8425 16.2585 36.6709 16.2585Z" fill="#A3D9FF"/>
<path fill-rule="evenodd" clip-rule="evenodd" d="M36.9187 17.806C35.7736 19.3149 33.4801 22.16 31.7355 24.267C30.8579 25.3269 30.0931 26.2318 29.6783 26.688C29.5793 26.7968 29.4696 26.9144 29.3727 27.0051C29.372 27.0057 29.3711 27.0066 29.3699 27.0077C29.3458 27.0307 29.2064 27.1634 29.0192 27.2669C28.9611 27.299 28.8261 27.3697 28.6401 27.4149C28.4847 27.4526 28.026 27.5382 27.538 27.2596C26.9795 26.9407 26.8236 26.4104 26.7903 26.1304C26.7596 25.8726 26.8041 25.6706 26.8222 25.5953C26.883 25.3429 27.007 25.1418 27.0154 25.1281C27.0156 25.1277 27.0158 25.1275 27.0158 25.1274C27.0553 25.0598 27.0994 24.9916 27.1402 24.9304C27.2238 24.8052 27.337 24.6452 27.4765 24.4534C28.1888 23.4741 28.5134 22.2632 28.923 20.7L28.933 20.6618C29.3132 19.2104 29.7795 17.431 30.9376 15.9321C31.2013 15.591 31.3713 15.3489 31.5421 15.1056C31.6654 14.9302 31.7891 14.7541 31.9485 14.5399C32.2268 14.166 32.6594 13.6117 33.3047 13.3012C34.0802 12.928 34.8569 13.0271 35.5345 13.2969C36.1559 13.5442 36.8267 13.9847 37.5659 14.5343C40.92 17.0284 44.2642 19.8482 46.9347 23.1863C47.4522 23.8332 47.3473 24.7771 46.7004 25.2947C46.0536 25.8122 45.1096 25.7073 44.5921 25.0604C42.4414 22.3721 39.7664 19.9987 36.9187 17.806Z" fill="#A3D9FF"/>
<path fill-rule="evenodd" clip-rule="evenodd" d="M22.6683 20.9075C23.44 21.2086 23.8215 22.0784 23.5204 22.8502C21.9481 26.8791 21.4982 31.3242 21.4615 35.9778C21.4432 38.3014 21.5275 40.6487 21.618 43.0094C21.6231 43.1437 21.6283 43.2781 21.6334 43.4125C21.7068 45.3204 21.7806 47.238 21.7997 49.1244C22.2166 49.1359 22.7907 49.1093 23.5223 49.0348C25.4768 48.8356 28.1619 48.339 30.996 47.7295C36.6447 46.5146 42.6744 44.8983 44.1605 44.4973C45.7565 44.0666 47.3075 43.9521 48.7335 43.8794C48.9687 43.8674 49.1994 43.8566 49.4262 43.8459C50.6137 43.79 51.697 43.739 52.7911 43.5566C52.8212 43.5516 52.8269 43.5472 52.842 43.5336C52.8699 43.5085 52.9369 43.4342 53.0163 43.2591C53.1862 42.8846 53.3065 42.2935 53.3643 41.5036C53.4205 40.736 53.4104 39.9114 53.3946 39.1187C53.3931 39.0469 53.3916 38.9742 53.3901 38.9009C53.3759 38.2302 53.3608 37.5135 53.4149 36.999C53.5062 36.132 53.7327 34.9987 53.9649 33.8366C54.0179 33.5714 54.0712 33.3047 54.1233 33.0394C54.415 31.5522 54.6893 30.0139 54.7817 28.6197C54.877 27.1813 54.7587 26.128 54.4538 25.4869C54.3168 25.1988 54.1598 25.0319 53.9908 24.9269C53.8193 24.8204 53.533 24.7141 53.0377 24.7141C52.2093 24.7141 51.5377 24.0425 51.5377 23.2141C51.5377 22.3857 52.2093 21.7141 53.0377 21.7141C53.977 21.7141 54.8378 21.9213 55.574 22.3787C56.3126 22.8376 56.8237 23.4851 57.163 24.1985C57.8109 25.5606 57.8784 27.2596 57.7751 28.8181C57.6689 30.4206 57.3602 32.1234 57.0672 33.6169C57.0074 33.9218 56.9489 34.2152 56.8927 34.4966C56.6632 35.6477 56.4737 36.5978 56.3985 37.313C56.3653 37.6282 56.3758 38.1525 56.3915 38.9335L56.394 39.0589C56.4097 39.8464 56.4239 40.7991 56.3563 41.7225C56.2904 42.6238 56.1389 43.6377 55.7483 44.4987C55.3388 45.401 54.5768 46.3004 53.2843 46.5158C51.9991 46.73 50.7118 46.7898 49.526 46.8449C49.3091 46.8549 49.0956 46.8649 48.8862 46.8755C47.4909 46.9466 46.2103 47.0515 44.9421 47.3937C43.4507 47.7961 37.357 49.4301 31.6267 50.6624C28.7712 51.2765 25.9529 51.8027 23.8264 52.0193C22.7816 52.1258 21.8008 52.1693 21.0387 52.0744C20.6723 52.0287 20.2079 51.9351 19.7938 51.6959C19.3207 51.4226 18.8045 50.8743 18.8045 50.0371C18.8045 47.9185 18.7208 45.7429 18.635 43.5113C18.6301 43.3825 18.6251 43.2535 18.6202 43.1243C18.5299 40.7686 18.4427 38.3562 18.4616 35.9542C18.4994 31.1566 18.9587 26.2872 20.7256 21.7595C21.0268 20.9878 21.8966 20.6063 22.6683 20.9075Z" fill="#A3D9FF"/>
</svg>
