<svg width="940" height="1117" viewBox="0 0 940 1117" fill="none" xmlns="http://www.w3.org/2000/svg">
<g clip-path="url(#clip0_1022_1211)">
<path d="M1065.32 886.474C1065.32 985.912 966.203 1066.52 843.937 1066.52C721.671 1066.52 647.001 985.912 647.001 886.474C647.001 787.035 721.671 706.424 843.937 706.424C966.203 706.424 1065.32 787.035 1065.32 886.474Z" fill="#B5E2F1"/>
<path d="M360.181 788.153C360.181 833.567 337.096 897.41 298.435 950.153C259.635 1003.09 208.46 1040.49 154.799 1040.49C97.2701 1040.49 52.1727 1021.59 21.5604 992.212C-9.06888 962.817 -26.1367 922.055 -26.1367 876.441C-26.1367 829.976 -8.45256 765.785 24.0729 713.425C56.7461 660.827 101.723 624.103 154.799 624.103C271.477 624.103 360.181 700.482 360.181 788.153Z" stroke="#B5E2F1" stroke-width="32"/>
<path d="M772.847 40.3899C733.686 63.3866 666.944 75.8093 601.886 69.1798C536.594 62.5263 478.425 37.3394 451.252 -8.93297C422.12 -58.5409 415.582 -107 425.414 -148.274C435.251 -189.571 461.757 -224.93 501.091 -248.028C541.158 -271.557 605.465 -288.813 667.086 -287.28C728.986 -285.74 783.429 -265.553 810.306 -219.785C869.39 -119.173 848.446 -4.00533 772.847 40.3899Z" stroke="#B5E2F1" stroke-width="32"/>
<path d="M-52.9885 166.984C-52.9885 166.984 144.435 115.268 173.583 135.531C202.731 155.794 237.224 331.299 203.932 354.153C170.641 377.006 -22.639 385.606 -22.639 385.606L-52.9885 166.984Z" fill="#B5E2F1"/>
<path d="M532.671 940.961C538.513 924.895 562.174 887.798 610.079 867.935C669.96 843.106 709.394 921.974 709.394 965.789" stroke="#9AD0E1" stroke-width="32" stroke-linecap="round"/>
<path d="M774.985 517.958C770.086 509.058 757.224 470.173 782.624 437.668C808.025 405.163 820.351 440.01 889.261 399.337C958.171 358.664 957.308 272.773 957.308 272.773" stroke="#9AD0E1" stroke-width="16" stroke-linecap="round"/>
<path d="M180.765 144.428C180.765 169.635 155.641 190.069 124.648 190.069C93.6554 190.069 74.7275 169.635 74.7275 144.428C74.7275 119.222 93.6554 98.7883 124.648 98.7883C155.641 98.7883 180.765 119.222 180.765 144.428Z" fill="#9AD0E1"/>
</g>
<defs>
<clipPath id="clip0_1022_1211">
<rect width="940" height="1117" fill="white"/>
</clipPath>
</defs>
</svg>
