<svg width="1728" height="1117" viewBox="0 0 1728 1117" fill="none" xmlns="http://www.w3.org/2000/svg">
<g clip-path="url(#clip0_1022_1201)">
<path d="M2040.52 245.394C1751.4 132.856 1126.03 83.7431 849.488 73.2537L1302.34 647.265L1899.91 655.588C2067.24 565.748 2329.63 357.932 2040.52 245.394Z" fill="url(#paint0_linear_1022_1201)"/>
<path d="M1108.82 719.607C815.178 898.845 552.871 1114.01 657.412 1223.78C761.954 1333.54 1495.62 1174.36 1662.89 1166.52C1830.16 1158.68 1911.18 719.607 1866.75 575.861C1822.32 432.116 1886.11 471.086 1724.06 486.767C1562.02 502.449 1402.46 540.368 1108.82 719.607Z" fill="url(#paint1_linear_1022_1201)"/>
<path d="M2062.56 53.5501C1653.27 219.366 1197.63 414.741 1020.97 491.702C357.708 772.654 -54.7324 486.327 -178.045 308.045L-256.755 -177.332L1850.05 -214.063C2091.42 -193.949 2471.85 -112.265 2062.56 53.5501Z" fill="url(#paint2_linear_1022_1201)"/>
<path d="M1296.92 410.658C905.502 92.2648 120.192 -122.828 120.192 -122.828H-129.959L-181.011 1189.19H1626.2V732.281C1626.2 732.281 1436.37 524.088 1296.92 410.658Z" fill="url(#paint3_linear_1022_1201)"/>
</g>
<defs>
<linearGradient id="paint0_linear_1022_1201" x1="1710.74" y1="508.953" x2="1870.1" y2="192.824" gradientUnits="userSpaceOnUse">
<stop stop-color="#304C37"/>
<stop offset="1" stop-color="#395B42" stop-opacity="0"/>
</linearGradient>
<linearGradient id="paint1_linear_1022_1201" x1="1022.71" y1="469.932" x2="963.997" y2="1094.58" gradientUnits="userSpaceOnUse">
<stop stop-color="#304C37"/>
<stop offset="1" stop-color="#395B42" stop-opacity="0"/>
</linearGradient>
<linearGradient id="paint2_linear_1022_1201" x1="1217.74" y1="368.39" x2="391.075" y2="663.987" gradientUnits="userSpaceOnUse">
<stop stop-color="#304C37"/>
<stop offset="1" stop-color="#395B42" stop-opacity="0"/>
</linearGradient>
<linearGradient id="paint3_linear_1022_1201" x1="566.89" y1="-283.639" x2="907.157" y2="308.764" gradientUnits="userSpaceOnUse">
<stop stop-color="#304C37"/>
<stop offset="1" stop-color="#395B42" stop-opacity="0"/>
</linearGradient>
<clipPath id="clip0_1022_1201">
<rect width="1728" height="1117" fill="white"/>
</clipPath>
</defs>
</svg>
