<svg width="800" height="1201" viewBox="0 0 800 1201" fill="none" xmlns="http://www.w3.org/2000/svg">
<g clip-path="url(#clip0_225_5219)">
<rect width="800" height="1201" fill="url(#paint0_linear_225_5219)"/>
<path d="M411.269 -24.9053C338.739 -14.7847 273.071 14.3077 209.535 49.8824C162.343 76.3059 115.313 105.156 73.3545 139.486" stroke="#FFEEA2" stroke-width="3" stroke-linecap="round"/>
<path d="M493.464 -26.7319C487.898 -26.7319 476.498 -18.5578 473.981 -16.9903C292.125 96.2469 116.379 219.787 -61.8113 338.581" stroke="#FFEEA2" stroke-width="3" stroke-linecap="round"/>
<path d="M597.579 -26.7319C602.246 -25.7984 590.267 -20.6327 586.518 -17.7006C518.542 35.4557 453.117 91.8482 388.336 148.821C273.3 249.991 162.977 356.619 45.9561 455.481" stroke="#FFEEA2" stroke-width="3" stroke-linecap="round"/>
<path d="M565.579 -26.7319C570.246 -25.7984 558.267 -20.6327 554.518 -17.7006C486.542 35.4557 421.117 91.8482 356.336 148.821C241.3 249.991 130.977 356.619 13.9561 455.481" stroke="#FFEEA2" stroke-width="3" stroke-linecap="round"/>
<path d="M697.597 0C703.753 1.90293 687.953 12.4334 683.007 18.4106C593.347 126.771 507.05 241.728 421.603 357.868C269.869 564.105 124.351 781.468 -30 983" stroke="#FFEEA2" stroke-width="3" stroke-linecap="round"/>
<path d="M783.393 -101C790.444 -98.7157 772.347 -86.0749 766.682 -78.8998C663.984 51.1762 565.14 189.172 467.268 328.588C293.471 576.156 126.795 837.079 -50 1079" stroke="#FFEEA2" stroke-width="3" stroke-linecap="round"/>
<path d="M791.393 -74C798.444 -71.7157 780.347 -59.0749 774.682 -51.8998C671.984 78.1762 573.14 216.172 475.268 355.588C301.471 603.156 134.795 864.079 -42 1106" stroke="#FFEEA2" stroke-width="3" stroke-linecap="round"/>
<path d="M799.393 -47C806.444 -44.7157 788.347 -32.0749 782.682 -24.8998C679.984 105.176 581.14 243.172 483.268 382.588C309.471 630.156 142.795 891.079 -34 1133" stroke="#FFEEA2" stroke-width="3" stroke-linecap="round"/>
<path d="M807.393 -20C814.444 -17.7157 796.347 -5.07486 790.682 2.10017C687.984 132.176 589.14 270.172 491.268 409.588C317.471 657.156 150.795 918.079 -26 1160" stroke="#FFEEA2" stroke-width="3" stroke-linecap="round"/>
<path d="M815.393 7C822.444 9.2843 804.347 21.9251 798.682 29.1002C695.984 159.176 597.14 297.172 499.268 436.588C325.471 684.156 158.795 945.079 -18 1187" stroke="#FFEEA2" stroke-width="3" stroke-linecap="round"/>
<path d="M823.393 34C830.444 36.2843 812.347 48.9251 806.682 56.1002C703.984 186.176 605.14 324.172 507.268 463.588C333.471 711.156 166.795 972.079 -10 1214" stroke="#FFEEA2" stroke-width="3" stroke-linecap="round"/>
<path d="M831.393 61C838.444 63.2843 820.347 75.9251 814.682 83.1002C711.984 213.176 613.14 351.172 515.268 490.588C341.471 738.156 174.795 999.079 -2 1241" stroke="#FFEEA2" stroke-width="3" stroke-linecap="round"/>
<path d="M839.393 88C846.444 90.2843 828.347 102.925 822.682 110.1C719.984 240.176 621.14 378.172 523.268 517.588C349.471 765.156 182.795 1026.08 6 1268" stroke="#FFEEA2" stroke-width="3" stroke-linecap="round"/>
<path d="M847.393 115C854.444 117.284 836.347 129.925 830.682 137.1C727.984 267.176 629.14 405.172 531.268 544.588C357.471 792.156 190.795 1053.08 14 1295" stroke="#FFEEA2" stroke-width="3" stroke-linecap="round"/>
<path d="M855.539 142C861.949 144.18 845.498 156.242 840.349 163.089C746.999 287.212 657.151 418.892 568.187 551.928C410.209 788.168 258.703 1037.15 98 1268" stroke="#FFEEA2" stroke-width="3" stroke-linecap="round"/>
<path d="M891.581 88C897.805 90.232 881.832 102.584 876.832 109.594C786.187 236.694 698.944 371.532 612.558 507.758C459.16 749.662 312.045 1004.61 156 1241" stroke="#FFEEA2" stroke-width="3" stroke-linecap="round"/>
<path d="M949.543 34C955.936 36.3114 939.529 49.1022 934.393 56.3624C841.289 187.982 751.677 327.614 662.948 468.684C505.386 719.19 354.28 983.209 194 1228" stroke="#FFEEA2" stroke-width="3" stroke-linecap="round"/>
<path d="M987.593 -20C993.766 -17.5337 977.923 -3.88591 972.963 3.86069C883.057 144.299 796.523 293.287 710.842 443.809C558.692 711.099 412.775 992.808 258 1254" stroke="#FFEEA2" stroke-width="3" stroke-linecap="round"/>
<path d="M951.71 -6C957.369 -3.45437 942.847 10.6327 938.302 18.6286C855.898 163.586 776.585 317.369 698.053 472.735C558.6 748.627 424.859 1039.4 283 1309" stroke="#FFEEA2" stroke-width="3" stroke-linecap="round"/>
<path d="M976.71 8C982.369 10.5456 967.847 24.6327 963.302 32.6286C880.898 177.586 801.585 331.369 723.053 486.735C583.6 762.627 449.859 1053.4 308 1323" stroke="#FFEEA2" stroke-width="3" stroke-linecap="round"/>
<path d="M1001.71 22C1007.37 24.5456 992.847 38.6327 988.302 46.6286C905.898 191.586 826.585 345.369 748.053 500.735C608.6 776.627 474.859 1067.4 333 1337" stroke="#FFEEA2" stroke-width="3" stroke-linecap="round"/>
<path d="M1001.76 22C1007.21 24.6192 993.226 39.1133 988.85 47.3403C909.521 196.487 833.168 354.714 757.566 514.569C623.316 798.434 494.566 1097.61 358 1375" stroke="#FFEEA2" stroke-width="3" stroke-linecap="round"/>
<path d="M1026.82 22C1032 24.6192 1018.71 39.1133 1014.55 47.3403C939.159 196.487 866.594 354.714 794.743 514.569C667.153 798.434 544.791 1097.61 415 1375" stroke="#FFEEA2" stroke-width="3" stroke-linecap="round"/>
<path d="M1083.82 22C1089 24.6192 1075.71 39.1133 1071.55 47.3403C996.159 196.487 923.594 354.714 851.743 514.569C724.153 798.434 601.791 1097.61 472 1375" stroke="#FFEEA2" stroke-width="3" stroke-linecap="round"/>
<path d="M533.579 -26.7319C538.246 -25.7984 526.267 -20.6327 522.518 -17.7006C454.542 35.4557 389.117 91.8482 324.336 148.821C209.3 249.991 98.9766 356.619 -18.0439 455.481" stroke="#FFEEA2" stroke-width="3" stroke-linecap="round"/>
<path d="M501.579 -26.7319C506.246 -25.7984 494.267 -20.6327 490.518 -17.7006C422.542 35.4557 357.117 91.8482 292.336 148.821C177.3 249.991 66.9766 356.619 -50.0439 455.481" stroke="#FFEEA2" stroke-width="3" stroke-linecap="round"/>
<path d="M469.579 -26.7319C474.246 -25.7984 462.267 -20.6327 458.518 -17.7006C390.542 35.4557 325.117 91.8482 260.336 148.821C145.3 249.991 34.9766 356.619 -82.0439 455.481" stroke="#FFEEA2" stroke-width="3" stroke-linecap="round"/>
<path d="M437.579 -26.7319C442.246 -25.7984 430.267 -20.6327 426.518 -17.7006C358.542 35.4557 293.117 91.8482 228.336 148.821C113.3 249.991 2.97661 356.619 -114.044 455.481" stroke="#FFEEA2" stroke-width="3" stroke-linecap="round"/>
<path d="M405.579 -26.7319C410.246 -25.7984 398.267 -20.6327 394.518 -17.7006C326.542 35.4557 261.117 91.8482 196.336 148.821C81.2996 249.991 -29.0234 356.619 -146.044 455.481" stroke="#FFEEA2" stroke-width="3" stroke-linecap="round"/>
<path d="M373.579 -26.7319C378.246 -25.7984 366.267 -20.6327 362.518 -17.7006C294.542 35.4557 229.117 91.8482 164.336 148.821C49.2996 249.991 -61.0234 356.619 -178.044 455.481" stroke="#FFEEA2" stroke-width="3" stroke-linecap="round"/>
<path d="M341.579 -26.7319C346.246 -25.7984 334.267 -20.6327 330.518 -17.7006C262.542 35.4557 197.117 91.8482 132.336 148.821C17.2996 249.991 -93.0234 356.619 -210.044 455.481" stroke="#FFEEA2" stroke-width="3" stroke-linecap="round"/>
<path d="M309.579 -26.7319C314.246 -25.7984 302.267 -20.6327 298.518 -17.7006C230.542 35.4557 165.117 91.8482 100.336 148.821C-14.7004 249.991 -125.023 356.619 -242.044 455.481" stroke="#FFEEA2" stroke-width="3" stroke-linecap="round"/>
<path d="M277.579 -26.7319C282.246 -25.7984 270.267 -20.6327 266.518 -17.7006C198.542 35.4557 133.117 91.8482 68.3355 148.821C-46.7004 249.991 -157.023 356.619 -274.044 455.481" stroke="#FFEEA2" stroke-width="3" stroke-linecap="round"/>
<path d="M245.579 -26.7319C250.246 -25.7984 238.267 -20.6327 234.518 -17.7006C166.542 35.4557 101.117 91.8482 36.3355 148.821C-78.7004 249.991 -189.023 356.619 -306.044 455.481" stroke="#FFEEA2" stroke-width="3" stroke-linecap="round"/>
<path d="M213.579 -26.7319C218.246 -25.7984 206.267 -20.6327 202.518 -17.7006C134.542 35.4557 69.1169 91.8482 4.33551 148.821C-110.7 249.991 -221.023 356.619 -338.044 455.481" stroke="#FFEEA2" stroke-width="3" stroke-linecap="round"/>
<path d="M181.579 -26.7319C186.246 -25.7984 174.267 -20.6327 170.518 -17.7006C102.542 35.4557 37.1169 91.8482 -27.6645 148.821C-142.7 249.991 -253.023 356.619 -370.044 455.481" stroke="#FFEEA2" stroke-width="3" stroke-linecap="round"/>
<path d="M157.579 -26.7319C162.246 -25.7984 150.267 -20.6327 146.518 -17.7006C78.5423 35.4557 13.1169 91.8482 -51.6645 148.821C-166.7 249.991 -277.023 356.619 -394.044 455.481" stroke="#FFEEA2" stroke-width="3" stroke-linecap="round"/>
<path d="M133.579 -26.7319C138.246 -25.7984 126.267 -20.6327 122.518 -17.7006C54.5423 35.4557 -10.8831 91.8482 -75.6645 148.821C-190.7 249.991 -301.023 356.619 -418.044 455.481" stroke="#FFEEA2" stroke-width="3" stroke-linecap="round"/>
<path d="M109.579 -26.7319C114.246 -25.7984 102.267 -20.6327 98.5178 -17.7006C30.5423 35.4557 -34.8831 91.8482 -99.6645 148.821C-214.7 249.991 -325.023 356.619 -442.044 455.481" stroke="#FFEEA2" stroke-width="3" stroke-linecap="round"/>
<path d="M85.5787 -26.7319C90.2461 -25.7984 78.2674 -20.6327 74.5178 -17.7006C6.54227 35.4557 -58.8831 91.8482 -123.664 148.821C-238.7 249.991 -349.023 356.619 -466.044 455.481" stroke="#FFEEA2" stroke-width="3" stroke-linecap="round"/>
<path d="M61.5787 -26.7319C66.2461 -25.7984 54.2674 -20.6327 50.5178 -17.7006C-17.4577 35.4557 -82.8831 91.8482 -147.664 148.821C-262.7 249.991 -373.023 356.619 -490.044 455.481" stroke="#FFEEA2" stroke-width="3" stroke-linecap="round"/>
<path d="M37.5787 -26.7319C42.2461 -25.7984 30.2674 -20.6327 26.5178 -17.7006C-41.4577 35.4557 -106.883 91.8482 -171.664 148.821C-286.7 249.991 -397.023 356.619 -514.044 455.481" stroke="#FFEEA2" stroke-width="3" stroke-linecap="round"/>
<path d="M650.549 -37.6914C608.626 3.93689 568.615 47.6822 528.271 90.777C357.971 272.688 189.655 456.632 15.7163 635.093C-49.3245 701.825 -117.722 779.376 -202.051 823.432C-245.674 846.223 -290.199 848.193 -337.623 848.193" stroke="#FFEEA2" stroke-width="3" stroke-linecap="round"/>
<path d="M626.549 -37.6914C584.626 3.93689 544.615 47.6822 504.271 90.777C333.971 272.688 165.655 456.632 -8.28372 635.093C-73.3245 701.825 -141.722 779.376 -226.051 823.432C-269.674 846.223 -314.199 848.193 -361.623 848.193" stroke="#FFEEA2" stroke-width="3" stroke-linecap="round"/>
<path d="M602.549 -37.6914C560.626 3.93689 520.615 47.6822 480.271 90.777C309.971 272.688 141.655 456.632 -32.2837 635.093C-97.3245 701.825 -165.722 779.376 -250.051 823.432C-293.674 846.223 -338.199 848.193 -385.623 848.193" stroke="#FFEEA2" stroke-width="3" stroke-linecap="round"/>
<path d="M578.549 -37.6914C536.626 3.93689 496.615 47.6822 456.271 90.777C285.971 272.688 117.655 456.632 -56.2837 635.093C-121.325 701.825 -189.722 779.376 -274.051 823.432C-317.674 846.223 -362.199 848.193 -409.623 848.193" stroke="#FFEEA2" stroke-width="3" stroke-linecap="round"/>
<path d="M245.814 158.48C204.507 225.51 -18.5893 1310.25 -64.5959 1532.97L440.498 1520.2C492.098 1347.48 719.777 349.645 734.671 230.225C753.287 80.9486 782.831 108.635 672.331 93.3171C561.832 77.9993 297.449 74.6919 245.814 158.48Z" fill="#56725D"/>
<path d="M78.6906 785.968C75.8344 697.228 114.105 603.639 138.795 520.226C170.654 412.593 201.131 304.081 236.454 197.506C246.439 167.381 261.06 124.735 288.435 104.52C311.734 87.3143 356.684 93.6841 382.239 91.9677C422.323 89.2755 464.759 89.6798 504.442 83.6171C518.753 81.4306 536.494 81.6206 550.989 84.3341C566.148 87.1719 580.239 79.7499 595.785 84.0731C600.994 85.5216 617.587 90.0899 621.474 83.3511C627.471 72.9526 717.891 85.5696 720.487 102.562C722.019 112.592 724.715 123.415 722.728 133.534C706.102 218.177 685.477 301.967 669.616 386.82C655.252 463.669 515.256 1139.11 504.442 1216.5" stroke="#26352A" stroke-width="6" stroke-linecap="round"/>
<path d="M360.564 131.301C356.407 144.405 386.313 148.668 401.785 149.162C422.138 149.689 470.46 150.203 500.924 148.043C539.003 145.342 555.84 139.653 550.845 117.036C545.85 94.4203 458.756 103.83 417.668 106.99C376.579 110.151 365.76 114.921 360.564 131.301Z" fill="#26352A"/>
<path d="M45.5506 680.814L-108 1225.5C-129.643 1303.52 221.272 1259.18 399.435 1227.27C426.086 1106.55 518.505 727.293 527.621 671.938C539.016 602.744 237.421 617.94 145.604 631.054C72.1503 641.545 48.2961 668.599 45.5506 680.814Z" fill="#F67251"/>
<path d="M-70.8416 1044.45C-71.4481 1037.29 -69.9151 1031.21 -68.3412 1023.82C-58.7909 978.966 -46.7701 934.407 -34.3927 890.056C-17.8546 830.797 3.82286 772.264 14.3011 711.93C18.0474 690.359 13.2173 659.043 35.1575 646.002C60.0362 631.214 92.2539 624.384 121.67 622.277C194.428 617.065 266.751 625.902 339.203 621.451C348.268 620.894 362.014 618.788 370.886 620.299C401.181 625.458 435.514 622.326 466.506 625.544C488.404 627.817 495.894 629.936 511.628 640.813C523.179 648.798 506.508 696.984 504.561 706.859C490.951 775.906 476.818 844.267 452.986 911.344C444.272 935.868 435.854 958.979 428.93 983.057C423.625 1001.5 424.236 1019.49 419.105 1037.33" stroke="#26352A" stroke-width="6" stroke-linecap="round"/>
<path d="M171.297 661.409C198.565 657.243 225.795 653.319 253.455 654.931C272.254 656.027 290.332 661.17 308.873 662.817" stroke="#26352A" stroke-width="6" stroke-linecap="round"/>
<path d="M371.727 553.543L304.922 733.506L400.883 744.384L464.762 564.868L520.344 556.376L466.118 441.475L327.461 543.03L371.727 553.543Z" fill="url(#paint1_linear_225_5219)"/>
<path d="M74.0456 747.443C65.9724 741.388 56.9181 758.087 55.1114 763.307C53.221 768.768 52.7073 772.997 55.282 778.147C59.8903 787.363 70.3048 788.838 79.163 783.179C88.7712 777.04 100.59 774.595 94.6856 761.942C91.2506 754.581 85.7591 752.882 78.6512 750.513" stroke="#26352A" stroke-width="8" stroke-linecap="round"/>
<path d="M34.5258 863.07C26.4526 857.016 17.3983 873.715 15.5916 878.934C13.7012 884.396 13.1875 888.625 15.7622 893.775C20.3705 902.991 30.785 904.466 39.6431 898.807C49.2514 892.668 61.0706 890.223 55.1657 877.57C51.7307 870.209 46.2393 868.51 39.1314 866.141" stroke="#26352A" stroke-width="8" stroke-linecap="round"/>
<path d="M2.52578 986.07C-5.54742 980.016 -14.6017 996.715 -16.4084 1001.93C-18.2988 1007.4 -18.8125 1011.63 -16.2378 1016.77C-11.6295 1025.99 -1.21501 1027.47 7.64313 1021.81C17.2514 1015.67 29.0706 1013.22 23.1657 1000.57C19.7307 993.209 14.2393 991.51 7.1314 989.141" stroke="#26352A" stroke-width="8" stroke-linecap="round"/>
<path d="M130.848 753.584C182.251 753.584 233.648 755.798 285.051 754.436C330.964 753.22 376.818 750.452 422.537 746.078C427.662 745.588 443.038 744.372 437.889 744.372" stroke="#26352A" stroke-width="8" stroke-linecap="round"/>
<path d="M91 869.644C138.385 869.644 185.764 871.962 233.15 870.537C275.474 869.263 317.744 866.365 359.889 861.786C364.614 861.272 378.788 860 374.041 860" stroke="#26352A" stroke-width="8" stroke-linecap="round"/>
<path d="M59 992.644C91.8692 992.644 124.734 994.962 157.604 993.537C186.963 992.263 216.284 989.365 245.518 984.786C248.796 984.272 258.627 983 255.335 983" stroke="#26352A" stroke-width="8" stroke-linecap="round"/>
<path d="M120.102 770.471C127.933 768.15 136.817 768.981 144.836 768.935C181.797 768.725 218.752 768.218 255.711 767.741C268.805 767.572 282.16 766.948 295.286 767.4C295.77 767.417 295.299 768.568 295.115 768.935" stroke="#26352A" stroke-width="8" stroke-linecap="round"/>
<path d="M81 886C92.2516 883.846 105.016 884.617 116.536 884.575C169.641 884.379 222.736 883.909 275.837 883.467C294.649 883.31 313.837 882.73 332.695 883.15C333.391 883.165 332.714 884.234 332.45 884.575" stroke="#26352A" stroke-width="8" stroke-linecap="round"/>
<path d="M74 913C80.9653 910.846 88.8668 911.617 95.9987 911.575C128.873 911.379 161.741 910.909 194.613 910.467C206.259 910.31 218.137 909.73 229.811 910.15C230.242 910.165 229.823 911.234 229.66 911.575" stroke="#FFAE8D" stroke-width="4" stroke-linecap="round"/>
<path d="M49 1009C59.9837 1006.85 72.4438 1007.62 83.6902 1007.57C135.53 1007.38 187.362 1006.91 239.198 1006.47C257.562 1006.31 276.294 1005.73 294.702 1006.15C295.382 1006.17 294.721 1007.23 294.463 1007.57" stroke="#26352A" stroke-width="8" stroke-linecap="round"/>
</g>
<defs>
<linearGradient id="paint0_linear_225_5219" x1="2.61388e-05" y1="-226.188" x2="931.912" y2="603.687" gradientUnits="userSpaceOnUse">
<stop stop-color="#617E69"/>
<stop offset="1" stop-color="#617E69" stop-opacity="0"/>
</linearGradient>
<linearGradient id="paint1_linear_225_5219" x1="405.963" y1="596.385" x2="373.354" y2="713.149" gradientUnits="userSpaceOnUse">
<stop stop-color="#FFEEA2"/>
<stop offset="1" stop-color="#FFEEA2" stop-opacity="0"/>
</linearGradient>
<clipPath id="clip0_225_5219">
<rect width="800" height="1201" fill="white"/>
</clipPath>
</defs>
</svg>
