<svg width="73" height="73" viewBox="0 0 73 73" fill="none" xmlns="http://www.w3.org/2000/svg">
<path fill-rule="evenodd" clip-rule="evenodd" d="M26.7942 31.1999C25.5884 31.0694 24.2263 31.2712 22.4008 31.6189C21.587 31.7739 20.8016 31.2399 20.6466 30.4261C20.4916 29.6123 21.0257 28.8269 21.8395 28.6719C23.6327 28.3303 25.4086 28.0324 27.1172 28.2174C28.9099 28.4115 30.5576 29.1238 32.1499 30.6277C33.1751 31.5959 34.0034 32.914 34.6917 34.0092C34.7308 34.0714 34.7694 34.1328 34.8076 34.1935C35.5899 35.4358 36.1899 36.3347 36.8191 36.838C37.5576 37.4288 38.1937 38.2266 38.7437 38.9759C39.0153 39.3459 39.2497 39.6796 39.477 40.0033C39.7693 40.4195 40.05 40.8192 40.3835 41.2585C41.5369 42.778 42.4602 43.535 43.436 43.5892C43.436 43.5892 43.4433 43.5895 43.4602 43.5897C43.4781 43.5898 43.5023 43.5897 43.5334 43.5891C43.5961 43.5878 43.677 43.5846 43.7754 43.5789C43.9724 43.5674 44.2217 43.5469 44.5055 43.5166C45.0753 43.4556 45.7529 43.3583 46.3915 43.2261C46.5315 43.1971 46.6656 43.1672 46.7932 43.1366C46.6373 43.0378 46.4774 42.9383 46.3152 42.8372C46.1226 42.7173 45.9267 42.5953 45.73 42.4699C45.4544 42.2942 45.1618 42.1014 44.9264 41.9174C44.8112 41.8273 44.6662 41.706 44.5343 41.5616L44.5324 41.5594C44.4506 41.4698 44.1385 41.1279 44.0699 40.6021C44.0267 40.2705 44.084 39.8806 44.3176 39.5276C44.5325 39.2028 44.8148 39.0332 45.0043 38.9479C45.3453 38.7945 45.6797 38.7829 45.8362 38.781C46.2087 38.7767 46.6789 38.841 47.2035 38.9364C47.4828 38.9872 47.7955 39.1057 48.0319 39.2018C48.3057 39.3132 48.6239 39.4568 48.9612 39.6198C49.6354 39.9457 50.4322 40.3719 51.1716 40.8244C51.8872 41.2625 52.6419 41.7808 53.164 42.299C53.4043 42.5376 53.7426 42.9165 53.9135 43.4062C54.0075 43.6755 54.0753 44.0489 53.976 44.4674C53.8722 44.9049 53.6213 45.2414 53.3333 45.4718C52.4393 46.187 51.8686 47.2504 51.3019 48.6425C51.1926 48.9112 51.0809 49.2009 50.9642 49.5034C50.5297 50.6303 50.0264 51.9356 49.3192 52.9965C48.8597 53.6857 47.9284 53.872 47.2391 53.4125C46.5498 52.9529 46.3635 52.0216 46.823 51.3324C47.3289 50.5736 47.6693 49.6952 48.0813 48.6321C48.2179 48.2797 48.3623 47.9069 48.5233 47.5115C48.8176 46.7885 49.163 46.0108 49.6215 45.261C49.4678 45.3559 49.3151 45.4346 49.1747 45.5001C48.5325 45.7998 47.7325 46.012 46.9999 46.1637C45.5517 46.4637 43.8906 46.6191 43.2695 46.5846C40.8054 46.4477 39.1418 44.5845 37.9939 43.0724C37.6603 42.6329 37.2926 42.1117 36.9529 41.6304C36.7248 41.3071 36.5093 41.0017 36.3253 40.7511C35.7967 40.0309 35.3548 39.5085 34.945 39.1806C33.8522 38.3065 32.9919 36.9401 32.2869 35.8205L32.25 35.7619C31.4786 34.5368 30.8312 33.5087 30.09 32.8087C28.9587 31.7402 27.9158 31.3214 26.7942 31.1999ZM45.8712 41.7808C45.8736 41.7808 45.8762 41.7808 45.8791 41.7808C45.8561 41.7825 45.8517 41.7811 45.8712 41.7808Z" fill="#1C3823"/>
<path fill-rule="evenodd" clip-rule="evenodd" d="M52.6091 27.5874C52.3325 27.708 52.0914 27.7134 52.0029 27.7134C51.4859 27.7134 50.9959 27.744 50.5303 27.8032C50.4141 28.1308 50.2803 28.4141 50.174 28.6374C50.1124 28.7667 50.0565 28.8814 50.0051 28.9868C49.8868 29.2292 49.7925 29.4227 49.7082 29.6325C49.5955 29.9132 49.5709 30.0656 49.5709 30.1454C49.5709 30.9738 48.8994 31.6454 48.0709 31.6454C47.2425 31.6454 46.5709 30.9738 46.5709 30.1454C46.5709 29.811 46.6209 29.4958 46.694 29.2082C46.0582 29.6344 45.4829 30.1409 44.9511 30.7138C43.1717 32.6308 41.8571 35.3143 40.5394 38.4204C40.2914 39.0048 40.0988 39.5584 39.9079 40.1192C39.8914 40.1676 39.8749 40.2163 39.8583 40.2653C39.6875 40.7679 39.507 41.2993 39.2948 41.8084C38.8045 42.9848 38.1189 44.1113 36.8028 45.135C34.3844 47.0159 30.7038 47.5081 27.3315 47.5153C23.8716 47.5227 20.3433 47.0136 17.9136 46.5615C17.0992 46.41 16.5618 45.6269 16.7133 44.8125C16.8648 43.998 17.6479 43.4606 18.4624 43.6121C20.8043 44.0478 24.1282 44.5222 27.3251 44.5153C30.6095 44.5083 33.3899 43.9888 34.9609 42.7669C35.7691 42.1383 36.1798 41.4842 36.5257 40.6542C36.697 40.2434 36.8453 39.8073 37.0235 39.283C37.0381 39.2401 37.0529 39.1966 37.068 39.1524C37.2611 38.585 37.4835 37.9419 37.7776 37.2487C39.0966 34.1397 40.5806 31.0126 42.7524 28.6729C44.0422 27.2833 45.5647 26.1813 47.4008 25.4964C47.2986 25.3452 47.1838 25.2085 47.0548 25.0811C46.9295 25.0117 46.8048 24.9426 46.6809 24.8741C46.5745 24.8151 46.4687 24.7566 46.3639 24.6986C45.385 24.1568 44.4943 23.6638 43.9935 23.3778C43.8558 23.2991 43.7344 23.2286 43.645 23.1741C43.6061 23.1504 43.5455 23.113 43.4876 23.0724L43.4856 23.0711C43.4674 23.0584 43.3815 22.9986 43.2914 22.912C43.2631 22.8848 43.2151 22.8367 43.1623 22.7713C43.1204 22.7196 43.0138 22.5827 42.9331 22.3789C42.8592 22.1924 42.7042 21.6763 43.0072 21.1141C43.309 20.5539 43.8228 20.3991 44.0161 20.358C44.2289 20.3126 44.4007 20.3252 44.4668 20.3312C44.5501 20.3388 44.6164 20.3519 44.6547 20.3603C44.7312 20.3771 44.7909 20.3964 44.818 20.4055C44.8771 20.4253 44.9264 20.4456 44.9513 20.456C45.0074 20.4795 45.0677 20.5072 45.1221 20.5328C45.236 20.5864 45.3942 20.6641 45.5962 20.7651C45.7723 20.8531 45.9567 20.9416 46.1466 21.0327C46.9911 21.438 47.9465 21.8965 48.7879 22.6117C49.697 23.1156 50.6194 23.6291 51.3478 24.0438C51.7972 24.2996 52.188 24.5264 52.4595 24.693C52.5865 24.7709 52.725 24.8584 52.8344 24.9383C52.8353 24.939 52.8366 24.9399 52.8382 24.9411C52.8692 24.9635 53.0185 25.0712 53.1511 25.2278C53.1928 25.277 53.2781 25.3831 53.3541 25.5356C53.4157 25.6594 53.579 26.0247 53.4833 26.5034C53.3645 27.0974 52.945 27.4409 52.6091 27.5874Z" fill="#1C3823"/>
</svg>
