<svg width="110" height="237" viewBox="0 0 110 237" fill="none" xmlns="http://www.w3.org/2000/svg">
<path d="M10.9707 104.177C20.1707 126.177 44.1373 126.677 54.9706 124.177C51.9706 81.177 33.4706 82.6768 17.9707 84.6768C2.47065 86.6768 -0.529349 76.6768 10.9707 104.177Z" fill="#4F6F58"/>
<path d="M54.1816 122.256C46.9772 116.323 40.0016 109.869 32.4619 104.353C29.9812 102.539 25.6212 98.5615 22.1943 98.5615" stroke="#2D4D38" stroke-linecap="round"/>
<path d="M46.6777 115.938C46.074 110.504 44.2864 104.037 41.522 99.2859C40.6354 97.7621 39.3609 96.4721 38.3847 95.0078" stroke="#2D4D38" stroke-linecap="round"/>
<path d="M34.4375 104.485C30.4782 99.1525 27.5244 93.0797 23.3802 87.8994" stroke="#2D4D38" stroke-linecap="round"/>
<path d="M39.1758 109.619C33.7959 111.219 28.1176 111.357 22.5898 110.804" stroke="#2D4D38" stroke-linecap="round"/>
<path d="M49.5994 107.936C49.5994 104.747 49.8405 102.034 48.4412 99.0351C48.3554 98.8513 47.3616 96.4972 47.283 97.1262C47.1041 98.5572 46.1603 96 46.039 95.7106C45.6974 94.8962 44.1656 89.9164 43.0362 91.8928C42.8352 92.2446 38.3805 88.4283 37.2452 88.2466C35.5415 87.974 33.9117 86.9596 32.4408 86.1232C32.3041 86.0455 29.2244 84.3022 29.3522 84.6004C29.9486 85.9919 29.8815 85.5321 29.2235 84.6862C28.8927 84.2608 31.5942 85.567 29.674 85.1152C29.1283 84.9868 26.3172 83.9616 26.5211 83.2277C26.7403 82.4385 27.8903 83.0659 28.2155 83.2921C28.5008 83.4906 31.2345 85.9305 30.4246 86.2305C29.4539 86.59 27.6911 85.8957 26.8213 85.6728C24.4881 85.0749 22.1522 84.4649 19.8292 83.8283C19.5599 83.7545 15.3339 82.3769 16.612 82.8417C16.6876 82.8691 18.713 83.6871 18.0919 83.9355C17.3271 84.2414 15.6044 81.7147 18.242 83.6138C18.4165 83.7394 19.1157 84.7291 18.478 84.7291C18.1852 84.7291 17.1311 84.0812 16.9766 84.2358C16.2717 84.9407 15.978 85.136 14.8532 85.1581C14.3426 85.1681 12.3901 84.2102 12.6226 84.1714C12.9871 84.1107 13.0388 85.3562 12.7298 85.4798C12.3576 85.6287 11.7266 83.3938 11.9362 83.4637C12.1011 83.5186 11.1582 83.9888 10.9925 83.9999C10.1793 84.0541 12.6226 83.9999 13.4376 83.9999C16.462 83.9999 11.3323 83.6138 10.5206 83.6138C9.65385 83.6138 8.00325 83.2001 7.51789 83.8068C7.21245 84.1886 6.78628 84.6208 6.35968 84.8578C5.83572 85.1489 5.19032 84.6554 4.9012 84.8578C3.91027 85.5514 4.81541 86.7158 4.81541 87.6461C4.81541 88.8779 3.79279 89.2546 4.42934 90.563C4.94876 91.6307 6.31411 94.0946 5.58754 95.0028C4.82391 95.9574 4.82304 95.7558 5.75913 97.212C6.12969 97.7884 8.37932 99.7137 8.05409 100.429C7.23395 102.234 6.18356 102.378 7.71092 104.075C8.62915 105.096 10.1065 105.312 10.9925 106.478C11.5882 107.261 12.2472 107.836 11.5931 108.708C11.4746 108.866 24.1127 111.263 24.7194 112.097C24.9389 112.399 24.1042 112.853 24.3333 113.148C24.7066 113.628 25.757 114.598 24.9124 115.121C23.0964 116.246 20.782 116.471 18.7568 117.03C17.2552 117.444 22.4543 117.937 23.1751 118.06C26.2738 118.587 29.9874 118.48 32.355 120.848C32.9133 121.406 31.8921 122.22 32.2263 122.607C33.4823 124.061 39.9237 124.935 41.4919 124.151" stroke="#4F6F58" stroke-width="8" stroke-linecap="round"/>
<path d="M59.0234 86.7788C59.0818 79.6057 60.9361 73.4636 62.4123 66.5746C62.8766 64.4075 65.3397 64.9306 65.5652 63.0142C65.6967 61.8957 64.7804 56.1939 66.5947 55.9148C69.8085 55.4204 71.9191 57.0135 72.1498 52.9764C72.2808 50.6843 75.045 48.4803 76.8684 47.3998C77.6823 46.9175 78.7959 46.9407 79.5494 46.4132C80.4926 45.753 82.8898 44.7402 84.0536 44.7402C85.0487 44.7402 85.2063 47.2709 85.6622 47.9146C86.0262 48.4285 88.5293 45.8062 89.2869 45.4695C91.2431 44.6001 94.6518 45.596 96.8582 45.8555C97.6848 45.9528 96.8042 47.0138 97.9306 47.0138C98.5982 47.0138 103.035 46.6939 103.035 47.7859C103.035 48.9719 101.877 49.9105 101.877 51.0675C101.877 52.4495 102.211 52.3173 101.512 53.5984C100.021 56.3324 99.0098 58.773 97.0727 61.0624C95.2575 63.2075 96.4644 66.1187 97.1585 68.5478C97.973 71.3988 96.4189 72.283 93.8983 73.052C92.6333 73.4379 91.1696 73.8087 90.102 74.6391C89.661 74.9821 89.5941 75.2876 89.5014 75.7973C89.273 77.0539 87.4243 78.1539 86.4343 78.7143C84.139 80.0136 79.7878 80.5117 78.4127 82.9182C77.5035 84.5092 75.7686 85.3469 74.8523 86.9504C74.127 88.2196 71.7292 88.8868 70.4768 89.3955C69.2574 89.8909 65.8124 90.1879 65.2005 91.4117" stroke="#4F6F58" stroke-width="8" stroke-linecap="round"/>
<path d="M98.0001 62.7023C88.8001 84.7023 64.8333 101.417 54 98.917C57.0001 55.9172 75.5001 41.2023 91.0001 43.2023C106.5 45.2023 109.5 35.2023 98.0001 62.7023Z" fill="#4F6F58"/>
<path d="M55.8398 94.4294C60.2009 89.4453 63.5782 83.6273 67.4676 78.2822C71.5467 72.6764 76.3309 67.8309 81.1576 62.8809C85.0704 58.8682 89.2807 55.2201 93.3558 51.3848" stroke="#2D4D38" stroke-linecap="round"/>
<path d="M63.7383 82.1868C63.9064 75.8528 63.5649 68.2731 66.4587 62.4854C67.5222 60.3585 68.5414 58.2239 69.6619 56.123" stroke="#2D4D38" stroke-linecap="round"/>
<path d="M77.9551 64.0212C81.33 58.7425 84.2378 53.4303 87.0379 47.8301" stroke="#2D4D38" stroke-linecap="round"/>
<path d="M71.6367 75.4736H98.0953" stroke="#2D4D38" stroke-linecap="round"/>
<path d="M34.0729 234.176C28.0729 230.576 21.2396 198.676 18.5729 183.176C9.04979 181.223 15.0002 176.677 15.0002 176.677C15.0002 176.677 37 173.177 53.5 173.177C70 173.177 93.5 175.177 93.5 175.177C93.5 175.177 100.073 183.176 92.0729 183.176C85.5729 210.676 75.5 234.176 75.5 234.176C75.5 234.176 41.5729 238.676 34.0729 234.176Z" fill="#26352A"/>
<path d="M25 185C44.8739 187.38 66.2302 191.532 85.8273 185" stroke="#2D4D38" stroke-linecap="round"/>
<ellipse cx="54.5" cy="179.177" rx="31.5" ry="2.5" fill="#304C37"/>
<path d="M54.5 179.677C54.5 164.677 54.5 128.977 54.5 106.177C54.5 83.3768 52.5 56.6768 51.5 46.1768" stroke="#273929" stroke-width="4"/>
<path d="M100 122.288C90.8001 144.288 66.8334 144.788 56.0001 142.288C59.0001 99.2883 77.5001 100.788 93.0001 102.788C108.5 104.788 111.5 94.7881 100 122.288Z" fill="#65836D"/>
<path d="M57.1061 142.406C61.5109 143.14 65.2465 144.45 69.6319 143.307C72.3246 142.605 75.0286 141.961 77.7393 141.333C78.3936 141.182 79.4829 141.118 80.0986 140.776C80.5168 140.543 79.0565 139.12 79.1978 139.103C79.4728 139.068 80.0678 139.658 80.2702 139.789C81.8441 140.806 83.708 141.643 85.5465 142.02C87.4059 142.401 86.6262 140.882 87.005 139.746C87.5442 138.129 88.1051 137.659 89.5359 136.915C92.2571 135.5 94.271 132.511 96.2706 130.245C99.6814 126.379 93.422 128.163 90.9514 127.714C90.2602 127.588 93.2927 125.678 93.4394 125.59C96.9197 123.519 101.535 121.992 104.164 118.813C105.134 117.639 103.519 113.677 103.048 112.292C102.218 109.851 101.504 107.376 101.504 104.764C101.504 100.928 92.3464 102.15 92.6459 103.198C93.2135 105.185 104.301 100.649 104.979 102.512C105.239 103.228 106.557 107.448 105.665 107.745C103.436 108.488 95.2183 107.987 94.9408 104.657C94.8094 103.08 90.8962 103.799 90.0721 103.799C87.0861 103.799 83.847 103.47 80.8708 103.82C79.8244 103.944 79.6427 105.456 79.305 106.244C78.6125 107.86 77.119 109.409 76.0234 110.748" stroke="#65836D" stroke-width="8" stroke-linecap="round"/>
<path d="M10 38.1768C19.2 60.1768 43.1385 61.4643 53.9718 58.9643C50.9717 15.9645 32.4995 1.17635 16.9995 3.17635C1.49951 5.17635 -1.5 10.6768 10 38.1768Z" fill="#65836D"/>
<path d="M50.4394 56.1177C48.0726 56.4728 45.8897 57.2759 43.4902 57.2759C41.2568 57.2759 39.0026 56.8899 36.734 56.8899C34.0507 56.8899 31.252 54.7345 28.4335 54.5735C26.6105 54.4693 24.9265 51.6811 24.1438 50.3696C23.4255 49.1659 22.5505 46.2264 21.184 45.651C18.6984 44.6044 14.4235 43.8671 13.2052 41.0825C12.4341 39.3199 11.9148 37.6269 11.0604 35.8706C10.3936 34.5 10.0128 32.8151 10.6743 31.4093C11.342 29.9906 11.4019 27.3474 10.61 25.9615C9.82347 24.5851 6.42755 22.7169 6.42755 21.1785C6.42755 17.7914 5.5256 14.8606 6.34175 11.5053C6.66222 10.1878 7.11825 8.97317 7.58575 7.68754C8.0198 6.4939 10.8432 5.86328 11.8325 5.15665C13.9473 3.64605 16.518 3.72104 18.9319 4.77058C20.3944 5.40643 22.2671 6.76569 23.8864 6.70092C25.0291 6.65521 26.1268 5.92878 27.2753 5.92878C29.1256 5.92878 30.9798 6.93083 32.2942 8.2452C34.471 10.4221 35.5396 14.1338 38.8573 14.0362C41.8892 13.9471 41.9903 14.323 43.4687 16.9103C44.6119 18.9109 44.3364 22.03 45.0344 24.2885C45.8549 26.943 46.8714 28.6082 49.1525 30.4227C52.1491 32.8064 52.0264 33.5774 51.619 37.2433C51.2251 40.789 51.4548 43.9682 51.5976 47.5384C51.649 48.8245 52.8873 52.1913 51.2115 53.0292" stroke="#65836D" stroke-width="8" stroke-linecap="round"/>
<path d="M59.1314 138.152C66.9056 129.726 71.8518 118.002 82.1237 112.133C87.4497 109.089 93.9555 106.931 99.8066 104.98" stroke="#2D4D38" stroke-linecap="round"/>
<path d="M78.0871 114.458C83.8721 115.566 89.6624 116.6 95.4629 117.617" stroke="#2D4D38" stroke-linecap="round"/>
<path d="M68.6091 125.12C75.3943 127.73 82.5243 129.198 89.5391 131.044" stroke="#2D4D38" stroke-linecap="round"/>
<path d="M73.7422 116.828C72.4196 113.101 72.1626 108.533 72.1626 104.586" stroke="#2D4D38" stroke-linecap="round"/>
<path d="M46.1016 54.8799C43.4467 44.998 38.4028 35.6519 32.2799 27.456C28.6 22.53 23.7866 18.6727 19.248 14.5996" stroke="#2D4D38" stroke-linecap="round"/>
<path d="M37 34.2628C38.477 28.8823 39.7643 23.2779 39.7643 17.6768" stroke="#2D4D38" stroke-linecap="round"/>
<path d="M31.8842 25.2627C24.5126 25.9405 17.1658 26.2009 9.76953 26.4474" stroke="#2D4D38" stroke-linecap="round"/>
<path d="M38.5986 36.7148C37.2812 37.9005 33.5009 37.8104 31.7536 37.8776C29.5636 37.9619 27.3637 37.8996 25.1719 37.8996" stroke="#2D4D38" stroke-linecap="round"/>
</svg>
