<svg width="110" height="236" viewBox="0 0 110 236" fill="none" xmlns="http://www.w3.org/2000/svg">
<path d="M10.9414 104.177C20.1414 126.177 44.108 126.677 54.9414 124.177C51.9413 81.177 33.4414 82.6768 17.9414 84.6768C2.44135 86.6768 -0.558646 76.6768 10.9414 104.177Z" fill="#4F6F58"/>
<path d="M49.5701 107.936C49.5701 104.747 49.8112 102.034 48.4119 99.0351C48.3261 98.8513 47.3323 96.4972 47.2537 97.1262C47.0748 98.5572 46.131 96 46.0097 95.7106C45.6681 94.8962 44.1363 89.9164 43.0069 91.8928C42.8059 92.2446 38.3512 88.4283 37.2159 88.2466C35.5122 87.974 33.8824 86.9596 32.4115 86.1232C32.2748 86.0455 29.1951 84.3022 29.3229 84.6004C29.9193 85.9919 29.8522 85.5321 29.1942 84.6862C28.8634 84.2608 31.5649 85.567 29.6447 85.1152C29.099 84.9868 26.2879 83.9616 26.4918 83.2277C26.711 82.4385 27.861 83.0659 28.1862 83.2921C28.4715 83.4906 31.2052 85.9305 30.3953 86.2305C29.4246 86.59 27.6618 85.8957 26.792 85.6728C24.4588 85.0749 22.1229 84.4649 19.7999 83.8283C19.5306 83.7545 15.3046 82.3769 16.5827 82.8417C16.6583 82.8691 18.6837 83.6871 18.0626 83.9355C17.2978 84.2414 15.5751 81.7147 18.2127 83.6138C18.3872 83.7394 19.0864 84.7291 18.4487 84.7291C18.1559 84.7291 17.1018 84.0812 16.9473 84.2358C16.2424 84.9407 15.9487 85.136 14.8239 85.1581C14.3133 85.1681 12.3608 84.2102 12.5933 84.1714C12.9578 84.1107 13.0095 85.3562 12.7005 85.4798C12.3283 85.6287 11.6973 83.3938 11.9069 83.4637C12.0718 83.5186 11.1289 83.9888 10.9632 83.9999C10.15 84.0541 12.5933 83.9999 13.4083 83.9999C16.4327 83.9999 11.303 83.6138 10.4913 83.6138C9.62455 83.6138 7.97395 83.2001 7.48859 83.8068C7.18315 84.1886 6.75698 84.6208 6.33038 84.8578C5.80642 85.1489 5.16102 84.6554 4.8719 84.8578C3.88097 85.5514 4.78611 86.7158 4.78611 87.6461C4.78611 88.8779 3.76349 89.2546 4.40004 90.563C4.91946 91.6307 6.28481 94.0946 5.55825 95.0028C4.79462 95.9574 4.79374 95.7558 5.72983 97.212C6.1004 97.7884 8.35002 99.7137 8.0248 100.429C7.20465 102.234 6.15426 102.378 7.68163 104.075C8.59986 105.096 10.0772 105.312 10.9632 106.478C11.5589 107.261 12.2179 107.836 11.5638 108.708C11.4453 108.866 24.0834 111.263 24.6901 112.097C24.9096 112.399 24.0749 112.853 24.304 113.148C24.6773 113.628 25.7277 114.598 24.8831 115.121C23.0671 116.246 20.7528 116.471 18.7275 117.03C17.2259 117.444 22.425 117.937 23.1458 118.06C26.2445 118.587 29.9581 118.48 32.3257 120.848C32.8841 121.406 31.8629 122.22 32.197 122.607C33.453 124.061 39.8944 124.935 41.4626 124.151" stroke="#4F6F58" stroke-width="8" stroke-linecap="round"/>
<path d="M58.9941 86.7788C59.0525 79.6057 60.9068 73.4636 62.383 66.5746C62.8473 64.4075 65.3104 64.9306 65.5359 63.0142C65.6674 61.8957 64.7512 56.1939 66.5654 55.9148C69.7792 55.4204 71.8898 57.0135 72.1205 52.9764C72.2515 50.6843 75.0157 48.4803 76.8391 47.3998C77.653 46.9175 78.7666 46.9407 79.5201 46.4132C80.4633 45.753 82.8605 44.7402 84.0243 44.7402C85.0194 44.7402 85.177 47.2709 85.6329 47.9146C85.9969 48.4285 88.5 45.8062 89.2576 45.4695C91.2138 44.6001 94.6225 45.596 96.8289 45.8555C97.6555 45.9528 96.7749 47.0138 97.9013 47.0138C98.5689 47.0138 103.006 46.6939 103.006 47.7859C103.006 48.9719 101.848 49.9105 101.848 51.0675C101.848 52.4495 102.182 52.3173 101.483 53.5984C99.9919 56.3324 98.9805 58.773 97.0434 61.0624C95.2283 63.2075 96.4351 66.1187 97.1292 68.5478C97.9437 71.3988 96.3896 72.283 93.869 73.052C92.604 73.4379 91.1404 73.8087 90.0727 74.6391C89.6317 74.9821 89.5648 75.2876 89.4721 75.7973C89.2437 77.0539 87.395 78.1539 86.405 78.7143C84.1097 80.0136 79.7585 80.5117 78.3834 82.9182C77.4742 84.5092 75.7393 85.3469 74.823 86.9504C74.0977 88.2196 71.6999 88.8868 70.4475 89.3955C69.2281 89.8909 65.7831 90.1879 65.1712 91.4117" stroke="#4F6F58" stroke-width="8" stroke-linecap="round"/>
<path d="M97.9708 62.7023C88.7708 84.7023 64.804 101.417 53.9707 98.917C56.9708 55.9172 75.4708 41.2023 90.9708 43.2023C106.471 45.2023 109.471 35.2023 97.9708 62.7023Z" fill="#4F6F58"/>
<path d="M56 94C61.4636 88.0947 65.6946 81.2015 70.5673 74.8685C75.6776 68.2266 81.6712 62.4857 87.7181 56.6208C92.62 51.8664 97.8947 47.5442 103 43" stroke="#2D4D38" stroke-linecap="round"/>
<path d="M64 84C64.1703 75.2514 63.8244 64.782 66.7556 56.7879C67.8327 53.8501 68.8651 50.9018 70 48" stroke="#2D4D38" stroke-linecap="round"/>
<path d="M78 66C81.3441 57.8494 84.2254 49.6471 87 41" stroke="#2D4D38" stroke-linecap="round"/>
<path d="M69.5903 76.0217C69.5903 76.0217 76.9282 75.0155 82.7972 75.0107C88.6663 75.006 96.0002 76.9998 96.0002 76.9998" stroke="#2D4D38" stroke-linecap="round"/>
<path d="M19.4714 230.5C19.4714 230.5 18.5443 199 18.5443 183.176C13.9705 181.5 18.545 176 18.545 176C18.545 176 36.9714 173.177 53.4714 173.177C69.9714 173.177 89.4707 175.5 89.4707 175.5C89.4707 175.5 95.4707 180.5 92.0443 183.176V230.5C92.0443 230.5 74.4714 235.324 55.7579 235.324C37.0443 235.324 19.4714 230.5 19.4714 230.5Z" fill="#26352A"/>
<path d="M17.9707 183C42.4752 185.714 68.8075 190.45 92.9707 183" stroke="#2D4D38" stroke-linecap="round"/>
<ellipse cx="54.4707" cy="179.177" rx="31.5" ry="2.5" fill="#304C37"/>
<path d="M54 122C42.063 112.234 30.505 101.611 18.0123 92.5333C13.9021 89.5466 6.67791 83 1 83" stroke="#2D4D38" stroke-linecap="round"/>
<path d="M54.4707 179.677C54.4707 164.677 54.4707 128.977 54.4707 106.177C54.4707 83.3768 52.4707 56.6768 51.4707 46.1768" stroke="#273929" stroke-width="4"/>
<path d="M99.9708 122.288C90.7708 144.288 66.8041 144.788 55.9708 142.288C58.9708 99.2883 77.4708 100.788 92.9708 102.788C108.471 104.788 111.471 94.7881 99.9708 122.288Z" fill="#65836D"/>
<path d="M57.0768 142.406C61.4816 143.14 65.2172 144.45 69.6026 143.307C72.2953 142.605 74.9993 141.961 77.71 141.333C78.3643 141.182 79.4536 141.118 80.0693 140.776C80.4875 140.543 79.0272 139.12 79.1685 139.103C79.4435 139.068 80.0385 139.658 80.2409 139.789C81.8148 140.806 83.6787 141.643 85.5172 142.02C87.3766 142.401 86.5969 140.882 86.9757 139.746C87.5149 138.129 88.0758 137.659 89.5066 136.915C92.2278 135.5 94.2417 132.511 96.2413 130.245C99.6521 126.379 93.3927 128.163 90.9221 127.714C90.2309 127.588 93.2634 125.678 93.4101 125.59C96.8904 123.519 101.506 121.992 104.134 118.813C105.105 117.639 103.49 113.677 103.019 112.292C102.189 109.851 101.475 107.376 101.475 104.764C101.475 100.928 92.3171 102.15 92.6166 103.198C93.1842 105.185 104.272 100.649 104.949 102.512C105.21 103.228 106.528 107.448 105.636 107.745C103.407 108.488 95.189 107.987 94.9115 104.657C94.7801 103.08 90.8669 103.799 90.0428 103.799C87.0568 103.799 83.8177 103.47 80.8415 103.82C79.7951 103.944 79.6135 105.456 79.2757 106.244C78.5832 107.86 77.0897 109.409 75.9941 110.748" stroke="#65836D" stroke-width="8" stroke-linecap="round"/>
<path d="M9.9707 38.1768C19.1707 60.1768 43.1092 61.4643 53.9425 58.9643C50.9424 15.9645 32.4702 1.17635 16.9702 3.17635C1.47021 5.17635 -1.5293 10.6768 9.9707 38.1768Z" fill="#65836D"/>
<path d="M50.4101 56.1177C48.0433 56.4728 45.8604 57.2759 43.4609 57.2759C41.2276 57.2759 38.9733 56.8899 36.7047 56.8899C34.0214 56.8899 31.2227 54.7345 28.4042 54.5735C26.5812 54.4693 24.8972 51.6811 24.1145 50.3696C23.3962 49.1659 22.5212 46.2264 21.1547 45.651C18.6691 44.6044 14.3942 43.8671 13.1759 41.0825C12.4048 39.3199 11.8855 37.6269 11.0311 35.8706C10.3643 34.5 9.98348 32.8151 10.645 31.4093C11.3127 29.9906 11.3726 27.3474 10.5807 25.9615C9.79417 24.5851 6.39825 22.7169 6.39825 21.1785C6.39825 17.7914 5.49631 14.8606 6.31246 11.5053C6.63293 10.1878 7.08896 8.97317 7.55646 7.68754C7.99051 6.4939 10.8139 5.86328 11.8032 5.15665C13.9181 3.64605 16.4887 3.72104 18.9026 4.77058C20.3651 5.40643 22.2378 6.76569 23.8571 6.70092C24.9998 6.65521 26.0975 5.92878 27.246 5.92878C29.0963 5.92878 30.9505 6.93083 32.2649 8.2452C34.4417 10.4221 35.5103 14.1338 38.828 14.0362C41.8599 13.9471 41.961 14.323 43.4394 16.9103C44.5826 18.9109 44.3071 22.03 45.0051 24.2885C45.8256 26.943 46.8421 28.6082 49.1232 30.4227C52.1198 32.8064 51.9971 33.5774 51.5898 37.2433C51.1958 40.789 51.4255 43.9682 51.5683 47.5384C51.6198 48.8245 52.858 52.1913 51.1822 53.0292" stroke="#65836D" stroke-width="8" stroke-linecap="round"/>
<path d="M54.5 145C62.2742 136.573 71.8225 118.002 82.0944 112.133C87.4204 109.089 101.649 102.45 107.5 100.5" stroke="#2D4D38" stroke-linecap="round"/>
<path d="M77.5 116C87.821 117.052 98.6514 118.034 109 119" stroke="#2D4D38" stroke-linecap="round"/>
<path d="M68 127C78.3739 129.643 89.2751 131.13 100 133" stroke="#2D4D38" stroke-linecap="round"/>
<path d="M74 119C72.3254 114.433 72 108.837 72 104" stroke="#2D4D38" stroke-linecap="round"/>
<path d="M63.5 111.5C62 118.5 60.3254 130.128 62 135L91 140.5" stroke="#2D4D38" stroke-linecap="round"/>
<path d="M54 59C49.2545 45.2616 40.2386 32.2681 29.2941 20.8736C22.7163 14.0253 14.1126 8.66266 6 3" stroke="#2D4D38" stroke-linecap="round"/>
<path d="M38 30.5C39.6029 23.6876 39 17.0918 39 10" stroke="#2D4D38" stroke-linecap="round"/>
<path d="M48 45C49.4426 37.3568 48.9 29.9567 48.9 22" stroke="#2D4D38" stroke-linecap="round"/>
<path d="M33 25C23.3333 25.5722 13.6991 25.7919 4 26" stroke="#2D4D38" stroke-linecap="round"/>
<path d="M42 37C38.5658 37.9824 28.7115 37.9078 24.1569 37.9634C18.448 38.0332 12.7136 37.9816 7 37.9816" stroke="#2D4D38" stroke-linecap="round"/>
<path d="M50 50C46.5658 50.9824 36.7115 50.9078 32.1569 50.9634C26.448 51.0332 20.7136 50.9816 15 50.9816" stroke="#2D4D38" stroke-linecap="round"/>
<path d="M47 116C46.3448 107.692 44.4048 97.8051 41.4048 90.5409C40.4426 88.211 39.0594 86.2387 38 84" stroke="#2D4D38" stroke-linecap="round"/>
<path d="M34 105C30.0612 96.9617 27.1227 87.8081 23 80" stroke="#2D4D38" stroke-linecap="round"/>
<path d="M39 110C28.9447 111.082 18.3318 111.175 8 110.801" stroke="#2D4D38" stroke-linecap="round"/>
</svg>
