<svg width="111" height="41" viewBox="0 0 111 41" fill="none" xmlns="http://www.w3.org/2000/svg">
<path d="M93.292 29.2742C93.292 30.197 93.0819 30.8931 92.6619 31.3464C92.2422 31.7998 91.6119 32.0427 90.772 32.0427C89.9319 32.0427 89.302 31.8161 88.866 31.3464C88.446 30.877 88.236 30.197 88.236 29.2742V23.0733H86.6045V29.4199C86.6045 30.8124 86.9437 31.8322 87.6385 32.5122C88.333 33.1922 89.3828 33.5322 90.7722 33.5322C92.1775 33.5322 93.2275 33.1922 93.9222 32.5122C94.6167 31.8322 94.9722 30.7959 94.9722 29.4199V23.0733H93.3245V29.2742H93.292ZM53.0859 33.2894H54.8305L56.0096 30.6666H60.048L61.211 33.2894H62.9555L58.0287 22.6846L53.0859 33.2894ZM58.2389 26.4409C58.3036 26.6351 58.3681 26.797 58.4328 26.959L59.4828 29.2903H56.6396L57.6898 26.959C57.7545 26.797 57.819 26.6188 57.8837 26.4246C57.9483 26.2303 58.0128 26.0198 58.0614 25.7933C58.1096 26.0361 58.1743 26.2466 58.2389 26.4409ZM109.785 24.4979V23.0896H104.099V33.2894H109.785V31.8H105.762V28.4972H109.785V27.0399H105.762V24.482H109.785V24.4979ZM72.7125 22.8303C71.9533 22.8303 71.2425 22.9598 70.5964 23.219C69.934 23.4779 69.3686 23.8503 68.8519 24.3524C68.351 24.8542 67.9633 25.4209 67.6888 26.0846C67.4303 26.7485 67.2849 27.4446 67.2849 28.1894C67.2849 28.934 67.414 29.6464 67.6888 30.3103C67.9633 30.974 68.3349 31.5409 68.8356 32.0425C69.3365 32.5444 69.9179 32.9168 70.5801 33.1759C71.2425 33.4348 71.9695 33.5644 72.7448 33.5644C73.3586 33.5644 73.9239 33.4835 74.4572 33.3216C74.9741 33.1596 75.4586 32.9329 75.9109 32.609V30.7309C75.4102 31.1679 74.8932 31.4918 74.3441 31.7024C73.795 31.9129 73.2296 32.0261 72.6158 32.0261C71.5819 32.0261 70.7259 31.67 70.0475 30.9575C69.369 30.245 69.0298 29.3385 69.0298 28.2375C69.0298 27.1042 69.3851 26.1653 70.0798 25.4529C70.7743 24.7403 71.6789 24.3842 72.7936 24.3842C73.375 24.3842 73.9082 24.4812 74.4413 24.6918C74.9582 24.8861 75.4589 25.1937 75.9275 25.5985L76.0243 23.9309C75.5073 23.5746 74.9904 23.3157 74.4413 23.1375C73.8755 22.9275 73.31 22.8303 72.7125 22.8303ZM100.125 27.3799C100.076 27.3638 100.012 27.3314 99.9148 27.2829C98.768 26.7486 98.1865 26.182 98.1865 25.5666C98.1865 25.1781 98.3156 24.8703 98.5741 24.6277C98.8326 24.4009 99.1879 24.2877 99.6404 24.2877C99.9636 24.2877 100.238 24.3686 100.48 24.5144C100.723 24.6601 100.949 24.9031 101.159 25.2107L102.451 24.5468C102.257 23.9962 101.902 23.5916 101.401 23.3001C100.9 23.0088 100.27 22.8631 99.5111 22.8631C98.5904 22.8631 97.8634 23.1222 97.298 23.6401C96.7324 24.1583 96.4579 24.8222 96.4579 25.664C96.4579 26.3116 96.6519 26.8461 97.0234 27.2994C97.395 27.7525 98.1379 28.2383 99.2687 28.7888C99.3496 28.8212 99.4464 28.8699 99.5916 28.9346C100.577 29.404 101.078 29.9383 101.078 30.5374C101.078 30.9907 100.932 31.3631 100.642 31.6383C100.351 31.9135 99.9634 32.0431 99.4625 32.0431C98.9455 32.0431 98.5095 31.9298 98.1865 31.6868C97.8473 31.4438 97.6209 31.104 97.4918 30.6507L96.1672 31.2659C96.345 32.0105 96.7003 32.5772 97.2494 32.982C97.7987 33.387 98.5093 33.5811 99.3817 33.5811C100.415 33.5811 101.239 33.2896 101.837 32.7229C102.451 32.1562 102.742 31.379 102.742 30.4238C102.742 29.7601 102.548 29.2096 102.176 28.7562C101.821 28.3027 101.126 27.8333 100.125 27.3799ZM76.5247 33.2894H78.2692L79.4483 30.6666H83.4867L84.6497 33.2894H86.3943L81.4674 22.6846L76.5247 33.2894ZM81.6775 26.4409C81.7421 26.6351 81.8066 26.797 81.8713 26.959L82.9215 29.2903H80.0784L81.1284 26.959C81.193 26.797 81.2575 26.6188 81.3224 26.4246C81.387 26.2303 81.4515 26.0198 81.4999 25.7933C81.5483 26.0361 81.613 26.2466 81.6775 26.4409Z" fill="#F8714A"/>
<path d="M59.0308 18.8961H60.7916L61.987 16.2409H66.0737L67.2531 18.8961H68.9976L64.0061 8.14569L59.0308 18.8961ZM64.2322 11.9503C64.2969 12.1446 64.3614 12.3227 64.426 12.4685L65.4762 14.8324H62.601L63.651 12.4685C63.7156 12.3064 63.7801 12.1285 63.845 11.9342C63.9096 11.7399 63.9741 11.5294 64.0225 11.3027C64.1031 11.5457 64.1677 11.7562 64.2322 11.9503ZM60.2425 8.5505H53.1025V9.97532H55.8487V18.8799H57.5285V9.97532H60.2584V8.5505H60.2425ZM99.0593 9.89421C98.5263 9.37624 97.9448 8.98754 97.2664 8.72846C96.604 8.45328 95.8932 8.32365 95.1503 8.32365C94.4072 8.32365 93.6964 8.45328 93.0342 8.72846C92.3718 9.00365 91.7741 9.39235 91.2411 9.89421C90.7081 10.4124 90.3204 10.9951 90.0457 11.659C89.7711 12.3066 89.6418 13.0029 89.6418 13.7475C89.6418 14.4924 89.7709 15.1885 90.0457 15.8361C90.3204 16.4837 90.7241 17.0666 91.2411 17.5846C91.7581 18.0864 92.3556 18.4912 93.0342 18.7664C93.7127 19.0416 94.4072 19.1712 95.1503 19.1712C95.8771 19.1712 96.5877 19.0418 97.2501 18.7664C97.9125 18.4911 98.51 18.1025 99.043 17.5846C99.5763 17.0664 99.9639 16.4837 100.239 15.8361C100.513 15.1885 100.643 14.4924 100.643 13.7475C100.643 13.019 100.497 12.3227 100.239 11.6751C99.98 11.0114 99.5761 10.4124 99.0593 9.89421ZM98.6231 15.2209C98.4291 15.6905 98.1545 16.1114 97.7992 16.4675C97.4437 16.8399 97.024 17.1151 96.5715 17.3094C96.119 17.5036 95.6346 17.6009 95.1338 17.6009C94.6169 17.6009 94.1323 17.5038 93.6801 17.3094C93.2278 17.1151 92.824 16.8398 92.4685 16.4675C92.1132 16.0951 91.8386 15.6905 91.6446 15.2209C91.4508 14.7512 91.3701 14.2657 91.3701 13.7314C91.3701 13.2133 91.4669 12.7114 91.6446 12.242C91.8386 11.7725 92.1132 11.3514 92.4685 10.9953C92.824 10.6229 93.2277 10.3477 93.6962 10.1535C94.1485 9.95921 94.6331 9.86198 95.1501 9.86198C95.6508 9.86198 96.1354 9.95921 96.6038 10.1535C97.0561 10.3477 97.46 10.6231 97.8153 10.9953C98.1708 11.3677 98.4453 11.7887 98.6391 12.2581C98.8331 12.7277 98.93 13.2296 98.93 13.7475C98.9137 14.2657 98.8169 14.7512 98.6231 15.2209ZM106.086 14.1848C106.861 14.0875 107.459 13.8124 107.863 13.3429C108.267 12.8733 108.461 12.2257 108.461 11.3999C108.461 10.9305 108.38 10.4933 108.202 10.1048C108.025 9.71624 107.782 9.39235 107.459 9.13328C107.185 8.92272 106.862 8.77717 106.49 8.69606C106.118 8.61513 105.585 8.56661 104.891 8.56661H102.549V18.8961H104.115V14.2657H104.309L107.734 18.8961H109.624L106.086 14.1848ZM104.228 12.9542V9.99124H104.535C105.375 9.99124 105.957 10.1046 106.264 10.3474C106.57 10.574 106.732 10.9788 106.732 11.5455C106.732 12.0798 106.587 12.4361 106.296 12.6464C106.005 12.8568 105.424 12.954 104.535 12.954H104.228V12.9542ZM82.5665 18.8961H84.2466V14.0388H88.3333V12.5655H84.2466V9.99124H88.3333V8.56643H82.5665V18.8961ZM74.6027 13.4075C75.0874 13.2618 75.4589 13.0027 75.7011 12.6303C75.9596 12.2579 76.089 11.8048 76.089 11.2542C76.089 10.8009 76.008 10.3799 75.8305 9.99143C75.6529 9.61902 75.4107 9.29513 75.0875 9.06865C74.8451 8.8905 74.5383 8.74476 74.183 8.67995C73.8275 8.59902 73.2784 8.56661 72.5352 8.56661H69.9345V18.8961H72.5513C73.5368 18.8961 74.2314 18.8312 74.6513 18.7181C75.0713 18.6048 75.4105 18.3942 75.7013 18.119C75.9759 17.8599 76.1697 17.5362 76.3151 17.1638C76.4605 16.7914 76.5414 16.3866 76.5414 15.9657C76.5414 15.2694 76.3637 14.7027 76.0245 14.2494C75.6853 13.7799 75.2006 13.5048 74.6027 13.4075ZM71.5822 9.95902H72.2284C73.0845 9.95902 73.6497 10.0724 73.9566 10.299C74.2635 10.5257 74.4089 10.9305 74.4089 11.4972C74.4089 12.0151 74.2474 12.3877 73.9082 12.5981C73.569 12.8248 73.0036 12.922 72.2119 12.922H71.5658V9.95921H71.5822V9.95902ZM74.6351 16.6133C74.5222 16.8399 74.3605 17.0342 74.1506 17.1637C73.9729 17.277 73.7465 17.3579 73.4559 17.4066C73.1651 17.4551 72.7289 17.4714 72.1314 17.4714H71.5821V14.1687H72.6642C73.0034 14.1687 73.278 14.1849 73.472 14.2174C73.6819 14.2498 73.8596 14.3144 74.0211 14.3953C74.2796 14.5249 74.4734 14.7192 74.6025 14.962C74.748 15.2049 74.8126 15.4962 74.8126 15.8201C74.8128 16.1275 74.7481 16.3866 74.6351 16.6133Z" fill="#F8714A"/>
<path d="M46.5281 1.91235H45.3652V39.9438H46.5281V1.91235Z" fill="#F8714A"/>
<path d="M38.8064 16.0305C38.7903 14.8324 38.6126 13.6344 38.2571 12.5172C37.9016 11.4 37.3686 10.3477 36.658 9.40865C36.0117 8.5505 35.2204 7.80569 34.2834 7.1905C33.3465 6.57532 32.2481 6.10587 30.9882 5.81439C30.0675 5.60384 29.179 5.49051 28.2744 5.49051C27.3859 5.49051 26.4813 5.60384 25.593 5.83051C24.8659 6.00865 24.1554 6.26754 23.4446 6.60755C22.8145 6.89903 22.2008 7.25532 21.5707 7.65995C21.4092 7.77328 21.1992 7.75699 21.0377 7.65995C20.8276 7.51421 20.6177 7.38476 20.4076 7.25513C20.1008 7.07699 19.7613 6.89884 19.4223 6.72088C18.7762 6.41329 18.1462 6.15421 17.5 5.95995C16.8539 5.76569 16.2239 5.63606 15.5778 5.55513C14.9317 5.47421 14.2856 5.4581 13.6232 5.50662C12.9771 5.55514 12.3147 5.65235 11.6523 5.81421C10.4085 6.10569 9.3101 6.59124 8.3571 7.19032C7.42017 7.8055 6.62865 8.55032 5.98254 9.40847C5.27176 10.3475 4.73872 11.3998 4.38324 12.517C4.02776 13.6342 3.8502 14.8322 3.83394 16.0303C3.81787 17.1961 3.94702 18.4427 4.2055 19.7055C4.44791 20.8712 4.8032 22.0531 5.2555 23.235C5.32017 23.4131 5.28783 23.6237 5.14243 23.7531C4.73854 24.1418 4.31857 24.4818 3.88254 24.7894C3.36557 25.1781 2.81627 25.5181 2.26716 25.874C1.18501 26.5703 0.942604 27.6226 1.26575 28.3188C1.5889 29.015 2.4449 29.355 3.59191 28.6101C4.12494 28.2701 4.67406 27.914 5.20728 27.5577C5.57884 27.2988 5.95021 27.0235 6.28961 26.7483C6.51576 26.5538 6.85499 26.635 7.00039 26.8938C7.03273 26.9425 7.0488 26.975 7.08113 27.0235C7.21047 27.2338 7.1458 27.509 6.95199 27.6548C6.33821 28.0918 5.56276 28.5938 4.80357 29.0957C3.86665 29.6948 2.92972 30.2775 2.2352 30.6985C1.12053 31.3624 0.894566 32.3824 1.23379 33.0463C1.57301 33.71 2.46153 34.05 3.59227 33.3863C4.3352 32.9329 5.3368 32.3337 6.32213 31.7024C7.1458 31.1679 7.96966 30.6337 8.63203 30.1642C8.8421 30.0185 9.11666 30.0672 9.27832 30.2613C9.85977 30.99 10.4737 31.6859 11.1198 32.3335C11.879 33.0944 12.6706 33.8068 13.5267 34.4544C13.7043 34.584 13.866 34.7135 14.0435 34.827C14.2213 34.9401 14.399 35.0537 14.5928 35.1831C14.7221 35.2642 14.8513 35.345 14.9644 35.4098C15.0774 35.4748 15.1744 35.5394 15.2713 35.5879C15.449 35.685 15.6428 35.7824 15.8366 35.8794C16.0304 35.9764 16.2244 36.0575 16.4504 36.1224C17.9043 36.6242 19.4711 36.3329 20.6502 35.5072C21.8294 34.6814 22.6695 33.3214 22.6695 31.67C22.6695 30.7472 22.3949 29.8727 21.9266 29.1279C21.458 28.3992 20.7796 27.8003 19.988 27.4116C18.825 26.8611 18.0335 27.3307 17.7589 28.0431C17.4843 28.7555 17.7266 29.7107 18.6151 30.0831C18.922 30.2125 19.1805 30.4231 19.358 30.6983C19.5358 30.9735 19.6488 31.2974 19.6488 31.6535C19.6488 32.2363 19.358 32.7383 18.922 33.0298C18.502 33.3374 17.9366 33.4346 17.4197 33.2564C17.3227 33.224 17.2096 33.1755 17.0965 33.1109C16.9835 33.0622 16.8541 32.9976 16.741 32.9164C16.6119 32.8516 16.5149 32.787 16.4179 32.7222C16.3211 32.6735 16.2403 32.6088 16.1594 32.5764C15.9979 32.4794 15.8363 32.3822 15.691 32.2688C15.5456 32.1557 15.3842 32.0583 15.2387 31.9451C14.528 31.3946 13.8334 30.7794 13.1873 30.1155C12.541 29.4518 11.9435 28.7555 11.3781 28.0109L11.4428 27.9622L11.5075 27.9137C12.3474 27.2174 13.1389 26.5051 13.8497 25.7927C14.4797 25.1613 15.0451 24.5298 15.5296 23.8985C15.6426 23.7366 15.8364 23.6718 16.0303 23.7203C16.3534 23.8014 16.6603 23.8661 16.9833 23.8985C17.4032 23.947 17.8071 23.9633 18.211 23.947C18.9218 23.9146 19.6002 23.769 20.2463 23.5422C20.8925 23.3155 21.4902 22.9916 22.0395 22.6033C22.5725 22.2146 23.0732 21.7613 23.4934 21.2431C23.9133 20.7251 24.2849 20.1585 24.5755 19.5431C24.8663 18.944 25.0762 18.2964 25.2055 17.6327C25.3347 16.969 25.3994 16.2564 25.367 15.5442C25.3509 15.2851 25.3347 15.0424 25.3024 14.7996C25.27 14.5566 25.2377 14.2977 25.1893 14.0548C25.1407 13.8118 25.0923 13.5529 25.0276 13.3101C24.9629 13.0672 24.8985 12.8244 24.8175 12.5814C24.6561 12.0796 24.4622 11.6262 24.2522 11.189C24.1068 10.9138 23.9614 10.6387 23.7999 10.3796C23.6545 10.1529 23.7352 9.84532 23.9774 9.71587C24.3167 9.52161 24.6398 9.35958 24.979 9.21402C25.4474 9.00347 25.932 8.84162 26.3843 8.71217C27.0306 8.55032 27.6767 8.46939 28.3389 8.46939C29.0011 8.46939 29.6635 8.55032 30.3419 8.71217C31.2304 8.92273 32.0057 9.24643 32.6679 9.66736C33.3303 10.0883 33.8794 10.6064 34.3156 11.1892C34.8326 11.8531 35.2041 12.6301 35.4626 13.4398C35.7209 14.2655 35.8502 15.1398 35.8665 16.0303C35.8988 17.6007 35.5919 19.317 35.0266 21.0494C34.4612 22.7979 33.6213 24.5627 32.5552 26.2464C31.7153 27.5903 30.7137 28.8531 29.6153 29.9864C28.5168 31.1198 27.3054 32.1398 25.9969 32.9492C24.9792 33.5807 24.7531 34.5846 25.0599 35.2807C25.3668 35.9607 26.1746 36.3494 27.2084 35.7177C28.7914 34.7788 30.2614 33.5968 31.5699 32.2531C32.8944 30.9092 34.0736 29.4198 35.0752 27.8331C36.2866 25.9227 37.2398 23.8825 37.8859 21.8587C38.4995 19.8837 38.8388 17.8761 38.8064 16.0305ZM21.829 18.297C21.6515 18.6855 21.4251 19.0418 21.1506 19.3494C20.876 19.657 20.5852 19.9485 20.2621 20.1913C19.9389 20.4179 19.5836 20.6122 19.212 20.7418C18.8405 20.8714 18.4529 20.9524 18.0329 20.9687C17.6774 20.9848 17.3059 20.9524 16.9182 20.8714C16.5306 20.7905 16.1428 20.6609 15.7391 20.4666C15.2384 20.2238 14.8829 20.1427 14.5921 20.24C14.3013 20.337 14.059 20.6124 13.7845 21.0981C13.4129 21.7781 12.8313 22.5066 12.1207 23.2514C11.4101 23.9963 10.57 24.7733 9.6654 25.5342C9.60073 25.4209 9.51999 25.2913 9.45533 25.1781C9.39066 25.0648 9.32618 24.9351 9.26151 24.8218C8.46999 23.3485 7.84014 21.8264 7.41999 20.337C7.00002 18.8475 6.78995 17.4064 6.80621 16.0627C6.82228 15.1722 6.95162 14.2818 7.2101 13.4722C7.46858 12.6466 7.84014 11.8855 8.35692 11.2218C8.79314 10.639 9.34225 10.1209 10.0046 9.69995C10.6668 9.27902 11.4423 8.95514 12.3308 8.74477C12.8315 8.63143 13.3161 8.55051 13.8007 8.5181C14.2854 8.48569 14.7537 8.50199 15.2221 8.5505C15.6907 8.59902 16.1751 8.71254 16.6437 8.8581C17.1122 9.00365 17.5967 9.1981 18.0813 9.42476C18.5659 9.66773 19.0182 9.92662 19.4219 10.2018C19.8258 10.477 20.1811 10.7846 20.5043 11.1085C20.8112 11.4324 21.0857 11.7885 21.3121 12.1933C21.5543 12.5981 21.7481 13.0514 21.9098 13.5533C21.9744 13.7314 22.0228 13.9257 22.0712 14.1038C22.1196 14.282 22.152 14.4762 22.2006 14.6544C22.2329 14.8325 22.2652 15.0105 22.2813 15.205C22.2974 15.3831 22.3136 15.5611 22.3297 15.7392C22.3458 16.2087 22.3136 16.6459 22.2329 17.0829C22.1522 17.4875 22.0068 17.9085 21.829 18.297ZM10.861 16.1275C9.81099 15.8524 8.89014 16.7751 9.16488 17.8275C9.27795 18.2809 9.64951 18.6531 10.1179 18.7827C11.1679 19.0579 12.0887 18.1351 11.814 17.0827C11.6848 16.6296 11.3131 16.257 10.861 16.1275Z" fill="#F8714A"/>
</svg>
