<svg width="194" height="271" viewBox="0 0 194 271" fill="none" xmlns="http://www.w3.org/2000/svg">
<rect x="45.2883" y="42.8103" width="120" height="159" rx="16" transform="rotate(6.40772 45.2883 42.8103)" fill="#2D4532"/>
<path fill-rule="evenodd" clip-rule="evenodd" d="M143.116 3.32539C142.769 3.66061 142.189 4.01603 141.478 4.39559C141.046 4.62606 140.551 4.62363 140.139 4.4321C135.762 7.20054 131.894 11.2235 128.294 15.6773C125.984 18.5349 123.853 21.4766 121.772 24.3498C120.49 26.1206 119.226 27.8654 117.951 29.5483C94.5783 60.3955 74.5302 93.1483 54.3428 126.129C51.9374 130.058 49.5299 133.992 47.1147 137.925C42.4386 145.54 37.2987 152.879 32.1549 160.118C32.0643 160.245 31.8356 160.531 31.5539 160.883C31.3685 161.115 31.1601 161.375 30.9531 161.638C30.4159 162.32 29.7949 163.131 29.2673 163.898C48.7744 157.636 64.3776 140.859 77.921 125.823C83.8166 119.278 89.4936 112.437 95.2265 105.529C99.3891 100.513 103.581 95.4611 107.908 90.4614C118.128 78.651 128.954 67.3126 141.434 58.0922C142.136 57.5741 147.806 54.0464 153.309 51.2503C156.057 49.8545 158.872 48.5837 161.06 47.9734C162.119 47.6781 163.233 47.4765 164.173 47.6271C164.668 47.7063 165.236 47.9021 165.698 48.3542C166.183 48.8296 166.396 49.4373 166.427 50.0371C166.626 53.8067 165.147 56.4091 163.079 59.0857C157.539 66.2556 151.495 73.1026 145.498 79.896C142.623 83.1528 139.759 86.3972 136.967 89.659C101.584 130.99 69.4132 175.48 37.4829 219.638C36.6226 220.828 35.7624 222.017 34.9024 223.207C32.3767 226.699 29.8384 230.179 27.3014 233.658C21.2706 241.927 15.2473 250.185 9.41895 258.573C9.41957 258.572 9.41456 258.579 9.40427 258.595C9.23412 258.854 7.61994 261.312 6.14188 263.801C5.82605 264.333 5.52099 264.859 5.2403 265.359C5.49169 265.135 5.75446 264.89 6.02783 264.626C7.90408 262.812 10.0917 260.264 12.2394 257.586C14.3798 254.916 16.4487 252.158 18.086 249.943C18.5511 249.313 18.9875 248.719 19.3832 248.181C20.3486 246.867 21.0722 245.882 21.381 245.517C38.5026 225.269 55.9957 205.322 73.5314 185.452C103.1 151.947 134.039 120.573 167.613 91.0882C168.264 90.5159 173.894 85.901 179.379 81.571C182.127 79.4021 184.861 77.2865 186.937 75.7715C187.969 75.018 188.867 74.3919 189.532 73.9805C189.853 73.7825 190.183 73.594 190.473 73.4733C190.597 73.4218 190.848 73.324 191.146 73.3023C191.298 73.2912 191.59 73.289 191.913 73.4295C192.295 73.595 192.613 73.915 192.763 74.3432C193.278 75.813 193.055 77.5013 192.616 79.0451C192.165 80.6313 191.415 82.3088 190.6 83.8894C189.782 85.4778 188.872 87.0201 188.079 88.3354C187.901 88.6299 187.731 88.9101 187.571 89.1754C186.995 90.125 186.535 90.8847 186.246 91.4317C179.057 105.061 171.971 118.629 165.44 132.55C160.648 142.763 156.04 153.123 151.423 163.502C146.85 173.783 142.269 184.082 137.495 194.271C138.935 192.444 140.499 190.671 142.254 188.915C142.84 188.33 143.79 188.33 144.375 188.915C144.961 189.501 144.961 190.451 144.375 191.037C139.741 195.672 136.489 200.459 133.174 206.26C132.077 208.18 130.029 211.563 128.847 213.269C128.567 213.672 128.272 214.077 128.026 214.331C127.963 214.397 127.854 214.505 127.711 214.604C127.641 214.653 127.516 214.733 127.347 214.797C127.191 214.856 126.866 214.95 126.465 214.861C125.998 214.757 125.66 214.457 125.472 214.128C125.312 213.849 125.28 213.589 125.27 213.462C125.252 213.208 125.298 212.994 125.318 212.905C125.403 212.529 125.629 211.984 125.915 211.351C126.224 210.667 126.672 209.737 127.281 208.518C134.866 193.348 141.74 177.892 148.628 162.403C153.247 152.016 157.873 141.615 162.724 131.276C169.288 117.285 176.404 103.662 183.593 90.0321C183.927 89.3981 184.454 88.5292 185.039 87.564C185.193 87.3107 185.35 87.0507 185.51 86.7866C186.295 85.4833 187.163 84.011 187.934 82.5153C188.708 81.0118 189.358 79.5357 189.73 78.2252C189.824 77.8948 189.896 77.5882 189.949 77.3051C189.578 77.564 189.161 77.8619 188.705 78.1946C186.677 79.6752 183.979 81.7623 181.238 83.9257C175.746 88.2604 170.177 92.8293 169.592 93.3424C136.126 122.733 105.276 154.014 75.7807 187.437C58.2474 207.304 40.7718 227.231 23.6718 247.454C23.4327 247.737 22.8273 248.561 21.9334 249.777C21.5155 250.346 21.0346 251.001 20.4985 251.726C18.8534 253.952 16.7571 256.747 14.5799 259.462C12.4102 262.169 10.128 264.835 8.1127 266.783C7.10954 267.752 6.12496 268.591 5.21784 269.166C4.40219 269.684 3.2817 270.233 2.15132 269.991C1.80772 269.917 1.47523 269.734 1.22359 269.433C0.989061 269.154 0.892333 268.854 0.851438 268.637C0.77641 268.238 0.843199 267.868 0.892341 267.652C1.00059 267.176 1.22738 266.625 1.47385 266.095C1.98332 265.002 2.76668 263.609 3.56236 262.269C5.15843 259.581 6.91759 256.915 6.95538 256.861C12.8042 248.444 18.86 240.141 24.8997 231.86C27.4319 228.388 29.9613 224.92 32.4715 221.449C33.3408 220.247 34.2103 219.044 35.0801 217.841C66.9895 173.712 99.2234 129.134 134.688 87.708C137.544 84.3711 140.442 81.0884 143.334 77.8133C149.293 71.0629 155.224 64.3449 160.705 57.2513C162.508 54.9189 163.48 53.0916 163.444 50.5756C163.121 50.5816 162.604 50.6571 161.866 50.8631C159.982 51.3886 157.389 52.5427 154.668 53.9249C149.236 56.6851 143.729 60.1267 143.217 60.5051C131.002 69.5299 120.346 80.6732 110.176 92.4245C105.949 97.3093 101.78 102.332 97.6167 107.347C91.8291 114.319 86.0534 121.277 80.1501 127.831C66.2471 143.266 49.4669 161.426 28.0149 167.405C27.7426 167.481 27.4262 167.542 27.096 167.532C26.7639 167.523 26.3086 167.437 25.9041 167.106C25.0356 166.394 25.2305 165.348 25.3102 165.017C25.4217 164.555 25.6458 164.084 25.87 163.674C26.1053 163.244 26.3938 162.789 26.6967 162.342C27.303 161.449 28.0162 160.518 28.5966 159.782C28.8539 159.455 29.0891 159.161 29.2788 158.925L29.3518 158.834C29.4533 158.707 29.5367 158.603 29.6018 158.52C29.6148 158.503 29.6268 158.488 29.6377 158.474C29.6539 158.453 29.6679 158.435 29.6797 158.42L29.7023 158.39C29.7063 158.385 29.7085 158.382 29.7092 158.381L29.7093 158.38C34.8515 151.143 39.9396 143.877 44.5581 136.355C46.9721 132.424 49.3796 128.491 51.7864 124.559C71.9633 91.5945 92.0914 58.7102 115.56 27.7366C116.751 26.1641 117.983 24.4641 119.255 22.7097C121.381 19.7757 123.618 16.6892 125.961 13.7913C129.74 9.11633 133.974 4.68844 138.928 1.65188C139.475 1.3169 140.034 1.04813 140.524 0.85763C140.959 0.688397 141.502 0.515817 141.967 0.501132C142.09 0.497255 142.322 0.498901 142.582 0.580852C142.835 0.660699 143.386 0.913313 143.609 1.58133C143.814 2.19758 143.574 2.69629 143.474 2.87384C143.354 3.08342 143.209 3.23569 143.116 3.32539ZM163.432 50.1942L163.432 50.1948ZM3.81118 268.352C3.81089 268.352 3.81154 268.347 3.81396 268.335C3.81267 268.346 3.81146 268.352 3.81118 268.352ZM28.2192 165.76C28.2184 165.76 28.2198 165.749 28.226 165.723C28.2232 165.746 28.2201 165.759 28.2192 165.76Z" fill="#65836D"/>
<path d="M123.977 170.81L126.211 161.182L120.808 143.998H129.705L131.37 150.132L132.386 154.885L135.149 150.132L139.17 143.998H149.042L135.514 161.832L133.442 170.81H123.977Z" fill="#F3F471"/>
<path d="M107.949 163.863H120.502L118.877 170.81H96.858L103.074 143.998H112.539L107.949 163.863Z" fill="#F3F471"/>
<path d="M99.0108 143.998L92.7952 170.81H83.3296L89.5452 143.998H99.0108Z" fill="#F3F471"/>
<path d="M52.8831 170.81L67.8737 143.998H79.2487L81.6862 170.81H72.7893L72.6674 165.448H65.1924L62.5518 170.81H52.8831ZM68.1174 159.557H72.5049L72.3831 150.62L68.1174 159.557Z" fill="#F3F471"/>
<path d="M26.7561 170.81L32.9717 143.998H43.5749C46.2832 143.998 48.5311 144.458 50.3186 145.379C52.1061 146.273 53.4467 147.546 54.3405 149.198C55.2342 150.823 55.6811 152.746 55.6811 154.967C55.6811 157.377 55.3561 159.557 54.7061 161.507C54.0561 163.457 53.0811 165.123 51.7811 166.504C50.5082 167.885 48.9509 168.955 47.1092 169.713C45.2676 170.445 43.1415 170.81 40.7311 170.81H26.7561ZM37.8061 164.067H40.0405C41.1509 164.067 42.0988 163.782 42.8842 163.213C43.6967 162.645 44.3467 161.9 44.8342 160.979C45.3217 160.058 45.6738 159.056 45.8905 157.973C46.1342 156.862 46.2561 155.779 46.2561 154.723C46.2561 153.856 46.1207 153.125 45.8499 152.529C45.579 151.933 45.1728 151.486 44.6311 151.188C44.0894 150.891 43.3988 150.742 42.5592 150.742H40.853L37.8061 164.067Z" fill="#F3F471"/>
<path d="M116.417 141.81L122.632 114.998H133.235C135.944 114.998 138.192 115.458 139.979 116.379C141.767 117.273 143.107 118.546 144.001 120.198C144.895 121.823 145.342 123.746 145.342 125.967C145.342 128.377 145.017 130.557 144.367 132.507C143.717 134.457 142.742 136.123 141.442 137.504C140.169 138.885 138.612 139.955 136.77 140.713C134.928 141.445 132.802 141.81 130.392 141.81H116.417ZM127.467 135.067H129.701C130.812 135.067 131.759 134.782 132.545 134.213C133.357 133.645 134.007 132.9 134.495 131.979C134.982 131.058 135.334 130.056 135.551 128.973C135.795 127.862 135.917 126.779 135.917 125.723C135.917 124.856 135.781 124.125 135.51 123.529C135.24 122.933 134.833 122.486 134.292 122.188C133.75 121.891 133.059 121.742 132.22 121.742H130.514L127.467 135.067Z" fill="#F3F471"/>
<path d="M90.9865 141.81L97.2021 114.998H119.708L118.083 121.945H105.043L104.271 125.276H114.59L113.127 131.695H102.808L102.077 134.863H115.361L113.736 141.81H90.9865Z" fill="#F3F471"/>
<path d="M94.3767 114.998L92.7517 121.945H84.3829L79.7923 141.81H70.3267L74.9173 121.945H66.5079L68.1329 114.998H94.3767Z" fill="#F3F471"/>
<path d="M36.2601 141.81L51.2508 114.998H62.6258L65.0633 141.81H56.1664L56.0445 136.448H48.5695L45.9289 141.81H36.2601ZM51.4945 130.557H55.882L55.7601 121.62L51.4945 130.557Z" fill="#F3F471"/>
<path d="M116.417 112.81L122.632 85.9978H133.235C135.944 85.9978 138.192 86.4582 139.979 87.3791C141.767 88.2728 143.107 89.5457 144.001 91.1978C144.895 92.8228 145.342 94.7457 145.342 96.9666C145.342 99.377 145.017 101.557 144.367 103.507C143.717 105.457 142.742 107.123 141.442 108.504C140.169 109.885 138.612 110.955 136.77 111.713C134.928 112.445 132.802 112.81 130.392 112.81H116.417ZM127.467 106.067H129.701C130.812 106.067 131.759 105.782 132.545 105.213C133.357 104.645 134.007 103.9 134.495 102.979C134.982 102.058 135.334 101.056 135.551 99.9728C135.795 98.8624 135.917 97.7791 135.917 96.7228C135.917 95.8561 135.781 95.1249 135.51 94.5291C135.24 93.9332 134.833 93.4863 134.292 93.1884C133.75 92.8905 133.059 92.7416 132.22 92.7416H130.514L127.467 106.067Z" fill="#F3F471"/>
<path d="M87.9713 112.81L94.1869 85.9978H105.765C109.313 85.9978 112.075 86.7426 114.053 88.2322C116.057 89.6947 117.059 91.7936 117.059 94.5291C117.059 96.5874 116.571 98.4155 115.596 100.013C114.621 101.584 113.213 102.817 111.371 103.71C109.557 104.604 107.363 105.051 104.79 105.051H94.7151L96.2182 98.3478H103.978C104.79 98.3478 105.467 98.2124 106.009 97.9416C106.578 97.6436 107.011 97.2645 107.309 96.8041C107.607 96.3166 107.756 95.7884 107.756 95.2197C107.756 94.4343 107.525 93.8249 107.065 93.3916C106.605 92.9311 105.792 92.7009 104.628 92.7009H102.068L97.4369 112.81H87.9713Z" fill="#F3F471"/>
<path d="M72.9019 113.217C70.004 113.217 67.58 112.716 65.63 111.713C63.7071 110.711 62.353 109.276 61.5675 107.407C60.8092 105.538 60.728 103.318 61.3238 100.745L64.7769 85.9978H74.2832L70.6675 101.842C70.478 102.735 70.478 103.507 70.6675 104.157C70.8571 104.78 71.2092 105.268 71.7238 105.62C72.2655 105.945 72.9425 106.107 73.755 106.107C74.7842 106.107 75.5832 105.809 76.1519 105.213C76.7207 104.618 77.154 103.643 77.4519 102.288L81.23 85.9978H90.6957L86.9582 102.004C86.0373 105.877 84.48 108.721 82.2863 110.535C80.0925 112.323 76.9644 113.217 72.9019 113.217Z" fill="#F3F471"/>
</svg>
